<svg width="315" height="132" viewBox="0 0 315 132" fill="none" xmlns="http://www.w3.org/2000/svg">
<path d="M32.9295 21.648H24.1295V9.24H32.9295V21.648ZM32.9295 85.8H24.1295V73.216H32.9295V85.8ZM29.2335 77.88C23.4255 77.88 18.5268 77.0587 14.5375 75.416C10.6068 73.7733 7.64414 71.456 5.64947 68.464C3.6548 65.4133 2.65747 61.8347 2.65747 57.728V57.2H12.1615V58.608C12.1615 60.9547 12.6895 62.92 13.7455 64.504C14.8015 66.0293 16.5615 67.2027 19.0255 68.024C21.4895 68.7867 24.8921 69.168 29.2335 69.168C32.9881 69.168 35.9801 68.904 38.2095 68.376C40.4388 67.7893 42.0228 66.9093 42.9615 65.736C43.9588 64.504 44.4575 62.9787 44.4575 61.16C44.4575 58.5787 43.6361 56.7013 41.9935 55.528C40.3508 54.3547 37.6815 53.416 33.9855 52.712L19.5535 50.336C16.2681 49.6907 13.3348 48.752 10.7535 47.52C8.17214 46.2293 6.14814 44.528 4.68147 42.416C3.27347 40.2453 2.56947 37.5467 2.56947 34.32C2.56947 32.208 3.0388 30.1253 3.97747 28.072C4.91614 26.0187 6.3828 24.1707 8.37747 22.528C10.3721 20.8853 12.9535 19.5947 16.1215 18.656C19.3481 17.6587 23.2788 17.16 27.9135 17.16C33.6628 17.16 38.3855 18.04 42.0815 19.8C45.7775 21.56 48.5055 23.9653 50.2655 27.016C52.0841 30.008 52.9935 33.44 52.9935 37.312V37.84H43.5775V36.696C43.5775 34.2907 43.0495 32.296 41.9935 30.712C40.9375 29.0693 39.2068 27.8667 36.8015 27.104C34.3961 26.2827 31.1401 25.872 27.0335 25.872C23.4548 25.872 20.5508 26.1653 18.3215 26.752C16.1508 27.3387 14.5668 28.2187 13.5695 29.392C12.5721 30.5067 12.0735 31.9733 12.0735 33.792C12.0735 35.4347 12.4255 36.784 13.1295 37.84C13.8335 38.896 14.9188 39.7467 16.3855 40.392C17.8521 40.9787 19.7295 41.536 22.0175 42.064L36.3615 44.528C40.2921 45.232 43.5481 46.288 46.1295 47.696C48.7695 49.104 50.7348 50.8933 52.0255 53.064C53.3161 55.2347 53.9615 57.7573 53.9615 60.632C53.9615 63.624 53.1108 66.44 51.4095 69.08C49.7081 71.72 47.0388 73.8613 43.4015 75.504C39.7641 77.088 35.0415 77.88 29.2335 77.88ZM115.269 65.032H58.0686V58.432L94.1486 18.04H102.157L96.7006 29.128H95.0286L71.1806 55.792V56.496H115.269V65.032ZM105.149 77H95.7326V18.04H105.149V77ZM148.042 77.88C142.117 77.88 137.042 76.648 132.818 74.184C128.594 71.72 125.338 68.2293 123.05 63.712C120.821 59.136 119.706 53.7387 119.706 47.52C119.706 41.2427 120.821 35.8453 123.05 31.328C125.338 26.8107 128.594 23.32 132.818 20.856C137.042 18.392 142.117 17.16 148.042 17.16C153.968 17.16 159.042 18.392 163.266 20.856C167.49 23.32 170.717 26.8107 172.946 31.328C175.234 35.8453 176.378 41.2427 176.378 47.52C176.378 53.7387 175.234 59.136 172.946 63.712C170.717 68.2293 167.49 71.72 163.266 74.184C159.042 76.648 153.968 77.88 148.042 77.88ZM148.042 68.728C152.208 68.728 155.64 67.9947 158.338 66.528C161.096 65.0613 163.09 62.7733 164.322 59.664C165.613 56.496 166.258 52.448 166.258 47.52C166.258 42.592 165.613 38.5733 164.322 35.464C163.09 32.296 161.096 29.9787 158.338 28.512C155.64 27.0453 152.208 26.312 148.042 26.312C143.877 26.312 140.445 27.0453 137.746 28.512C135.048 29.9787 133.024 32.296 131.674 35.464C130.384 38.5733 129.738 42.592 129.738 47.52C129.738 52.448 130.384 56.496 131.674 59.664C133.024 62.7733 135.048 65.0613 137.746 66.528C140.445 67.9947 143.877 68.728 148.042 68.728ZM210.003 77.88C204.078 77.88 199.003 76.648 194.779 74.184C190.555 71.72 187.299 68.2293 185.011 63.712C182.782 59.136 181.667 53.7387 181.667 47.52C181.667 41.2427 182.782 35.8453 185.011 31.328C187.299 26.8107 190.555 23.32 194.779 20.856C199.003 18.392 204.078 17.16 210.003 17.16C215.929 17.16 221.003 18.392 225.227 20.856C229.451 23.32 232.678 26.8107 234.907 31.328C237.195 35.8453 238.339 41.2427 238.339 47.52C238.339 53.7387 237.195 59.136 234.907 63.712C232.678 68.2293 229.451 71.72 225.227 74.184C221.003 76.648 215.929 77.88 210.003 77.88ZM210.003 68.728C214.169 68.728 217.601 67.9947 220.299 66.528C223.057 65.0613 225.051 62.7733 226.283 59.664C227.574 56.496 228.219 52.448 228.219 47.52C228.219 42.592 227.574 38.5733 226.283 35.464C225.051 32.296 223.057 29.9787 220.299 28.512C217.601 27.0453 214.169 26.312 210.003 26.312C205.838 26.312 202.406 27.0453 199.707 28.512C197.009 29.9787 194.985 32.296 193.635 35.464C192.345 38.5733 191.699 42.592 191.699 47.52C191.699 52.448 192.345 56.496 193.635 59.664C194.985 62.7733 197.009 65.0613 199.707 66.528C202.406 67.9947 205.838 68.728 210.003 68.728ZM294.219 77H259.987V18.04H292.987C296.801 18.04 300.027 18.5973 302.667 19.712C305.366 20.8267 307.419 22.4693 308.827 24.64C310.294 26.8107 311.027 29.4507 311.027 32.56C311.027 36.0213 310.001 38.9547 307.947 41.36C305.953 43.7653 302.697 45.232 298.179 45.76V46.376C303.225 46.9627 306.979 48.5467 309.443 51.128C311.907 53.6507 313.139 56.848 313.139 60.72C313.139 64.064 312.406 66.968 310.939 69.432C309.473 71.896 307.331 73.7733 304.515 75.064C301.699 76.3547 298.267 77 294.219 77ZM269.403 50.6V68.464H293.163C296.683 68.464 299.294 67.76 300.995 66.352C302.755 64.8853 303.635 62.568 303.635 59.4C303.635 56.2907 302.755 54.0613 300.995 52.712C299.294 51.304 296.683 50.6 293.163 50.6H269.403ZM269.403 26.576V42.768H291.667C295.011 42.768 297.505 42.1227 299.147 40.832C300.79 39.4827 301.611 37.4293 301.611 34.672C301.611 31.9147 300.819 29.8907 299.235 28.6C297.651 27.2507 295.217 26.576 291.931 26.576H269.403Z" fill="white"/>
<path d="M92.258 113.315V111.909H102.076V113.315H97.9597V125H96.3745V113.315H92.258ZM103.299 125V115.182H104.756V116.665H104.858C105.037 116.179 105.361 115.785 105.83 115.482C106.299 115.18 106.827 115.028 107.415 115.028C107.526 115.028 107.664 115.031 107.831 115.035C107.997 115.039 108.123 115.045 108.208 115.054V116.588C108.157 116.575 108.039 116.556 107.856 116.531C107.677 116.501 107.488 116.486 107.287 116.486C106.81 116.486 106.384 116.586 106.009 116.786C105.638 116.982 105.344 117.255 105.127 117.604C104.914 117.95 104.807 118.344 104.807 118.787V125H103.299ZM112.885 125.23C112.263 125.23 111.698 125.113 111.191 124.879C110.684 124.64 110.281 124.297 109.983 123.849C109.685 123.398 109.536 122.852 109.536 122.213C109.536 121.651 109.646 121.195 109.868 120.845C110.09 120.491 110.386 120.214 110.757 120.014C111.127 119.814 111.536 119.665 111.984 119.567C112.436 119.464 112.889 119.384 113.345 119.324C113.942 119.247 114.426 119.19 114.796 119.151C115.171 119.109 115.444 119.038 115.615 118.94C115.789 118.842 115.877 118.672 115.877 118.429V118.378C115.877 117.747 115.704 117.257 115.359 116.908C115.018 116.558 114.5 116.384 113.806 116.384C113.085 116.384 112.521 116.541 112.112 116.857C111.703 117.172 111.415 117.509 111.249 117.866L109.817 117.355C110.073 116.759 110.414 116.294 110.84 115.962C111.27 115.625 111.739 115.391 112.246 115.259C112.757 115.122 113.26 115.054 113.754 115.054C114.07 115.054 114.432 115.092 114.841 115.169C115.254 115.241 115.653 115.393 116.036 115.623C116.424 115.853 116.746 116.2 117.002 116.665C117.257 117.129 117.385 117.751 117.385 118.531V125H115.877V123.67H115.8C115.698 123.884 115.527 124.112 115.289 124.354C115.05 124.597 114.732 124.804 114.336 124.974C113.94 125.145 113.456 125.23 112.885 125.23ZM113.115 123.875C113.712 123.875 114.215 123.758 114.624 123.523C115.037 123.289 115.348 122.987 115.557 122.616C115.77 122.245 115.877 121.855 115.877 121.446V120.065C115.813 120.142 115.672 120.212 115.455 120.276C115.242 120.336 114.994 120.389 114.713 120.436C114.436 120.479 114.166 120.517 113.901 120.551C113.642 120.581 113.431 120.607 113.269 120.628C112.877 120.679 112.51 120.762 112.169 120.877C111.833 120.988 111.56 121.156 111.351 121.382C111.146 121.604 111.044 121.906 111.044 122.29C111.044 122.814 111.238 123.21 111.626 123.479C112.018 123.743 112.514 123.875 113.115 123.875ZM123.846 125.205C123.028 125.205 122.305 124.998 121.679 124.585C121.053 124.167 120.563 123.579 120.209 122.82C119.855 122.058 119.678 121.156 119.678 120.116C119.678 119.085 119.855 118.19 120.209 117.432C120.563 116.673 121.055 116.087 121.685 115.674C122.316 115.261 123.045 115.054 123.871 115.054C124.511 115.054 125.016 115.161 125.386 115.374C125.761 115.582 126.047 115.821 126.243 116.089C126.443 116.354 126.599 116.571 126.71 116.741H126.837V111.909H128.346V125H126.888V123.491H126.71C126.599 123.67 126.441 123.896 126.237 124.169C126.032 124.437 125.74 124.678 125.361 124.891C124.982 125.1 124.477 125.205 123.846 125.205ZM124.05 123.849C124.656 123.849 125.167 123.692 125.585 123.376C126.002 123.057 126.32 122.616 126.537 122.053C126.754 121.487 126.863 120.832 126.863 120.091C126.863 119.358 126.756 118.717 126.543 118.167C126.33 117.613 126.015 117.183 125.597 116.876C125.18 116.565 124.664 116.409 124.05 116.409C123.411 116.409 122.879 116.573 122.452 116.901C122.031 117.225 121.713 117.666 121.5 118.224C121.291 118.778 121.187 119.401 121.187 120.091C121.187 120.79 121.293 121.425 121.506 121.996C121.724 122.562 122.043 123.014 122.465 123.351C122.891 123.683 123.42 123.849 124.05 123.849ZM131.318 125V115.182H132.827V125H131.318ZM132.085 113.545C131.791 113.545 131.538 113.445 131.325 113.245C131.116 113.045 131.011 112.804 131.011 112.523C131.011 112.241 131.116 112.001 131.325 111.8C131.538 111.6 131.791 111.5 132.085 111.5C132.379 111.5 132.631 111.6 132.839 111.8C133.053 112.001 133.159 112.241 133.159 112.523C133.159 112.804 133.053 113.045 132.839 113.245C132.631 113.445 132.379 113.545 132.085 113.545ZM137.098 119.094V125H135.59V115.182H137.047V116.716H137.175C137.405 116.217 137.754 115.817 138.223 115.514C138.692 115.207 139.297 115.054 140.039 115.054C140.703 115.054 141.285 115.19 141.784 115.463C142.282 115.732 142.67 116.141 142.947 116.69C143.224 117.236 143.362 117.926 143.362 118.761V125H141.854V118.864C141.854 118.092 141.654 117.491 141.253 117.061C140.852 116.626 140.303 116.409 139.604 116.409C139.122 116.409 138.692 116.513 138.313 116.722C137.938 116.931 137.642 117.236 137.424 117.636C137.207 118.037 137.098 118.523 137.098 119.094ZM150.082 128.886C149.353 128.886 148.727 128.793 148.203 128.605C147.679 128.422 147.242 128.179 146.892 127.876C146.547 127.578 146.272 127.259 146.068 126.918L147.27 126.074C147.406 126.253 147.578 126.457 147.787 126.688C147.996 126.922 148.282 127.124 148.644 127.295C149.01 127.469 149.49 127.557 150.082 127.557C150.875 127.557 151.529 127.365 152.044 126.982C152.56 126.598 152.818 125.997 152.818 125.179V123.185H152.69C152.579 123.364 152.422 123.585 152.217 123.849C152.017 124.109 151.727 124.342 151.348 124.546C150.973 124.746 150.466 124.847 149.826 124.847C149.034 124.847 148.322 124.659 147.691 124.284C147.065 123.909 146.569 123.364 146.202 122.648C145.84 121.932 145.659 121.062 145.659 120.04C145.659 119.034 145.836 118.158 146.189 117.413C146.543 116.663 147.035 116.083 147.666 115.674C148.297 115.261 149.025 115.054 149.852 115.054C150.491 115.054 150.998 115.161 151.373 115.374C151.752 115.582 152.042 115.821 152.243 116.089C152.447 116.354 152.605 116.571 152.716 116.741H152.869V115.182H154.326V125.281C154.326 126.125 154.135 126.811 153.751 127.339C153.372 127.872 152.86 128.262 152.217 128.509C151.578 128.761 150.866 128.886 150.082 128.886ZM150.031 123.491C150.636 123.491 151.147 123.353 151.565 123.076C151.983 122.799 152.3 122.401 152.517 121.881C152.735 121.361 152.843 120.739 152.843 120.014C152.843 119.307 152.737 118.683 152.524 118.141C152.311 117.6 151.995 117.176 151.578 116.869C151.16 116.562 150.645 116.409 150.031 116.409C149.392 116.409 148.859 116.571 148.433 116.895C148.011 117.219 147.694 117.653 147.48 118.199C147.272 118.744 147.167 119.349 147.167 120.014C147.167 120.696 147.274 121.299 147.487 121.823C147.704 122.343 148.024 122.752 148.446 123.05C148.872 123.344 149.4 123.491 150.031 123.491ZM162.892 111.909L166.778 122.929H166.931L170.818 111.909H172.48L167.673 125H166.037L161.23 111.909H162.892ZM177.389 125.205C176.502 125.205 175.725 124.994 175.056 124.572C174.391 124.15 173.871 123.56 173.496 122.801C173.125 122.043 172.94 121.156 172.94 120.142C172.94 119.119 173.125 118.227 173.496 117.464C173.871 116.701 174.391 116.109 175.056 115.687C175.725 115.265 176.502 115.054 177.389 115.054C178.275 115.054 179.051 115.265 179.716 115.687C180.385 116.109 180.904 116.701 181.275 117.464C181.65 118.227 181.838 119.119 181.838 120.142C181.838 121.156 181.65 122.043 181.275 122.801C180.904 123.56 180.385 124.15 179.716 124.572C179.051 124.994 178.275 125.205 177.389 125.205ZM177.389 123.849C178.062 123.849 178.616 123.677 179.051 123.332C179.485 122.987 179.807 122.533 180.016 121.97C180.225 121.408 180.329 120.798 180.329 120.142C180.329 119.486 180.225 118.874 180.016 118.308C179.807 117.741 179.485 117.283 179.051 116.933C178.616 116.584 178.062 116.409 177.389 116.409C176.716 116.409 176.162 116.584 175.727 116.933C175.292 117.283 174.971 117.741 174.762 118.308C174.553 118.874 174.449 119.486 174.449 120.142C174.449 120.798 174.553 121.408 174.762 121.97C174.971 122.533 175.292 122.987 175.727 123.332C176.162 123.677 176.716 123.849 177.389 123.849ZM185.649 111.909V125H184.14V111.909H185.649ZM194.599 120.986V115.182H196.108V125H194.599V123.338H194.497C194.267 123.837 193.909 124.261 193.423 124.61C192.938 124.955 192.324 125.128 191.582 125.128C190.969 125.128 190.423 124.994 189.946 124.725C189.469 124.452 189.094 124.043 188.821 123.498C188.548 122.948 188.412 122.256 188.412 121.42V115.182H189.92V121.318C189.92 122.034 190.121 122.605 190.521 123.031C190.926 123.457 191.442 123.67 192.068 123.67C192.443 123.67 192.825 123.575 193.212 123.383C193.604 123.191 193.933 122.897 194.197 122.501C194.465 122.104 194.599 121.599 194.599 120.986ZM198.871 125V115.182H200.328V116.716H200.456C200.661 116.192 200.991 115.785 201.447 115.495C201.903 115.201 202.45 115.054 203.09 115.054C203.737 115.054 204.276 115.201 204.707 115.495C205.142 115.785 205.48 116.192 205.723 116.716H205.825C206.077 116.209 206.454 115.806 206.957 115.508C207.46 115.205 208.063 115.054 208.766 115.054C209.644 115.054 210.362 115.329 210.92 115.879C211.478 116.424 211.757 117.274 211.757 118.429V125H210.249V118.429C210.249 117.705 210.051 117.187 209.654 116.876C209.258 116.565 208.791 116.409 208.254 116.409C207.564 116.409 207.029 116.618 206.65 117.036C206.271 117.449 206.081 117.973 206.081 118.608V125H204.547V118.276C204.547 117.717 204.366 117.268 204.004 116.927C203.642 116.582 203.175 116.409 202.604 116.409C202.212 116.409 201.845 116.513 201.504 116.722C201.168 116.931 200.895 117.221 200.686 117.592C200.482 117.958 200.379 118.382 200.379 118.864V125H198.871ZM218.632 125.205C217.686 125.205 216.87 124.996 216.184 124.578C215.502 124.156 214.976 123.568 214.605 122.814C214.238 122.055 214.055 121.173 214.055 120.168C214.055 119.162 214.238 118.276 214.605 117.509C214.976 116.737 215.491 116.136 216.152 115.706C216.817 115.271 217.592 115.054 218.479 115.054C218.99 115.054 219.495 115.139 219.993 115.31C220.492 115.48 220.946 115.757 221.355 116.141C221.764 116.52 222.09 117.023 222.333 117.649C222.576 118.276 222.697 119.047 222.697 119.963V120.602H215.129V119.298H221.163C221.163 118.744 221.052 118.25 220.831 117.815C220.613 117.381 220.302 117.038 219.898 116.786C219.497 116.535 219.024 116.409 218.479 116.409C217.878 116.409 217.358 116.558 216.919 116.857C216.484 117.151 216.15 117.534 215.915 118.007C215.681 118.48 215.564 118.987 215.564 119.528V120.398C215.564 121.139 215.692 121.768 215.947 122.283C216.207 122.795 216.567 123.185 217.028 123.453C217.488 123.717 218.023 123.849 218.632 123.849C219.028 123.849 219.386 123.794 219.706 123.683C220.03 123.568 220.309 123.398 220.543 123.172C220.778 122.942 220.959 122.656 221.086 122.315L222.544 122.724C222.39 123.219 222.133 123.653 221.77 124.028C221.408 124.399 220.961 124.689 220.428 124.898C219.895 125.102 219.297 125.205 218.632 125.205Z" fill="#898989"/>
</svg>
