<svg width="176" height="132" viewBox="0 0 176 132" fill="none" xmlns="http://www.w3.org/2000/svg">
<path d="M59.003 65.032H1.80297V58.432L37.883 18.04H45.891L40.435 29.128H38.763L14.915 55.792V56.496H59.003V65.032ZM48.883 77H39.467V18.04H48.883V77ZM90.0168 77.88C83.8568 77.88 78.8114 77.0293 74.8808 75.328C71.0088 73.6267 68.1341 71.28 66.2568 68.288C64.3794 65.2373 63.4408 61.7173 63.4408 57.728V56.32H73.4728V57.552C73.4728 60.1333 73.9128 62.2747 74.7928 63.976C75.6728 65.6187 77.2861 66.8507 79.6328 67.672C81.9794 68.4933 85.3234 68.904 89.6648 68.904C93.7128 68.904 96.9394 68.5813 99.3448 67.936C101.809 67.232 103.569 66.176 104.625 64.768C105.739 63.3013 106.297 61.424 106.297 59.136C106.297 56.144 105.299 53.944 103.305 52.536C101.369 51.128 98.5528 50.424 94.8568 50.424H78.4008V42.504H93.5368C97.1154 42.504 99.8141 41.8587 101.633 40.568C103.451 39.2187 104.361 37.224 104.361 34.584C104.361 32.7067 103.891 31.152 102.953 29.92C102.073 28.6293 100.547 27.6907 98.3768 27.104C96.2061 26.4587 93.2141 26.136 89.4008 26.136C85.4114 26.136 82.2434 26.5467 79.8968 27.368C77.5501 28.1893 75.8781 29.4507 74.8808 31.152C73.9421 32.7947 73.4728 34.9067 73.4728 37.488V38.104H63.4408V37.312C63.4408 33.44 64.4088 30.008 66.3448 27.016C68.2808 23.9653 71.2141 21.56 75.1448 19.8C79.0754 18.04 84.0914 17.16 90.1928 17.16C97.7608 17.16 103.569 18.5093 107.617 21.208C111.723 23.9067 113.777 27.7493 113.777 32.736C113.777 36.0213 112.809 38.808 110.873 41.096C108.937 43.3253 106.062 44.7627 102.249 45.408V46.112C106.531 46.8747 109.875 48.4587 112.281 50.864C114.686 53.2107 115.889 56.4373 115.889 60.544C115.889 66.1173 113.601 70.4 109.025 73.392C104.449 76.384 98.1128 77.88 90.0168 77.88ZM158.68 65.824H150.408V29.216H158.68V65.824ZM172.848 51.48H136.24V43.56H172.848V51.48Z" fill="white"/>
<path d="M43.4426 125V111.909H51.3432V113.315H45.0279V117.739H50.9341V119.145H45.0279V123.594H51.4455V125H43.4426ZM55.1209 115.182L57.4732 119.196L59.8255 115.182H61.5641L58.3936 120.091L61.5641 125H59.8255L57.4732 121.19L55.1209 125H53.3823L56.5016 120.091L53.3823 115.182H55.1209ZM67.301 125.205C66.3805 125.205 65.5879 124.987 64.9231 124.553C64.2583 124.118 63.747 123.519 63.389 122.756C63.0311 121.994 62.8521 121.122 62.8521 120.142C62.8521 119.145 63.0353 118.265 63.4018 117.502C63.7725 116.735 64.2882 116.136 64.9487 115.706C65.6135 115.271 66.389 115.054 67.2754 115.054C67.9657 115.054 68.5879 115.182 69.1419 115.438C69.6958 115.693 70.1497 116.051 70.5034 116.511C70.8571 116.972 71.0765 117.509 71.1618 118.122H69.6532C69.5382 117.675 69.2825 117.278 68.8862 116.933C68.4941 116.584 67.9657 116.409 67.301 116.409C66.7129 116.409 66.1973 116.562 65.7541 116.869C65.3152 117.172 64.9721 117.6 64.725 118.154C64.4821 118.704 64.3606 119.349 64.3606 120.091C64.3606 120.849 64.4799 121.51 64.7186 122.072C64.9615 122.635 65.3024 123.072 65.7413 123.383C66.1845 123.694 66.7044 123.849 67.301 123.849C67.693 123.849 68.0488 123.781 68.3684 123.645C68.688 123.509 68.9586 123.312 69.1802 123.057C69.4018 122.801 69.5595 122.494 69.6532 122.136H71.1618C71.0765 122.716 70.8656 123.238 70.5289 123.702C70.1966 124.163 69.7555 124.529 69.2058 124.802C68.6603 125.07 68.0254 125.205 67.301 125.205ZM74.8755 119.094V125H73.367V111.909H74.8755V116.716H75.0034C75.2335 116.209 75.5787 115.806 76.0389 115.508C76.5034 115.205 77.1213 115.054 77.8926 115.054C78.5616 115.054 79.1475 115.188 79.6504 115.457C80.1532 115.721 80.5431 116.128 80.8201 116.678C81.1014 117.223 81.242 117.918 81.242 118.761V125H79.7335V118.864C79.7335 118.084 79.5311 117.481 79.1262 117.055C78.7257 116.624 78.1696 116.409 77.4579 116.409C76.9636 116.409 76.5204 116.513 76.1284 116.722C75.7406 116.931 75.4338 117.236 75.2079 117.636C74.9863 118.037 74.8755 118.523 74.8755 119.094ZM86.891 125.23C86.2688 125.23 85.7042 125.113 85.1971 124.879C84.69 124.64 84.2873 124.297 83.989 123.849C83.6907 123.398 83.5415 122.852 83.5415 122.213C83.5415 121.651 83.6523 121.195 83.8739 120.845C84.0955 120.491 84.3917 120.214 84.7624 120.014C85.1332 119.814 85.5423 119.665 85.9897 119.567C86.4414 119.464 86.8952 119.384 87.3512 119.324C87.9478 119.247 88.4315 119.19 88.8022 119.151C89.1772 119.109 89.4499 119.038 89.6204 118.94C89.7951 118.842 89.8825 118.672 89.8825 118.429V118.378C89.8825 117.747 89.7099 117.257 89.3647 116.908C89.0238 116.558 88.506 116.384 87.8114 116.384C87.0913 116.384 86.5266 116.541 86.1175 116.857C85.7085 117.172 85.4208 117.509 85.2546 117.866L83.8228 117.355C84.0785 116.759 84.4194 116.294 84.8455 115.962C85.2759 115.625 85.7447 115.391 86.2518 115.259C86.7631 115.122 87.266 115.054 87.7603 115.054C88.0756 115.054 88.4379 115.092 88.8469 115.169C89.2603 115.241 89.6587 115.393 90.0423 115.623C90.43 115.853 90.7518 116.2 91.0075 116.665C91.2631 117.129 91.391 117.751 91.391 118.531V125H89.8825V123.67H89.8058C89.7035 123.884 89.533 124.112 89.2944 124.354C89.0558 124.597 88.7383 124.804 88.342 124.974C87.9457 125.145 87.462 125.23 86.891 125.23ZM87.1211 123.875C87.7177 123.875 88.2205 123.758 88.6296 123.523C89.043 123.289 89.354 122.987 89.5629 122.616C89.7759 122.245 89.8825 121.855 89.8825 121.446V120.065C89.8185 120.142 89.6779 120.212 89.4606 120.276C89.2475 120.336 89.0004 120.389 88.7191 120.436C88.4421 120.479 88.1715 120.517 87.9073 120.551C87.6474 120.581 87.4364 120.607 87.2745 120.628C86.8825 120.679 86.516 120.762 86.1751 120.877C85.8384 120.988 85.5657 121.156 85.3569 121.382C85.1523 121.604 85.0501 121.906 85.0501 122.29C85.0501 122.814 85.244 123.21 85.6317 123.479C86.0238 123.743 86.5202 123.875 87.1211 123.875ZM95.6529 119.094V125H94.1444V115.182H95.6017V116.716H95.7296C95.9597 116.217 96.3091 115.817 96.7779 115.514C97.2466 115.207 97.8517 115.054 98.5932 115.054C99.258 115.054 99.8397 115.19 100.338 115.463C100.837 115.732 101.225 116.141 101.502 116.69C101.779 117.236 101.917 117.926 101.917 118.761V125H100.409V118.864C100.409 118.092 100.208 117.491 99.8077 117.061C99.4071 116.626 98.8574 116.409 98.1586 116.409C97.677 116.409 97.2466 116.513 96.8674 116.722C96.4924 116.931 96.1962 117.236 95.9789 117.636C95.7615 118.037 95.6529 118.523 95.6529 119.094ZM108.637 128.886C107.908 128.886 107.282 128.793 106.757 128.605C106.233 128.422 105.797 128.179 105.447 127.876C105.102 127.578 104.827 127.259 104.623 126.918L105.824 126.074C105.961 126.253 106.133 126.457 106.342 126.688C106.551 126.922 106.836 127.124 107.199 127.295C107.565 127.469 108.044 127.557 108.637 127.557C109.429 127.557 110.083 127.365 110.599 126.982C111.115 126.598 111.373 125.997 111.373 125.179V123.185H111.245C111.134 123.364 110.976 123.585 110.772 123.849C110.571 124.109 110.282 124.342 109.902 124.546C109.527 124.746 109.02 124.847 108.381 124.847C107.588 124.847 106.877 124.659 106.246 124.284C105.62 123.909 105.123 123.364 104.757 122.648C104.395 121.932 104.213 121.062 104.213 120.04C104.213 119.034 104.39 118.158 104.744 117.413C105.098 116.663 105.59 116.083 106.221 115.674C106.851 115.261 107.58 115.054 108.407 115.054C109.046 115.054 109.553 115.161 109.928 115.374C110.307 115.582 110.597 115.821 110.797 116.089C111.002 116.354 111.159 116.571 111.27 116.741H111.424V115.182H112.881V125.281C112.881 126.125 112.689 126.811 112.306 127.339C111.926 127.872 111.415 128.262 110.772 128.509C110.132 128.761 109.421 128.886 108.637 128.886ZM108.586 123.491C109.191 123.491 109.702 123.353 110.12 123.076C110.537 122.799 110.855 122.401 111.072 121.881C111.289 121.361 111.398 120.739 111.398 120.014C111.398 119.307 111.292 118.683 111.078 118.141C110.865 117.6 110.55 117.176 110.132 116.869C109.715 116.562 109.199 116.409 108.586 116.409C107.946 116.409 107.414 116.571 106.988 116.895C106.566 117.219 106.248 117.653 106.035 118.199C105.826 118.744 105.722 119.349 105.722 120.014C105.722 120.696 105.828 121.299 106.042 121.823C106.259 122.343 106.578 122.752 107 123.05C107.426 123.344 107.955 123.491 108.586 123.491ZM119.759 125.205C118.813 125.205 117.997 124.996 117.311 124.578C116.629 124.156 116.103 123.568 115.732 122.814C115.365 122.055 115.182 121.173 115.182 120.168C115.182 119.162 115.365 118.276 115.732 117.509C116.103 116.737 116.618 116.136 117.279 115.706C117.944 115.271 118.719 115.054 119.605 115.054C120.117 115.054 120.622 115.139 121.12 115.31C121.619 115.48 122.073 115.757 122.482 116.141C122.891 116.52 123.217 117.023 123.46 117.649C123.703 118.276 123.824 119.047 123.824 119.963V120.602H116.256V119.298H122.29C122.29 118.744 122.179 118.25 121.958 117.815C121.74 117.381 121.429 117.038 121.025 116.786C120.624 116.535 120.151 116.409 119.605 116.409C119.005 116.409 118.485 116.558 118.046 116.857C117.611 117.151 117.277 117.534 117.042 118.007C116.808 118.48 116.691 118.987 116.691 119.528V120.398C116.691 121.139 116.819 121.768 117.074 122.283C117.334 122.795 117.694 123.185 118.154 123.453C118.615 123.717 119.15 123.849 119.759 123.849C120.155 123.849 120.513 123.794 120.833 123.683C121.157 123.568 121.436 123.398 121.67 123.172C121.904 122.942 122.086 122.656 122.213 122.315L123.671 122.724C123.517 123.219 123.26 123.653 122.897 124.028C122.535 124.399 122.088 124.689 121.555 124.898C121.022 125.102 120.424 125.205 119.759 125.205ZM133.074 117.381L131.718 117.764C131.633 117.538 131.507 117.319 131.341 117.106C131.179 116.888 130.958 116.71 130.676 116.569C130.395 116.428 130.035 116.358 129.596 116.358C128.995 116.358 128.495 116.496 128.094 116.773C127.698 117.046 127.5 117.393 127.5 117.815C127.5 118.19 127.636 118.487 127.909 118.704C128.181 118.921 128.608 119.102 129.187 119.247L130.645 119.605C131.522 119.818 132.176 120.144 132.607 120.583C133.037 121.018 133.252 121.578 133.252 122.264C133.252 122.827 133.091 123.33 132.767 123.773C132.447 124.216 132 124.565 131.424 124.821C130.849 125.077 130.18 125.205 129.417 125.205C128.416 125.205 127.587 124.987 126.931 124.553C126.275 124.118 125.859 123.483 125.684 122.648L127.116 122.29C127.252 122.818 127.51 123.214 127.89 123.479C128.273 123.743 128.774 123.875 129.392 123.875C130.095 123.875 130.653 123.726 131.066 123.428C131.484 123.125 131.693 122.763 131.693 122.341C131.693 122 131.574 121.714 131.335 121.484C131.096 121.25 130.73 121.075 130.235 120.96L128.599 120.577C127.7 120.364 127.039 120.033 126.618 119.586C126.2 119.134 125.991 118.57 125.991 117.892C125.991 117.338 126.147 116.848 126.458 116.422C126.773 115.996 127.201 115.661 127.743 115.418C128.288 115.175 128.906 115.054 129.596 115.054C130.568 115.054 131.331 115.267 131.885 115.693C132.443 116.119 132.839 116.682 133.074 117.381Z" fill="#898989"/>
</svg>
