<svg width="320" height="132" viewBox="0 0 320 132" fill="none" xmlns="http://www.w3.org/2000/svg">
<path d="M30.0271 77.88C24.3364 77.88 19.4964 77.1467 15.5071 75.68C11.5178 74.2133 8.49643 72.1013 6.44309 69.344C4.44843 66.5867 3.45109 63.2133 3.45109 59.224V58.256H13.1311V59.224C13.1311 61.512 13.7178 63.4187 14.8911 64.944C16.1231 66.4107 18.0004 67.496 20.5231 68.2C23.0458 68.904 26.2724 69.256 30.2031 69.256C33.7818 69.256 36.6858 68.8747 38.9151 68.112C41.1444 67.3493 42.8164 66.1467 43.9311 64.504C45.0458 62.8027 45.6031 60.5733 45.6031 57.816C45.6031 55.1173 45.0458 52.9467 43.9311 51.304C42.8751 49.6613 41.2324 48.488 39.0031 47.784C36.7738 47.0213 33.8404 46.64 30.2031 46.64C25.9791 46.64 22.5471 47.0213 19.9071 47.784C17.2671 48.488 15.1258 49.5733 13.4831 51.04L10.7551 50.248L10.6671 45.408L14.0991 45.936C15.0964 44.8213 16.5044 43.736 18.3231 42.68C20.1418 41.624 22.3418 40.7733 24.9231 40.128C27.5044 39.424 30.4378 39.072 33.7231 39.072C38.2991 39.072 42.2004 39.8053 45.4271 41.272C48.7124 42.68 51.2058 44.792 52.9071 47.608C54.6671 50.3653 55.5471 53.768 55.5471 57.816C55.5471 61.864 54.5791 65.4133 52.6431 68.464C50.7071 71.456 47.8324 73.7733 44.0191 75.416C40.2644 77.0587 35.6004 77.88 30.0271 77.88ZM7.23509 18.04H52.7311V26.576H15.5071L12.8671 51.04L4.06709 50.424L7.23509 18.04ZM73.2447 77H61.2767V63.36H73.2447V77ZM106.886 77.88C100.961 77.88 95.8862 76.648 91.6622 74.184C87.4382 71.72 84.1822 68.2293 81.8942 63.712C79.6648 59.136 78.5502 53.7387 78.5502 47.52C78.5502 41.2427 79.6648 35.8453 81.8942 31.328C84.1822 26.8107 87.4382 23.32 91.6622 20.856C95.8862 18.392 100.961 17.16 106.886 17.16C112.811 17.16 117.886 18.392 122.11 20.856C126.334 23.32 129.561 26.8107 131.79 31.328C134.078 35.8453 135.222 41.2427 135.222 47.52C135.222 53.7387 134.078 59.136 131.79 63.712C129.561 68.2293 126.334 71.72 122.11 74.184C117.886 76.648 112.811 77.88 106.886 77.88ZM106.886 68.728C111.051 68.728 114.483 67.9947 117.182 66.528C119.939 65.0613 121.934 62.7733 123.166 59.664C124.457 56.496 125.102 52.448 125.102 47.52C125.102 42.592 124.457 38.5733 123.166 35.464C121.934 32.296 119.939 29.9787 117.182 28.512C114.483 27.0453 111.051 26.312 106.886 26.312C102.721 26.312 99.2888 27.0453 96.5902 28.512C93.8915 29.9787 91.8675 32.296 90.5182 35.464C89.2275 38.5733 88.5822 42.592 88.5822 47.52C88.5822 52.448 89.2275 56.496 90.5182 59.664C91.8675 62.7733 93.8915 65.0613 96.5902 66.528C99.2888 67.9947 102.721 68.728 106.886 68.728ZM168.847 77.88C162.922 77.88 157.847 76.648 153.623 74.184C149.399 71.72 146.143 68.2293 143.855 63.712C141.626 59.136 140.511 53.7387 140.511 47.52C140.511 41.2427 141.626 35.8453 143.855 31.328C146.143 26.8107 149.399 23.32 153.623 20.856C157.847 18.392 162.922 17.16 168.847 17.16C174.772 17.16 179.847 18.392 184.071 20.856C188.295 23.32 191.522 26.8107 193.751 31.328C196.039 35.8453 197.183 41.2427 197.183 47.52C197.183 53.7387 196.039 59.136 193.751 63.712C191.522 68.2293 188.295 71.72 184.071 74.184C179.847 76.648 174.772 77.88 168.847 77.88ZM168.847 68.728C173.012 68.728 176.444 67.9947 179.143 66.528C181.9 65.0613 183.895 62.7733 185.127 59.664C186.418 56.496 187.063 52.448 187.063 47.52C187.063 42.592 186.418 38.5733 185.127 35.464C183.895 32.296 181.9 29.9787 179.143 28.512C176.444 27.0453 173.012 26.312 168.847 26.312C164.682 26.312 161.25 27.0453 158.551 28.512C155.852 29.9787 153.828 32.296 152.479 35.464C151.188 38.5733 150.543 42.592 150.543 47.52C150.543 52.448 151.188 56.496 152.479 59.664C153.828 62.7733 155.852 65.0613 158.551 66.528C161.25 67.9947 164.682 68.728 168.847 68.728ZM230.808 77.88C224.883 77.88 219.808 76.648 215.584 74.184C211.36 71.72 208.104 68.2293 205.816 63.712C203.587 59.136 202.472 53.7387 202.472 47.52C202.472 41.2427 203.587 35.8453 205.816 31.328C208.104 26.8107 211.36 23.32 215.584 20.856C219.808 18.392 224.883 17.16 230.808 17.16C236.733 17.16 241.808 18.392 246.032 20.856C250.256 23.32 253.483 26.8107 255.712 31.328C258 35.8453 259.144 41.2427 259.144 47.52C259.144 53.7387 258 59.136 255.712 63.712C253.483 68.2293 250.256 71.72 246.032 74.184C241.808 76.648 236.733 77.88 230.808 77.88ZM230.808 68.728C234.973 68.728 238.405 67.9947 241.104 66.528C243.861 65.0613 245.856 62.7733 247.088 59.664C248.379 56.496 249.024 52.448 249.024 47.52C249.024 42.592 248.379 38.5733 247.088 35.464C245.856 32.296 243.861 29.9787 241.104 28.512C238.405 27.0453 234.973 26.312 230.808 26.312C226.643 26.312 223.211 27.0453 220.512 28.512C217.813 29.9787 215.789 32.296 214.44 35.464C213.149 38.5733 212.504 42.592 212.504 47.52C212.504 52.448 213.149 56.496 214.44 59.664C215.789 62.7733 217.813 65.0613 220.512 66.528C223.211 67.9947 226.643 68.728 230.808 68.728ZM302.352 65.824H294.08V29.216H302.352V65.824ZM316.52 51.48H279.912V43.56H316.52V51.48Z" fill="white"/>
<path d="M127.343 111.909H129.235L133.684 122.776H133.837L138.286 111.909H140.178V125H138.695V115.054H138.567L134.477 125H133.045L128.954 115.054H128.826V125H127.343V111.909ZM146.041 125.23C145.419 125.23 144.855 125.113 144.347 124.879C143.84 124.64 143.438 124.297 143.139 123.849C142.841 123.398 142.692 122.852 142.692 122.213C142.692 121.651 142.803 121.195 143.024 120.845C143.246 120.491 143.542 120.214 143.913 120.014C144.284 119.814 144.693 119.665 145.14 119.567C145.592 119.464 146.046 119.384 146.502 119.324C147.098 119.247 147.582 119.19 147.953 119.151C148.328 119.109 148.6 119.038 148.771 118.94C148.945 118.842 149.033 118.672 149.033 118.429V118.378C149.033 117.747 148.86 117.257 148.515 116.908C148.174 116.558 147.656 116.384 146.962 116.384C146.242 116.384 145.677 116.541 145.268 116.857C144.859 117.172 144.571 117.509 144.405 117.866L142.973 117.355C143.229 116.759 143.57 116.294 143.996 115.962C144.426 115.625 144.895 115.391 145.402 115.259C145.914 115.122 146.416 115.054 146.911 115.054C147.226 115.054 147.588 115.092 147.997 115.169C148.411 115.241 148.809 115.393 149.193 115.623C149.58 115.853 149.902 116.2 150.158 116.665C150.414 117.129 150.541 117.751 150.541 118.531V125H149.033V123.67H148.956C148.854 123.884 148.683 124.112 148.445 124.354C148.206 124.597 147.889 124.804 147.492 124.974C147.096 125.145 146.612 125.23 146.041 125.23ZM146.271 123.875C146.868 123.875 147.371 123.758 147.78 123.523C148.193 123.289 148.504 122.987 148.713 122.616C148.926 122.245 149.033 121.855 149.033 121.446V120.065C148.969 120.142 148.828 120.212 148.611 120.276C148.398 120.336 148.151 120.389 147.869 120.436C147.593 120.479 147.322 120.517 147.058 120.551C146.798 120.581 146.587 120.607 146.425 120.628C146.033 120.679 145.666 120.762 145.325 120.877C144.989 120.988 144.716 121.156 144.507 121.382C144.303 121.604 144.2 121.906 144.2 122.29C144.2 122.814 144.394 123.21 144.782 123.479C145.174 123.743 145.671 123.875 146.271 123.875ZM153.295 125V115.182H154.752V116.665H154.854C155.033 116.179 155.357 115.785 155.826 115.482C156.295 115.18 156.823 115.028 157.411 115.028C157.522 115.028 157.661 115.031 157.827 115.035C157.993 115.039 158.119 115.045 158.204 115.054V116.588C158.153 116.575 158.036 116.556 157.852 116.531C157.673 116.501 157.484 116.486 157.283 116.486C156.806 116.486 156.38 116.586 156.005 116.786C155.634 116.982 155.34 117.255 155.123 117.604C154.91 117.95 154.803 118.344 154.803 118.787V125H153.295ZM161.398 121.42L161.373 119.554H161.68L165.975 115.182H167.841L163.265 119.81H163.137L161.398 121.42ZM159.992 125V111.909H161.501V125H159.992ZM166.231 125L162.395 120.142L163.469 119.094L168.148 125H166.231ZM173.495 125.205C172.549 125.205 171.733 124.996 171.047 124.578C170.365 124.156 169.839 123.568 169.468 122.814C169.102 122.055 168.919 121.173 168.919 120.168C168.919 119.162 169.102 118.276 169.468 117.509C169.839 116.737 170.355 116.136 171.015 115.706C171.68 115.271 172.455 115.054 173.342 115.054C173.853 115.054 174.358 115.139 174.857 115.31C175.355 115.48 175.809 115.757 176.218 116.141C176.627 116.52 176.953 117.023 177.196 117.649C177.439 118.276 177.561 119.047 177.561 119.963V120.602H169.992V119.298H176.026C176.026 118.744 175.916 118.25 175.694 117.815C175.477 117.381 175.166 117.038 174.761 116.786C174.36 116.535 173.887 116.409 173.342 116.409C172.741 116.409 172.221 116.558 171.782 116.857C171.347 117.151 171.013 117.534 170.779 118.007C170.544 118.48 170.427 118.987 170.427 119.528V120.398C170.427 121.139 170.555 121.768 170.811 122.283C171.07 122.795 171.431 123.185 171.891 123.453C172.351 123.717 172.886 123.849 173.495 123.849C173.892 123.849 174.249 123.794 174.569 123.683C174.893 123.568 175.172 123.398 175.406 123.172C175.641 122.942 175.822 122.656 175.95 122.315L177.407 122.724C177.254 123.219 176.996 123.653 176.634 124.028C176.271 124.399 175.824 124.689 175.291 124.898C174.759 125.102 174.16 125.205 173.495 125.205ZM184.125 115.182V116.46H179.037V115.182H184.125ZM180.52 112.83H182.029V122.188C182.029 122.614 182.09 122.933 182.214 123.146C182.342 123.355 182.504 123.496 182.7 123.568C182.9 123.636 183.111 123.67 183.333 123.67C183.499 123.67 183.635 123.662 183.742 123.645C183.848 123.624 183.933 123.607 183.997 123.594L184.304 124.949C184.202 124.987 184.059 125.026 183.876 125.064C183.693 125.107 183.46 125.128 183.179 125.128C182.753 125.128 182.335 125.036 181.926 124.853C181.521 124.67 181.185 124.391 180.916 124.016C180.652 123.641 180.52 123.168 180.52 122.597V112.83ZM193.173 117.381L191.818 117.764C191.733 117.538 191.607 117.319 191.441 117.106C191.279 116.888 191.057 116.71 190.776 116.569C190.495 116.428 190.135 116.358 189.696 116.358C189.095 116.358 188.594 116.496 188.194 116.773C187.797 117.046 187.599 117.393 187.599 117.815C187.599 118.19 187.736 118.487 188.008 118.704C188.281 118.921 188.707 119.102 189.287 119.247L190.744 119.605C191.622 119.818 192.276 120.144 192.706 120.583C193.137 121.018 193.352 121.578 193.352 122.264C193.352 122.827 193.19 123.33 192.866 123.773C192.547 124.216 192.099 124.565 191.524 124.821C190.949 125.077 190.28 125.205 189.517 125.205C188.515 125.205 187.687 124.987 187.03 124.553C186.374 124.118 185.959 123.483 185.784 122.648L187.216 122.29C187.352 122.818 187.61 123.214 187.989 123.479C188.373 123.743 188.873 123.875 189.491 123.875C190.194 123.875 190.753 123.726 191.166 123.428C191.584 123.125 191.792 122.763 191.792 122.341C191.792 122 191.673 121.714 191.434 121.484C191.196 121.25 190.829 121.075 190.335 120.96L188.699 120.577C187.8 120.364 187.139 120.033 186.717 119.586C186.3 119.134 186.091 118.57 186.091 117.892C186.091 117.338 186.246 116.848 186.557 116.422C186.873 115.996 187.301 115.661 187.842 115.418C188.388 115.175 189.006 115.054 189.696 115.054C190.667 115.054 191.43 115.267 191.984 115.693C192.542 116.119 192.939 116.682 193.173 117.381Z" fill="#898989"/>
</svg>
