<svg width="1193" height="54" viewBox="0 0 1193 54" fill="none" xmlns="http://www.w3.org/2000/svg">
<rect width="6.93505" height="7.71029" transform="matrix(1 0 -0.000151529 1 0.285156 45)" fill="#14C67A"/>
<rect width="6.93505" height="26.986" transform="matrix(1 0 -0.000151529 1 13.1943 26)" fill="#FF5454"/>
<rect width="6.93505" height="15.4206" transform="matrix(1 0 -0.000151529 1 26.0557 38)" fill="#14C67A"/>
<rect width="6.93505" height="26.986" transform="matrix(1 0 -0.000151529 1 38.9521 26)" fill="#FF5454"/>
<rect width="6.93505" height="15.4206" transform="matrix(1 0 -0.000151529 1 51.8145 38)" fill="#14C67A"/>
<rect width="6.93505" height="15.4206" transform="matrix(1 0 -0.000151529 1 64.6953 38)" fill="#FF5454"/>
<rect width="6.93505" height="15.4206" transform="matrix(1 0 -0.000151529 1 77.5732 38)" fill="#FF5454"/>
<rect width="6.93505" height="10.6016" transform="matrix(1 0 -0.000151529 1 90.4463 42)" fill="#14C67A"/>
<rect width="6.93505" height="10.6016" transform="matrix(1 0 -0.000151529 1 103.326 42)" fill="#14C67A"/>
<rect width="6.93505" height="10.6016" transform="matrix(1 0 -0.000151529 1 116.205 42)" fill="#14C67A"/>
<rect width="6.93505" height="7.71029" transform="matrix(1 0 -0.000151529 1 129.08 45)" fill="#14C67A"/>
<rect width="6.93505" height="7.71029" transform="matrix(1 0 -0.000151529 1 141.959 45)" fill="#14C67A"/>
<rect width="6.93505" height="7.71029" transform="matrix(1 0 -0.000151529 1 154.839 45)" fill="#14C67A"/>
<rect width="6.93505" height="15.4206" transform="matrix(1 0 -0.000151529 1 167.729 38)" fill="#FF5454"/>
<rect width="6.93505" height="15.4206" transform="matrix(1 0 -0.000151529 1 180.607 38)" fill="#FF5454"/>
<rect width="6.93505" height="15.4206" transform="matrix(1 0 -0.000151529 1 193.486 38)" fill="#FF5454"/>
<rect width="6.93505" height="15.4206" transform="matrix(1 0 -0.000151529 1 206.366 38)" fill="#14C67A"/>
<rect width="6.93505" height="15.4206" transform="matrix(1 0 -0.000151529 1 219.245 38)" fill="#14C67A"/>
<rect width="6.93505" height="15.4206" transform="matrix(1 0 -0.000151529 1 232.124 38)" fill="#14C67A"/>
<rect width="6.93505" height="26.986" transform="matrix(1 0 -0.000151529 1 245.023 26)" fill="#FF5454"/>
<rect width="6.93505" height="26.986" transform="matrix(1 0 -0.000151529 1 257.902 26)" fill="#FF5454"/>
<rect width="6.93505" height="26.986" transform="matrix(1 0 -0.000151529 1 270.781 26)" fill="#FF5454"/>
<rect width="6.93505" height="19.2757" transform="matrix(1 0 -0.000151529 1 283.647 34)" fill="#FF5454"/>
<rect width="6.93505" height="9.63786" transform="matrix(1 0 -0.000151529 1 296.515 43)" fill="#14C67A"/>
<rect width="6.93505" height="15.4206" transform="matrix(1 0 -0.000151529 1 309.401 38)" fill="#14C67A"/>
<rect width="6.93505" height="26.986" transform="matrix(1 0 -0.000151529 1 322.297 26)" fill="#FF5454"/>
<rect width="6.93505" height="19.2757" transform="matrix(1 0 -0.000151529 1 335.166 34)" fill="#FF5454"/>
<rect width="6.93505" height="13.493" transform="matrix(1 0 -0.000151529 1 348.037 40)" fill="#FF5454"/>
<rect width="6.93505" height="26.0222" transform="matrix(1 0 -0.000151529 1 360.935 27)" fill="#14C67A"/>
<rect width="6.93505" height="7.71029" transform="matrix(1 0 -0.000151529 1 373.786 45)" fill="#14C67A"/>
<rect width="6.93505" height="15.4206" transform="matrix(1 0 -0.000151529 1 386.679 38)" fill="#14C67A"/>
<rect width="6.93505" height="9.63786" transform="matrix(1 0 -0.000151529 1 399.548 43)" fill="#FF5454"/>
<rect width="6.93505" height="18.3119" transform="matrix(1 0 -0.000151529 1 412.441 35)" fill="#14C67A"/>
<rect width="6.93505" height="22.1671" transform="matrix(1 0 -0.000151529 1 425.324 31)" fill="#14C67A"/>
<rect width="6.93505" height="26.986" transform="matrix(1 0 -0.000151529 1 438.213 26)" fill="#FF5454"/>
<rect width="6.93505" height="33.7325" transform="matrix(1 0 -0.000151529 1 451.101 19)" fill="#14C67A"/>
<rect width="6.93505" height="36.6239" transform="matrix(1 0 -0.000151529 1 463.985 16)" fill="#14C67A"/>
<rect width="6.93505" height="8.67407" transform="matrix(1 0 -0.000151529 1 476.823 44)" fill="#FF5454"/>
<rect width="6.93505" height="18.3119" transform="matrix(1 0 -0.000151529 1 489.717 35)" fill="#FF5454"/>
<rect width="6.93505" height="36.6239" transform="matrix(1 0 -0.000151529 1 502.622 16)" fill="#14C67A"/>
<rect width="6.93505" height="26.986" transform="matrix(1 0 -0.000151529 1 515.488 26)" fill="#FF5454"/>
<rect width="6.93505" height="52.0444" transform="matrix(1 0 -0.000151529 1 528.405 1)" fill="#14C67A"/>
<rect width="6.93505" height="13.493" transform="matrix(1 0 -0.000151529 1 541.228 40)" fill="#FF5454"/>
<rect width="6.93505" height="15.4206" transform="matrix(1 0 -0.000151529 1 554.109 38)" fill="#14C67A"/>
<rect width="6.93505" height="18.3119" transform="matrix(1 0 -0.000151529 1 566.991 35)" fill="#14C67A"/>
<rect width="6.93505" height="7.71029" transform="matrix(1 0 0.000151529 -1 579.854 53)" fill="#14C67A"/>
<rect width="6.93505" height="26.986" transform="matrix(1 0 0.000151529 -1 592.759 53)" fill="#FF5454"/>
<rect width="6.93505" height="15.4206" transform="matrix(1 0 0.000151529 -1 605.623 53)" fill="#14C67A"/>
<rect width="6.93505" height="26.986" transform="matrix(1 0 0.000151529 -1 618.519 53)" fill="#FF5454"/>
<rect width="6.93505" height="15.4206" transform="matrix(1 0 0.000151529 -1 631.382 53)" fill="#14C67A"/>
<rect width="6.93505" height="15.4206" transform="matrix(1 0 0.000151529 -1 644.262 53)" fill="#FF5454"/>
<rect width="6.93505" height="10.6016" transform="matrix(1 0 0.000151529 -1 657.135 53)" fill="#14C67A"/>
<rect width="6.93505" height="7.71029" transform="matrix(1 0 0.000151529 -1 670.011 53)" fill="#14C67A"/>
<rect width="6.93505" height="15.4206" transform="matrix(1 0 0.000151529 -1 682.898 53)" fill="#FF5454"/>
<rect width="6.93505" height="15.4206" transform="matrix(1 0 0.000151529 -1 695.78 53)" fill="#14C67A"/>
<rect width="6.93505" height="26.986" transform="matrix(1 0 0.000151529 -1 708.674 53)" fill="#FF5454"/>
<rect width="6.93505" height="26.986" transform="matrix(1 0 0.000151529 -1 721.554 53)" fill="#FF5454"/>
<rect width="6.93505" height="19.2757" transform="matrix(1 0 0.000151529 -1 734.422 53)" fill="#FF5454"/>
<rect width="6.93505" height="9.63786" transform="matrix(1 0 0.000151529 -1 747.289 53)" fill="#14C67A"/>
<rect width="6.93505" height="15.4206" transform="matrix(1 0 0.000151529 -1 760.175 53)" fill="#14C67A"/>
<path d="M773.08 53H780.015L780.02 19.2675H773.085L773.08 53Z" fill="#14C67A"/>
<rect width="6.93505" height="26.986" transform="matrix(1 0 0.000151529 -1 785.951 53)" fill="#FF5454"/>
<rect width="6.93505" height="19.2757" transform="matrix(1 0 0.000151529 -1 798.82 53)" fill="#FF5454"/>
<rect width="6.93505" height="19.2757" transform="matrix(1 0 0.000151529 -1 811.697 53)" fill="#FF5454"/>
<rect width="6.93505" height="13.493" transform="matrix(1 0 0.000151529 -1 824.569 53)" fill="#FF5454"/>
<rect width="6.93505" height="26.0222" transform="matrix(1 0 0.000151529 -1 837.466 53)" fill="#14C67A"/>
<rect width="6.93505" height="7.71029" transform="matrix(1 0 0.000151529 -1 850.32 53)" fill="#14C67A"/>
<rect width="6.93505" height="15.4206" transform="matrix(1 0 0.000151529 -1 863.21 53)" fill="#14C67A"/>
<rect width="6.93505" height="9.63786" transform="matrix(1 0 0.000151529 -1 876.082 53)" fill="#FF5454"/>
<rect width="6.93505" height="18.3119" transform="matrix(1 0 0.000151529 -1 888.974 53)" fill="#14C67A"/>
<rect width="6.93505" height="22.1671" transform="matrix(1 0 0.000151529 -1 901.857 53)" fill="#14C67A"/>
<rect width="6.93505" height="22.1671" transform="matrix(1 0 0.000151529 -1 914.736 53)" fill="#14C67A"/>
<rect width="6.93505" height="26.986" transform="matrix(1 0 0.000151529 -1 927.623 53)" fill="#FF5454"/>
<rect width="6.93505" height="26.986" transform="matrix(1 0 0.000151529 -1 940.502 53)" fill="#FF5454"/>
<rect width="6.93505" height="33.7325" transform="matrix(1 0 0.000151529 -1 953.391 53)" fill="#14C67A"/>
<rect width="6.93505" height="26.986" transform="matrix(1 0 0.000151529 -1 966.261 53)" fill="#FF5454"/>
<rect width="6.93505" height="36.6239" transform="matrix(1 0 0.000151529 -1 979.153 53)" fill="#14C67A"/>
<rect width="6.93505" height="26.986" transform="matrix(1 0 0.000151529 -1 992.021 53)" fill="#FF5454"/>
<rect width="6.93505" height="36.6239" transform="matrix(1 0 0.000151529 -1 1004.91 53)" fill="#14C67A"/>
<rect width="6.93505" height="52.0444" transform="matrix(1 0 0.000151529 -1 1017.81 53)" fill="#14C67A"/>
<rect width="6.93505" height="8.67407" transform="matrix(1 0 0.000151529 -1 1030.63 53)" fill="#FF5454"/>
<rect width="6.93505" height="8.67407" transform="matrix(1 0 0.000151529 -1 1043.51 53)" fill="#FF5454"/>
<rect width="6.93505" height="36.6239" transform="matrix(1 0 0.000151529 -1 1056.43 53)" fill="#14C67A"/>
<rect width="6.93505" height="18.3119" transform="matrix(1 0 0.000151529 -1 1069.28 53)" fill="#FF5454"/>
<rect width="6.93505" height="18.3119" transform="matrix(1 0 0.000151529 -1 1082.16 53)" fill="#FF5454"/>
<rect width="6.93505" height="36.6239" transform="matrix(1 0 0.000151529 -1 1095.07 53)" fill="#14C67A"/>
<rect width="6.93505" height="26.986" transform="matrix(1 0 0.000151529 -1 1107.93 53)" fill="#FF5454"/>
<rect width="6.93505" height="26.986" transform="matrix(1 0 0.000151529 -1 1120.81 53)" fill="#FF5454"/>
<rect width="6.93505" height="13.493" transform="matrix(1 0 0.000151529 -1 1133.67 53)" fill="#FF5454"/>
<rect width="6.93505" height="13.493" transform="matrix(1 0 0.000151529 -1 1146.55 53)" fill="#FF5454"/>
<rect width="6.93505" height="15.4206" transform="matrix(1 0 0.000151529 -1 1159.44 53)" fill="#14C67A"/>
<rect width="6.93505" height="15.4206" transform="matrix(1 0 0.000151529 -1 1172.31 53)" fill="#14C67A"/>
<rect width="6.93505" height="18.3119" transform="matrix(1 0 0.000151529 -1 1185.2 53)" fill="#14C67A"/>
</svg>
