<svg width="212" height="54" viewBox="0 0 212 54" fill="none" xmlns="http://www.w3.org/2000/svg">
<path d="M53.5626 44.6433C53.5626 49.5595 49.5361 53.5626 44.6433 53.5626H8.9193C4.00315 53.5626 0 49.5361 0 44.6433V8.9193C0 4.00315 4.02656 0 8.9193 0H44.6433C49.5595 0 53.5626 4.02656 53.5626 8.9193V44.6433Z" fill="#563D7C"/>
<path d="M14.5376 11.6348H29.7308C32.5401 11.6348 34.7875 12.2668 36.473 13.5544C38.1585 14.842 39.0013 16.785 39.0013 19.3836C39.0013 20.952 38.6267 22.3098 37.8542 23.4335C37.0817 24.5572 35.9814 25.4234 34.5534 26.0321V26.1257C36.473 26.5471 37.9478 27.4367 38.9311 28.8647C39.9143 30.2927 40.4293 32.0485 40.4293 34.1788C40.4293 35.3962 40.2186 36.5433 39.7738 37.6201C39.329 38.697 38.6502 39.61 37.7137 40.3826C36.7773 41.1551 35.5834 41.7638 34.132 42.232C32.6805 42.6768 30.9482 42.9109 28.9349 42.9109H14.5844V11.6348H14.5376ZM20.0156 24.7211H28.9349C30.2459 24.7211 31.3462 24.3465 32.2123 23.5974C33.0785 22.8483 33.5233 21.7714 33.5233 20.3668C33.5233 18.7983 33.1253 17.6746 32.3528 17.0425C31.5568 16.4105 30.4332 16.0827 28.9349 16.0827H20.0156V24.7211ZM20.0156 38.4161H29.684C31.3462 38.4161 32.6337 37.9947 33.5467 37.1285C34.4597 36.2624 34.9279 35.045 34.9279 33.4765C34.9279 31.9315 34.4831 30.7375 33.5467 29.8948C32.6103 29.052 31.3462 28.654 29.684 28.654H20.0156V38.4161Z" fill="white"/>
<path d="M65.2676 38.6026V13.46H74.7019C76.6216 13.46 78.1666 13.7175 79.3137 14.2325C80.4842 14.7475 81.3738 15.5201 82.0293 16.5735C82.6848 17.627 83.0125 18.7273 83.0125 19.8978C83.0125 20.9746 82.7316 21.9813 82.1464 22.9411C81.5611 23.9009 80.6715 24.6501 79.501 25.2353C81.0227 25.6801 82.1932 26.4526 83.0125 27.5061C83.8319 28.583 84.2299 29.8471 84.2299 31.322C84.2299 32.4925 83.9724 33.5928 83.4808 34.5994C82.9891 35.6061 82.3805 36.402 81.6313 36.9404C80.9056 37.4789 79.9926 37.9003 78.8689 38.1812C77.7687 38.4621 76.4109 38.6026 74.819 38.6026H65.2676ZM68.5918 24.018H74.023C75.4979 24.018 76.5513 23.9243 77.1834 23.7371C78.0262 23.4795 78.6582 23.0582 79.103 22.4963C79.5244 21.9111 79.7351 21.1853 79.7351 20.2957C79.7351 19.453 79.5244 18.7273 79.1264 18.0952C78.7285 17.4631 78.1432 17.0183 77.4175 16.7842C76.6684 16.5501 75.4042 16.4331 73.6016 16.4331H68.5684V24.018H68.5918ZM68.5918 35.6295H74.8424C75.9192 35.6295 76.6684 35.5826 77.1132 35.5124C77.8857 35.3719 78.5178 35.1378 79.0328 34.8335C79.5478 34.5058 79.9692 34.0376 80.297 33.4289C80.6247 32.8202 80.7886 32.1179 80.7886 31.322C80.7886 30.3856 80.5545 29.5662 80.0628 28.8873C79.5712 28.185 78.9157 27.7168 78.073 27.4359C77.2302 27.155 75.9895 27.0145 74.3976 27.0145H68.5918V35.6295Z" fill="#563D7C"/>
<path d="M87.2732 29.4958C87.2732 26.1247 88.2096 23.6198 90.0824 22.0045C91.6509 20.6467 93.5471 19.9912 95.8179 19.9912C98.3228 19.9912 100.36 20.8106 101.951 22.4493C103.543 24.088 104.339 26.3588 104.339 29.2383C104.339 31.5793 103.988 33.4287 103.286 34.7631C102.583 36.0975 101.553 37.1509 100.219 37.9C98.8847 38.6492 97.4098 39.0237 95.8179 39.0237C93.2662 39.0237 91.2061 38.2044 89.6376 36.5657C88.0691 34.9269 87.2732 32.5625 87.2732 29.4958ZM90.457 29.4958C90.457 31.8368 90.972 33.5692 91.9786 34.7397C92.9853 35.9102 94.2729 36.472 95.8179 36.472C97.3396 36.472 98.6272 35.8868 99.6338 34.7163C100.64 33.5457 101.155 31.7666 101.155 29.3787C101.155 27.1313 100.64 25.4224 99.6104 24.2519C98.5803 23.0814 97.3162 22.5195 95.7945 22.5195C94.2494 22.5195 92.9619 23.1048 91.9552 24.2519C90.972 25.4224 90.457 27.1547 90.457 29.4958Z" fill="#563D7C"/>
<path d="M106.821 29.4958C106.821 26.1247 107.757 23.6198 109.63 22.0045C111.199 20.6467 113.095 19.9912 115.366 19.9912C117.87 19.9912 119.907 20.8106 121.499 22.4493C123.091 24.088 123.887 26.3588 123.887 29.2383C123.887 31.5793 123.536 33.4287 122.833 34.7631C122.131 36.0975 121.101 37.1509 119.767 37.9C118.432 38.6492 116.957 39.0237 115.366 39.0237C112.814 39.0237 110.754 38.2044 109.185 36.5657C107.593 34.9269 106.821 32.5625 106.821 29.4958ZM109.981 29.4958C109.981 31.8368 110.496 33.5692 111.503 34.7397C112.509 35.9102 113.797 36.472 115.342 36.472C116.864 36.472 118.151 35.8868 119.158 34.7163C120.165 33.5457 120.68 31.7666 120.68 29.3787C120.68 27.1313 120.165 25.4224 119.135 24.2519C118.105 23.0814 116.84 22.5195 115.319 22.5195C113.774 22.5195 112.486 23.1048 111.479 24.2519C110.496 25.4224 109.981 27.1547 109.981 29.4958Z" fill="#563D7C"/>
<path d="M134.234 35.8398L134.679 38.5554C133.813 38.7426 133.04 38.8363 132.338 38.8363C131.214 38.8363 130.348 38.649 129.74 38.2979C129.131 37.9467 128.686 37.4785 128.429 36.8932C128.171 36.308 128.054 35.0907 128.054 33.2412V22.7535H125.783V20.3422H128.054V15.824L131.121 13.9746V20.3422H134.234V22.7535H131.121V33.4051C131.121 34.2947 131.168 34.8566 131.285 35.1141C131.402 35.3716 131.566 35.5589 131.823 35.7227C132.057 35.8632 132.432 35.9568 132.877 35.9568C133.228 35.9568 133.672 35.91 134.234 35.8398Z" fill="#563D7C"/>
<path d="M136.014 33.1712L139.057 32.6796C139.221 33.8969 139.712 34.8333 140.485 35.4888C141.258 36.1443 142.358 36.472 143.762 36.472C145.19 36.472 146.221 36.1911 146.923 35.6058C147.602 35.0206 147.953 34.3417 147.953 33.5692C147.953 32.8668 147.649 32.3284 147.04 31.9304C146.619 31.6495 145.565 31.2984 143.88 30.877C141.609 30.3151 140.04 29.8001 139.174 29.4021C138.308 28.9807 137.629 28.4189 137.184 27.6698C136.739 26.9441 136.505 26.1247 136.505 25.2351C136.505 24.4157 136.693 23.6666 137.067 22.9877C137.442 22.2854 137.933 21.7236 138.589 21.2554C139.08 20.9042 139.712 20.5999 140.555 20.3658C141.375 20.1317 142.264 19.9912 143.224 19.9912C144.652 19.9912 145.916 20.2019 146.993 20.5999C148.07 21.0213 148.866 21.5597 149.381 22.262C149.896 22.9643 150.247 23.9007 150.434 25.0712L147.414 25.4926C147.274 24.5562 146.876 23.8305 146.221 23.2921C145.565 22.777 144.629 22.4961 143.435 22.4961C142.007 22.4961 141 22.7302 140.391 23.1984C139.783 23.6666 139.478 24.2051 139.478 24.8371C139.478 25.2351 139.595 25.5863 139.853 25.914C140.11 26.2417 140.508 26.5227 141.047 26.7334C141.351 26.8504 142.264 27.1079 143.762 27.5293C145.94 28.1146 147.461 28.5828 148.327 28.9573C149.194 29.3319 149.873 29.8703 150.364 30.5726C150.856 31.275 151.09 32.1645 151.09 33.218C151.09 34.248 150.786 35.2079 150.2 36.1209C149.592 37.0339 148.725 37.7362 147.602 38.2278C146.478 38.7194 145.19 38.9769 143.762 38.9769C141.398 38.9769 139.595 38.4853 138.355 37.5021C137.137 36.5423 136.365 35.0908 136.014 33.1712Z" fill="#563D7C"/>
<path d="M161.554 35.8398L161.998 38.5554C161.132 38.7426 160.36 38.8363 159.657 38.8363C158.534 38.8363 157.668 38.649 157.059 38.2979C156.45 37.9467 156.005 37.4785 155.748 36.8932C155.49 36.308 155.373 35.0907 155.373 33.2412V22.7535H153.103V20.3422H155.373V15.824L158.44 13.9746V20.3422H161.554V22.7535H158.44V33.4051C158.44 34.2947 158.487 34.8566 158.604 35.1141C158.721 35.3716 158.885 35.5589 159.142 35.7227C159.376 35.8632 159.751 35.9568 160.196 35.9568C160.524 35.9568 160.992 35.91 161.554 35.8398Z" fill="#563D7C"/>
<path d="M164.527 38.6024V20.3892H167.313V23.1516C168.015 21.864 168.67 20.9979 169.279 20.5999C169.888 20.1785 170.543 19.9912 171.269 19.9912C172.299 19.9912 173.376 20.319 174.429 20.9744L173.376 23.8305C172.627 23.3857 171.878 23.1516 171.105 23.1516C170.426 23.1516 169.818 23.3623 169.279 23.7603C168.741 24.1582 168.366 24.7201 168.132 25.4458C167.781 26.5461 167.617 27.74 167.617 29.051V38.6024H164.527Z" fill="#563D7C"/>
<path d="M188.125 36.355C186.978 37.3382 185.877 38.0171 184.824 38.4151C183.77 38.8131 182.623 39.0237 181.429 39.0237C179.439 39.0237 177.894 38.5321 176.817 37.5489C175.741 36.5657 175.202 35.3249 175.202 33.8033C175.202 32.9137 175.413 32.0943 175.811 31.3686C176.209 30.6429 176.747 30.0342 177.403 29.5894C178.058 29.1446 178.807 28.8169 179.627 28.5828C180.235 28.4189 181.148 28.2784 182.366 28.1146C184.847 27.8102 186.697 27.4591 187.867 27.0611C187.867 26.6397 187.891 26.3588 187.891 26.2652C187.891 25.001 187.61 24.1114 187.024 23.5964C186.228 22.8941 185.058 22.5429 183.513 22.5429C182.061 22.5429 180.984 22.8004 180.306 23.3155C179.603 23.8305 179.112 24.7201 178.761 26.0076L175.741 25.5863C176.022 24.2987 176.466 23.2452 177.098 22.4493C177.73 21.6533 178.643 21.0447 179.814 20.6233C181.008 20.2019 182.389 19.9912 183.958 19.9912C185.503 19.9912 186.767 20.1785 187.75 20.5296C188.71 20.9042 189.436 21.349 189.904 21.9109C190.372 22.4727 190.676 23.175 190.864 24.0178C190.957 24.5328 191.027 25.4926 191.027 26.8738V30.994C191.027 33.8735 191.098 35.6761 191.215 36.4486C191.355 37.1977 191.613 37.9469 191.987 38.6258H188.757C188.429 37.9469 188.218 37.1977 188.125 36.355ZM187.891 29.4489C186.767 29.9172 185.081 30.2917 182.857 30.6195C181.593 30.8067 180.68 31.0174 180.165 31.2281C179.65 31.4622 179.229 31.79 178.948 32.2348C178.667 32.6796 178.526 33.1712 178.526 33.7096C178.526 34.529 178.831 35.2079 179.463 35.7697C180.095 36.3082 181.008 36.5891 182.202 36.5891C183.396 36.5891 184.449 36.3316 185.362 35.8165C186.299 35.3015 186.977 34.5758 187.399 33.6862C187.727 32.9839 187.891 31.9538 187.891 30.5961V29.4489Z" fill="#563D7C"/>
<path d="M195.779 45.5796V20.3901H198.589V22.7546C199.244 21.8182 199.993 21.1393 200.836 20.6711C201.679 20.2029 202.685 19.9688 203.879 19.9688C205.424 19.9688 206.806 20.3667 207.999 21.1627C209.193 21.9586 210.083 23.0823 210.692 24.5572C211.3 26.0086 211.605 27.6005 211.605 29.3563C211.605 31.2291 211.277 32.8912 210.598 34.3895C209.919 35.8877 208.959 37.0348 207.672 37.8074C206.408 38.6033 205.05 39.0013 203.645 39.0013C202.615 39.0013 201.702 38.7906 200.883 38.3458C200.063 37.901 199.384 37.3626 198.869 36.7071V45.5796H195.779ZM198.589 29.5904C198.589 31.9314 199.057 33.6637 200.017 34.7874C200.976 35.9111 202.123 36.473 203.458 36.473C204.839 36.473 206.01 35.8877 206.993 34.7406C207.976 33.5701 208.468 31.7909 208.468 29.3563C208.468 27.0386 207.999 25.3063 207.04 24.1358C206.08 22.9887 204.956 22.4034 203.622 22.4034C202.311 22.4034 201.14 23.0121 200.134 24.2528C199.08 25.4702 198.589 27.2493 198.589 29.5904Z" fill="#563D7C"/>
</svg>
