<svg width="1196" height="390" viewBox="0 0 1196 390" fill="none" xmlns="http://www.w3.org/2000/svg">
<path d="M8 216L1196 217" stroke="white" stroke-width="1.91394" stroke-dasharray="2.78 2.78"/>
<rect width="0.990721" height="34.6963" transform="matrix(0.999996 0.00267355 -0.00282508 0.999996 314.541 169.026)" fill="#7A7A7A"/>
<rect width="6.93505" height="13.493" transform="matrix(0.999996 0.00267355 -0.00282508 0.999996 311.537 180.584)" fill="#FF5454"/>
<rect width="0.990721" height="38.5514" transform="matrix(0.999996 0.00267355 -0.00282508 0.999996 325.447 166.164)" fill="#7A7A7A"/>
<rect width="6.93505" height="15.4206" transform="matrix(0.999996 0.00267355 -0.00282508 0.999996 322.443 177.723)" fill="#14C67A"/>
<rect width="0.990721" height="24.0946" transform="matrix(0.999996 0.00267355 -0.00282508 0.999996 335.373 159.445)" fill="#7A7A7A"/>
<rect width="6.93505" height="1.92757" transform="matrix(0.999996 0.00267355 -0.00282508 0.999996 332.369 171.001)" fill="#14C67A"/>
<rect width="0.990721" height="29.8774" transform="matrix(0.999996 0.00267355 -0.00282508 0.999996 0.0839844 309.864)" fill="#7A7A7A"/>
<rect width="0.990721" height="38.5514" transform="matrix(0.999996 0.00267355 -0.00282508 0.999996 21.9385 288.719)" fill="#7A7A7A"/>
<rect width="6.93505" height="15.4206" transform="matrix(0.999996 0.00267355 -0.00282508 0.999996 18.9336 300.275)" fill="#14C67A"/>
<rect width="0.990721" height="38.5514" transform="matrix(0.999996 0.00267355 -0.00282508 0.999996 41.7939 274.315)" fill="#7A7A7A"/>
<rect width="6.93505" height="15.4206" transform="matrix(0.999996 0.00267355 -0.00282508 0.999996 38.791 285.873)" fill="#14C67A"/>
<rect width="0.990721" height="32.7687" transform="matrix(0.999996 0.00267355 -0.00282508 0.999996 61.6523 258.948)" fill="#7A7A7A"/>
<rect width="6.93505" height="10.6016" transform="matrix(0.999996 0.00267355 -0.00282508 0.999996 58.6475 270.505)" fill="#14C67A"/>
<rect width="0.990721" height="38.5514" transform="matrix(0.999996 0.00267355 -0.00282508 0.999996 91.4688 225.295)" fill="#7A7A7A"/>
<rect width="6.93505" height="15.4206" transform="matrix(0.999996 0.00267355 -0.00282508 0.999996 88.4639 236.852)" fill="#14C67A"/>
<rect width="0.990721" height="48.1893" transform="matrix(0.999996 0.00267355 -0.00282508 0.999996 173.615 255.392)" fill="#7A7A7A"/>
<rect width="6.93505" height="26.0222" transform="matrix(0.999996 0.00267355 -0.00282508 0.999996 170.609 266.949)" fill="#14C67A"/>
<rect width="0.990721" height="38.5514" transform="matrix(0.999996 0.00267355 -0.00282508 0.999996 193.521 222.676)" fill="#7A7A7A"/>
<rect width="6.93505" height="15.4206" transform="matrix(0.999996 0.00267355 -0.00282508 0.999996 190.518 234.232)" fill="#14C67A"/>
<rect width="0.990721" height="44.3342" transform="matrix(0.999996 0.00267355 -0.00282508 0.999996 223.32 195.769)" fill="#7A7A7A"/>
<rect width="6.93505" height="21.2033" transform="matrix(0.999996 0.00267355 -0.00282508 0.999996 220.314 207.327)" fill="#14C67A"/>
<rect width="0.990721" height="23.1309" transform="matrix(0.999996 0.00267355 -0.00282508 0.999996 10.9805 309.894)" fill="#7A7A7A"/>
<rect width="6.93505" height="0.963786" transform="matrix(0.999996 0.00267355 -0.00282508 0.999996 7.97656 321.45)" fill="#FF5454"/>
<rect width="0.990721" height="23.1309" transform="matrix(0.999996 0.00267355 -0.00282508 0.999996 30.8545 288.742)" fill="#7A7A7A"/>
<rect width="6.93505" height="0.963786" transform="matrix(0.999996 0.00267355 -0.00282508 0.999996 27.8506 300.3)" fill="#FF5454"/>
<rect width="0.990721" height="37.5877" transform="matrix(0.999996 0.00267355 -0.00282508 0.999996 82.4902 247.437)" fill="#7A7A7A"/>
<rect width="6.93505" height="15.4206" transform="matrix(0.999996 0.00267355 -0.00282508 0.999996 79.4844 258.994)" fill="#FF5454"/>
<rect width="0.990721" height="37.5877" transform="matrix(0.999996 0.00267355 -0.00282508 0.999996 51.7012 274.343)" fill="#7A7A7A"/>
<rect width="6.93505" height="15.4206" transform="matrix(0.999996 0.00267355 -0.00282508 0.999996 48.6973 285.899)" fill="#FF5454"/>
<rect width="0.990721" height="49.1531" transform="matrix(0.999996 0.00267355 -0.00282508 0.999996 234.217 195.798)" fill="#7A7A7A"/>
<rect width="6.93505" height="26.986" transform="matrix(0.999996 0.00267355 -0.00282508 0.999996 231.213 207.355)" fill="#FF5454"/>
<rect width="0.990721" height="23.1309" transform="matrix(0.999996 0.00267355 -0.00282508 0.999996 102.367 225.325)" fill="#7A7A7A"/>
<rect width="6.93505" height="0.963786" transform="matrix(0.999996 0.00267355 -0.00282508 0.999996 99.3613 236.882)" fill="#FF5454"/>
<rect width="0.990721" height="45.2979" transform="matrix(0.999996 0.00267355 -0.00282508 0.999996 142.99 224.468)" fill="#7A7A7A"/>
<rect width="6.93505" height="0.963786" transform="matrix(0.999996 0.00267355 -0.00282508 0.999996 139.953 247.591)" fill="#FF5454"/>
<rect width="0.990721" height="42.4066" transform="matrix(0.999996 0.00267355 -0.00282508 0.999996 112.259 231.133)" fill="#7A7A7A"/>
<rect width="6.93505" height="19.2757" transform="matrix(0.999996 0.00267355 -0.00282508 0.999996 109.253 242.69)" fill="#FF5454"/>
<rect width="0.990721" height="35.6601" transform="matrix(0.999996 0.00267355 -0.00282508 0.999996 162.684 266.929)" fill="#7A7A7A"/>
<rect width="6.93505" height="13.493" transform="matrix(0.999996 0.00267355 -0.00282508 0.999996 159.68 278.485)" fill="#FF5454"/>
<rect width="0.990721" height="31.8049" transform="matrix(0.999996 0.00267355 -0.00282508 0.999996 203.428 222.702)" fill="#7A7A7A"/>
<rect width="6.93505" height="9.63786" transform="matrix(0.999996 0.00267355 -0.00282508 0.999996 200.424 234.26)" fill="#FF5454"/>
<rect width="0.990721" height="41.4428" transform="matrix(0.999996 0.00267355 -0.00282508 0.999996 214.328 222.731)" fill="#7A7A7A"/>
<rect width="6.93505" height="18.3119" transform="matrix(0.999996 0.00267355 -0.00282508 0.999996 211.322 234.29)" fill="#14C67A"/>
<rect width="0.990721" height="29.8774" transform="matrix(0.999996 0.00267355 -0.00282508 0.999996 183.555 243.853)" fill="#7A7A7A"/>
<rect width="6.93505" height="7.71029" transform="matrix(0.999996 0.00267355 -0.00282508 0.999996 180.551 255.409)" fill="#14C67A"/>
<rect width="0.990721" height="42.4066" transform="matrix(0.999996 0.00267355 -0.00282508 0.999996 153.836 242.81)" fill="#7A7A7A"/>
<rect width="6.93505" height="19.2757" transform="matrix(0.999996 0.00267355 -0.00282508 0.999996 150.83 254.368)" fill="#FF5454"/>
<rect width="0.990721" height="38.5514" transform="matrix(0.999996 0.00267355 -0.00282508 0.999996 133.049 236.007)" fill="#7A7A7A"/>
<rect width="6.93505" height="15.4206" transform="matrix(0.999996 0.00267355 -0.00282508 0.999996 130.045 247.564)" fill="#14C67A"/>
<rect width="0.990721" height="31.8049" transform="matrix(0.999996 0.00267355 -0.00282508 0.999996 122.133 242.725)" fill="#7A7A7A"/>
<rect width="6.93505" height="9.63786" transform="matrix(0.999996 0.00267355 -0.00282508 0.999996 119.127 254.282)" fill="#14C67A"/>
<rect width="0.990721" height="29.8774" transform="matrix(0.999996 0.00267355 -0.00282508 0.999996 71.5918 247.408)" fill="#7A7A7A"/>
<rect width="6.93505" height="7.71029" transform="matrix(0.999996 0.00267355 -0.00282508 0.999996 68.5879 258.965)" fill="#14C67A"/>
<rect width="0.990721" height="55.8996" transform="matrix(0.999996 0.00267355 -0.00282508 0.999996 245.131 190.044)" fill="#7A7A7A"/>
<rect width="6.93505" height="33.7325" transform="matrix(0.999996 0.00267355 -0.00282508 0.999996 242.127 201.603)" fill="#14C67A"/>
<rect width="0.990721" height="74.2115" transform="matrix(0.999996 0.00267355 -0.00282508 0.999996 305.625 169.003)" fill="#7A7A7A"/>
<rect width="6.93505" height="52.0444" transform="matrix(0.999996 0.00267355 -0.00282508 0.999996 302.619 180.562)" fill="#14C67A"/>
<rect width="0.990721" height="49.1531" transform="matrix(0.999996 0.00267355 -0.00282508 0.999996 294.799 143.915)" fill="#7A7A7A"/>
<rect width="6.93505" height="26.986" transform="matrix(0.999996 0.00267355 -0.00282508 0.999996 291.793 155.474)" fill="#FF5454"/>
<rect width="0.990721" height="58.7909" transform="matrix(0.999996 0.00267355 -0.00282508 0.999996 284.891 143.889)" fill="#7A7A7A"/>
<rect width="6.93505" height="36.6239" transform="matrix(0.999996 0.00267355 -0.00282508 0.999996 281.887 155.447)" fill="#14C67A"/>
<rect width="0.990721" height="41.4428" transform="matrix(0.999996 0.00267355 -0.00282508 0.999996 274.936 161.212)" fill="#7A7A7A"/>
<rect width="6.93505" height="18.3119" transform="matrix(0.999996 0.00267355 -0.00282508 0.999996 271.93 172.769)" fill="#FF5454"/>
<rect width="0.990721" height="30.8412" transform="matrix(0.999996 0.00267355 -0.00282508 0.999996 265.062 148.656)" fill="#7A7A7A"/>
<rect width="6.93505" height="8.67407" transform="matrix(0.999996 0.00267355 -0.00282508 0.999996 262.059 160.212)" fill="#FF5454"/>
<rect width="0.990721" height="58.7909" transform="matrix(0.999996 0.00267355 -0.00282508 0.999996 254.164 148.626)" fill="#7A7A7A"/>
<rect width="6.93505" height="36.6239" transform="matrix(0.999996 0.00267355 -0.00282508 0.999996 251.16 160.185)" fill="#14C67A"/>
<rect width="0.990721" height="34.6963" transform="matrix(-0.999996 -0.00267355 0.00282508 -0.999996 577.9 230.45)" fill="#7A7A7A"/>
<rect width="6.93505" height="13.493" transform="matrix(-0.999996 -0.00267355 0.00282508 -0.999996 580.904 218.893)" fill="#FF5454"/>
<rect width="0.990721" height="38.5514" transform="matrix(-0.999996 -0.00267355 0.00282508 -0.999996 567.982 234.279)" fill="#7A7A7A"/>
<rect width="6.93505" height="15.4206" transform="matrix(-0.999996 -0.00267355 0.00282508 -0.999996 570.987 222.722)" fill="#14C67A"/>
<rect width="0.990721" height="24.0946" transform="matrix(-0.999996 -0.00267355 0.00282508 -0.999996 557.062 241.96)" fill="#7A7A7A"/>
<rect width="6.93505" height="1.92757" transform="matrix(-0.999996 -0.00267355 0.00282508 -0.999996 560.068 230.403)" fill="#14C67A"/>
<rect width="0.990721" height="29.8774" transform="matrix(0.999996 0.00267355 0.00282508 -0.999996 333.355 172.932)" fill="#7A7A7A"/>
<rect width="0.990721" height="38.5514" transform="matrix(0.999996 0.00267355 0.00282508 -0.999996 355.092 193.229)" fill="#7A7A7A"/>
<rect width="6.93505" height="15.4206" transform="matrix(0.999996 0.00267355 0.00282508 -0.999996 352.154 181.657)" fill="#14C67A"/>
<rect width="0.990721" height="38.5514" transform="matrix(0.999996 0.00267355 0.00282508 -0.999996 375.855 208.705)" fill="#7A7A7A"/>
<rect width="6.93505" height="15.4206" transform="matrix(0.999996 0.00267355 0.00282508 -0.999996 372.914 197.133)" fill="#14C67A"/>
<rect width="0.990721" height="32.7687" transform="matrix(0.999996 0.00267355 0.00282508 -0.999996 397.609 223.222)" fill="#7A7A7A"/>
<rect width="6.93505" height="10.6016" transform="matrix(0.999996 0.00267355 0.00282508 -0.999996 394.67 211.647)" fill="#14C67A"/>
<rect width="0.990721" height="38.5514" transform="matrix(0.999996 0.00267355 0.00282508 -0.999996 429.217 257.04)" fill="#7A7A7A"/>
<rect width="6.93505" height="15.4206" transform="matrix(0.999996 0.00267355 0.00282508 -0.999996 426.277 245.466)" fill="#14C67A"/>
<rect width="0.990721" height="48.1893" transform="matrix(0.999996 0.00267355 0.00282508 -0.999996 515.494 227.392)" fill="#7A7A7A"/>
<rect width="6.93505" height="26.0222" transform="matrix(0.999996 0.00267355 0.00282508 -0.999996 512.554 215.819)" fill="#14C67A"/>
<rect width="0.990721" height="38.5514" transform="matrix(0.999996 0.00267355 0.00282508 -0.999996 536.207 260.217)" fill="#7A7A7A"/>
<rect width="6.93505" height="15.4206" transform="matrix(0.999996 0.00267355 0.00282508 -0.999996 533.267 248.643)" fill="#14C67A"/>
<rect width="0.990721" height="44.3342" transform="matrix(-0.999996 -0.00267355 0.00282508 -0.999996 674.119 188.301)" fill="#7A7A7A"/>
<rect width="6.93505" height="21.2033" transform="matrix(-0.999996 -0.00267355 0.00282508 -0.999996 677.125 176.742)" fill="#14C67A"/>
<rect width="0.990721" height="23.1309" transform="matrix(0.999996 0.00267355 0.00282508 -0.999996 344.254 172.962)" fill="#7A7A7A"/>
<rect width="6.93505" height="0.963786" transform="matrix(0.999996 0.00267355 0.00282508 -0.999996 341.312 161.389)" fill="#FF5454"/>
<rect width="0.990721" height="23.1309" transform="matrix(0.999996 0.00267355 0.00282508 -0.999996 365 193.257)" fill="#7A7A7A"/>
<rect width="6.93505" height="0.963786" transform="matrix(0.999996 0.00267355 0.00282508 -0.999996 362.061 181.684)" fill="#FF5454"/>
<rect width="0.990721" height="37.5877" transform="matrix(0.999996 0.00267355 0.00282508 -0.999996 419.367 236.772)" fill="#7A7A7A"/>
<rect width="6.93505" height="15.4206" transform="matrix(0.999996 0.00267355 0.00282508 -0.999996 416.426 225.199)" fill="#FF5454"/>
<rect width="0.990721" height="37.5877" transform="matrix(0.999996 0.00267355 0.00282508 -0.999996 386.752 208.735)" fill="#7A7A7A"/>
<rect width="6.93505" height="15.4206" transform="matrix(0.999996 0.00267355 0.00282508 -0.999996 383.812 197.161)" fill="#FF5454"/>
<rect width="0.990721" height="49.1531" transform="matrix(-0.999996 -0.00267355 0.00282508 -0.999996 664.243 177.672)" fill="#7A7A7A"/>
<rect width="6.93505" height="26.986" transform="matrix(-0.999996 -0.00267355 0.00282508 -0.999996 667.249 166.115)" fill="#FF5454"/>
<rect width="0.990721" height="23.1309" transform="matrix(0.999996 0.00267355 0.00282508 -0.999996 440.115 257.068)" fill="#7A7A7A"/>
<rect width="6.93505" height="0.963786" transform="matrix(0.999996 0.00267355 0.00282508 -0.999996 437.176 245.495)" fill="#FF5454"/>
<rect width="0.990721" height="45.2979" transform="matrix(0.999996 0.00267355 0.00282508 -0.999996 482.713 258.146)" fill="#7A7A7A"/>
<rect width="6.93505" height="0.963786" transform="matrix(0.999996 0.00267355 0.00282508 -0.999996 479.807 235.007)" fill="#FF5454"/>
<rect width="0.990721" height="42.4066" transform="matrix(0.999996 0.00267355 0.00282508 -0.999996 451.029 251.314)" fill="#7A7A7A"/>
<rect width="6.93505" height="19.2757" transform="matrix(0.999996 0.00267355 0.00282508 -0.999996 448.09 239.741)" fill="#FF5454"/>
<rect width="0.990721" height="36.6239" transform="matrix(0.999996 0.00267355 0.00282508 -0.999996 504.628 215.798)" fill="#7A7A7A"/>
<rect width="6.93505" height="14.4568" transform="matrix(0.999996 0.00267355 0.00282508 -0.999996 501.688 204.224)" fill="#FF5454"/>
<rect width="0.990721" height="31.8049" transform="matrix(0.999996 0.00267355 0.00282508 -0.999996 547.105 260.245)" fill="#7A7A7A"/>
<rect width="6.93505" height="9.63786" transform="matrix(0.999996 0.00267355 0.00282508 -0.999996 544.163 248.671)" fill="#FF5454"/>
<rect width="0.990721" height="41.4428" transform="matrix(0.999996 0.00267355 0.00282508 -0.999996 560.974 260.282)" fill="#7A7A7A"/>
<rect width="6.93505" height="18.3119" transform="matrix(0.999996 0.00267355 0.00282508 -0.999996 558.034 248.708)" fill="#14C67A"/>
<rect width="0.990721" height="29.8774" transform="matrix(0.999996 0.00267355 0.00282508 -0.999996 525.365 239.948)" fill="#7A7A7A"/>
<rect width="6.93505" height="7.71029" transform="matrix(0.999996 0.00267355 0.00282508 -0.999996 522.425 228.375)" fill="#14C67A"/>
<rect width="0.990721" height="42.4066" transform="matrix(0.999996 0.00267355 0.00282508 -0.999996 493.658 241.79)" fill="#7A7A7A"/>
<rect width="6.93505" height="19.2757" transform="matrix(0.999996 0.00267355 0.00282508 -0.999996 490.717 230.217)" fill="#FF5454"/>
<rect width="0.990721" height="38.5514" transform="matrix(0.999996 0.00267355 0.00282508 -0.999996 471.85 246.551)" fill="#7A7A7A"/>
<rect width="6.93505" height="15.4206" transform="matrix(0.999996 0.00267355 0.00282508 -0.999996 468.908 234.978)" fill="#14C67A"/>
<rect width="0.990721" height="31.8049" transform="matrix(0.999996 0.00267355 0.00282508 -0.999996 460.963 241.702)" fill="#7A7A7A"/>
<rect width="6.93505" height="9.63786" transform="matrix(0.999996 0.00267355 0.00282508 -0.999996 458.023 230.13)" fill="#14C67A"/>
<rect width="0.990721" height="29.8774" transform="matrix(0.999996 0.00267355 0.00282508 -0.999996 408.469 236.743)" fill="#7A7A7A"/>
<rect width="6.93505" height="7.71029" transform="matrix(0.999996 0.00267355 0.00282508 -0.999996 405.529 225.171)" fill="#14C67A"/>
<rect width="0.990721" height="55.8996" transform="matrix(-0.999996 -0.00267355 0.00282508 -0.999996 653.33 183.425)" fill="#7A7A7A"/>
<rect width="6.93505" height="33.7325" transform="matrix(-0.999996 -0.00267355 0.00282508 -0.999996 656.333 171.869)" fill="#14C67A"/>
<rect width="0.990721" height="74.2115" transform="matrix(-0.999996 -0.00267355 0.00282508 -0.999996 588.799 230.479)" fill="#7A7A7A"/>
<rect width="6.93505" height="52.0444" transform="matrix(-0.999996 -0.00267355 0.00282508 -0.999996 591.802 218.923)" fill="#14C67A"/>
<rect width="0.990721" height="49.1531" transform="matrix(-0.999996 -0.00267355 0.00282508 -0.999996 599.765 206.414)" fill="#7A7A7A"/>
<rect width="6.93505" height="26.986" transform="matrix(-0.999996 -0.00267355 0.00282508 -0.999996 602.77 194.855)" fill="#FF5454"/>
<rect width="0.990721" height="58.7909" transform="matrix(-0.999996 -0.00267355 0.00282508 -0.999996 609.673 206.44)" fill="#7A7A7A"/>
<rect width="6.93505" height="36.6239" transform="matrix(-0.999996 -0.00267355 0.00282508 -0.999996 612.677 194.882)" fill="#14C67A"/>
<rect width="0.990721" height="41.4428" transform="matrix(-0.999996 -0.00267355 0.00282508 -0.999996 620.62 188.157)" fill="#7A7A7A"/>
<rect width="6.93505" height="18.3119" transform="matrix(-0.999996 -0.00267355 0.00282508 -0.999996 623.626 176.6)" fill="#FF5454"/>
<rect width="0.990721" height="30.8412" transform="matrix(-0.999996 -0.00267355 0.00282508 -0.999996 632.472 201.683)" fill="#7A7A7A"/>
<rect width="6.93505" height="8.67407" transform="matrix(-0.999996 -0.00267355 0.00282508 -0.999996 635.478 190.125)" fill="#FF5454"/>
<rect width="0.990721" height="58.7909" transform="matrix(-0.999996 -0.00267355 0.00282508 -0.999996 642.379 201.71)" fill="#7A7A7A"/>
<rect width="6.93505" height="36.6239" transform="matrix(-0.999996 -0.00267355 0.00282508 -0.999996 645.384 190.15)" fill="#14C67A"/>
<rect width="0.990721" height="34.6963" transform="matrix(-0.999996 -0.00267355 -0.00282508 0.999996 837.541 205.122)" fill="#7A7A7A"/>
<rect width="6.93505" height="13.493" transform="matrix(-0.999996 -0.00267355 -0.00282508 0.999996 840.481 216.694)" fill="#FF5454"/>
<rect width="0.990721" height="38.5514" transform="matrix(-0.999996 -0.00267355 -0.00282508 0.999996 825.664 201.235)" fill="#7A7A7A"/>
<rect width="6.93505" height="15.4206" transform="matrix(-0.999996 -0.00267355 -0.00282508 0.999996 828.604 212.808)" fill="#14C67A"/>
<rect width="0.990721" height="24.0946" transform="matrix(-0.999996 -0.00267355 -0.00282508 0.999996 815.779 193.498)" fill="#7A7A7A"/>
<rect width="6.93505" height="1.92757" transform="matrix(-0.999996 -0.00267355 -0.00282508 0.999996 818.72 205.071)" fill="#14C67A"/>
<rect width="0.990721" height="29.8774" transform="matrix(0.999996 0.00267355 -0.00282508 0.999996 586.73 261.315)" fill="#7A7A7A"/>
<rect width="0.990721" height="38.5514" transform="matrix(0.999996 0.00267355 -0.00282508 0.999996 685.049 177.728)" fill="#7A7A7A"/>
<rect width="6.93505" height="15.4206" transform="matrix(0.999996 0.00267355 -0.00282508 0.999996 682.042 189.286)" fill="#14C67A"/>
<rect width="0.990721" height="47.2255" transform="matrix(0.999996 0.00267355 -0.00282508 0.999996 772.146 207.838)" fill="#7A7A7A"/>
<rect width="6.93505" height="25.0584" transform="matrix(0.999996 0.00267355 -0.00282508 0.999996 769.143 219.396)" fill="#14C67A"/>
<rect width="0.990721" height="38.5514" transform="matrix(0.999996 0.00267355 -0.00282508 0.999996 794.035 175.127)" fill="#7A7A7A"/>
<rect width="6.93505" height="15.4206" transform="matrix(0.999996 0.00267355 -0.00282508 0.999996 791.03 186.685)" fill="#14C67A"/>
<rect width="0.990721" height="23.1309" transform="matrix(0.999996 0.00267355 -0.00282508 0.999996 695.946 177.756)" fill="#7A7A7A"/>
<rect width="6.93505" height="0.963786" transform="matrix(0.999996 0.00267355 -0.00282508 0.999996 692.941 189.315)" fill="#FF5454"/>
<rect width="0.990721" height="45.2979" transform="matrix(0.999996 0.00267355 -0.00282508 0.999996 739.539 176.91)" fill="#7A7A7A"/>
<rect width="6.93505" height="0.963786" transform="matrix(0.999996 0.00267355 -0.00282508 0.999996 736.502 200.033)" fill="#FF5454"/>
<rect width="0.990721" height="42.4066" transform="matrix(0.999996 0.00267355 -0.00282508 0.999996 706.826 183.568)" fill="#7A7A7A"/>
<rect width="6.93505" height="19.2757" transform="matrix(0.999996 0.00267355 -0.00282508 0.999996 703.823 195.126)" fill="#FF5454"/>
<rect width="0.990721" height="35.6601" transform="matrix(0.999996 0.00267355 -0.00282508 0.999996 761.216 219.376)" fill="#7A7A7A"/>
<rect width="6.93505" height="13.493" transform="matrix(0.999996 0.00267355 -0.00282508 0.999996 758.21 230.933)" fill="#FF5454"/>
<rect width="0.990721" height="31.8049" transform="matrix(0.999996 0.00267355 -0.00282508 0.999996 804.934 175.157)" fill="#7A7A7A"/>
<rect width="6.93505" height="9.63786" transform="matrix(0.999996 0.00267355 -0.00282508 0.999996 801.928 186.714)" fill="#FF5454"/>
<rect width="0.990721" height="29.8774" transform="matrix(0.999996 0.00267355 -0.00282508 0.999996 783.081 195.339)" fill="#7A7A7A"/>
<rect width="6.93505" height="7.71029" transform="matrix(0.999996 0.00267355 -0.00282508 0.999996 780.075 206.896)" fill="#14C67A"/>
<rect width="0.990721" height="42.4066" transform="matrix(0.999996 0.00267355 -0.00282508 0.999996 750.392 193.323)" fill="#7A7A7A"/>
<rect width="6.93505" height="19.2757" transform="matrix(0.999996 0.00267355 -0.00282508 0.999996 747.388 204.88)" fill="#FF5454"/>
<rect width="0.990721" height="38.5514" transform="matrix(0.999996 0.00267355 -0.00282508 0.999996 728.609 188.446)" fill="#7A7A7A"/>
<rect width="6.93505" height="15.4206" transform="matrix(0.999996 0.00267355 -0.00282508 0.999996 725.604 200.005)" fill="#14C67A"/>
<rect width="0.990721" height="31.8049" transform="matrix(0.999996 0.00267355 -0.00282508 0.999996 717.698 193.235)" fill="#7A7A7A"/>
<rect width="6.93505" height="9.63786" transform="matrix(0.999996 0.00267355 -0.00282508 0.999996 714.693 204.793)" fill="#14C67A"/>
<rect width="0.990721" height="74.2115" transform="matrix(-0.999996 -0.00267355 -0.00282508 0.999996 848.439 205.151)" fill="#7A7A7A"/>
<rect width="6.93505" height="52.0444" transform="matrix(-0.999996 -0.00267355 -0.00282508 0.999996 851.379 216.725)" fill="#14C67A"/>
<rect width="0.990721" height="49.1531" transform="matrix(-0.999996 -0.00267355 -0.00282508 0.999996 858.279 229.272)" fill="#7A7A7A"/>
<rect width="6.93505" height="26.986" transform="matrix(-0.999996 -0.00267355 -0.00282508 0.999996 861.219 240.846)" fill="#FF5454"/>
<rect width="0.990721" height="57.8272" transform="matrix(-0.999996 -0.00267355 -0.00282508 0.999996 870.167 229.304)" fill="#7A7A7A"/>
<rect width="6.93505" height="35.6601" transform="matrix(-0.999996 -0.00267355 -0.00282508 0.999996 873.106 240.876)" fill="#14C67A"/>
<rect width="0.990721" height="41.4428" transform="matrix(-0.999996 -0.00267355 -0.00282508 0.999996 881.091 220.659)" fill="#7A7A7A"/>
<rect width="6.93505" height="18.3119" transform="matrix(-0.999996 -0.00267355 -0.00282508 0.999996 884.03 232.231)" fill="#FF5454"/>
<rect width="0.990721" height="34.6963" transform="matrix(-0.999996 -0.00267355 -0.00282508 0.999996 1040.6 220.122)" fill="#7A7A7A"/>
<rect width="6.93505" height="13.493" transform="matrix(-0.999996 -0.00267355 -0.00282508 0.999996 1043.54 231.694)" fill="#FF5454"/>
<rect width="0.990721" height="38.5514" transform="matrix(-0.999996 -0.00267355 -0.00282508 0.999996 1028.72 216.233)" fill="#7A7A7A"/>
<rect width="6.93505" height="15.4206" transform="matrix(-0.999996 -0.00267355 -0.00282508 0.999996 1031.66 227.808)" fill="#14C67A"/>
<rect width="0.990721" height="24.0946" transform="matrix(-0.999996 -0.00267355 -0.00282508 0.999996 1018.84 208.497)" fill="#7A7A7A"/>
<rect width="6.93505" height="1.92757" transform="matrix(-0.999996 -0.00267355 -0.00282508 0.999996 1021.78 220.071)" fill="#14C67A"/>
<rect width="0.990721" height="29.8774" transform="matrix(0.999996 0.00267355 -0.00282508 0.999996 789.786 276.313)" fill="#7A7A7A"/>
<rect width="0.990721" height="38.5514" transform="matrix(0.999996 0.00267355 -0.00282508 0.999996 888.104 192.727)" fill="#7A7A7A"/>
<rect width="6.93505" height="15.4206" transform="matrix(0.999996 0.00267355 -0.00282508 0.999996 885.101 204.284)" fill="#14C67A"/>
<rect width="0.990721" height="47.2255" transform="matrix(0.999996 0.00267355 -0.00282508 0.999996 975.203 222.837)" fill="#7A7A7A"/>
<rect width="6.93505" height="25.0584" transform="matrix(0.999996 0.00267355 -0.00282508 0.999996 972.197 234.395)" fill="#14C67A"/>
<rect width="0.990721" height="38.5514" transform="matrix(0.999996 0.00267355 -0.00282508 0.999996 997.091 190.127)" fill="#7A7A7A"/>
<rect width="6.93505" height="15.4206" transform="matrix(0.999996 0.00267355 -0.00282508 0.999996 994.087 201.685)" fill="#14C67A"/>
<rect width="0.990721" height="23.1309" transform="matrix(0.999996 0.00267355 -0.00282508 0.999996 899.001 192.756)" fill="#7A7A7A"/>
<rect width="6.93505" height="0.963786" transform="matrix(0.999996 0.00267355 -0.00282508 0.999996 895.997 204.313)" fill="#FF5454"/>
<rect width="0.990721" height="45.2979" transform="matrix(0.999996 0.00267355 -0.00282508 0.999996 942.598 191.909)" fill="#7A7A7A"/>
<rect width="6.93505" height="0.963786" transform="matrix(0.999996 0.00267355 -0.00282508 0.999996 939.56 215.03)" fill="#FF5454"/>
<rect width="0.990721" height="42.4066" transform="matrix(0.999996 0.00267355 -0.00282508 0.999996 909.884 198.567)" fill="#7A7A7A"/>
<rect width="6.93505" height="19.2757" transform="matrix(0.999996 0.00267355 -0.00282508 0.999996 906.879 210.126)" fill="#FF5454"/>
<rect width="0.990721" height="35.6601" transform="matrix(0.999996 0.00267355 -0.00282508 0.999996 964.272 234.372)" fill="#7A7A7A"/>
<rect width="6.93505" height="13.493" transform="matrix(0.999996 0.00267355 -0.00282508 0.999996 961.269 245.931)" fill="#FF5454"/>
<rect width="0.990721" height="31.8049" transform="matrix(0.999996 0.00267355 -0.00282508 0.999996 1007.99 190.155)" fill="#7A7A7A"/>
<rect width="6.93505" height="9.63786" transform="matrix(0.999996 0.00267355 -0.00282508 0.999996 1004.98 201.714)" fill="#FF5454"/>
<rect width="0.990721" height="29.8774" transform="matrix(0.999996 0.00267355 -0.00282508 0.999996 986.137 210.337)" fill="#7A7A7A"/>
<rect width="6.93505" height="7.71029" transform="matrix(0.999996 0.00267355 -0.00282508 0.999996 983.13 221.895)" fill="#14C67A"/>
<rect width="0.990721" height="42.4066" transform="matrix(0.999996 0.00267355 -0.00282508 0.999996 953.448 208.323)" fill="#7A7A7A"/>
<rect width="6.93505" height="19.2757" transform="matrix(0.999996 0.00267355 -0.00282508 0.999996 950.444 219.88)" fill="#FF5454"/>
<rect width="0.990721" height="38.5514" transform="matrix(0.999996 0.00267355 -0.00282508 0.999996 931.666 203.444)" fill="#7A7A7A"/>
<rect width="6.93505" height="15.4206" transform="matrix(0.999996 0.00267355 -0.00282508 0.999996 928.661 215.003)" fill="#14C67A"/>
<rect width="0.990721" height="31.8049" transform="matrix(0.999996 0.00267355 -0.00282508 0.999996 920.756 208.235)" fill="#7A7A7A"/>
<rect width="6.93505" height="9.63786" transform="matrix(0.999996 0.00267355 -0.00282508 0.999996 917.749 219.793)" fill="#14C67A"/>
<rect width="0.990721" height="74.2115" transform="matrix(-0.999996 -0.00267355 -0.00282508 0.999996 1051.5 220.149)" fill="#7A7A7A"/>
<rect width="6.93505" height="52.0444" transform="matrix(-0.999996 -0.00267355 -0.00282508 0.999996 1054.44 231.724)" fill="#14C67A"/>
<rect width="0.990721" height="49.1531" transform="matrix(-0.999996 -0.00267355 -0.00282508 0.999996 1061.34 244.271)" fill="#7A7A7A"/>
<rect width="6.93505" height="26.986" transform="matrix(-0.999996 -0.00267355 -0.00282508 0.999996 1064.28 255.844)" fill="#FF5454"/>
<rect width="0.990721" height="57.8272" transform="matrix(-0.999996 -0.00267355 -0.00282508 0.999996 1073.22 244.302)" fill="#7A7A7A"/>
<rect width="6.93505" height="35.6601" transform="matrix(-0.999996 -0.00267355 -0.00282508 0.999996 1076.16 255.876)" fill="#14C67A"/>
<rect width="0.990721" height="41.4428" transform="matrix(-0.999996 -0.00267355 -0.00282508 0.999996 1084.15 235.659)" fill="#7A7A7A"/>
<rect width="6.93505" height="18.3119" transform="matrix(-0.999996 -0.00267355 -0.00282508 0.999996 1087.08 247.231)" fill="#FF5454"/>
<rect width="0.990721" height="34.6963" transform="matrix(0.999996 0.00267355 -0.00282508 0.999996 1136.75 203.993)" fill="#7A7A7A"/>
<rect width="6.93505" height="13.493" transform="matrix(0.999996 0.00267355 -0.00282508 0.999996 1133.74 215.552)" fill="#FF5454"/>
<rect width="0.990721" height="38.5514" transform="matrix(0.999996 0.00267355 -0.00282508 0.999996 1148.64 200.171)" fill="#7A7A7A"/>
<rect width="6.93505" height="15.4206" transform="matrix(0.999996 0.00267355 -0.00282508 0.999996 1145.64 211.729)" fill="#14C67A"/>
<rect width="0.990721" height="24.0946" transform="matrix(0.999996 0.00267355 -0.00282508 0.999996 1158.57 192.487)" fill="#7A7A7A"/>
<rect width="6.93505" height="1.92757" transform="matrix(0.999996 0.00267355 -0.00282508 0.999996 1155.57 204.045)" fill="#14C67A"/>
<rect width="0.990721" height="38.5514" transform="matrix(-0.999996 -0.00267355 -0.00282508 0.999996 1180.42 174.233)" fill="#7A7A7A"/>
<rect width="6.93505" height="15.4206" transform="matrix(-0.999996 -0.00267355 -0.00282508 0.999996 1183.36 185.808)" fill="#14C67A"/>
<rect width="0.990721" height="31.8049" transform="matrix(-0.999996 -0.00267355 -0.00282508 0.999996 1169.52 174.204)" fill="#7A7A7A"/>
<rect width="6.93505" height="9.63786" transform="matrix(-0.999996 -0.00267355 -0.00282508 0.999996 1172.46 185.777)" fill="#FF5454"/>
<rect width="0.990721" height="29.8774" transform="matrix(-0.999996 -0.00267355 -0.00282508 0.999996 1191.26 194.503)" fill="#7A7A7A"/>
<rect width="6.93505" height="7.71029" transform="matrix(-0.999996 -0.00267355 -0.00282508 0.999996 1194.2 206.075)" fill="#14C67A"/>
<rect width="0.990721" height="74.2115" transform="matrix(0.999996 0.00267355 -0.00282508 0.999996 1125.85 203.965)" fill="#7A7A7A"/>
<rect width="6.93505" height="52.0444" transform="matrix(0.999996 0.00267355 -0.00282508 0.999996 1122.84 215.522)" fill="#14C67A"/>
<rect width="0.990721" height="49.1531" transform="matrix(0.999996 0.00267355 -0.00282508 0.999996 1115.87 228.033)" fill="#7A7A7A"/>
<rect width="6.93505" height="26.986" transform="matrix(0.999996 0.00267355 -0.00282508 0.999996 1112.87 239.591)" fill="#FF5454"/>
<rect width="0.990721" height="57.8272" transform="matrix(0.999996 0.00267355 -0.00282508 0.999996 1103.98 228.001)" fill="#7A7A7A"/>
<rect width="6.93505" height="35.6601" transform="matrix(0.999996 0.00267355 -0.00282508 0.999996 1100.98 239.56)" fill="#14C67A"/>
<rect width="0.990721" height="41.4428" transform="matrix(0.999996 0.00267355 -0.00282508 0.999996 1093.11 219.298)" fill="#7A7A7A"/>
<rect width="6.93505" height="18.3119" transform="matrix(0.999996 0.00267355 -0.00282508 0.999996 1090.11 230.854)" fill="#FF5454"/>
<rect width="0.990721" height="34.6963" transform="matrix(-0.999996 -0.00267355 -0.00282508 0.999996 837.541 205.122)" fill="#7A7A7A"/>
<rect width="6.93505" height="13.493" transform="matrix(-0.999996 -0.00267355 -0.00282508 0.999996 840.481 216.694)" fill="#FF5454"/>
<rect width="0.990721" height="38.5514" transform="matrix(-0.999996 -0.00267355 -0.00282508 0.999996 825.664 201.235)" fill="#7A7A7A"/>
<rect width="6.93505" height="15.4206" transform="matrix(-0.999996 -0.00267355 -0.00282508 0.999996 828.604 212.808)" fill="#14C67A"/>
<rect width="0.990721" height="24.0946" transform="matrix(-0.999996 -0.00267355 -0.00282508 0.999996 815.779 193.498)" fill="#7A7A7A"/>
<rect width="6.93505" height="1.92757" transform="matrix(-0.999996 -0.00267355 -0.00282508 0.999996 818.72 205.071)" fill="#14C67A"/>
<rect width="0.990721" height="29.8774" transform="matrix(0.999996 0.00267355 -0.00282508 0.999996 586.73 261.315)" fill="#7A7A7A"/>
<rect width="0.990721" height="38.5514" transform="matrix(0.999996 0.00267355 -0.00282508 0.999996 685.049 177.728)" fill="#7A7A7A"/>
<rect width="6.93505" height="15.4206" transform="matrix(0.999996 0.00267355 -0.00282508 0.999996 682.042 189.286)" fill="#14C67A"/>
<rect width="0.990721" height="47.2255" transform="matrix(0.999996 0.00267355 -0.00282508 0.999996 772.146 207.838)" fill="#7A7A7A"/>
<rect width="6.93505" height="25.0584" transform="matrix(0.999996 0.00267355 -0.00282508 0.999996 769.143 219.396)" fill="#14C67A"/>
<rect width="0.990721" height="38.5514" transform="matrix(0.999996 0.00267355 -0.00282508 0.999996 794.035 175.127)" fill="#7A7A7A"/>
<rect width="6.93505" height="15.4206" transform="matrix(0.999996 0.00267355 -0.00282508 0.999996 791.03 186.685)" fill="#14C67A"/>
<rect width="0.990721" height="23.1309" transform="matrix(0.999996 0.00267355 -0.00282508 0.999996 695.946 177.756)" fill="#7A7A7A"/>
<rect width="6.93505" height="0.963786" transform="matrix(0.999996 0.00267355 -0.00282508 0.999996 692.941 189.315)" fill="#FF5454"/>
<rect width="0.990721" height="45.2979" transform="matrix(0.999996 0.00267355 -0.00282508 0.999996 739.539 176.91)" fill="#7A7A7A"/>
<rect width="6.93505" height="0.963786" transform="matrix(0.999996 0.00267355 -0.00282508 0.999996 736.502 200.033)" fill="#FF5454"/>
<rect width="0.990721" height="42.4066" transform="matrix(0.999996 0.00267355 -0.00282508 0.999996 706.826 183.568)" fill="#7A7A7A"/>
<rect width="6.93505" height="19.2757" transform="matrix(0.999996 0.00267355 -0.00282508 0.999996 703.823 195.126)" fill="#FF5454"/>
<rect width="0.990721" height="35.6601" transform="matrix(0.999996 0.00267355 -0.00282508 0.999996 761.216 219.376)" fill="#7A7A7A"/>
<rect width="6.93505" height="13.493" transform="matrix(0.999996 0.00267355 -0.00282508 0.999996 758.21 230.933)" fill="#FF5454"/>
<rect width="0.990721" height="31.8049" transform="matrix(0.999996 0.00267355 -0.00282508 0.999996 804.934 175.157)" fill="#7A7A7A"/>
<rect width="6.93505" height="9.63786" transform="matrix(0.999996 0.00267355 -0.00282508 0.999996 801.928 186.714)" fill="#FF5454"/>
<rect width="0.990721" height="29.8774" transform="matrix(0.999996 0.00267355 -0.00282508 0.999996 783.081 195.339)" fill="#7A7A7A"/>
<rect width="6.93505" height="7.71029" transform="matrix(0.999996 0.00267355 -0.00282508 0.999996 780.075 206.896)" fill="#14C67A"/>
<rect width="0.990721" height="42.4066" transform="matrix(0.999996 0.00267355 -0.00282508 0.999996 750.392 193.323)" fill="#7A7A7A"/>
<rect width="6.93505" height="19.2757" transform="matrix(0.999996 0.00267355 -0.00282508 0.999996 747.388 204.88)" fill="#FF5454"/>
<rect width="0.990721" height="38.5514" transform="matrix(0.999996 0.00267355 -0.00282508 0.999996 728.609 188.446)" fill="#7A7A7A"/>
<rect width="6.93505" height="15.4206" transform="matrix(0.999996 0.00267355 -0.00282508 0.999996 725.604 200.005)" fill="#14C67A"/>
<rect width="0.990721" height="31.8049" transform="matrix(0.999996 0.00267355 -0.00282508 0.999996 717.698 193.235)" fill="#7A7A7A"/>
<rect width="6.93505" height="9.63786" transform="matrix(0.999996 0.00267355 -0.00282508 0.999996 714.693 204.793)" fill="#14C67A"/>
<rect width="0.990721" height="74.2115" transform="matrix(-0.999996 -0.00267355 -0.00282508 0.999996 848.439 205.151)" fill="#7A7A7A"/>
<rect width="6.93505" height="52.0444" transform="matrix(-0.999996 -0.00267355 -0.00282508 0.999996 851.379 216.725)" fill="#14C67A"/>
<rect width="0.990721" height="49.1531" transform="matrix(-0.999996 -0.00267355 -0.00282508 0.999996 858.279 229.272)" fill="#7A7A7A"/>
<rect width="6.93505" height="26.986" transform="matrix(-0.999996 -0.00267355 -0.00282508 0.999996 861.219 240.846)" fill="#FF5454"/>
<rect width="0.990721" height="57.8272" transform="matrix(-0.999996 -0.00267355 -0.00282508 0.999996 870.167 229.304)" fill="#7A7A7A"/>
<rect width="6.93505" height="35.6601" transform="matrix(-0.999996 -0.00267355 -0.00282508 0.999996 873.106 240.876)" fill="#14C67A"/>
<rect width="0.990721" height="41.4428" transform="matrix(-0.999996 -0.00267355 -0.00282508 0.999996 881.091 220.659)" fill="#7A7A7A"/>
<rect width="6.93505" height="18.3119" transform="matrix(-0.999996 -0.00267355 -0.00282508 0.999996 884.03 232.231)" fill="#FF5454"/>
<path d="M1000 389.371L1001.1 0.966797" stroke="white" stroke-width="1.91394" stroke-dasharray="3.71 3.71"/>
<path d="M1005.94 215.297C1005.93 218.203 1003.5 220.598 1000.44 220.59C997.389 220.581 994.966 218.174 994.974 215.267C994.983 212.361 997.419 209.966 1000.47 209.974C1003.53 209.982 1005.95 212.39 1005.94 215.297Z" fill="#222222" stroke="white" stroke-width="1.91394"/>
</svg>
