<svg width="630" height="290" viewBox="0 0 630 290" fill="none" xmlns="http://www.w3.org/2000/svg">
<rect width="0.990721" height="34.6963" transform="matrix(0.999996 0.00267355 -0.00282508 0.999996 306.567 63.1094)" fill="#7A7A7A"/>
<rect width="6.93505" height="13.493" transform="matrix(0.999996 0.00267355 -0.00282508 0.999996 303.562 74.667)" fill="#FF5454"/>
<rect width="0.990721" height="38.5514" transform="matrix(0.999996 0.00267355 -0.00282508 0.999996 317.472 60.2471)" fill="#7A7A7A"/>
<rect width="6.93505" height="15.4206" transform="matrix(0.999996 0.00267355 -0.00282508 0.999996 314.469 71.8057)" fill="#14C67A"/>
<rect width="0.990721" height="24.0946" transform="matrix(0.999996 0.00267355 -0.00282508 0.999996 327.399 53.5283)" fill="#7A7A7A"/>
<rect width="6.93505" height="1.92757" transform="matrix(0.999996 0.00267355 -0.00282508 0.999996 324.394 65.084)" fill="#14C67A"/>
<rect width="0.990721" height="38.5514" transform="matrix(0.999996 0.00267355 -0.00282508 0.999996 13.9646 182.802)" fill="#7A7A7A"/>
<rect width="6.93505" height="15.4206" transform="matrix(0.999996 0.00267355 -0.00282508 0.999996 10.9597 194.358)" fill="#14C67A"/>
<rect width="0.990721" height="38.5514" transform="matrix(0.999996 0.00267355 -0.00282508 0.999996 33.8201 168.398)" fill="#7A7A7A"/>
<rect width="6.93505" height="15.4206" transform="matrix(0.999996 0.00267355 -0.00282508 0.999996 30.8171 179.956)" fill="#14C67A"/>
<rect width="0.990721" height="32.7687" transform="matrix(0.999996 0.00267355 -0.00282508 0.999996 53.6785 153.031)" fill="#7A7A7A"/>
<rect width="6.93505" height="10.6016" transform="matrix(0.999996 0.00267355 -0.00282508 0.999996 50.6736 164.588)" fill="#14C67A"/>
<rect width="0.990721" height="38.5514" transform="matrix(0.999996 0.00267355 -0.00282508 0.999996 83.4949 119.378)" fill="#7A7A7A"/>
<rect width="6.93505" height="15.4206" transform="matrix(0.999996 0.00267355 -0.00282508 0.999996 80.49 130.935)" fill="#14C67A"/>
<rect width="0.990721" height="48.1893" transform="matrix(0.999996 0.00267355 -0.00282508 0.999996 165.64 149.475)" fill="#7A7A7A"/>
<rect width="6.93505" height="26.0222" transform="matrix(0.999996 0.00267355 -0.00282508 0.999996 162.635 161.032)" fill="#14C67A"/>
<rect width="0.990721" height="38.5514" transform="matrix(0.999996 0.00267355 -0.00282508 0.999996 185.547 116.759)" fill="#7A7A7A"/>
<rect width="6.93505" height="15.4206" transform="matrix(0.999996 0.00267355 -0.00282508 0.999996 182.543 128.315)" fill="#14C67A"/>
<rect width="0.990721" height="44.3342" transform="matrix(0.999996 0.00267355 -0.00282508 0.999996 215.345 89.8516)" fill="#7A7A7A"/>
<rect width="6.93505" height="21.2033" transform="matrix(0.999996 0.00267355 -0.00282508 0.999996 212.341 101.41)" fill="#14C67A"/>
<rect width="0.990721" height="23.1309" transform="matrix(0.999996 0.00267355 -0.00282508 0.999996 3.00659 203.977)" fill="#7A7A7A"/>
<rect width="6.93505" height="0.963786" transform="matrix(0.999996 0.00267355 -0.00282508 0.999996 0.00268555 215.533)" fill="#FF5454"/>
<rect width="0.990721" height="23.1309" transform="matrix(0.999996 0.00267355 -0.00282508 0.999996 22.8806 182.825)" fill="#7A7A7A"/>
<rect width="6.93505" height="0.963786" transform="matrix(0.999996 0.00267355 -0.00282508 0.999996 19.8767 194.383)" fill="#FF5454"/>
<rect width="0.990721" height="37.5877" transform="matrix(0.999996 0.00267355 -0.00282508 0.999996 74.5164 141.52)" fill="#7A7A7A"/>
<rect width="6.93505" height="15.4206" transform="matrix(0.999996 0.00267355 -0.00282508 0.999996 71.5105 153.077)" fill="#FF5454"/>
<rect width="0.990721" height="37.5877" transform="matrix(0.999996 0.00267355 -0.00282508 0.999996 43.7273 168.426)" fill="#7A7A7A"/>
<rect width="6.93505" height="15.4206" transform="matrix(0.999996 0.00267355 -0.00282508 0.999996 40.7234 179.982)" fill="#FF5454"/>
<rect width="0.990721" height="49.1531" transform="matrix(0.999996 0.00267355 -0.00282508 0.999996 226.243 89.8809)" fill="#7A7A7A"/>
<rect width="6.93505" height="26.986" transform="matrix(0.999996 0.00267355 -0.00282508 0.999996 223.238 101.438)" fill="#FF5454"/>
<rect width="0.990721" height="23.1309" transform="matrix(0.999996 0.00267355 -0.00282508 0.999996 94.3933 119.408)" fill="#7A7A7A"/>
<rect width="6.93505" height="0.963786" transform="matrix(0.999996 0.00267355 -0.00282508 0.999996 91.3875 130.965)" fill="#FF5454"/>
<rect width="0.990721" height="45.2979" transform="matrix(0.999996 0.00267355 -0.00282508 0.999996 135.015 118.551)" fill="#7A7A7A"/>
<rect width="6.93505" height="0.963786" transform="matrix(0.999996 0.00267355 -0.00282508 0.999996 131.978 141.674)" fill="#FF5454"/>
<rect width="0.990721" height="42.4066" transform="matrix(0.999996 0.00267355 -0.00282508 0.999996 104.285 125.216)" fill="#7A7A7A"/>
<rect width="6.93505" height="19.2757" transform="matrix(0.999996 0.00267355 -0.00282508 0.999996 101.279 136.773)" fill="#FF5454"/>
<rect width="0.990721" height="35.6601" transform="matrix(0.999996 0.00267355 -0.00282508 0.999996 154.71 161.012)" fill="#7A7A7A"/>
<rect width="6.93505" height="13.493" transform="matrix(0.999996 0.00267355 -0.00282508 0.999996 151.705 172.568)" fill="#FF5454"/>
<rect width="0.990721" height="31.8049" transform="matrix(0.999996 0.00267355 -0.00282508 0.999996 195.454 116.785)" fill="#7A7A7A"/>
<rect width="6.93505" height="9.63786" transform="matrix(0.999996 0.00267355 -0.00282508 0.999996 192.45 128.343)" fill="#FF5454"/>
<rect width="0.990721" height="41.4428" transform="matrix(0.999996 0.00267355 -0.00282508 0.999996 206.353 116.814)" fill="#7A7A7A"/>
<rect width="6.93505" height="18.3119" transform="matrix(0.999996 0.00267355 -0.00282508 0.999996 203.347 128.373)" fill="#14C67A"/>
<rect width="0.990721" height="29.8774" transform="matrix(0.999996 0.00267355 -0.00282508 0.999996 175.581 137.936)" fill="#7A7A7A"/>
<rect width="6.93505" height="7.71029" transform="matrix(0.999996 0.00267355 -0.00282508 0.999996 172.576 149.492)" fill="#14C67A"/>
<rect width="0.990721" height="42.4066" transform="matrix(0.999996 0.00267355 -0.00282508 0.999996 145.861 136.893)" fill="#7A7A7A"/>
<rect width="6.93505" height="19.2757" transform="matrix(0.999996 0.00267355 -0.00282508 0.999996 142.856 148.451)" fill="#FF5454"/>
<rect width="0.990721" height="38.5514" transform="matrix(0.999996 0.00267355 -0.00282508 0.999996 125.074 130.09)" fill="#7A7A7A"/>
<rect width="6.93505" height="15.4206" transform="matrix(0.999996 0.00267355 -0.00282508 0.999996 122.071 141.647)" fill="#14C67A"/>
<rect width="0.990721" height="31.8049" transform="matrix(0.999996 0.00267355 -0.00282508 0.999996 114.159 136.808)" fill="#7A7A7A"/>
<rect width="6.93505" height="9.63786" transform="matrix(0.999996 0.00267355 -0.00282508 0.999996 111.153 148.365)" fill="#14C67A"/>
<rect width="0.990721" height="29.8774" transform="matrix(0.999996 0.00267355 -0.00282508 0.999996 63.6179 141.491)" fill="#7A7A7A"/>
<rect width="6.93505" height="7.71029" transform="matrix(0.999996 0.00267355 -0.00282508 0.999996 60.614 153.048)" fill="#14C67A"/>
<rect width="0.990721" height="55.8996" transform="matrix(0.999996 0.00267355 -0.00282508 0.999996 237.157 84.127)" fill="#7A7A7A"/>
<rect width="6.93505" height="33.7325" transform="matrix(0.999996 0.00267355 -0.00282508 0.999996 234.152 95.6855)" fill="#14C67A"/>
<rect width="0.990721" height="74.2115" transform="matrix(0.999996 0.00267355 -0.00282508 0.999996 297.651 63.0859)" fill="#7A7A7A"/>
<rect width="6.93505" height="52.0444" transform="matrix(0.999996 0.00267355 -0.00282508 0.999996 294.645 74.6445)" fill="#14C67A"/>
<rect width="0.990721" height="49.1531" transform="matrix(0.999996 0.00267355 -0.00282508 0.999996 286.824 37.998)" fill="#7A7A7A"/>
<rect width="6.93505" height="26.986" transform="matrix(0.999996 0.00267355 -0.00282508 0.999996 283.819 49.5566)" fill="#FF5454"/>
<rect width="0.990721" height="58.7909" transform="matrix(0.999996 0.00267355 -0.00282508 0.999996 276.917 37.9717)" fill="#7A7A7A"/>
<rect width="6.93505" height="36.6239" transform="matrix(0.999996 0.00267355 -0.00282508 0.999996 273.912 49.5303)" fill="#14C67A"/>
<rect width="0.990721" height="41.4428" transform="matrix(0.999996 0.00267355 -0.00282508 0.999996 266.961 55.2949)" fill="#7A7A7A"/>
<rect width="6.93505" height="18.3119" transform="matrix(0.999996 0.00267355 -0.00282508 0.999996 263.956 66.8516)" fill="#FF5454"/>
<rect width="0.990721" height="30.8412" transform="matrix(0.999996 0.00267355 -0.00282508 0.999996 257.089 42.7393)" fill="#7A7A7A"/>
<rect width="6.93505" height="8.67407" transform="matrix(0.999996 0.00267355 -0.00282508 0.999996 254.084 54.2949)" fill="#FF5454"/>
<rect width="0.990721" height="58.7909" transform="matrix(0.999996 0.00267355 -0.00282508 0.999996 246.19 42.709)" fill="#7A7A7A"/>
<rect width="6.93505" height="36.6239" transform="matrix(0.999996 0.00267355 -0.00282508 0.999996 243.186 54.2676)" fill="#14C67A"/>
<rect width="0.990721" height="34.6963" transform="matrix(-0.999996 -0.00267355 0.00282508 -0.999996 569.926 124.533)" fill="#7A7A7A"/>
<rect width="6.93505" height="13.493" transform="matrix(-0.999996 -0.00267355 0.00282508 -0.999996 572.93 112.976)" fill="#FF5454"/>
<rect width="0.990721" height="38.5514" transform="matrix(-0.999996 -0.00267355 0.00282508 -0.999996 560.008 128.362)" fill="#7A7A7A"/>
<rect width="6.93505" height="15.4206" transform="matrix(-0.999996 -0.00267355 0.00282508 -0.999996 563.013 116.805)" fill="#14C67A"/>
<rect width="0.990721" height="24.0946" transform="matrix(-0.999996 -0.00267355 0.00282508 -0.999996 549.089 136.043)" fill="#7A7A7A"/>
<rect width="6.93505" height="1.92757" transform="matrix(-0.999996 -0.00267355 0.00282508 -0.999996 552.094 124.486)" fill="#14C67A"/>
<rect width="0.990721" height="29.8774" transform="matrix(0.999996 0.00267355 0.00282508 -0.999996 325.381 67.0146)" fill="#7A7A7A"/>
<rect width="0.990721" height="38.5514" transform="matrix(0.999996 0.00267355 0.00282508 -0.999996 347.118 87.3125)" fill="#7A7A7A"/>
<rect width="6.93505" height="15.4206" transform="matrix(0.999996 0.00267355 0.00282508 -0.999996 344.179 75.7402)" fill="#14C67A"/>
<rect width="0.990721" height="38.5514" transform="matrix(0.999996 0.00267355 0.00282508 -0.999996 367.881 102.788)" fill="#7A7A7A"/>
<rect width="6.93505" height="15.4206" transform="matrix(0.999996 0.00267355 0.00282508 -0.999996 364.94 91.2158)" fill="#14C67A"/>
<rect width="0.990721" height="32.7687" transform="matrix(0.999996 0.00267355 0.00282508 -0.999996 389.635 117.305)" fill="#7A7A7A"/>
<rect width="6.93505" height="10.6016" transform="matrix(0.999996 0.00267355 0.00282508 -0.999996 386.696 105.73)" fill="#14C67A"/>
<rect width="0.990721" height="38.5514" transform="matrix(0.999996 0.00267355 0.00282508 -0.999996 421.243 151.123)" fill="#7A7A7A"/>
<rect width="6.93505" height="15.4206" transform="matrix(0.999996 0.00267355 0.00282508 -0.999996 418.303 139.549)" fill="#14C67A"/>
<rect width="0.990721" height="48.1893" transform="matrix(0.999996 0.00267355 0.00282508 -0.999996 507.52 121.475)" fill="#7A7A7A"/>
<rect width="6.93505" height="26.0222" transform="matrix(0.999996 0.00267355 0.00282508 -0.999996 504.58 109.902)" fill="#14C67A"/>
<rect width="0.990721" height="38.5514" transform="matrix(0.999996 0.00267355 0.00282508 -0.999996 528.233 154.3)" fill="#7A7A7A"/>
<rect width="6.93505" height="15.4206" transform="matrix(0.999996 0.00267355 0.00282508 -0.999996 525.293 142.726)" fill="#14C67A"/>
<rect width="0.990721" height="23.1309" transform="matrix(0.999996 0.00267355 0.00282508 -0.999996 336.279 67.0449)" fill="#7A7A7A"/>
<rect width="6.93505" height="0.963786" transform="matrix(0.999996 0.00267355 0.00282508 -0.999996 333.339 55.4717)" fill="#FF5454"/>
<rect width="0.990721" height="23.1309" transform="matrix(0.999996 0.00267355 0.00282508 -0.999996 357.025 87.3398)" fill="#7A7A7A"/>
<rect width="6.93505" height="0.963786" transform="matrix(0.999996 0.00267355 0.00282508 -0.999996 354.086 75.7666)" fill="#FF5454"/>
<rect width="0.990721" height="37.5877" transform="matrix(0.999996 0.00267355 0.00282508 -0.999996 411.392 130.855)" fill="#7A7A7A"/>
<rect width="6.93505" height="15.4206" transform="matrix(0.999996 0.00267355 0.00282508 -0.999996 408.452 119.282)" fill="#FF5454"/>
<rect width="0.990721" height="37.5877" transform="matrix(0.999996 0.00267355 0.00282508 -0.999996 378.777 102.818)" fill="#7A7A7A"/>
<rect width="6.93505" height="15.4206" transform="matrix(0.999996 0.00267355 0.00282508 -0.999996 375.839 91.2441)" fill="#FF5454"/>
<rect width="0.990721" height="23.1309" transform="matrix(0.999996 0.00267355 0.00282508 -0.999996 432.14 151.151)" fill="#7A7A7A"/>
<rect width="6.93505" height="0.963786" transform="matrix(0.999996 0.00267355 0.00282508 -0.999996 429.202 139.578)" fill="#FF5454"/>
<rect width="0.990721" height="45.2979" transform="matrix(0.999996 0.00267355 0.00282508 -0.999996 474.738 152.229)" fill="#7A7A7A"/>
<rect width="6.93505" height="0.963786" transform="matrix(0.999996 0.00267355 0.00282508 -0.999996 471.833 129.09)" fill="#FF5454"/>
<rect width="0.990721" height="42.4066" transform="matrix(0.999996 0.00267355 0.00282508 -0.999996 443.055 145.397)" fill="#7A7A7A"/>
<rect width="6.93505" height="19.2757" transform="matrix(0.999996 0.00267355 0.00282508 -0.999996 440.115 133.824)" fill="#FF5454"/>
<rect width="0.990721" height="36.6239" transform="matrix(0.999996 0.00267355 0.00282508 -0.999996 496.654 109.881)" fill="#7A7A7A"/>
<rect width="6.93505" height="14.4568" transform="matrix(0.999996 0.00267355 0.00282508 -0.999996 493.714 98.3066)" fill="#FF5454"/>
<rect width="0.990721" height="31.8049" transform="matrix(0.999996 0.00267355 0.00282508 -0.999996 539.131 154.328)" fill="#7A7A7A"/>
<rect width="6.93505" height="9.63786" transform="matrix(0.999996 0.00267355 0.00282508 -0.999996 536.189 142.754)" fill="#FF5454"/>
<rect width="0.990721" height="41.4428" transform="matrix(0.999996 0.00267355 0.00282508 -0.999996 553 154.365)" fill="#7A7A7A"/>
<rect width="6.93505" height="18.3119" transform="matrix(0.999996 0.00267355 0.00282508 -0.999996 550.06 142.791)" fill="#14C67A"/>
<rect width="0.990721" height="29.8774" transform="matrix(0.999996 0.00267355 0.00282508 -0.999996 517.391 134.031)" fill="#7A7A7A"/>
<rect width="6.93505" height="7.71029" transform="matrix(0.999996 0.00267355 0.00282508 -0.999996 514.451 122.458)" fill="#14C67A"/>
<rect width="0.990721" height="42.4066" transform="matrix(0.999996 0.00267355 0.00282508 -0.999996 485.684 135.873)" fill="#7A7A7A"/>
<rect width="6.93505" height="19.2757" transform="matrix(0.999996 0.00267355 0.00282508 -0.999996 482.743 124.3)" fill="#FF5454"/>
<rect width="0.990721" height="38.5514" transform="matrix(0.999996 0.00267355 0.00282508 -0.999996 463.875 140.634)" fill="#7A7A7A"/>
<rect width="6.93505" height="15.4206" transform="matrix(0.999996 0.00267355 0.00282508 -0.999996 460.934 129.061)" fill="#14C67A"/>
<rect width="0.990721" height="31.8049" transform="matrix(0.999996 0.00267355 0.00282508 -0.999996 452.989 135.785)" fill="#7A7A7A"/>
<rect width="6.93505" height="9.63786" transform="matrix(0.999996 0.00267355 0.00282508 -0.999996 450.049 124.213)" fill="#14C67A"/>
<rect width="0.990721" height="29.8774" transform="matrix(0.999996 0.00267355 0.00282508 -0.999996 400.495 130.826)" fill="#7A7A7A"/>
<rect width="6.93505" height="7.71029" transform="matrix(0.999996 0.00267355 0.00282508 -0.999996 397.555 119.254)" fill="#14C67A"/>
<rect width="0.990721" height="74.2115" transform="matrix(-0.999996 -0.00267355 0.00282508 -0.999996 580.825 124.562)" fill="#7A7A7A"/>
<rect width="6.93505" height="52.0444" transform="matrix(-0.999996 -0.00267355 0.00282508 -0.999996 583.828 113.006)" fill="#14C67A"/>
<rect width="0.990721" height="49.1531" transform="matrix(-0.999996 -0.00267355 0.00282508 -0.999996 591.791 100.497)" fill="#7A7A7A"/>
<rect width="6.93505" height="26.986" transform="matrix(-0.999996 -0.00267355 0.00282508 -0.999996 594.796 88.9385)" fill="#FF5454"/>
<rect width="0.990721" height="58.7909" transform="matrix(-0.999996 -0.00267355 0.00282508 -0.999996 601.699 100.523)" fill="#7A7A7A"/>
<rect width="6.93505" height="36.6239" transform="matrix(-0.999996 -0.00267355 0.00282508 -0.999996 604.703 88.9648)" fill="#14C67A"/>
<rect width="0.990721" height="41.4428" transform="matrix(-0.999996 -0.00267355 0.00282508 -0.999996 612.646 82.2402)" fill="#7A7A7A"/>
<rect width="6.93505" height="18.3119" transform="matrix(-0.999996 -0.00267355 0.00282508 -0.999996 615.652 70.6826)" fill="#FF5454"/>
<rect width="0.990721" height="30.8412" transform="matrix(-0.999996 -0.00267355 0.00282508 -0.999996 624.498 95.7656)" fill="#7A7A7A"/>
<rect width="6.93505" height="8.67407" transform="matrix(-0.999996 -0.00267355 0.00282508 -0.999996 627.504 84.208)" fill="#FF5454"/>
<rect width="0.990721" height="29.8774" transform="matrix(0.999996 0.00267355 -0.00282508 0.999996 578.756 155.398)" fill="#7A7A7A"/>
<rect width="0.990721" height="29.8774" transform="matrix(0.999996 0.00267355 -0.00282508 0.999996 578.756 155.398)" fill="#7A7A7A"/>
<rect width="6.93516" height="12.7234" transform="matrix(1 0 0.00743867 0.999972 3.94165 276.601)" fill="#14C67A"/>
<rect width="6.93516" height="44.532" transform="matrix(1 0 0.00743867 0.999972 17.0271 244.661)" fill="#FF5454"/>
<rect width="6.93516" height="25.4468" transform="matrix(1 0 0.00743867 0.999972 29.9601 263.408)" fill="#14C67A"/>
<rect width="6.93516" height="44.532" transform="matrix(1 0 0.00743867 0.999972 42.7849 244.661)" fill="#FF5454"/>
<rect width="6.93516" height="25.4468" transform="matrix(1 0 0.00743867 0.999972 55.7189 263.408)" fill="#14C67A"/>
<rect width="6.93516" height="25.4468" transform="matrix(1 0 0.00743867 0.999972 68.5997 263.408)" fill="#FF5454"/>
<rect width="6.93516" height="25.4468" transform="matrix(1 0 0.00743867 0.999972 81.4777 263.408)" fill="#FF5454"/>
<rect width="6.93516" height="17.4947" transform="matrix(1 0 0.00743867 0.999972 94.3802 271.74)" fill="#14C67A"/>
<rect width="6.93516" height="17.4947" transform="matrix(1 0 0.00743867 0.999972 107.26 271.74)" fill="#14C67A"/>
<rect width="6.93516" height="17.4947" transform="matrix(1 0 0.00743867 0.999972 120.139 271.74)" fill="#14C67A"/>
<rect width="6.93516" height="12.7234" transform="matrix(1 0 0.00743867 0.999972 133.032 276.601)" fill="#14C67A"/>
<rect width="6.93516" height="12.7234" transform="matrix(1 0 0.00743867 0.999972 145.911 276.601)" fill="#14C67A"/>
<rect width="6.93516" height="12.7234" transform="matrix(1 0 0.00743867 0.999972 158.791 276.601)" fill="#14C67A"/>
<rect width="6.93516" height="25.4468" transform="matrix(1 0 0.00743867 0.999972 171.633 263.408)" fill="#FF5454"/>
<rect width="6.93516" height="25.4468" transform="matrix(1 0 0.00743867 0.999972 184.512 263.408)" fill="#FF5454"/>
<rect width="6.93516" height="25.4468" transform="matrix(1 0 0.00743867 0.999972 197.391 263.408)" fill="#FF5454"/>
<rect width="6.93516" height="25.4468" transform="matrix(1 0 0.00743867 0.999972 210.271 263.408)" fill="#14C67A"/>
<rect width="6.93516" height="25.4468" transform="matrix(1 0 0.00743867 0.999972 223.15 263.408)" fill="#14C67A"/>
<rect width="6.93516" height="25.4468" transform="matrix(1 0 0.00743867 0.999972 236.028 263.408)" fill="#14C67A"/>
<rect width="6.93516" height="44.532" transform="matrix(1 0 0.00743867 0.999972 248.856 244.661)" fill="#FF5454"/>
<rect width="6.93516" height="44.532" transform="matrix(1 0 0.00743867 0.999972 261.734 244.661)" fill="#FF5454"/>
<rect width="6.93516" height="44.532" transform="matrix(1 0 0.00743867 0.999972 274.614 244.661)" fill="#FF5454"/>
<rect width="6.93516" height="31.8085" transform="matrix(1 0 0.00743867 0.999972 287.528 257.159)" fill="#FF5454"/>
<rect width="6.93516" height="15.9043" transform="matrix(1 0 0.00743867 0.999972 300.455 273.129)" fill="#14C67A"/>
<rect width="6.93516" height="25.4468" transform="matrix(1 0 0.00743867 0.999972 313.306 263.408)" fill="#14C67A"/>
<rect width="6.93516" height="44.532" transform="matrix(1 0 0.00743867 0.999972 326.13 244.661)" fill="#FF5454"/>
<rect width="6.93516" height="31.8085" transform="matrix(1 0 0.00743867 0.999972 339.046 257.159)" fill="#FF5454"/>
<rect width="6.93516" height="22.266" transform="matrix(1 0 0.00743867 0.999972 351.953 266.88)" fill="#FF5454"/>
<rect width="6.93516" height="42.9415" transform="matrix(1 0 0.00743867 0.999972 364.773 246.05)" fill="#14C67A"/>
<rect width="6.93516" height="12.7234" transform="matrix(1 0 0.00743867 0.999972 377.738 276.601)" fill="#14C67A"/>
<rect width="6.93516" height="25.4468" transform="matrix(1 0 0.00743867 0.999972 390.583 263.408)" fill="#14C67A"/>
<rect width="6.93516" height="15.9043" transform="matrix(1 0 0.00743867 0.999972 403.488 273.129)" fill="#FF5454"/>
<rect width="6.93516" height="30.2181" transform="matrix(1 0 0.00743867 0.999972 416.328 258.548)" fill="#14C67A"/>
<rect width="6.93516" height="36.5798" transform="matrix(1 0 0.00743867 0.999972 429.187 252.299)" fill="#14C67A"/>
<rect width="6.93516" height="44.532" transform="matrix(1 0 0.00743867 0.999972 442.045 244.661)" fill="#FF5454"/>
<rect width="6.93516" height="55.665" transform="matrix(1 0 0.00743867 0.999972 454.891 233.552)" fill="#14C67A"/>
<rect width="6.93516" height="60.4362" transform="matrix(1 0 0.00743867 0.999972 467.758 228.69)" fill="#14C67A"/>
<rect width="6.93516" height="14.3138" transform="matrix(1 0 0.00743867 0.999972 480.769 274.518)" fill="#FF5454"/>
<rect width="6.93516" height="30.2181" transform="matrix(1 0 0.00743867 0.999972 493.603 258.548)" fill="#FF5454"/>
<rect width="6.93516" height="60.4362" transform="matrix(1 0 0.00743867 0.999972 506.395 228.69)" fill="#14C67A"/>
<rect width="6.93516" height="44.532" transform="matrix(1 0 0.00743867 0.999972 519.321 244.661)" fill="#FF5454"/>
<rect width="6.93516" height="85.8831" transform="matrix(1 0 0.00743867 0.999972 532.082 203)" fill="#14C67A"/>
<rect width="6.93516" height="22.266" transform="matrix(1 0 0.00743867 0.999972 545.143 266.88)" fill="#FF5454"/>
<rect width="6.93516" height="25.4468" transform="matrix(1 0 0.00743867 0.999972 558.014 263.408)" fill="#14C67A"/>
<rect width="6.93516" height="30.2181" transform="matrix(1 0 0.00743867 0.999972 570.878 258.548)" fill="#14C67A"/>
<rect width="6.93516" height="12.7234" transform="matrix(1 0 -0.00743867 -0.999972 583.902 289.099)" fill="#14C67A"/>
<rect width="6.93516" height="44.532" transform="matrix(1 0 -0.00743867 -0.999972 596.927 289.099)" fill="#FF5454"/>
<rect width="6.93516" height="25.4468" transform="matrix(1 0 -0.00743867 -0.999972 609.719 289.099)" fill="#14C67A"/>
<rect width="6.93516" height="44.532" transform="matrix(1 0 -0.00743867 -0.999972 622.686 289.099)" fill="#FF5454"/>
<path d="M548 276L548 0" stroke="white" stroke-width="1.91394" stroke-dasharray="3.71 3.71"/>
<path d="M4 108L630 108.867" stroke="white" stroke-width="1.91394" stroke-dasharray="2.78 2.78"/>
<path d="M553.94 109.297C553.932 112.203 551.495 114.598 548.442 114.59C545.389 114.581 542.966 112.174 542.975 109.267C542.983 106.361 545.419 103.966 548.472 103.974C551.525 103.982 553.948 106.39 553.94 109.297Z" fill="#222222" stroke="white" stroke-width="1.91394"/>
</svg>
