<svg width="1440" height="60" viewBox="0 0 1440 60" fill="none" xmlns="http://www.w3.org/2000/svg">
<rect width="1440" height="60" fill="#3D3D3D"/>
<path d="M12.668 34.59H7.684V30.768H12.15V29.858H7.684V26.358H12.57V25.448H6.634V35.5H12.668V34.59ZM18.3424 34.562C18.0344 34.688 17.7824 34.744 17.4744 34.744C16.6624 34.744 16.1024 34.352 16.1024 33.204V28.948H18.4124V28.122H16.1024V25.938H15.1224V28.122H13.3864V28.948H15.1224V33.414C15.1224 35.01 16.0604 35.64 17.2784 35.64C17.6424 35.64 17.9644 35.584 18.3424 35.43V34.562ZM20.8741 31.202C20.8741 29.83 21.7981 28.836 22.9461 28.836C24.1501 28.836 24.7941 29.634 24.7941 31.048V35.5H25.7741V30.712C25.7741 28.962 24.7801 27.982 23.2401 27.982C22.1761 27.982 21.3361 28.598 20.8741 29.48V25.448H19.8941V35.5H20.8741V31.202ZM30.7354 35.64C32.4294 35.64 33.6754 34.646 34.0114 33.008H33.0454C32.8074 34.184 31.9534 34.87 30.7214 34.87C29.2794 34.87 28.3554 33.792 28.2714 32.042H33.9834C34.1514 29.676 32.7794 27.982 30.6794 27.982C28.7194 27.982 27.2914 29.592 27.2914 31.748C27.2914 34.086 28.6634 35.64 30.7354 35.64ZM30.6654 28.738C32.0234 28.738 32.8774 29.718 32.9614 31.37H28.2714C28.3974 29.76 29.3354 28.738 30.6654 28.738ZM36.5831 31.552C36.5831 29.942 37.7731 28.976 39.3271 29.032V28.01C38.1091 28.01 37.0171 28.71 36.5131 29.802V28.122H35.6031V35.5H36.5831V31.552ZM43.4093 35.64C45.1033 35.64 46.3493 34.646 46.6853 33.008H45.7193C45.4813 34.184 44.6273 34.87 43.3953 34.87C41.9533 34.87 41.0293 33.792 40.9453 32.042H46.6573C46.8253 29.676 45.4533 27.982 43.3533 27.982C41.3933 27.982 39.9653 29.592 39.9653 31.748C39.9653 34.086 41.3373 35.64 43.4093 35.64ZM43.3393 28.738C44.6973 28.738 45.5513 29.718 45.6353 31.37H40.9453C41.0713 29.76 42.0093 28.738 43.3393 28.738ZM52.9949 32.518C52.9949 33.834 52.1409 34.786 50.9649 34.786C49.9289 34.786 49.1869 34.212 49.1869 32.714V28.122H48.2069V32.924C48.2069 34.786 49.2009 35.64 50.6989 35.64C51.7769 35.64 52.6729 35.024 53.0509 34.17V35.5H53.9609V28.122H52.9949V32.518ZM57.0635 35.5V31.174C57.0635 29.816 57.9595 28.836 59.0935 28.836C60.2835 28.836 60.9275 29.634 60.9275 31.034V35.5H61.9075V31.174C61.9075 29.816 62.8175 28.836 63.9375 28.836C65.1275 28.836 65.7715 29.634 65.7715 31.034V35.5H66.7375V30.712C66.7375 28.99 65.7855 27.982 64.2595 27.982C63.0975 27.982 62.1735 28.654 61.7115 29.69C61.4035 28.612 60.5495 27.982 59.4015 27.982C58.3515 27.982 57.4835 28.556 56.9935 29.508V28.122H56.0835V35.5H57.0635Z" fill="white"/>
<path d="M90.94 26.596V26.036H84.766V26.904H89.848L86.11 35.5H87.16L90.94 26.596ZM94.9782 35.64C97.0082 35.64 98.2402 34.31 98.2402 32.532C98.2402 30.908 97.0642 29.564 95.1322 29.564C94.4042 29.564 93.7602 29.788 93.1862 30.306L93.7042 26.89H97.7082V26.036H93.0042L92.1782 31.3L92.9342 31.524C93.3962 30.796 94.0962 30.404 95.0062 30.404C96.3502 30.404 97.2462 31.356 97.2462 32.546C97.2462 33.876 96.4202 34.772 94.9782 34.772C93.7882 34.772 92.9202 34.03 92.8362 32.868H91.8842C91.9402 34.478 93.2562 35.64 94.9782 35.64ZM105.172 26.596V26.036H98.9984V26.904H104.08L100.342 35.5H101.392L105.172 26.596ZM107.176 34.688C107.176 34.156 106.812 33.792 106.294 33.792C105.79 33.792 105.412 34.156 105.412 34.688C105.412 35.192 105.79 35.57 106.294 35.57C106.812 35.57 107.176 35.192 107.176 34.688ZM111.869 35.626C113.773 35.626 115.061 34.506 115.061 32.882C115.061 31.734 114.305 30.894 113.003 30.572C114.039 30.138 114.627 29.354 114.627 28.374C114.627 26.918 113.493 25.896 111.813 25.896C110.203 25.896 108.971 27.002 108.929 28.486H109.867C109.923 27.394 110.665 26.694 111.785 26.694C112.863 26.694 113.619 27.394 113.619 28.416C113.619 29.48 112.807 30.222 111.645 30.222H110.735V31.034H111.673C113.129 31.034 114.053 31.762 114.053 32.896C114.053 34.086 113.227 34.828 111.869 34.828C110.553 34.828 109.671 34.072 109.615 32.882H108.663C108.705 34.52 109.993 35.626 111.869 35.626ZM119.63 35.626C121.534 35.626 122.934 34.268 122.934 32.504C122.934 30.642 121.59 29.424 119.826 29.424C119.476 29.424 119.098 29.494 118.706 29.634L121.548 26.036H120.442L117.586 29.634C116.844 30.558 116.34 31.3 116.34 32.532C116.34 34.268 117.74 35.626 119.63 35.626ZM119.644 34.814C118.328 34.814 117.348 33.848 117.348 32.504C117.348 30.992 118.328 30.18 119.644 30.18C120.946 30.18 121.926 31.118 121.926 32.532C121.926 33.848 120.946 34.814 119.644 34.814Z" fill="white"/>
<path d="M134.833 25.448H133.783V32.112C133.783 33.75 132.719 34.772 131.165 34.772C129.611 34.772 128.533 33.75 128.533 32.112V25.448H127.483V32.056C127.483 34.31 128.939 35.71 131.165 35.71C133.377 35.71 134.833 34.31 134.833 32.056V25.448ZM144.11 32.714C144.11 31.202 143.144 30.502 141.45 30.152L140.176 29.886C139.056 29.662 138.048 29.298 138.048 28.108C138.048 27.1 138.874 26.162 140.414 26.162C141.856 26.162 142.836 27.128 142.906 28.458H143.984C143.872 26.54 142.36 25.308 140.4 25.308C138.398 25.308 136.984 26.554 136.984 28.164C136.984 29.914 138.384 30.53 139.714 30.796L140.988 31.048C142.416 31.342 143.004 31.818 143.004 32.854C143.004 34.058 141.884 34.786 140.456 34.786C138.72 34.786 137.824 33.862 137.726 32.434H136.662C136.76 34.338 138.132 35.64 140.47 35.64C142.808 35.64 144.11 34.31 144.11 32.714ZM148.92 35.5C152.07 35.5 153.918 33.33 153.918 30.432C153.918 27.492 152.14 25.448 148.92 25.448H146.064V35.5H148.92ZM147.114 26.358H148.892C151.468 26.358 152.854 27.954 152.854 30.432C152.854 32.924 151.44 34.59 148.892 34.59H147.114V26.358Z" fill="#8D8D8D"/>
<path d="M167.568 34.282V31.216H170.62V30.39H167.568V27.338H166.672V30.39H163.62V31.216H166.672V34.282H167.568ZM172.456 30.782C172.456 33.918 173.632 35.64 175.816 35.64C177.986 35.64 179.176 33.918 179.176 30.782C179.176 27.646 177.958 25.896 175.816 25.896C173.66 25.896 172.456 27.646 172.456 30.782ZM173.464 30.782C173.464 28.136 174.29 26.764 175.816 26.764C177.342 26.764 178.168 28.15 178.168 30.782C178.168 33.4 177.342 34.772 175.816 34.772C174.262 34.772 173.464 33.386 173.464 30.782ZM182.305 34.688C182.305 34.156 181.941 33.792 181.423 33.792C180.919 33.792 180.541 34.156 180.541 34.688C180.541 35.192 180.919 35.57 181.423 35.57C181.941 35.57 182.305 35.192 182.305 34.688ZM186.997 35.626C188.901 35.626 190.189 34.506 190.189 32.882C190.189 31.734 189.433 30.894 188.131 30.572C189.167 30.138 189.755 29.354 189.755 28.374C189.755 26.918 188.621 25.896 186.941 25.896C185.331 25.896 184.099 27.002 184.057 28.486H184.995C185.051 27.394 185.793 26.694 186.913 26.694C187.991 26.694 188.747 27.394 188.747 28.416C188.747 29.48 187.935 30.222 186.773 30.222H185.863V31.034H186.801C188.257 31.034 189.181 31.762 189.181 32.896C189.181 34.086 188.355 34.828 186.997 34.828C185.681 34.828 184.799 34.072 184.743 32.882H183.791C183.833 34.52 185.121 35.626 186.997 35.626ZM194.689 35.64C196.719 35.64 197.951 34.31 197.951 32.532C197.951 30.908 196.775 29.564 194.843 29.564C194.115 29.564 193.471 29.788 192.897 30.306L193.415 26.89H197.419V26.036H192.715L191.889 31.3L192.645 31.524C193.107 30.796 193.807 30.404 194.717 30.404C196.061 30.404 196.957 31.356 196.957 32.546C196.957 33.876 196.131 34.772 194.689 34.772C193.499 34.772 192.631 34.03 192.547 32.868H191.595C191.651 34.478 192.967 35.64 194.689 35.64ZM201.857 31.832C203.551 31.832 204.699 30.516 204.699 28.892C204.699 27.268 203.551 25.952 201.857 25.952C200.177 25.952 199.029 27.268 199.029 28.892C199.029 30.516 200.177 31.832 201.857 31.832ZM203.593 35.5L208.927 26.036H208.087L202.767 35.5H203.593ZM201.857 31.118C200.779 31.118 199.869 30.306 199.869 28.892C199.869 27.464 200.779 26.666 201.857 26.666C202.949 26.666 203.845 27.464 203.845 28.892C203.845 30.306 202.949 31.118 201.857 31.118ZM209.935 35.612C211.629 35.612 212.777 34.31 212.777 32.672C212.777 31.048 211.629 29.732 209.935 29.732C208.241 29.732 207.093 31.048 207.093 32.672C207.093 34.31 208.241 35.612 209.935 35.612ZM209.935 34.898C208.857 34.898 207.947 34.086 207.947 32.672C207.947 31.244 208.857 30.46 209.935 30.46C211.013 30.46 211.923 31.244 211.923 32.672C211.923 34.086 211.013 34.898 209.935 34.898Z" fill="#47F8C3"/>
<circle cx="257.5" cy="30" r="12" fill="#FDA32F"/>
<path fill-rule="evenodd" clip-rule="evenodd" d="M256.903 22.1204C256.884 22.195 256.768 22.6702 256.645 23.1767C256.469 23.9077 256.411 24.0974 256.364 24.0974C256.332 24.0974 255.762 23.9571 255.097 23.7855C254.433 23.614 253.885 23.4773 253.88 23.4816C253.865 23.4955 253.544 24.8518 253.555 24.8602C253.56 24.8647 253.686 24.8973 253.835 24.9327C254.569 25.1076 254.849 25.2363 254.96 25.4491C255.082 25.6854 255.086 25.6624 254.337 28.7639C253.905 30.554 253.592 31.7795 253.553 31.8354C253.517 31.8865 253.426 31.9598 253.351 31.9983L253.215 32.0683L252.74 31.9509C252.479 31.8863 252.232 31.8242 252.19 31.8129C252.136 31.7982 252.108 31.8122 252.094 31.8603C252.084 31.8977 251.946 32.2322 251.788 32.6034L251.5 33.2785L252.748 33.6019C253.435 33.7798 254.007 33.932 254.02 33.9402C254.033 33.9483 253.925 34.4394 253.782 35.0315L253.52 36.1081L254.145 36.2674C254.488 36.3551 254.776 36.4191 254.784 36.4097C254.792 36.4003 254.908 35.9322 255.043 35.3695C255.177 34.8069 255.298 34.3355 255.31 34.3221C255.332 34.2975 256.241 34.5281 256.28 34.5682C256.292 34.5801 256.187 35.0589 256.048 35.6323C255.909 36.2058 255.804 36.6809 255.816 36.6881C255.853 36.7114 257.052 37.0119 257.059 36.9996C257.062 36.9931 257.177 36.5191 257.313 35.9462C257.449 35.3733 257.565 34.8944 257.572 34.8821C257.578 34.8698 257.775 34.893 258.009 34.9339C258.334 34.9907 258.607 35.0086 259.173 35.01C259.826 35.0117 259.946 35.0024 260.201 34.9304C260.7 34.7894 260.992 34.6168 261.341 34.2571C261.608 33.9821 261.677 33.8825 261.836 33.5466C262.079 33.035 262.201 32.5857 262.227 32.1144C262.272 31.2737 261.963 30.6715 261.224 30.1621C260.976 29.9905 260.915 29.9327 260.965 29.9163C261.603 29.7078 262.017 29.354 262.257 28.8134C262.586 28.0725 262.581 27.2085 262.243 26.6085C261.929 26.0492 261.262 25.5511 260.327 25.1762C260.159 25.1086 260.007 25.041 259.991 25.0261C259.974 25.0112 260.066 24.5576 260.195 24.0181C260.324 23.4786 260.435 23.004 260.442 22.9635C260.452 22.8974 260.391 22.8736 259.842 22.7318C259.506 22.6449 259.225 22.5807 259.217 22.5892C259.208 22.5976 259.091 23.0587 258.957 23.6138C258.822 24.1689 258.706 24.6281 258.699 24.6342C258.682 24.6491 257.741 24.419 257.717 24.3942C257.707 24.3835 257.81 23.9151 257.947 23.3533C258.112 22.6714 258.182 22.3238 258.156 22.3073C258.124 22.287 257.577 22.1411 257.054 22.0135C256.943 21.9861 256.936 21.9907 256.903 22.1204ZM257.814 26.0527C259.454 26.44 260.154 27.0294 260.002 27.8956C259.949 28.1989 259.865 28.3624 259.669 28.549C259.235 28.9617 258.495 28.9973 257.192 28.6682C256.91 28.5971 256.723 28.5323 256.732 28.5085C256.739 28.4866 256.88 27.9036 257.045 27.2131C257.21 26.5225 257.359 25.9575 257.378 25.9575C257.396 25.9575 257.592 26.0003 257.814 26.0527ZM256.895 29.9728C258.451 30.3448 259.264 30.7883 259.546 31.4196C259.661 31.6791 259.654 32.1169 259.528 32.3966C259.357 32.7784 259.038 33.0149 258.574 33.1047C258.263 33.1649 257.394 33.124 256.937 33.0276C256.58 32.9524 255.745 32.7392 255.725 32.7179C255.71 32.7026 256.403 29.8637 256.422 29.8637C256.431 29.8637 256.644 29.9128 256.895 29.9728Z" fill="white"/>
<path d="M285.396 32.686C285.396 31.482 284.696 30.6 283.338 30.264C284.36 29.886 284.99 29.032 284.99 28.038C284.99 26.386 283.842 25.448 281.896 25.448H278.634V35.5H282.106C284.08 35.5 285.396 34.478 285.396 32.686ZM281.84 26.302C283.198 26.302 283.968 26.974 283.968 28.094C283.968 29.214 283.198 29.886 281.84 29.886H279.614V26.302H281.84ZM282.05 30.74C283.52 30.74 284.388 31.454 284.388 32.658C284.388 33.918 283.52 34.646 282.05 34.646H279.614V30.74H282.05ZM288.574 26.414C288.574 25.994 288.252 25.686 287.776 25.686C287.314 25.686 286.992 25.994 286.992 26.414C286.992 26.848 287.314 27.156 287.776 27.156C288.252 27.156 288.574 26.848 288.574 26.414ZM288.28 35.5V28.122H287.3V35.5H288.28ZM294.198 34.562C293.89 34.688 293.638 34.744 293.33 34.744C292.518 34.744 291.958 34.352 291.958 33.204V28.948H294.268V28.122H291.958V25.938H290.978V28.122H289.242V28.948H290.978V33.414C290.978 35.01 291.916 35.64 293.134 35.64C293.498 35.64 293.82 35.584 294.198 35.43V34.562ZM298.275 35.654C300.011 35.654 301.257 34.52 301.523 32.644H300.529C300.305 34.016 299.479 34.8 298.275 34.8C296.903 34.8 295.965 33.596 295.965 31.804C295.965 30.04 296.903 28.836 298.275 28.836C299.465 28.836 300.305 29.634 300.529 30.978H301.523C301.229 29.13 299.997 27.982 298.275 27.982C296.343 27.982 294.971 29.564 294.971 31.804C294.971 34.072 296.329 35.654 298.275 35.654ZM305.963 35.64C308.007 35.64 309.477 34.03 309.477 31.804C309.477 29.592 308.007 27.996 305.963 27.996C303.933 27.996 302.463 29.592 302.463 31.804C302.463 34.03 303.933 35.64 305.963 35.64ZM305.963 34.786C304.535 34.786 303.457 33.638 303.457 31.804C303.457 29.998 304.535 28.85 305.963 28.85C307.405 28.85 308.483 29.998 308.483 31.804C308.483 33.638 307.405 34.786 305.963 34.786ZM312.336 26.414C312.336 25.994 312.014 25.686 311.538 25.686C311.076 25.686 310.754 25.994 310.754 26.414C310.754 26.848 311.076 27.156 311.538 27.156C312.014 27.156 312.336 26.848 312.336 26.414ZM312.042 35.5V28.122H311.062V35.5H312.042ZM315.146 31.202C315.146 29.83 316.07 28.836 317.218 28.836C318.422 28.836 319.066 29.634 319.066 31.048V35.5H320.046V30.712C320.046 28.962 319.052 27.982 317.512 27.982C316.448 27.982 315.552 28.598 315.076 29.508V28.122H314.166V35.5H315.146V31.202Z" fill="white"/>
<path d="M341.322 25.91C339.418 25.91 338.018 27.268 338.018 29.032C338.018 30.88 339.348 32.098 341.112 32.098C341.462 32.098 341.854 32.042 342.232 31.888L339.39 35.5H340.51L343.352 31.902C344.15 30.894 344.612 30.166 344.612 29.004C344.612 27.268 343.212 25.91 341.322 25.91ZM341.308 26.722C342.61 26.722 343.604 27.688 343.604 29.032C343.604 30.544 342.61 31.356 341.308 31.356C339.978 31.356 339.026 30.418 339.026 29.004C339.026 27.688 339.978 26.722 341.308 26.722ZM348.992 25.91C347.088 25.91 345.688 27.268 345.688 29.032C345.688 30.88 347.018 32.098 348.782 32.098C349.132 32.098 349.524 32.042 349.902 31.888L347.06 35.5H348.18L351.022 31.902C351.82 30.894 352.282 30.166 352.282 29.004C352.282 27.268 350.882 25.91 348.992 25.91ZM348.978 26.722C350.28 26.722 351.274 27.688 351.274 29.032C351.274 30.544 350.28 31.356 348.978 31.356C347.648 31.356 346.696 30.418 346.696 29.004C346.696 27.688 347.648 26.722 348.978 26.722ZM356.529 35.626C358.433 35.626 359.721 34.506 359.721 32.882C359.721 31.734 358.965 30.894 357.663 30.572C358.699 30.138 359.287 29.354 359.287 28.374C359.287 26.918 358.153 25.896 356.473 25.896C354.863 25.896 353.631 27.002 353.589 28.486H354.527C354.583 27.394 355.325 26.694 356.445 26.694C357.523 26.694 358.279 27.394 358.279 28.416C358.279 29.48 357.467 30.222 356.305 30.222H355.395V31.034H356.333C357.789 31.034 358.713 31.762 358.713 32.896C358.713 34.086 357.887 34.828 356.529 34.828C355.213 34.828 354.331 34.072 354.275 32.882H353.323C353.365 34.52 354.653 35.626 356.529 35.626ZM363.088 34.688C363.088 34.156 362.724 33.792 362.206 33.792C361.702 33.792 361.324 34.156 361.324 34.688C361.324 35.192 361.702 35.57 362.206 35.57C362.724 35.57 363.088 35.192 363.088 34.688ZM367.781 35.626C369.685 35.626 370.973 34.506 370.973 32.882C370.973 31.734 370.217 30.894 368.915 30.572C369.951 30.138 370.539 29.354 370.539 28.374C370.539 26.918 369.405 25.896 367.725 25.896C366.115 25.896 364.883 27.002 364.841 28.486H365.779C365.835 27.394 366.577 26.694 367.697 26.694C368.775 26.694 369.531 27.394 369.531 28.416C369.531 29.48 368.719 30.222 367.557 30.222H366.647V31.034H367.585C369.041 31.034 369.965 31.762 369.965 32.896C369.965 34.086 369.139 34.828 367.781 34.828C366.465 34.828 365.583 34.072 365.527 32.882H364.575C364.617 34.52 365.905 35.626 367.781 35.626ZM378.093 34.632H373.823L376.133 31.944C377.589 30.32 377.995 29.55 377.995 28.528C377.995 27.002 376.777 25.896 375.125 25.896C373.389 25.896 372.171 27.086 372.171 28.738H373.123C373.123 27.562 373.935 26.764 375.083 26.764C376.189 26.764 376.973 27.548 376.973 28.612C376.973 29.522 376.553 30.222 375.405 31.524L372.381 34.94V35.5H378.093V34.632Z" fill="white"/>
<path d="M390.144 25.448H389.094V32.112C389.094 33.75 388.03 34.772 386.476 34.772C384.922 34.772 383.844 33.75 383.844 32.112V25.448H382.794V32.056C382.794 34.31 384.25 35.71 386.476 35.71C388.688 35.71 390.144 34.31 390.144 32.056V25.448ZM399.42 32.714C399.42 31.202 398.454 30.502 396.76 30.152L395.486 29.886C394.366 29.662 393.358 29.298 393.358 28.108C393.358 27.1 394.184 26.162 395.724 26.162C397.166 26.162 398.146 27.128 398.216 28.458H399.294C399.182 26.54 397.67 25.308 395.71 25.308C393.708 25.308 392.294 26.554 392.294 28.164C392.294 29.914 393.694 30.53 395.024 30.796L396.298 31.048C397.726 31.342 398.314 31.818 398.314 32.854C398.314 34.058 397.194 34.786 395.766 34.786C394.03 34.786 393.134 33.862 393.036 32.434H391.972C392.07 34.338 393.442 35.64 395.78 35.64C398.118 35.64 399.42 34.31 399.42 32.714ZM404.23 35.5C407.38 35.5 409.228 33.33 409.228 30.432C409.228 27.492 407.45 25.448 404.23 25.448H401.374V35.5H404.23ZM402.424 26.358H404.202C406.778 26.358 408.164 27.954 408.164 30.432C408.164 32.924 406.75 34.59 404.202 34.59H402.424V26.358Z" fill="#8D8D8D"/>
<path d="M423.246 32.07V31.202H418.822V32.07H423.246ZM424.546 30.782C424.546 33.918 425.722 35.64 427.906 35.64C430.076 35.64 431.266 33.918 431.266 30.782C431.266 27.646 430.048 25.896 427.906 25.896C425.75 25.896 424.546 27.646 424.546 30.782ZM425.554 30.782C425.554 28.136 426.38 26.764 427.906 26.764C429.432 26.764 430.258 28.15 430.258 30.782C430.258 33.4 429.432 34.772 427.906 34.772C426.352 34.772 425.554 33.386 425.554 30.782ZM434.395 34.688C434.395 34.156 434.031 33.792 433.513 33.792C433.009 33.792 432.631 34.156 432.631 34.688C432.631 35.192 433.009 35.57 433.513 35.57C434.031 35.57 434.395 35.192 434.395 34.688ZM437.904 35.5V26.036H435.076V26.876H436.938V35.5H437.904ZM442.184 35.5V26.036H439.356V26.876H441.218V35.5H442.184ZM446.715 31.832C448.409 31.832 449.557 30.516 449.557 28.892C449.557 27.268 448.409 25.952 446.715 25.952C445.035 25.952 443.887 27.268 443.887 28.892C443.887 30.516 445.035 31.832 446.715 31.832ZM448.451 35.5L453.785 26.036H452.945L447.625 35.5H448.451ZM446.715 31.118C445.637 31.118 444.727 30.306 444.727 28.892C444.727 27.464 445.637 26.666 446.715 26.666C447.807 26.666 448.703 27.464 448.703 28.892C448.703 30.306 447.807 31.118 446.715 31.118ZM454.793 35.612C456.487 35.612 457.635 34.31 457.635 32.672C457.635 31.048 456.487 29.732 454.793 29.732C453.099 29.732 451.951 31.048 451.951 32.672C451.951 34.31 453.099 35.612 454.793 35.612ZM454.793 34.898C453.715 34.898 452.805 34.086 452.805 32.672C452.805 31.244 453.715 30.46 454.793 30.46C455.871 30.46 456.781 31.244 456.781 32.672C456.781 34.086 455.871 34.898 454.793 34.898Z" fill="#F84752"/>
<g clip-path="url(#clip0_1_60)">
<path d="M490.5 18H514.5V42H490.5V18Z" fill="#172852"/>
<path d="M508.496 32.2791C507.328 32.5818 506.109 32.6292 504.922 32.4181C503.734 32.207 502.604 31.7421 501.606 31.0542C500.608 30.3663 499.765 29.4711 499.132 28.4275C498.499 27.3839 498.091 26.2157 497.935 25C497.134 25.668 496.497 26.5169 496.076 27.4791C495.654 28.4414 495.46 29.4904 495.507 30.5427C495.554 31.5949 495.843 32.6214 496.349 33.5404C496.855 34.4594 497.566 35.2455 498.424 35.8361C499.281 36.4268 500.263 36.8056 501.29 36.9426C502.317 37.0795 503.362 36.9707 504.34 36.6249C505.319 36.2791 506.204 35.7057 506.926 34.9505C507.649 34.1953 508.187 33.2791 508.5 32.2748H508.496V32.2791Z" fill="#FFD83D"/>
<path d="M509.484 30C508.107 29.3406 506.927 28.3516 506.055 27.1266C505.182 25.9017 504.647 24.4813 504.5 23C506.024 23.4501 507.347 24.3869 508.252 25.6579C509.157 26.929 509.591 28.4594 509.484 30Z" fill="#FB6E04"/>
<path d="M509.5 28C509.139 27.8935 508.74 27.7614 508.281 27.6122C507.375 27.3182 506.254 26.9517 504.837 26.5639C502.699 25.9801 500.87 25.1022 499.5 23.8792C500.409 23.3707 501.423 23.0742 502.464 23.0122C503.506 22.9503 504.548 23.1244 505.512 23.5215C506.475 23.9186 507.335 24.5283 508.026 25.3042C508.717 26.0802 509.221 27.002 509.5 28Z" fill="#FFD83D"/>
</g>
<path d="M529.374 35.5V34.562H524.684V25.448H523.634V35.5H529.374ZM537.956 25.448H536.906V32.112C536.906 33.75 535.842 34.772 534.288 34.772C532.734 34.772 531.656 33.75 531.656 32.112V25.448H530.606V32.056C530.606 34.31 532.062 35.71 534.288 35.71C536.5 35.71 537.956 34.31 537.956 32.056V25.448ZM547.037 35.5H548.157V25.448H547.163V33.904L541.353 25.448H540.191V35.5H541.171V26.932L547.037 35.5ZM557.515 35.5H558.621L554.729 25.448H553.581L549.675 35.5H550.711L551.775 32.714H556.465L557.515 35.5ZM554.127 26.568L556.129 31.86H552.097L554.127 26.568Z" fill="white"/>
<path d="M579.476 35.626C581.38 35.626 582.668 34.506 582.668 32.882C582.668 31.734 581.912 30.894 580.61 30.572C581.646 30.138 582.234 29.354 582.234 28.374C582.234 26.918 581.1 25.896 579.42 25.896C577.81 25.896 576.578 27.002 576.536 28.486H577.474C577.53 27.394 578.272 26.694 579.392 26.694C580.47 26.694 581.226 27.394 581.226 28.416C581.226 29.48 580.414 30.222 579.252 30.222H578.342V31.034H579.28C580.736 31.034 581.66 31.762 581.66 32.896C581.66 34.086 580.834 34.828 579.476 34.828C578.16 34.828 577.278 34.072 577.222 32.882H576.27C576.312 34.52 577.6 35.626 579.476 35.626ZM587.168 35.64C589.198 35.64 590.43 34.31 590.43 32.532C590.43 30.908 589.254 29.564 587.322 29.564C586.594 29.564 585.95 29.788 585.376 30.306L585.894 26.89H589.898V26.036H585.194L584.368 31.3L585.124 31.524C585.586 30.796 586.286 30.404 587.196 30.404C588.54 30.404 589.436 31.356 589.436 32.546C589.436 33.876 588.61 34.772 587.168 34.772C585.978 34.772 585.11 34.03 585.026 32.868H584.074C584.13 34.478 585.446 35.64 587.168 35.64ZM594.084 35.5V26.036H591.256V26.876H593.118V35.5H594.084ZM597.971 34.688C597.971 34.156 597.607 33.792 597.089 33.792C596.585 33.792 596.207 34.156 596.207 34.688C596.207 35.192 596.585 35.57 597.089 35.57C597.607 35.57 597.971 35.192 597.971 34.688ZM604.54 26.596V26.036H598.366V26.904H603.448L599.71 35.5H600.76L604.54 26.596ZM608.679 35.626C610.583 35.626 611.871 34.506 611.871 32.882C611.871 31.734 611.115 30.894 609.813 30.572C610.849 30.138 611.437 29.354 611.437 28.374C611.437 26.918 610.303 25.896 608.623 25.896C607.013 25.896 605.781 27.002 605.739 28.486H606.677C606.733 27.394 607.475 26.694 608.595 26.694C609.673 26.694 610.429 27.394 610.429 28.416C610.429 29.48 609.617 30.222 608.455 30.222H607.545V31.034H608.483C609.939 31.034 610.863 31.762 610.863 32.896C610.863 34.086 610.037 34.828 608.679 34.828C607.363 34.828 606.481 34.072 606.425 32.882H605.473C605.515 34.52 606.803 35.626 608.679 35.626Z" fill="white"/>
<path d="M624.097 25.448H623.047V32.112C623.047 33.75 621.983 34.772 620.429 34.772C618.875 34.772 617.797 33.75 617.797 32.112V25.448H616.747V32.056C616.747 34.31 618.203 35.71 620.429 35.71C622.641 35.71 624.097 34.31 624.097 32.056V25.448ZM633.373 32.714C633.373 31.202 632.407 30.502 630.713 30.152L629.439 29.886C628.319 29.662 627.311 29.298 627.311 28.108C627.311 27.1 628.137 26.162 629.677 26.162C631.119 26.162 632.099 27.128 632.169 28.458H633.247C633.135 26.54 631.623 25.308 629.663 25.308C627.661 25.308 626.247 26.554 626.247 28.164C626.247 29.914 627.647 30.53 628.977 30.796L630.251 31.048C631.679 31.342 632.267 31.818 632.267 32.854C632.267 34.058 631.147 34.786 629.719 34.786C627.983 34.786 627.087 33.862 626.989 32.434H625.925C626.023 34.338 627.395 35.64 629.733 35.64C632.071 35.64 633.373 34.31 633.373 32.714ZM638.183 35.5C641.333 35.5 643.181 33.33 643.181 30.432C643.181 27.492 641.403 25.448 638.183 25.448H635.327V35.5H638.183ZM636.377 26.358H638.155C640.731 26.358 642.117 27.954 642.117 30.432C642.117 32.924 640.703 34.59 638.155 34.59H636.377V26.358Z" fill="#8D8D8D"/>
<path d="M657.568 34.282V31.216H660.62V30.39H657.568V27.338H656.672V30.39H653.62V31.216H656.672V34.282H657.568ZM662.456 30.782C662.456 33.918 663.632 35.64 665.816 35.64C667.986 35.64 669.176 33.918 669.176 30.782C669.176 27.646 667.958 25.896 665.816 25.896C663.66 25.896 662.456 27.646 662.456 30.782ZM663.464 30.782C663.464 28.136 664.29 26.764 665.816 26.764C667.342 26.764 668.168 28.15 668.168 30.782C668.168 33.4 667.342 34.772 665.816 34.772C664.262 34.772 663.464 33.386 663.464 30.782ZM672.305 34.688C672.305 34.156 671.941 33.792 671.423 33.792C670.919 33.792 670.541 34.156 670.541 34.688C670.541 35.192 670.919 35.57 671.423 35.57C671.941 35.57 672.305 35.192 672.305 34.688ZM675.814 35.5V26.036H672.986V26.876H674.848V35.5H675.814ZM680.752 35.64C682.782 35.64 684.014 34.31 684.014 32.532C684.014 30.908 682.838 29.564 680.906 29.564C680.178 29.564 679.534 29.788 678.96 30.306L679.478 26.89H683.482V26.036H678.778L677.952 31.3L678.708 31.524C679.17 30.796 679.87 30.404 680.78 30.404C682.124 30.404 683.02 31.356 683.02 32.546C683.02 33.876 682.194 34.772 680.752 34.772C679.562 34.772 678.694 34.03 678.61 32.868H677.658C677.714 34.478 679.03 35.64 680.752 35.64ZM687.92 31.832C689.614 31.832 690.762 30.516 690.762 28.892C690.762 27.268 689.614 25.952 687.92 25.952C686.24 25.952 685.092 27.268 685.092 28.892C685.092 30.516 686.24 31.832 687.92 31.832ZM689.656 35.5L694.99 26.036H694.15L688.83 35.5H689.656ZM687.92 31.118C686.842 31.118 685.932 30.306 685.932 28.892C685.932 27.464 686.842 26.666 687.92 26.666C689.012 26.666 689.908 27.464 689.908 28.892C689.908 30.306 689.012 31.118 687.92 31.118ZM695.998 35.612C697.692 35.612 698.84 34.31 698.84 32.672C698.84 31.048 697.692 29.732 695.998 29.732C694.304 29.732 693.156 31.048 693.156 32.672C693.156 34.31 694.304 35.612 695.998 35.612ZM695.998 34.898C694.92 34.898 694.01 34.086 694.01 32.672C694.01 31.244 694.92 30.46 695.998 30.46C697.076 30.46 697.986 31.244 697.986 32.672C697.986 34.086 697.076 34.898 695.998 34.898Z" fill="#47F8C3"/>
<g clip-path="url(#clip1_1_60)">
<path d="M731.5 18H755.5V42H731.5V18Z" fill="#26A17B"/>
<path d="M744.812 30.9858C744.74 30.9858 744.428 31.0152 743.514 31.0152C742.783 31.0152 742.369 30.9936 742.188 30.9858C739.369 30.8618 737.159 30.3722 737.159 29.7802C737.159 29.1883 739.369 28.6913 742.188 28.5669V30.4965H744.812V28.5673C747.624 28.6913 749.833 29.1883 749.833 29.7802C749.833 30.3648 747.624 30.8618 744.812 30.9858ZM744.812 28.3628V26.6H748.75V24H738.25V26.6H742.188V28.3624C738.999 28.5088 736.5 29.1519 736.5 29.9115C736.5 30.6716 738.999 31.3147 742.188 31.4611V37H744.812V31.4611C748.001 31.3147 750.5 30.6716 750.5 29.9115C750.5 29.1519 748.001 28.5166 744.812 28.3628Z" fill="white"/>
</g>
<path d="M768.19 35.5V26.386H771.564V25.448H763.78V26.386H767.154V35.5H768.19ZM774.749 35.64C776.443 35.64 777.689 34.646 778.025 33.008H777.059C776.821 34.184 775.967 34.87 774.735 34.87C773.293 34.87 772.369 33.792 772.285 32.042H777.997C778.165 29.676 776.793 27.982 774.693 27.982C772.733 27.982 771.305 29.592 771.305 31.748C771.305 34.086 772.677 35.64 774.749 35.64ZM774.679 28.738C776.037 28.738 776.891 29.718 776.975 31.37H772.285C772.411 29.76 773.349 28.738 774.679 28.738ZM783.397 34.562C783.089 34.688 782.837 34.744 782.529 34.744C781.717 34.744 781.157 34.352 781.157 33.204V28.948H783.467V28.122H781.157V25.938H780.177V28.122H778.441V28.948H780.177V33.414C780.177 35.01 781.115 35.64 782.333 35.64C782.697 35.64 783.019 35.584 783.397 35.43V34.562ZM785.929 31.202C785.929 29.83 786.853 28.836 788.001 28.836C789.205 28.836 789.849 29.634 789.849 31.048V35.5H790.829V30.712C790.829 28.962 789.835 27.982 788.295 27.982C787.231 27.982 786.391 28.598 785.929 29.48V25.448H784.949V35.5H785.929V31.202ZM795.79 35.64C797.484 35.64 798.73 34.646 799.066 33.008H798.1C797.862 34.184 797.008 34.87 795.776 34.87C794.334 34.87 793.41 33.792 793.326 32.042H799.038C799.206 29.676 797.834 27.982 795.734 27.982C793.774 27.982 792.346 29.592 792.346 31.748C792.346 34.086 793.718 35.64 795.79 35.64ZM795.72 28.738C797.078 28.738 797.932 29.718 798.016 31.37H793.326C793.452 29.76 794.39 28.738 795.72 28.738ZM801.638 31.552C801.638 29.942 802.828 28.976 804.382 29.032V28.01C803.164 28.01 802.072 28.71 801.568 29.802V28.122H800.658V35.5H801.638V31.552Z" fill="white"/>
<path d="M827.982 34.632H823.712L826.022 31.944C827.478 30.32 827.884 29.55 827.884 28.528C827.884 27.002 826.666 25.896 825.014 25.896C823.278 25.896 822.06 27.086 822.06 28.738H823.012C823.012 27.562 823.824 26.764 824.972 26.764C826.078 26.764 826.862 27.548 826.862 28.612C826.862 29.522 826.442 30.222 825.294 31.524L822.27 34.94V35.5H827.982V34.632ZM831.73 35.5V26.036H828.902V26.876H830.764V35.5H831.73ZM836.738 35.626C838.642 35.626 840.042 34.268 840.042 32.504C840.042 30.642 838.698 29.424 836.934 29.424C836.584 29.424 836.206 29.494 835.814 29.634L838.656 26.036H837.55L834.694 29.634C833.952 30.558 833.448 31.3 833.448 32.532C833.448 34.268 834.848 35.626 836.738 35.626ZM836.752 34.814C835.436 34.814 834.456 33.848 834.456 32.504C834.456 30.992 835.436 30.18 836.752 30.18C838.054 30.18 839.034 31.118 839.034 32.532C839.034 33.848 838.054 34.814 836.752 34.814ZM843.042 34.688C843.042 34.156 842.678 33.792 842.16 33.792C841.656 33.792 841.278 34.156 841.278 34.688C841.278 35.192 841.656 35.57 842.16 35.57C842.678 35.57 843.042 35.192 843.042 34.688ZM847.047 25.91C845.143 25.91 843.743 27.268 843.743 29.032C843.743 30.88 845.073 32.098 846.837 32.098C847.187 32.098 847.579 32.042 847.957 31.888L845.115 35.5H846.235L849.077 31.902C849.875 30.894 850.337 30.166 850.337 29.004C850.337 27.268 848.937 25.91 847.047 25.91ZM847.033 26.722C848.335 26.722 849.329 27.688 849.329 29.032C849.329 30.544 848.335 31.356 847.033 31.356C845.703 31.356 844.751 30.418 844.751 29.004C844.751 27.688 845.703 26.722 847.033 26.722ZM857.404 34.632H853.134L855.444 31.944C856.9 30.32 857.306 29.55 857.306 28.528C857.306 27.002 856.088 25.896 854.436 25.896C852.7 25.896 851.482 27.086 851.482 28.738H852.434C852.434 27.562 853.246 26.764 854.394 26.764C855.5 26.764 856.284 27.548 856.284 28.612C856.284 29.522 855.864 30.222 854.716 31.524L851.692 34.94V35.5H857.404V34.632Z" fill="white"/>
<path d="M869.454 25.448H868.404V32.112C868.404 33.75 867.34 34.772 865.786 34.772C864.232 34.772 863.154 33.75 863.154 32.112V25.448H862.104V32.056C862.104 34.31 863.56 35.71 865.786 35.71C867.998 35.71 869.454 34.31 869.454 32.056V25.448ZM878.731 32.714C878.731 31.202 877.765 30.502 876.071 30.152L874.797 29.886C873.677 29.662 872.669 29.298 872.669 28.108C872.669 27.1 873.495 26.162 875.035 26.162C876.477 26.162 877.457 27.128 877.527 28.458H878.605C878.493 26.54 876.981 25.308 875.021 25.308C873.019 25.308 871.605 26.554 871.605 28.164C871.605 29.914 873.005 30.53 874.335 30.796L875.609 31.048C877.037 31.342 877.625 31.818 877.625 32.854C877.625 34.058 876.505 34.786 875.077 34.786C873.341 34.786 872.445 33.862 872.347 32.434H871.283C871.381 34.338 872.753 35.64 875.091 35.64C877.429 35.64 878.731 34.31 878.731 32.714ZM883.541 35.5C886.691 35.5 888.539 33.33 888.539 30.432C888.539 27.492 886.761 25.448 883.541 25.448H880.685V35.5H883.541ZM881.735 26.358H883.513C886.089 26.358 887.475 27.954 887.475 30.432C887.475 32.924 886.061 34.59 883.513 34.59H881.735V26.358Z" fill="#8D8D8D"/>
<path d="M902.568 34.282V31.216H905.62V30.39H902.568V27.338H901.672V30.39H898.62V31.216H901.672V34.282H902.568ZM909.822 35.5V26.036H906.994V26.876H908.856V35.5H909.822ZM913.709 34.688C913.709 34.156 913.345 33.792 912.827 33.792C912.323 33.792 911.945 34.156 911.945 34.688C911.945 35.192 912.323 35.57 912.827 35.57C913.345 35.57 913.709 35.192 913.709 34.688ZM918.402 35.626C920.306 35.626 921.594 34.506 921.594 32.882C921.594 31.734 920.838 30.894 919.536 30.572C920.572 30.138 921.16 29.354 921.16 28.374C921.16 26.918 920.026 25.896 918.346 25.896C916.736 25.896 915.504 27.002 915.462 28.486H916.4C916.456 27.394 917.198 26.694 918.318 26.694C919.396 26.694 920.152 27.394 920.152 28.416C920.152 29.48 919.34 30.222 918.178 30.222H917.268V31.034H918.206C919.662 31.034 920.586 31.762 920.586 32.896C920.586 34.086 919.76 34.828 918.402 34.828C917.086 34.828 916.204 34.072 916.148 32.882H915.196C915.238 34.52 916.526 35.626 918.402 35.626ZM926.093 35.64C928.123 35.64 929.355 34.31 929.355 32.532C929.355 30.908 928.179 29.564 926.247 29.564C925.519 29.564 924.875 29.788 924.301 30.306L924.819 26.89H928.823V26.036H924.119L923.293 31.3L924.049 31.524C924.511 30.796 925.211 30.404 926.121 30.404C927.465 30.404 928.361 31.356 928.361 32.546C928.361 33.876 927.535 34.772 926.093 34.772C924.903 34.772 924.035 34.03 923.951 32.868H922.999C923.055 34.478 924.371 35.64 926.093 35.64ZM933.262 31.832C934.956 31.832 936.104 30.516 936.104 28.892C936.104 27.268 934.956 25.952 933.262 25.952C931.582 25.952 930.434 27.268 930.434 28.892C930.434 30.516 931.582 31.832 933.262 31.832ZM934.998 35.5L940.332 26.036H939.492L934.172 35.5H934.998ZM933.262 31.118C932.184 31.118 931.274 30.306 931.274 28.892C931.274 27.464 932.184 26.666 933.262 26.666C934.354 26.666 935.25 27.464 935.25 28.892C935.25 30.306 934.354 31.118 933.262 31.118ZM941.34 35.612C943.034 35.612 944.182 34.31 944.182 32.672C944.182 31.048 943.034 29.732 941.34 29.732C939.646 29.732 938.498 31.048 938.498 32.672C938.498 34.31 939.646 35.612 941.34 35.612ZM941.34 34.898C940.262 34.898 939.352 34.086 939.352 32.672C939.352 31.244 940.262 30.46 941.34 30.46C942.418 30.46 943.328 31.244 943.328 32.672C943.328 34.086 942.418 34.898 941.34 34.898Z" fill="#47F8C3"/>
<g clip-path="url(#clip2_1_60)">
<path d="M977.5 18H1001.5V42H977.5V18Z" fill="url(#paint0_linear_1_60)"/>
<path fill-rule="evenodd" clip-rule="evenodd" d="M986.429 26.7539L986.431 26.7552C986.574 26.8701 986.681 26.9557 986.749 27.0162L986.791 27.0551C986.801 27.0649 986.811 27.0752 986.82 27.086C986.962 27.2644 986.909 27.4243 986.664 27.5497C986.528 27.6195 986.248 27.6902 986.109 27.6902C985.951 27.6902 985.896 27.635 985.896 27.635L985.863 27.6089C985.785 27.5484 985.695 27.4786 985.281 26.8153C984.988 26.4046 984.694 25.9945 984.399 25.5849C984.289 25.4304 984.178 25.2773 984.064 25.1256C984.029 25.0965 984.03 25.0973 985.214 27.0096C985.366 27.3267 985.301 27.4839 985.267 27.5639C985.259 27.5789 985.254 27.595 985.252 27.6116C985.252 27.7264 985.217 27.7873 985.06 27.9463C984.797 28.2113 984.679 28.509 984.594 29.1255C984.499 29.8158 984.231 30.3038 983.489 31.1385C983.055 31.6274 982.984 31.717 982.874 31.914C982.737 32.1618 982.698 32.3009 982.683 32.614C982.667 32.9452 982.698 33.1594 982.811 33.4761C982.908 33.753 983.011 33.9363 983.273 34.3019C983.499 34.6181 983.629 34.8531 983.629 34.945C983.629 35.0178 983.645 35.0183 983.995 34.9467C984.833 34.7758 985.514 34.4755 985.897 34.1076C986.134 33.8793 986.189 33.7534 986.191 33.4412C986.192 33.2367 986.184 33.1939 986.123 33.0764C986.024 32.8852 985.842 32.7262 985.443 32.4802C984.919 32.1565 984.695 31.8968 984.634 31.5391C984.583 31.2454 984.642 31.0382 984.931 30.4906C985.231 29.9235 985.305 29.6815 985.356 29.11C985.388 28.7408 985.433 28.5951 985.551 28.4785C985.673 28.3562 985.784 28.3151 986.087 28.2776C986.582 28.2166 986.897 28.1009 987.156 27.8858C987.381 27.6986 987.475 27.5188 987.489 27.2477L987.5 27.0423L987.375 26.9103C986.919 26.432 982.528 23 982.5 23C982.495 23 982.644 23.1691 982.833 23.3758C984.516 25.2197 985.809 26.2562 986.429 26.7544V26.7539ZM983.884 32.9889C983.933 32.9097 983.948 32.8152 983.925 32.7257C983.902 32.6362 983.843 32.5589 983.761 32.5102C983.598 32.4131 983.346 32.4585 983.346 32.5853C983.346 32.5982 983.349 32.6108 983.355 32.6224L983.361 32.6325C983.368 32.641 983.375 32.6485 983.384 32.6546L983.405 32.6683L983.423 32.6772C983.513 32.7195 983.52 32.7664 983.449 32.8626C983.377 32.9598 983.383 33.0459 983.465 33.1038C983.598 33.1978 983.786 33.1462 983.885 32.9889H983.884Z" fill="#FF0A6F"/>
<path d="M986.51 24.0288C986.487 24.0213 986.505 24.0166 986.552 24.0091C986.713 23.9818 987.093 24.0185 987.355 24.0866C987.966 24.2455 988.523 24.6517 989.116 25.3737L989.274 25.5655L989.5 25.526C990.451 25.3592 991.418 25.4917 992.227 25.8998C992.45 26.0121 992.801 26.2354 992.845 26.2928C992.859 26.3111 992.884 26.4291 992.902 26.5546C992.961 26.9894 992.932 27.3227 992.81 27.5719C992.794 27.6028 992.78 27.635 992.769 27.6682L992.76 27.6955C992.748 27.7505 992.756 27.7942 992.784 27.8661C992.82 27.9588 992.919 28.0274 993.017 28.0269C993.218 28.0269 993.435 27.672 993.535 27.1784L993.575 26.9819L993.654 27.0797C994.086 27.6151 994.426 28.3452 994.485 28.8646L994.5 29L994.428 28.8768C994.302 28.6653 994.176 28.5205 994.015 28.4044C993.725 28.1947 993.418 28.1233 992.605 28.0763C991.87 28.034 991.455 27.9658 991.043 27.8191C990.341 27.5695 989.988 27.2372 989.155 26.0441C988.785 25.5138 988.556 25.221 988.329 24.985C987.812 24.4481 987.304 24.167 986.654 24.057C986.605 24.0501 986.557 24.0407 986.51 24.0288Z" fill="#FF0A6F"/>
<path d="M993.109 24.9166C993.128 24.5764 993.172 24.3523 993.261 24.1471C993.297 24.0661 993.33 24 993.335 24C993.34 24 993.325 24.0598 993.301 24.1332C993.236 24.3316 993.225 24.6034 993.27 24.9198C993.327 25.3212 993.359 25.3788 993.769 25.8121C993.96 26.0155 994.184 26.272 994.265 26.3822L994.412 26.582L994.265 26.4394C994.085 26.2639 993.671 25.9232 993.579 25.8742C993.562 25.8639 993.544 25.8563 993.525 25.8517C993.52 25.8507 993.515 25.8507 993.511 25.8517C993.498 25.8548 993.487 25.8643 993.471 25.8814C993.436 25.9174 993.429 25.9714 993.424 26.2265C993.417 26.6243 993.364 26.8795 993.238 27.135C993.17 27.2732 993.159 27.2435 993.22 27.0878C993.267 26.9712 993.272 26.9204 993.271 26.5352C993.27 25.7612 993.182 25.5749 992.662 25.2564C992.505 25.1614 992.344 25.075 992.18 24.9976C992.046 24.936 991.94 24.8824 991.944 24.8784C991.959 24.8631 992.466 25.0165 992.67 25.098C992.973 25.219 993.024 25.2348 993.06 25.2199C993.085 25.2105 993.097 25.1358 993.109 24.9166ZM986.507 24.3222C986.458 24.9198 986.684 25.7189 987.049 26.2405C987.332 26.6446 987.771 26.9582 988.096 26.9888C988.308 27.0086 988.372 26.9393 988.276 26.7944C988.142 26.5928 987.978 26.2819 987.935 26.1491C987.885 25.9703 987.841 25.7892 987.805 25.6064C987.652 24.8703 987.503 24.5836 987.156 24.3658C987.03 24.2866 986.761 24.1827 986.605 24.153L986.522 24.1372L986.507 24.3222ZM992.666 30.1198C990.958 29.4075 990.357 28.7892 990.357 27.7457C990.357 27.5922 990.362 27.4667 990.368 27.4667C990.375 27.4667 990.441 27.5171 990.515 27.5792C990.861 27.8672 991.249 27.9896 992.323 28.152C992.954 28.2474 993.309 28.3248 993.637 28.4373C994.68 28.7955 995.324 29.5222 995.478 30.5126C995.523 30.8002 995.496 31.3397 995.424 31.6241C995.367 31.8486 995.192 32.2532 995.146 32.2689C995.14 32.2707 995.134 32.2604 995.129 32.2419C995.122 32.2128 995.118 32.1829 995.117 32.1528C995.1 31.7811 994.919 31.4193 994.614 31.148C994.268 30.8398 993.803 30.5945 992.666 30.1198ZM991.385 30.0415C991.409 30.1153 991.446 30.284 991.467 30.4159C991.604 31.2592 991.177 31.9409 990.345 32.205C990.284 32.2224 990.222 32.2374 990.16 32.25C990.082 32.2664 990.004 32.282 989.926 32.2968L989.773 32.3256L989.575 32.3612C988.896 32.4782 988.593 32.5614 988.288 32.7135C988.072 32.8215 987.81 32.9826 987.827 32.9988C987.829 33.001 987.839 33.0001 987.856 32.9961C987.876 32.9916 987.905 32.9826 987.936 32.9718C988.32 32.8319 988.747 32.7594 989.397 32.7243C989.49 32.7198 989.589 32.7135 989.681 32.7068L989.804 32.6978L989.928 32.6879L989.984 32.6825L990.048 32.6753C990.627 32.5997 991.028 32.4179 991.34 32.0889C991.514 31.9058 991.617 31.7352 991.7 31.4949C991.753 31.342 991.76 31.2857 991.761 31.0153C991.761 30.7399 991.755 30.6895 991.697 30.5203C991.622 30.298 991.534 30.1315 991.422 30.001L991.341 29.9069L991.385 30.0415Z" fill="#FF0A6F"/>
<path d="M992.58 31.353C992.337 30.9081 992.281 30.4786 992.414 30.0777C992.428 30.0349 992.451 30 992.465 30C992.485 30.0043 992.504 30.0114 992.521 30.021C992.543 30.0313 992.568 30.0448 992.593 30.0586C992.705 30.1228 992.93 30.231 993.529 30.5087C994.276 30.8558 994.702 31.124 994.992 31.4311C995.246 31.6997 995.403 32.0055 995.479 32.3788C995.522 32.5899 995.496 33.0987 995.433 33.3114C995.232 33.9826 994.765 34.5095 994.098 34.817C994.035 34.848 993.97 34.8755 993.904 34.8994C993.901 34.8994 993.902 34.8934 993.906 34.8827L993.914 34.8621C993.928 34.8304 993.952 34.7825 993.982 34.7286C994.207 34.3296 994.232 33.9422 994.063 33.5103C993.959 33.246 993.747 32.9239 993.32 32.3788C992.824 31.7448 992.702 31.5765 992.58 31.353ZM987.997 32.8126C987.227 32.9192 986.382 33.2658 985.702 33.754L985.5 33.8994L985.678 33.9231C986.606 34.046 986.856 34.1553 987.499 34.7195C987.87 35.0444 987.994 35.1165 988.302 35.183C988.752 35.2809 989.197 35.101 989.35 34.7583C989.418 34.6054 989.409 34.3522 989.331 34.225C989.145 33.9219 988.603 33.8241 988.341 34.046C988.123 34.231 988.186 34.5095 988.458 34.5571C988.52 34.5681 988.518 34.5658 988.442 34.5364C988.323 34.4909 988.272 34.4275 988.271 34.3265C988.269 34.0903 988.587 33.9572 988.883 34.0709C989.1 34.1541 989.186 34.2627 989.186 34.4532C989.186 34.7464 988.893 34.9679 988.551 34.9315C988.368 34.912 988.145 34.8126 988.025 34.6977C987.724 34.4081 987.842 33.9509 988.262 33.7754C988.582 33.6418 989.008 33.6747 989.338 33.8586C989.717 34.0697 989.878 34.2627 990.205 34.8966C990.311 35.1026 990.448 35.3352 990.509 35.4128C990.818 35.8067 991.189 36 991.635 36C991.881 36 992.067 35.9616 992.3 35.8625C992.473 35.7892 992.718 35.6494 992.7 35.6343C992.696 35.6303 992.624 35.649 992.541 35.6767C992.053 35.8384 991.558 35.8273 991.27 35.6478C991.089 35.5349 990.943 35.3102 990.868 35.0293C990.855 34.9806 990.812 34.7658 990.772 34.5515C990.672 34.0091 990.576 33.7655 990.352 33.4857C990.123 33.1993 989.682 32.9588 989.189 32.8518C988.882 32.7849 988.329 32.7666 987.997 32.8126Z" fill="#FF0A6F"/>
<path fill-rule="evenodd" clip-rule="evenodd" d="M987.514 28.4636C987.557 28.2635 987.7 28.0724 987.846 28.017C987.939 27.9816 988.131 28.004 988.221 28.0606C988.397 28.1708 988.524 28.4207 988.496 28.6011C988.463 28.8214 988.173 28.9973 987.84 28.9999C987.67 29.0018 987.607 28.9733 987.542 28.8666C987.502 28.8001 987.487 28.5855 987.514 28.464V28.4636ZM988.177 28.1393C988.264 28.205 988.287 28.3026 988.235 28.3922C988.2 28.4541 988.09 28.513 988.01 28.513C987.89 28.513 987.759 28.4078 987.759 28.3117C987.759 28.118 988.01 28.0139 988.177 28.1393Z" fill="#FF0A6F"/>
</g>
<path d="M1017.96 25.448H1016.91V32.112C1016.91 33.75 1015.84 34.772 1014.29 34.772C1012.73 34.772 1011.66 33.75 1011.66 32.112V25.448H1010.61V32.056C1010.61 34.31 1012.06 35.71 1014.29 35.71C1016.5 35.71 1017.96 34.31 1017.96 32.056V25.448ZM1021.1 31.202C1021.1 29.83 1022.02 28.836 1023.17 28.836C1024.38 28.836 1025.02 29.634 1025.02 31.048V35.5H1026V30.712C1026 28.962 1025.01 27.982 1023.47 27.982C1022.4 27.982 1021.51 28.598 1021.03 29.508V28.122H1020.12V35.5H1021.1V31.202ZM1029.34 26.414C1029.34 25.994 1029.02 25.686 1028.54 25.686C1028.08 25.686 1027.76 25.994 1027.76 26.414C1027.76 26.848 1028.08 27.156 1028.54 27.156C1029.02 27.156 1029.34 26.848 1029.34 26.414ZM1029.04 35.5V28.122H1028.06V35.5H1029.04ZM1036.68 33.442C1036.68 32.392 1036.03 31.776 1034.56 31.496L1033.45 31.286C1032.36 31.076 1031.91 30.726 1031.91 29.998C1031.91 29.228 1032.62 28.738 1033.66 28.738C1034.82 28.738 1035.56 29.34 1035.66 30.362H1036.59C1036.47 28.892 1035.35 27.982 1033.66 27.982C1032.05 27.982 1030.96 28.85 1030.96 30.082C1030.96 31.146 1031.7 31.832 1033.1 32.098L1034.16 32.308C1035.28 32.532 1035.7 32.868 1035.7 33.596C1035.7 34.436 1034.98 34.898 1033.77 34.898C1032.51 34.898 1031.69 34.24 1031.62 33.19H1030.68C1030.82 34.716 1031.94 35.64 1033.77 35.64C1035.59 35.64 1036.68 34.8 1036.68 33.442ZM1044.38 35.5H1045.36L1047.53 28.122H1046.55L1044.84 34.128L1042.94 28.122H1041.97L1040.06 34.114L1038.35 28.122H1037.38L1039.54 35.5H1040.53L1042.45 29.424L1044.38 35.5ZM1053.12 35.5H1053.96V30.698C1053.96 28.99 1052.95 27.982 1051.23 27.982C1049.55 27.982 1048.42 29.074 1048.38 30.712H1049.27C1049.29 29.508 1050.04 28.766 1051.25 28.766C1052.37 28.766 1053.02 29.494 1053.02 30.726V31.342C1052.3 31.286 1051.96 31.258 1051.51 31.258C1049.27 31.258 1048.12 32.014 1048.12 33.456C1048.12 34.786 1049.12 35.64 1050.64 35.64C1051.79 35.64 1052.69 35.08 1053.12 34.156V35.5ZM1049.06 33.428C1049.06 32.406 1049.87 31.916 1051.55 31.916C1051.96 31.916 1052.39 31.93 1053.02 31.986V32.644C1053.02 34.03 1052.16 34.926 1050.78 34.926C1049.75 34.926 1049.06 34.324 1049.06 33.428ZM1062.78 31.804C1062.78 29.55 1061.51 27.982 1059.55 27.982C1058.42 27.982 1057.44 28.626 1056.93 29.718V28.122H1056.02V38.202H1057V33.988C1057.51 35.038 1058.44 35.64 1059.55 35.64C1061.51 35.64 1062.78 34.086 1062.78 31.804ZM1061.79 31.804C1061.79 33.694 1060.82 34.786 1059.38 34.786C1057.98 34.786 1056.99 33.638 1056.99 31.804C1056.99 29.928 1058.01 28.836 1059.38 28.836C1060.82 28.836 1061.79 29.942 1061.79 31.804Z" fill="white"/>
<path d="M1083.24 35.64C1085.27 35.64 1086.5 34.31 1086.5 32.532C1086.5 30.908 1085.32 29.564 1083.39 29.564C1082.66 29.564 1082.02 29.788 1081.45 30.306L1081.96 26.89H1085.97V26.036H1081.26L1080.44 31.3L1081.19 31.524C1081.66 30.796 1082.36 30.404 1083.27 30.404C1084.61 30.404 1085.51 31.356 1085.51 32.546C1085.51 33.876 1084.68 34.772 1083.24 34.772C1082.05 34.772 1081.18 34.03 1081.1 32.868H1080.14C1080.2 34.478 1081.52 35.64 1083.24 35.64ZM1093.43 26.596V26.036H1087.26V26.904H1092.34L1088.6 35.5H1089.65L1093.43 26.596ZM1097.53 25.91C1095.62 25.91 1094.22 27.268 1094.22 29.032C1094.22 30.88 1095.55 32.098 1097.32 32.098C1097.67 32.098 1098.06 32.042 1098.44 31.888L1095.6 35.5H1096.72L1099.56 31.902C1100.36 30.894 1100.82 30.166 1100.82 29.004C1100.82 27.268 1099.42 25.91 1097.53 25.91ZM1097.51 26.722C1098.82 26.722 1099.81 27.688 1099.81 29.032C1099.81 30.544 1098.82 31.356 1097.51 31.356C1096.18 31.356 1095.23 30.418 1095.23 29.004C1095.23 27.688 1096.18 26.722 1097.51 26.722ZM1103.28 34.688C1103.28 34.156 1102.92 33.792 1102.4 33.792C1101.9 33.792 1101.52 34.156 1101.52 34.688C1101.52 35.192 1101.9 35.57 1102.4 35.57C1102.92 35.57 1103.28 35.192 1103.28 34.688ZM1110.69 34.632H1106.42L1108.73 31.944C1110.18 30.32 1110.59 29.55 1110.59 28.528C1110.59 27.002 1109.37 25.896 1107.72 25.896C1105.98 25.896 1104.77 27.086 1104.77 28.738H1105.72C1105.72 27.562 1106.53 26.764 1107.68 26.764C1108.78 26.764 1109.57 27.548 1109.57 28.612C1109.57 29.522 1109.15 30.222 1108 31.524L1104.98 34.94V35.5H1110.69V34.632ZM1115.09 35.64C1117.12 35.64 1118.36 34.31 1118.36 32.532C1118.36 30.908 1117.18 29.564 1115.25 29.564C1114.52 29.564 1113.88 29.788 1113.3 30.306L1113.82 26.89H1117.82V26.036H1113.12L1112.29 31.3L1113.05 31.524C1113.51 30.796 1114.21 30.404 1115.12 30.404C1116.47 30.404 1117.36 31.356 1117.36 32.546C1117.36 33.876 1116.54 34.772 1115.09 34.772C1113.9 34.772 1113.04 34.03 1112.95 32.868H1112C1112.06 34.478 1113.37 35.64 1115.09 35.64Z" fill="white"/>
<path d="M1130.31 25.448H1129.26V32.112C1129.26 33.75 1128.2 34.772 1126.64 34.772C1125.09 34.772 1124.01 33.75 1124.01 32.112V25.448H1122.96V32.056C1122.96 34.31 1124.42 35.71 1126.64 35.71C1128.86 35.71 1130.31 34.31 1130.31 32.056V25.448ZM1139.59 32.714C1139.59 31.202 1138.62 30.502 1136.93 30.152L1135.65 29.886C1134.53 29.662 1133.53 29.298 1133.53 28.108C1133.53 27.1 1134.35 26.162 1135.89 26.162C1137.33 26.162 1138.31 27.128 1138.38 28.458H1139.46C1139.35 26.54 1137.84 25.308 1135.88 25.308C1133.88 25.308 1132.46 26.554 1132.46 28.164C1132.46 29.914 1133.86 30.53 1135.19 30.796L1136.47 31.048C1137.89 31.342 1138.48 31.818 1138.48 32.854C1138.48 34.058 1137.36 34.786 1135.93 34.786C1134.2 34.786 1133.3 33.862 1133.2 32.434H1132.14C1132.24 34.338 1133.61 35.64 1135.95 35.64C1138.29 35.64 1139.59 34.31 1139.59 32.714ZM1144.4 35.5C1147.55 35.5 1149.4 33.33 1149.4 30.432C1149.4 27.492 1147.62 25.448 1144.4 25.448H1141.54V35.5H1144.4ZM1142.59 26.358H1144.37C1146.95 26.358 1148.33 27.954 1148.33 30.432C1148.33 32.924 1146.92 34.59 1144.37 34.59H1142.59V26.358Z" fill="#8D8D8D"/>
<path d="M1163.25 32.07V31.202H1158.82V32.07H1163.25ZM1169.48 34.632H1165.21L1167.52 31.944C1168.98 30.32 1169.38 29.55 1169.38 28.528C1169.38 27.002 1168.16 25.896 1166.51 25.896C1164.78 25.896 1163.56 27.086 1163.56 28.738H1164.51C1164.51 27.562 1165.32 26.764 1166.47 26.764C1167.58 26.764 1168.36 27.548 1168.36 28.612C1168.36 29.522 1167.94 30.222 1166.79 31.524L1163.77 34.94V35.5H1169.48V34.632ZM1172.9 34.688C1172.9 34.156 1172.54 33.792 1172.02 33.792C1171.52 33.792 1171.14 34.156 1171.14 34.688C1171.14 35.192 1171.52 35.57 1172.02 35.57C1172.54 35.57 1172.9 35.192 1172.9 34.688ZM1177.43 35.626C1179.33 35.626 1180.73 34.268 1180.73 32.504C1180.73 30.642 1179.39 29.424 1177.63 29.424C1177.28 29.424 1176.9 29.494 1176.51 29.634L1179.35 26.036H1178.24L1175.39 29.634C1174.64 30.558 1174.14 31.3 1174.14 32.532C1174.14 34.268 1175.54 35.626 1177.43 35.626ZM1177.44 34.814C1176.13 34.814 1175.15 33.848 1175.15 32.504C1175.15 30.992 1176.13 30.18 1177.44 30.18C1178.75 30.18 1179.73 31.118 1179.73 32.532C1179.73 33.848 1178.75 34.814 1177.44 34.814ZM1187.47 34.632H1183.2L1185.51 31.944C1186.97 30.32 1187.37 29.55 1187.37 28.528C1187.37 27.002 1186.16 25.896 1184.5 25.896C1182.77 25.896 1181.55 27.086 1181.55 28.738H1182.5C1182.5 27.562 1183.31 26.764 1184.46 26.764C1185.57 26.764 1186.35 27.548 1186.35 28.612C1186.35 29.522 1185.93 30.222 1184.78 31.524L1181.76 34.94V35.5H1187.47V34.632ZM1191.47 31.832C1193.17 31.832 1194.31 30.516 1194.31 28.892C1194.31 27.268 1193.17 25.952 1191.47 25.952C1189.79 25.952 1188.64 27.268 1188.64 28.892C1188.64 30.516 1189.79 31.832 1191.47 31.832ZM1193.21 35.5L1198.54 26.036H1197.7L1192.38 35.5H1193.21ZM1191.47 31.118C1190.39 31.118 1189.48 30.306 1189.48 28.892C1189.48 27.464 1190.39 26.666 1191.47 26.666C1192.56 26.666 1193.46 27.464 1193.46 28.892C1193.46 30.306 1192.56 31.118 1191.47 31.118ZM1199.55 35.612C1201.24 35.612 1202.39 34.31 1202.39 32.672C1202.39 31.048 1201.24 29.732 1199.55 29.732C1197.86 29.732 1196.71 31.048 1196.71 32.672C1196.71 34.31 1197.86 35.612 1199.55 35.612ZM1199.55 34.898C1198.47 34.898 1197.56 34.086 1197.56 32.672C1197.56 31.244 1198.47 30.46 1199.55 30.46C1200.63 30.46 1201.54 31.244 1201.54 32.672C1201.54 34.086 1200.63 34.898 1199.55 34.898Z" fill="#F84752"/>
<g clip-path="url(#clip3_1_60)">
<path d="M1235.5 18H1259.5V42H1235.5V18Z" fill="#C3A634"/>
<path d="M1244.97 28.6878H1248.87V30.8747H1244.97V34.8112H1247.48C1250.7 34.8112 1252.33 33.0721 1252.33 30C1252.33 27.1377 1250.65 25.0842 1247.48 25.1888H1244.97V28.6878ZM1242.8 30.8747H1241.5V28.6878H1242.8V23.0019H1248.41C1252.41 22.9083 1254.5 26.3811 1254.5 30C1254.53 33.7133 1252.43 37.0921 1248.41 36.9981H1242.8V30.8747Z" fill="white"/>
</g>
<path d="M1271.49 35.5C1274.64 35.5 1276.49 33.33 1276.49 30.432C1276.49 27.492 1274.71 25.448 1271.49 25.448H1268.63V35.5H1271.49ZM1269.68 26.358H1271.46C1274.04 26.358 1275.42 27.954 1275.42 30.432C1275.42 32.924 1274.01 34.59 1271.46 34.59H1269.68V26.358ZM1281.06 35.64C1283.1 35.64 1284.57 34.03 1284.57 31.804C1284.57 29.592 1283.1 27.996 1281.06 27.996C1279.03 27.996 1277.56 29.592 1277.56 31.804C1277.56 34.03 1279.03 35.64 1281.06 35.64ZM1281.06 34.786C1279.63 34.786 1278.55 33.638 1278.55 31.804C1278.55 29.998 1279.63 28.85 1281.06 28.85C1282.5 28.85 1283.58 29.998 1283.58 31.804C1283.58 33.638 1282.5 34.786 1281.06 34.786ZM1288.81 38.356C1290.82 38.356 1291.99 37.236 1291.99 35.332V28.122H1291.08V29.69C1290.6 28.612 1289.68 27.982 1288.57 27.982C1286.71 27.982 1285.48 29.466 1285.48 31.706C1285.48 33.946 1286.72 35.444 1288.58 35.444C1289.68 35.444 1290.57 34.842 1291.02 33.806V35.346C1291.02 36.802 1290.25 37.572 1288.79 37.572C1287.48 37.572 1286.69 36.928 1286.61 35.724H1285.67C1285.76 37.376 1286.93 38.356 1288.81 38.356ZM1286.46 31.706C1286.46 29.914 1287.32 28.822 1288.72 28.822C1290.12 28.822 1291.03 29.97 1291.03 31.776C1291.03 33.484 1290.11 34.604 1288.72 34.604C1287.31 34.604 1286.46 33.512 1286.46 31.706ZM1297.01 35.64C1298.71 35.64 1299.95 34.646 1300.29 33.008H1299.32C1299.09 34.184 1298.23 34.87 1297 34.87C1295.56 34.87 1294.63 33.792 1294.55 32.042H1300.26C1300.43 29.676 1299.06 27.982 1296.96 27.982C1295 27.982 1293.57 29.592 1293.57 31.748C1293.57 34.086 1294.94 35.64 1297.01 35.64ZM1296.94 28.738C1298.3 28.738 1299.16 29.718 1299.24 31.37H1294.55C1294.68 29.76 1295.61 28.738 1296.94 28.738ZM1304.5 35.654C1306.24 35.654 1307.49 34.52 1307.75 32.644H1306.76C1306.53 34.016 1305.71 34.8 1304.5 34.8C1303.13 34.8 1302.19 33.596 1302.19 31.804C1302.19 30.04 1303.13 28.836 1304.5 28.836C1305.69 28.836 1306.53 29.634 1306.76 30.978H1307.75C1307.46 29.13 1306.23 27.982 1304.5 27.982C1302.57 27.982 1301.2 29.564 1301.2 31.804C1301.2 34.072 1302.56 35.654 1304.5 35.654ZM1312.19 35.64C1314.24 35.64 1315.71 34.03 1315.71 31.804C1315.71 29.592 1314.24 27.996 1312.19 27.996C1310.16 27.996 1308.69 29.592 1308.69 31.804C1308.69 34.03 1310.16 35.64 1312.19 35.64ZM1312.19 34.786C1310.76 34.786 1309.69 33.638 1309.69 31.804C1309.69 29.998 1310.76 28.85 1312.19 28.85C1313.63 28.85 1314.71 29.998 1314.71 31.804C1314.71 33.638 1313.63 34.786 1312.19 34.786ZM1318.56 26.414C1318.56 25.994 1318.24 25.686 1317.77 25.686C1317.3 25.686 1316.98 25.994 1316.98 26.414C1316.98 26.848 1317.3 27.156 1317.77 27.156C1318.24 27.156 1318.56 26.848 1318.56 26.414ZM1318.27 35.5V28.122H1317.29V35.5H1318.27ZM1321.37 31.202C1321.37 29.83 1322.3 28.836 1323.45 28.836C1324.65 28.836 1325.29 29.634 1325.29 31.048V35.5H1326.27V30.712C1326.27 28.962 1325.28 27.982 1323.74 27.982C1322.68 27.982 1321.78 28.598 1321.3 29.508V28.122H1320.39V35.5H1321.37V31.202Z" fill="white"/>
<path d="M1350.98 32.91C1350.98 31.678 1350.12 30.894 1349.06 30.572C1349.9 30.25 1350.57 29.452 1350.57 28.43C1350.57 26.918 1349.31 25.896 1347.66 25.896C1346.01 25.896 1344.73 26.918 1344.73 28.43C1344.73 29.452 1345.4 30.25 1346.26 30.572C1345.18 30.894 1344.34 31.678 1344.34 32.91C1344.34 34.548 1345.7 35.626 1347.66 35.626C1349.6 35.626 1350.98 34.548 1350.98 32.91ZM1345.74 28.458C1345.74 27.366 1346.52 26.694 1347.66 26.694C1348.78 26.694 1349.58 27.366 1349.58 28.458C1349.58 29.55 1348.78 30.208 1347.66 30.208C1346.52 30.208 1345.74 29.55 1345.74 28.458ZM1345.35 32.882C1345.35 31.678 1346.31 31.006 1347.66 31.006C1348.99 31.006 1349.97 31.678 1349.97 32.882C1349.97 34.1 1348.99 34.828 1347.66 34.828C1346.31 34.828 1345.35 34.1 1345.35 32.882ZM1355.5 35.626C1357.41 35.626 1358.69 34.506 1358.69 32.882C1358.69 31.734 1357.94 30.894 1356.64 30.572C1357.67 30.138 1358.26 29.354 1358.26 28.374C1358.26 26.918 1357.13 25.896 1355.45 25.896C1353.84 25.896 1352.6 27.002 1352.56 28.486H1353.5C1353.56 27.394 1354.3 26.694 1355.42 26.694C1356.5 26.694 1357.25 27.394 1357.25 28.416C1357.25 29.48 1356.44 30.222 1355.28 30.222H1354.37V31.034H1355.31C1356.76 31.034 1357.69 31.762 1357.69 32.896C1357.69 34.086 1356.86 34.828 1355.5 34.828C1354.19 34.828 1353.3 34.072 1353.25 32.882H1352.3C1352.34 34.52 1353.63 35.626 1355.5 35.626ZM1362.41 35.5V26.036H1359.58V26.876H1361.45V35.5H1362.41ZM1366.3 34.688C1366.3 34.156 1365.94 33.792 1365.42 33.792C1364.91 33.792 1364.54 34.156 1364.54 34.688C1364.54 35.192 1364.91 35.57 1365.42 35.57C1365.94 35.57 1366.3 35.192 1366.3 34.688ZM1370.99 35.626C1372.9 35.626 1374.18 34.506 1374.18 32.882C1374.18 31.734 1373.43 30.894 1372.13 30.572C1373.16 30.138 1373.75 29.354 1373.75 28.374C1373.75 26.918 1372.62 25.896 1370.94 25.896C1369.33 25.896 1368.09 27.002 1368.05 28.486H1368.99C1369.05 27.394 1369.79 26.694 1370.91 26.694C1371.99 26.694 1372.74 27.394 1372.74 28.416C1372.74 29.48 1371.93 30.222 1370.77 30.222H1369.86V31.034H1370.8C1372.25 31.034 1373.18 31.762 1373.18 32.896C1373.18 34.086 1372.35 34.828 1370.99 34.828C1369.68 34.828 1368.79 34.072 1368.74 32.882H1367.79C1367.83 34.52 1369.12 35.626 1370.99 35.626ZM1378.75 35.626C1380.66 35.626 1382.06 34.268 1382.06 32.504C1382.06 30.642 1380.71 29.424 1378.95 29.424C1378.6 29.424 1378.22 29.494 1377.83 29.634L1380.67 26.036H1379.57L1376.71 29.634C1375.97 30.558 1375.46 31.3 1375.46 32.532C1375.46 34.268 1376.86 35.626 1378.75 35.626ZM1378.77 34.814C1377.45 34.814 1376.47 33.848 1376.47 32.504C1376.47 30.992 1377.45 30.18 1378.77 30.18C1380.07 30.18 1381.05 31.118 1381.05 32.532C1381.05 33.848 1380.07 34.814 1378.77 34.814Z" fill="white"/>
<path d="M1393.96 25.448H1392.91V32.112C1392.91 33.75 1391.84 34.772 1390.29 34.772C1388.73 34.772 1387.66 33.75 1387.66 32.112V25.448H1386.61V32.056C1386.61 34.31 1388.06 35.71 1390.29 35.71C1392.5 35.71 1393.96 34.31 1393.96 32.056V25.448ZM1403.23 32.714C1403.23 31.202 1402.27 30.502 1400.57 30.152L1399.3 29.886C1398.18 29.662 1397.17 29.298 1397.17 28.108C1397.17 27.1 1398 26.162 1399.54 26.162C1400.98 26.162 1401.96 27.128 1402.03 28.458H1403.11C1402.99 26.54 1401.48 25.308 1399.52 25.308C1397.52 25.308 1396.11 26.554 1396.11 28.164C1396.11 29.914 1397.51 30.53 1398.84 30.796L1400.11 31.048C1401.54 31.342 1402.13 31.818 1402.13 32.854C1402.13 34.058 1401.01 34.786 1399.58 34.786C1397.84 34.786 1396.95 33.862 1396.85 32.434H1395.78C1395.88 34.338 1397.25 35.64 1399.59 35.64C1401.93 35.64 1403.23 34.31 1403.23 32.714ZM1408.04 35.5C1411.19 35.5 1413.04 33.33 1413.04 30.432C1413.04 27.492 1411.26 25.448 1408.04 25.448H1405.19V35.5H1408.04ZM1406.24 26.358H1408.01C1410.59 26.358 1411.98 27.954 1411.98 30.432C1411.98 32.924 1410.56 34.59 1408.01 34.59H1406.24V26.358Z" fill="#8D8D8D"/>
<path d="M1427.57 34.282V31.216H1430.62V30.39H1427.57V27.338H1426.67V30.39H1423.62V31.216H1426.67V34.282H1427.57ZM1434.82 35.5V26.036H1431.99V26.876H1433.86V35.5H1434.82ZM1438.71 34.688C1438.71 34.156 1438.35 33.792 1437.83 33.792C1437.32 33.792 1436.95 34.156 1436.95 34.688C1436.95 35.192 1437.32 35.57 1437.83 35.57C1438.35 35.57 1438.71 35.192 1438.71 34.688ZM1442.22 35.5V26.036H1439.39V26.876H1441.25V35.5H1442.22ZM1450.57 33.246V32.392H1449.3V26.036H1448.61L1443.73 32.588V33.246H1448.33V35.5H1449.3V33.246H1450.57ZM1444.86 32.392L1448.33 27.632V32.392H1444.86ZM1454.5 31.832C1456.2 31.832 1457.34 30.516 1457.34 28.892C1457.34 27.268 1456.2 25.952 1454.5 25.952C1452.82 25.952 1451.67 27.268 1451.67 28.892C1451.67 30.516 1452.82 31.832 1454.5 31.832ZM1456.24 35.5L1461.57 26.036H1460.73L1455.41 35.5H1456.24ZM1454.5 31.118C1453.42 31.118 1452.51 30.306 1452.51 28.892C1452.51 27.464 1453.42 26.666 1454.5 26.666C1455.59 26.666 1456.49 27.464 1456.49 28.892C1456.49 30.306 1455.59 31.118 1454.5 31.118ZM1462.58 35.612C1464.27 35.612 1465.42 34.31 1465.42 32.672C1465.42 31.048 1464.27 29.732 1462.58 29.732C1460.89 29.732 1459.74 31.048 1459.74 32.672C1459.74 34.31 1460.89 35.612 1462.58 35.612ZM1462.58 34.898C1461.5 34.898 1460.59 34.086 1460.59 32.672C1460.59 31.244 1461.5 30.46 1462.58 30.46C1463.66 30.46 1464.57 31.244 1464.57 32.672C1464.57 34.086 1463.66 34.898 1462.58 34.898Z" fill="#47F8C3"/>
<defs>
<linearGradient id="paint0_linear_1_60" x1="980.217" y1="30" x2="1001.5" y2="23.8217" gradientUnits="userSpaceOnUse">
<stop stop-color="#FFF0F6"/>
<stop offset="1" stop-color="#FFB3CF"/>
</linearGradient>
<clipPath id="clip0_1_60">
<rect x="490.5" y="18" width="24" height="24" rx="12" fill="white"/>
</clipPath>
<clipPath id="clip1_1_60">
<rect x="731.5" y="18" width="24" height="24" rx="12" fill="white"/>
</clipPath>
<clipPath id="clip2_1_60">
<rect x="977.5" y="18" width="24" height="24" rx="12" fill="white"/>
</clipPath>
<clipPath id="clip3_1_60">
<rect x="1235.5" y="18" width="24" height="24" rx="12" fill="white"/>
</clipPath>
</defs>
</svg>
