<svg width="646" height="212" viewBox="0 0 646 212" fill="none" xmlns="http://www.w3.org/2000/svg">
<path d="M0 82.1993C24.2629 82.1993 15.6698 136 49.0313 136C82.3928 136 81.8873 45.8339 105.645 45.8339C129.402 45.8339 140.523 82.1993 168.324 82.1993C196.125 82.1993 193.092 1 217.355 1C241.618 1 248.695 103.62 274.98 103.62C301.264 103.62 310.363 18.9336 333.615 18.9336C356.867 18.9336 356.362 109.1 378.097 109.1C399.833 109.1 400.338 40.3542 424.095 40.3542C447.853 40.3542 468.577 82.1993 489.302 82.1993C510.027 82.1993 506.994 5.48339 531.762 5.48339C556.531 5.48339 569.673 103.62 591.408 103.62C613.144 103.62 608.089 45.8339 646 45.8339" stroke="#14C67A" stroke-width="2"/>
<path d="M0 123.5C24.2629 123.5 15.6698 103.5 49.0313 103.5C82.3928 103.5 81.8873 150.5 105.645 150.5C129.402 150.5 140.523 123.5 168.324 123.5C196.125 123.5 193.092 95.5 217.355 95.5C241.618 95.5 248.695 145 274.98 145C301.264 145 310.363 175 333.615 175C356.867 175 356.362 150.5 378.097 150.5C399.833 150.5 400.338 118 424.095 118C447.853 118 468.577 123.5 489.302 123.5C510.027 123.5 506.994 95.5 531.762 95.5C556.531 95.5 569.673 150.5 591.408 150.5C613.144 150.5 608.089 87 646 87" stroke="#FF5454" stroke-width="2"/>
<path d="M49.0313 136.18C15.6698 136.18 24.2629 82.3073 0 82.3073V212H646V45.8936C608.089 45.8936 613.144 103.757 591.408 103.757C569.673 103.757 556.531 5.48936 531.762 5.48936C506.994 5.48936 510.027 82.3073 489.302 82.3073C468.577 82.3073 447.853 40.4066 424.095 40.4066C400.338 40.4066 399.833 109.243 378.097 109.243C356.361 109.243 356.867 18.9574 333.615 18.9574C310.363 18.9574 301.264 103.757 274.98 103.757C248.695 103.757 241.618 1 217.355 1C193.092 1 196.125 82.3073 168.324 82.3073C140.523 82.3073 129.402 45.8936 105.645 45.8936C81.8873 45.8936 82.3928 136.18 49.0313 136.18Z" fill="url(#paint0_linear_663_188)"/>
<path d="M49.0313 104.5C15.6698 104.5 24.2629 124.5 0 124.5V192H646V88C608.089 88 613.144 151.5 591.408 151.5C569.673 151.5 556.531 96.5 531.762 96.5C506.994 96.5 510.027 124.5 489.302 124.5C468.577 124.5 447.853 119 424.095 119C400.338 119 399.833 151.5 378.097 151.5C356.361 151.5 356.867 176 333.615 176C310.363 176 301.264 146 274.98 146C248.695 146 241.618 96.5 217.355 96.5C193.092 96.5 196.125 124.5 168.324 124.5C140.523 124.5 129.402 151.5 105.645 151.5C81.8873 151.5 82.3928 104.5 49.0313 104.5Z" fill="url(#paint1_linear_663_188)"/>
<defs>
<linearGradient id="paint0_linear_663_188" x1="323" y1="1" x2="323" y2="212" gradientUnits="userSpaceOnUse">
<stop stop-color="#14C67A" stop-opacity="0.2"/>
<stop offset="0.711458" stop-color="#14C67A" stop-opacity="0"/>
</linearGradient>
<linearGradient id="paint1_linear_663_188" x1="323" y1="88" x2="323" y2="192" gradientUnits="userSpaceOnUse">
<stop stop-color="#FF5454" stop-opacity="0.2"/>
<stop offset="1" stop-color="#FF5454" stop-opacity="0"/>
</linearGradient>
</defs>
</svg>
