<svg width="210" height="78" viewBox="0 0 210 78" fill="none" xmlns="http://www.w3.org/2000/svg">
<path d="M68.8721 14.9355V55.0387L73.9259 55.0781V35.972H86.1168V30.9295H73.9259V19.978H89.7817V14.9355H68.8721ZM98.8863 23.0901C100.699 23.0901 102.204 21.5931 102.204 19.7022C102.204 17.8113 100.738 16.3143 98.8863 16.3143C97.0731 16.3143 95.5685 17.8113 95.5685 19.7022C95.5685 21.5931 97.0345 23.0901 98.8863 23.0901ZM96.3015 28.1326V55.0781H101.355V28.1326H96.3015ZM120.105 27.3447C113.392 27.3447 108.724 33.1356 108.724 40.0296C108.724 46.9235 113.392 52.7144 120.105 52.7144C123.191 52.7144 125.698 51.5326 127.55 49.5235V53.1084C127.589 57.5599 124.117 61.263 119.719 61.3023C119.68 61.3023 119.68 61.3023 119.642 61.3023C118.021 61.3023 116.44 60.672 115.167 59.766L112.62 64.2569C118.639 68.2357 126.663 66.463 130.521 60.3175C131.871 58.1508 132.604 55.669 132.604 53.1084V28.172H127.55V30.575C125.698 28.5659 123.191 27.3447 120.105 27.3447ZM113.778 40.0296C113.778 35.7356 116.98 32.3871 120.683 32.3871C124.387 32.3871 127.55 35.775 127.55 40.0296C127.55 44.3235 124.348 47.6326 120.683 47.6326C116.98 47.6326 113.778 44.2841 113.778 40.0296ZM150.813 32.3871C147.804 32.4265 145.374 34.9477 145.412 38.0205V55.0387H140.358V28.0932H145.412V30.575C146.955 28.4871 149.347 27.3053 151.932 27.3447C155.481 27.3447 158.22 29.1174 159.763 31.875C161.538 29.078 164.547 27.3841 167.788 27.3447C173.536 27.3447 177.124 32.072 177.124 37.9417V55.0387H172.109V38.0205C172.109 34.9477 169.717 32.4265 166.708 32.3871C163.699 32.4265 161.268 34.9477 161.307 38.0205V55.0387H156.214V38.0205C156.214 34.9477 153.822 32.4265 150.813 32.3871ZM204.052 31.1659C201.737 28.6841 198.496 27.3053 195.14 27.3447C187.617 27.3447 182.293 33.8447 182.293 41.5659C182.293 49.3266 187.617 55.7872 195.14 55.7872C198.496 55.7872 201.699 54.4084 204.052 51.966V55.0387H209.106V28.0932H204.052V31.1659ZM187.347 41.5659C187.347 36.4447 191.205 32.3477 195.719 32.3477C200.194 32.3871 204.052 36.4447 204.052 41.5659C204.052 46.6872 200.194 50.7447 195.68 50.7447C191.244 50.7841 187.347 46.7265 187.347 41.5659Z" fill="white"/>
<path d="M26.553 39.4147C26.553 32.7739 32.13 27.3828 38.9997 27.3828C45.8695 27.3828 51.4465 32.7739 51.4465 39.4147C51.4465 46.0554 45.8695 51.4466 38.9997 51.4466C32.13 51.4466 26.553 46.0554 26.553 39.4147Z" fill="#1ABCFE"/>
<path d="M0 64.7228C0 57.3951 6.13474 51.4463 13.6914 51.4463H27.3829V64.7228C27.3829 72.0505 21.2481 77.9994 13.6914 77.9994C6.13474 77.9994 0 72.0505 0 64.7228Z" fill="#0ACF83"/>
<path d="M26.553 0.0406299V27.3829H38.9997C45.8695 27.3829 51.4465 21.2481 51.4465 13.6914C51.4465 6.13475 45.8695 0 38.9997 0H26.553V0.0406299Z" fill="#FF7262"/>
<path d="M0 13.6712C0 21.2391 6.13474 27.3829 13.6914 27.3829H27.3829V0.000200931H13.6914C6.13474 -0.0404866 0 6.10332 0 13.6712Z" fill="#F24E1E"/>
<path d="M0 39.3969C0 46.0474 6.13474 51.4466 13.6914 51.4466H27.3829V27.383H13.6914C6.13474 27.3472 0 32.7463 0 39.3969Z" fill="#A259FF"/>
</svg>
