<svg width="140" height="59" viewBox="0 0 140 59" fill="none" xmlns="http://www.w3.org/2000/svg">
<path d="M83.4809 19.8034C80.4267 19.8034 78.1523 21.3031 78.1523 24.9126C78.1523 27.632 79.6513 29.5198 83.3166 29.5198C86.4231 29.5198 88.5329 27.6894 88.5329 24.8002C88.5329 21.5261 86.6448 19.8034 83.4809 19.8034ZM77.3726 45.288C76.6499 46.175 75.9297 47.1174 75.9297 48.2297C75.9297 50.4486 78.7593 51.1164 82.6463 51.1164C85.8663 51.1164 90.2524 50.8909 90.2524 47.8971C90.2524 46.1177 88.1423 46.0076 85.4759 45.8404L77.3726 45.288ZM93.8049 19.9713C94.8025 21.2485 95.8588 23.0254 95.8588 25.579C95.8588 31.7409 91.0288 35.3493 84.0356 35.3493C82.2572 35.3493 80.6472 35.1278 79.6489 34.8507L77.8163 37.7925L83.2562 38.1248C92.8611 38.7368 98.5219 39.0149 98.5219 46.3958C98.5219 52.7818 92.9162 56.3881 83.2562 56.3881C73.2083 56.3881 69.3779 53.8341 69.3779 49.449C69.3779 46.9498 70.4885 45.6204 72.4315 43.7856C70.5989 43.011 69.9891 41.6239 69.9891 40.1243C69.9891 38.9021 70.5989 37.7921 71.5997 36.7366C72.5986 35.6828 73.7085 34.6266 75.0411 33.4056C72.3212 32.0735 70.2666 29.1866 70.2666 25.078C70.2666 18.6946 74.4862 14.3105 82.9783 14.3105C85.3659 14.3105 86.81 14.5303 88.0869 14.8655H98.913V19.583L93.8049 19.9713Z" fill="white"/>
<path d="M108.685 9.88296C105.519 9.88296 103.688 8.04933 103.688 4.88382C103.688 1.72228 105.519 0 108.685 0C111.905 0 113.737 1.72228 113.737 4.88382C113.737 8.04928 111.905 9.88296 108.685 9.88296ZM101.522 43.2446V38.8611L104.354 38.4737C105.132 38.361 105.242 38.1958 105.242 37.3611V21.0401C105.242 20.4307 105.076 20.0404 104.519 19.8752L101.522 18.8194L102.132 14.3244H113.625V37.3615C113.625 38.2514 113.678 38.3615 114.513 38.4741L117.345 38.8616V43.245H101.521" fill="white"/>
<path d="M139.297 41.0922C136.909 42.2566 133.412 43.3116 130.247 43.3116C123.641 43.3116 121.143 40.6494 121.143 34.3736V19.8299C121.143 19.4975 121.143 19.2745 120.697 19.2745H116.812V14.334C121.699 13.7773 123.64 11.3342 124.251 5.2832H129.526V13.1689C129.526 13.5561 129.526 13.7238 129.97 13.7238H137.797V19.2744H129.526V32.5418C129.526 35.8177 130.304 37.0934 133.3 37.0934C134.857 37.0934 136.465 36.706 137.797 36.2059L139.297 41.0922Z" fill="white"/>
<path d="M57.0417 26.5243L31.6567 1.14234C30.1961 -0.319581 27.8252 -0.319581 26.3628 1.14234L21.0918 6.41378L27.7778 13.0998C29.3322 12.575 31.1137 12.9269 32.3521 14.1655C33.597 15.4119 33.9463 17.2087 33.4084 18.7682L39.8525 25.2123C41.4115 24.6751 43.2103 25.0222 44.4552 26.2693C46.1956 28.0092 46.1956 30.8286 44.4552 32.569C42.7145 34.3099 39.8951 34.3099 38.1534 32.569C36.8448 31.2593 36.5211 29.3364 37.1839 27.724L31.1741 21.7142L31.1736 37.529C31.5979 37.7391 31.9983 38.0194 32.3519 38.3715C34.0918 40.1112 34.0918 42.9301 32.3519 44.6727C30.6115 46.4124 27.7908 46.4124 26.0522 44.6727C24.312 42.9302 24.312 40.1114 26.0522 38.3715C26.4822 37.9422 26.9799 37.6172 27.5108 37.3994V21.4376C26.9796 21.2208 26.4826 20.8983 26.0519 20.4655C24.7338 19.1484 24.4163 17.2139 25.0923 15.5952L18.5012 9.00311L1.09678 26.407C-0.365595 27.8701 -0.365595 30.241 1.09678 31.703L26.4803 57.085C27.9417 58.5469 30.3118 58.5469 31.7753 57.085L57.0414 31.8229C58.5034 30.3603 58.5034 27.9887 57.0414 26.5264" fill="#FF6D03"/>
</svg>
