<svg width="210" height="53" viewBox="0 0 210 53" fill="none" xmlns="http://www.w3.org/2000/svg">
<path d="M128.744 40.1037H128.674C128.709 40.1037 128.709 40.1387 128.744 40.1387H128.779L128.744 40.1037ZM128.744 40.1387C128.464 40.1387 127.729 40.2787 126.959 40.2787C124.544 40.2787 123.704 39.1589 123.704 37.6891V27.9608H128.639C128.919 27.9608 129.128 27.7158 129.128 27.3659V22.0817C129.128 21.8018 128.884 21.5568 128.639 21.5568H123.704V14.9779C123.704 14.733 123.529 14.593 123.249 14.593H116.531C116.251 14.593 116.111 14.768 116.111 14.9779V21.7318C116.111 21.7318 112.716 22.5717 112.506 22.6067C112.261 22.6766 112.121 22.8866 112.121 23.1316V27.3659C112.121 27.7158 112.366 27.9608 112.646 27.9608H116.076V38.1791C116.076 45.7728 121.36 46.5427 124.964 46.5427C126.609 46.5427 128.604 46.0177 128.919 45.8428C129.093 45.7728 129.198 45.5628 129.198 45.3529V40.6986C129.198 40.4187 129.023 40.2087 128.744 40.1387ZM202.441 33.3149C202.441 27.6808 200.167 26.9459 197.787 27.1909C195.932 27.2959 194.428 28.2407 194.428 28.2407V39.1939C194.428 39.1939 195.932 40.2437 198.207 40.3137C201.391 40.3837 202.441 39.2289 202.441 33.3149ZM210 32.825C210 43.4982 206.536 46.5427 200.517 46.5427C195.407 46.5427 192.678 43.9531 192.678 43.9531C192.678 43.9531 192.573 45.3879 192.398 45.5628C192.293 45.7378 192.153 45.8078 191.943 45.8078H187.359C187.044 45.8078 186.764 45.5628 186.764 45.2829L186.834 10.7436C186.834 10.4637 187.079 10.2187 187.359 10.2187H193.973C194.253 10.2187 194.498 10.4637 194.498 10.7436V22.4667C194.498 22.4667 197.052 20.8219 200.797 20.8219L200.762 20.752C204.471 20.752 210 22.1517 210 32.825ZM182.88 21.5918H176.336C175.986 21.5918 175.811 21.8368 175.811 22.1867V39.0889C175.811 39.0889 174.096 40.2787 171.751 40.2787C169.442 40.2787 168.742 39.2289 168.742 36.8843V22.1167C168.742 21.8368 168.497 21.5918 168.217 21.5918H161.568C161.288 21.5918 161.043 21.8368 161.043 22.1167V38.0391C161.043 44.8629 164.858 46.5777 170.107 46.5777C174.446 46.5777 177.945 44.1981 177.945 44.1981C177.945 44.1981 178.12 45.4229 178.19 45.5978C178.26 45.7378 178.47 45.8778 178.68 45.8778H182.845C183.194 45.8778 183.369 45.6328 183.369 45.3529L183.439 22.1167C183.474 21.8368 183.194 21.5918 182.88 21.5918ZM109.182 21.5568H102.568C102.288 21.5568 102.043 21.8368 102.043 22.1867V45.0029C102.043 45.6328 102.463 45.8428 102.988 45.8428H108.972C109.602 45.8428 109.742 45.5628 109.742 45.0029V22.0817C109.707 21.8018 109.462 21.5568 109.182 21.5568ZM105.892 11.0236C103.513 11.0236 101.588 12.9133 101.588 15.3279C101.588 17.7075 103.478 19.6321 105.892 19.6321C108.237 19.6321 110.127 17.7425 110.127 15.3279C110.127 12.9483 108.237 11.0236 105.892 11.0236ZM157.194 10.2537H150.615C150.335 10.2537 150.09 10.4987 150.09 10.7786V23.4815H139.802V10.7786C139.802 10.4987 139.557 10.2537 139.277 10.2537H132.663C132.383 10.2537 132.138 10.4987 132.138 10.7786V45.3179C132.138 45.5978 132.418 45.8428 132.663 45.8428H139.277C139.557 45.8428 139.802 45.5978 139.802 45.3179V30.5503H150.09L150.02 45.3179C150.02 45.5978 150.265 45.8428 150.545 45.8428H157.159C157.439 45.8428 157.684 45.5978 157.684 45.3179V10.7786C157.719 10.4987 157.474 10.2537 157.194 10.2537ZM98.5086 25.5462V43.3932C98.5086 43.4982 98.4736 43.7431 98.3336 43.7781C98.3336 43.7781 94.4493 46.5427 88.0453 46.5427C80.3116 46.5427 71.1082 44.1281 71.1082 28.1357C71.1082 12.1434 79.1218 8.85395 86.9605 8.88895C93.7494 8.88895 96.4789 10.4287 96.8989 10.7086C97.0038 10.8836 97.0738 10.9886 97.0738 11.1286L95.814 16.6926C95.814 16.9726 95.5341 17.3225 95.1841 17.2176C94.0643 16.8676 92.3846 16.2027 88.4303 16.2027C83.846 16.2027 78.9469 17.4975 78.9469 27.8208C78.9469 38.1091 83.6011 39.3339 86.9605 39.3339C89.83 39.3339 90.8449 38.9839 90.8449 38.9839V31.8451H86.2606C85.9107 31.8451 85.6657 31.6002 85.6657 31.3202V25.5812C85.6657 25.3012 85.9107 25.0562 86.2606 25.0562H97.9137C98.2636 25.0212 98.5086 25.2662 98.5086 25.5462Z" fill="white"/>
<path fill-rule="evenodd" clip-rule="evenodd" d="M26.6656 0.0351562C11.933 0.0351562 0 11.9682 0 26.7007C0 38.4938 7.62873 48.4671 18.232 52.0015C19.5617 52.2115 20.0867 51.4416 20.0867 50.7417C20.0867 50.1118 20.0517 48.0122 20.0517 45.7725C13.3678 46.9973 11.6181 44.1278 11.0932 42.6581C10.7782 41.8882 9.48342 39.5086 8.36361 38.8787C7.41876 38.3888 6.08898 37.129 8.32861 37.094C10.4283 37.059 11.933 39.0187 12.4229 39.8235C14.8375 43.8479 18.6519 42.728 20.1916 42.0282C20.4366 40.3134 21.1365 39.1236 21.9063 38.4588C15.9923 37.7939 9.76337 35.4843 9.76337 25.301C9.76337 22.3964 10.8132 19.9818 12.4929 18.1271C12.213 17.4623 11.3031 14.7327 12.7729 11.0583C12.7729 11.0583 15.0125 10.3584 20.1216 13.7879C22.2563 13.193 24.5309 12.878 26.7705 12.878C29.0452 12.878 31.2848 13.193 33.4194 13.7879C38.5286 10.3234 40.7332 11.0583 40.7332 11.0583C42.203 14.7327 41.2581 17.4623 41.0132 18.1271C42.7279 19.9818 43.7427 22.3614 43.7427 25.301C43.7427 35.5192 37.5137 37.7939 31.5647 38.4588C32.5446 39.2986 33.3844 40.8734 33.3844 43.3929C33.3844 46.9623 33.3494 49.8319 33.3494 50.7067C33.3494 51.4066 33.8394 52.2465 35.1691 51.9665C46.0173 48.2921 53.3311 38.1088 53.3311 26.6657C53.3311 11.9682 41.3981 0.0351562 26.6656 0.0351562Z" fill="white"/>
</svg>
