<svg width="210" height="90" viewBox="0 0 210 90" fill="none" xmlns="http://www.w3.org/2000/svg">
<path d="M209.023 0L201.851 80.3547L169.608 89.2934L137.454 80.3673L130.289 0H209.023Z" fill="#264DE4"/>
<path d="M195.71 75.2381L201.839 6.57129H169.656V82.4612L195.71 75.2381Z" fill="#2965F1"/>
<path d="M146.715 36.3779L147.599 46.2345H169.656V36.3779H146.715Z" fill="#EBEBEB"/>
<path d="M169.656 16.4287H169.622H144.94L145.836 26.2855H169.656V16.4287Z" fill="#EBEBEB"/>
<path d="M169.656 72.233V61.9779L169.613 61.9894L158.635 59.0253L157.934 51.1641H152.599H148.039L149.42 66.6405L169.611 72.2456L169.656 72.233Z" fill="#EBEBEB"/>
<path d="M181.76 46.2356L180.615 59.019L169.622 61.9862V72.2409L189.829 66.6406L189.977 64.9753L192.293 39.0258L192.534 36.379L194.313 16.4287H169.622V26.2855H183.511L182.614 36.379H169.622V46.2356H181.76Z" fill="white"/>
<path d="M7.16162 80.3838L0 0H78.7344L71.5728 80.3403L39.3021 89.2815" fill="#E44D26"/>
<path d="M39.3672 82.4447V6.59668H71.5511L65.4094 75.1746" fill="#F16529"/>
<path d="M14.6272 16.4287H39.3673V26.2814H25.4347L26.3462 36.3727H39.3673V46.2037H17.3182M17.7523 51.1517H27.6483L28.3428 59.0295L39.3673 61.981V72.2676L19.1412 66.6252" fill="#EBEBEB"/>
<path d="M64.0205 16.4287H39.3237V26.2814H63.109M62.2192 36.3727H39.3237V46.2254H51.4768L50.3266 59.0295L39.3237 61.981V72.2242L59.5065 66.6252" fill="white"/>
<path d="M108.727 55.3685V49.2941H114.688V43.4475H108.727V37.373H102.653V43.4475H96.6924V49.2941H102.653V55.3685H108.727Z" fill="white"/>
</svg>
