<svg width="94" height="94" viewBox="0 0 94 94" fill="none" xmlns="http://www.w3.org/2000/svg">
<path d="M94 0H0V94H94V0Z" fill="#F7DF1E"/>
<path d="M63.4254 73.4919C65.3204 76.6548 67.7858 78.9797 72.1462 78.9797C75.8093 78.9797 78.1493 77.1082 78.1493 74.5223C78.1493 71.4235 75.7451 70.3259 71.7132 68.5231L69.5031 67.5538C63.1237 64.7755 58.8858 61.2951 58.8858 53.9373C58.8858 47.1596 63.9376 42 71.8326 42C77.4534 42 81.4942 43.9997 84.4062 49.2357L77.5221 53.7541C76.0064 50.9759 74.3712 49.8814 71.8326 49.8814C69.2433 49.8814 67.6021 51.5605 67.6021 53.7541C67.6021 56.4652 69.2448 57.5628 73.0377 59.2419L75.2478 60.2097C82.759 63.5024 87 66.8592 87 74.4063C87 82.5426 80.7476 87 72.3508 87C64.1407 87 58.8365 83.0005 56.2412 77.7585L63.4254 73.4919ZM32.1962 74.275C33.5849 76.7938 34.8483 78.9232 37.8856 78.9232C40.7901 78.9232 42.6223 77.7616 42.6223 73.2446V42.516H51.4626V73.3667C51.4626 82.7242 46.0957 86.9832 38.2619 86.9832C31.1837 86.9832 27.0846 83.2387 25 78.7286L32.1962 74.275Z" fill="#010101"/>
</svg>
