<svg width="80" height="23" viewBox="0 0 80 23" fill="none" xmlns="http://www.w3.org/2000/svg">
<path d="M1 1L1.86667 2.14257C2.73333 3.28513 4.46667 5.57027 6.2 7.4031C7.93333 9.23593 9.66667 10.6165 11.4 10.4769C13.1333 10.3372 14.8667 8.67749 16.6 7.59413C18.3333 6.51076 20.0667 6.00379 21.8 6.04161C23.5333 6.07943 25.2667 6.66204 27 6.8532C28.7333 7.04437 30.4667 6.84409 32.2 9.09904C33.9333 11.354 35.6667 16.0642 37.4 17.002C39.1333 17.9398 40.8667 15.1052 42.6 15.1578C44.3333 15.2105 46.0667 18.1503 47.8 17.36C49.5333 16.5697 51.2667 12.0492 53 11.8589C54.7333 11.6686 56.4667 15.8086 58.2 15.9637C59.9333 16.1189 61.6667 12.2892 63.4 10.5627C65.1333 8.83622 66.8667 9.21292 68.6 10.8651C70.3333 12.5173 72.0667 15.445 73.8 17.5134C75.5333 19.5818 77.2667 20.7909 78.1333 21.3954L79 22" stroke="#FF5454" stroke-width="2"/>
</svg>
