<svg width="80" height="24" viewBox="0 0 80 24" fill="none" xmlns="http://www.w3.org/2000/svg">
<path d="M79 23L78.1333 22.7815C77.2667 22.5631 75.5333 22.1262 73.8 19.5548C72.0667 16.9834 70.3333 12.2776 68.6 11.6597C66.8667 11.0418 65.1333 14.5118 63.4 14.4797C61.6667 14.4476 59.9333 10.9135 58.2 9.72899C56.4667 8.54452 54.7333 9.70974 53 12.5149C51.2667 15.32 49.5333 19.7651 47.8 20.5713C46.0667 21.3775 44.3333 18.5449 42.6 16.9068C40.8667 15.2686 39.1333 14.825 37.4 12.3909C35.6667 9.95678 33.9333 5.53224 32.2 6.65003C30.4667 7.76782 28.7333 14.4279 27 14.1385C25.2667 13.8491 23.5333 6.61012 21.8 5.36933C20.0667 4.12853 18.3333 8.8859 16.6 9.70719C14.8667 10.5285 13.1333 7.4137 11.4 8.16033C9.66667 8.90697 7.93333 13.515 6.2 12.9652C4.46666 12.4154 2.73334 6.70768 1.86667 3.85384L1 1" stroke="#FF5454" stroke-width="2"/>
</svg>
