<svg width="80" height="23" viewBox="0 0 80 23" fill="none" xmlns="http://www.w3.org/2000/svg">
<path d="M1 10.3226L1.86667 10.2376C2.73333 10.1527 4.46667 9.98275 6.2 9.65128C7.93333 9.31982 9.66667 8.82682 11.4 7.2173C13.1333 5.60777 14.8667 2.88171 16.6 1.70344C18.3333 0.525164 20.0667 0.894675 21.8 2.30869C23.5333 3.72271 25.2667 6.18123 27 5.98995C28.7333 5.79868 30.4667 2.95762 32.2 2.39322C33.9333 1.82881 35.6667 3.54107 37.4 5.22319C39.1333 6.9053 40.8667 8.55725 42.6 8.29874C44.3333 8.04023 46.0667 5.87126 47.8 7.85667C49.5333 9.84208 51.2667 15.9819 53 16.3509C54.7333 16.72 56.4667 11.3183 58.2 8.52909C59.9333 5.73984 61.6667 5.56302 63.4 7.29082C65.1333 9.01862 66.8667 12.651 68.6 15.084C70.3333 17.517 72.0667 18.7505 73.8 19.7032C75.5333 20.656 77.2667 21.328 78.1333 21.664L79 22" stroke="#FF5454" stroke-width="2"/>
</svg>
