<svg width="96" height="49" viewBox="0 0 96 49" fill="none" xmlns="http://www.w3.org/2000/svg">
<path d="M93.957 37.5062L95 38.3618V48.1489H1.12836V1.00586L2.17139 1.86999C3.2144 2.73413 5.30043 4.4624 7.38647 4.31709C9.4725 4.17177 11.5585 2.15288 13.6446 3.29421C15.7306 4.43553 17.8167 8.73709 19.9027 12.9024C21.9887 17.0678 24.0748 21.097 26.1608 24.1172C28.2468 27.1374 30.3329 29.1487 32.4189 25.2715C34.5049 21.3942 36.591 11.6285 38.677 10.6473C40.7631 9.66598 42.8491 17.4691 44.9351 18.6861C47.0212 19.9031 49.1072 14.5339 51.1932 16.3609C53.2793 18.1878 55.3653 27.2108 57.4513 27.718C59.5374 28.2251 61.6234 20.2164 63.7095 14.9673C65.7955 9.71824 67.8815 7.22887 69.9676 11.5035C72.0536 15.7782 74.1396 26.8169 76.2257 27.9245C78.3117 29.0321 80.3977 20.2086 82.4838 19.4374C84.5698 18.6662 86.6559 25.9474 88.7419 30.4435C90.8279 34.9396 92.914 36.6507 93.957 37.5062Z" fill="url(#paint0_linear_409_171)" fill-opacity="0.8"/>
<path d="M95 39.0453L93.957 38.1561C92.914 37.267 90.8279 35.4886 88.7419 30.8159C86.6559 26.1431 84.5698 18.5759 82.4838 19.3774C80.3977 20.1789 78.3117 29.3491 76.2257 28.198C74.1396 27.0468 72.2466 16.3945 70.1605 11.9519C68.0745 7.50926 65.7955 9.27633 63.7095 14.7316C61.6234 20.1869 59.5374 28.5103 57.4513 27.9833C55.3653 27.4562 53.2793 18.0786 51.1932 16.1799C49.1072 14.2812 47.0212 19.8614 44.9351 18.5966C42.8491 17.3318 40.8484 9.75717 38.7624 10.777C36.6763 11.7968 34.505 21.4111 32.4189 25.4406C30.3329 29.4702 28.2468 27.3799 26.1608 24.241C24.0748 21.1021 21.9887 16.9147 19.9027 12.5856C17.8167 8.25663 15.7306 4.76213 13.6446 3.57596C11.5585 2.38978 9.47251 4.48801 7.38648 4.63903C5.30044 4.79005 3.21441 2.99388 2.17139 2.09579L1 1" stroke="#FF5454"/>
<defs>
<linearGradient id="paint0_linear_409_171" x1="48.0642" y1="-34.5" x2="48.0642" y2="48" gradientUnits="userSpaceOnUse">
<stop stop-color="#FF5454"/>
<stop offset="0.0001" stop-color="#FF5454"/>
<stop offset="0.860795" stop-color="#FF5454" stop-opacity="0"/>
</linearGradient>
</defs>
</svg>
