<svg width="96" height="49" viewBox="0 0 96 49" fill="none" xmlns="http://www.w3.org/2000/svg">
<path d="M95 37L91.5185 35C89.0759 35.7329 89.1211 30.0685 87.0432 26.217C84.9654 22.3655 85.5843 21.2111 82.567 19C80.4891 19.6606 77.6818 27.1658 75.604 26.217C73.5261 25.2682 71.6472 13.6544 69.5693 9.99257C67.4915 6.33078 65.4136 8.46324 63.3358 12.9597C61.2579 17.4562 61.28 26.217 57.2017 26.217C53.1233 26.217 52.3165 18.3539 50.2386 16.7889C48.1608 15.2239 47.3429 20.0425 45.265 19C43.1872 17.9575 40.4793 8.41847 38.4015 9.25905C36.3236 10.0996 35.6715 21.5497 33.5937 24.871C31.5158 28.1924 27.9458 26.6464 25.868 24.0592C23.7901 21.472 21.7786 14.7591 19.7007 11.1909C17.6229 7.62276 15.545 3.93794 13.4671 2.96025C11.3893 1.98256 9.31144 3.712 7.23358 3.83648C5.15572 3.96096 3.07786 2.48048 2.03893 1.74024L1 1" stroke="#F84752"/>
<path d="M93.9556 37.5058L95 38.3615L95 48.15L1 48.15L1 1L2.04446 1.86426C3.08891 2.72853 5.17778 4.45706 7.26667 4.31172C9.35556 4.16638 11.4445 2.14719 13.5333 3.28869C15.6222 4.43018 17.7111 8.73238 19.8 12.8984C21.8889 17.0643 23.9778 21.0941 26.0667 24.1147C28.1556 27.1354 30.2445 29.147 32.3333 25.2692C34.4222 21.3914 36.5111 11.6242 38.6 10.6428C40.6889 9.6614 42.7778 17.4657 44.8667 18.6829C46.9556 19.9001 49.0444 14.5301 51.1333 16.3573C53.2222 18.1845 55.3111 27.2089 57.4 27.7161C59.4889 28.2233 61.5778 20.2134 63.6667 14.9635C65.7556 9.71367 67.8444 7.22393 69.9333 11.4992C72.0222 15.7746 74.1111 26.8149 76.2 27.9227C78.2889 29.0304 80.3778 20.2056 82.4667 19.4343C84.5556 18.663 86.6444 25.9452 88.7333 30.442C90.8222 34.9388 92.9111 36.6501 93.9556 37.5058Z" fill="url(#paint0_linear_357_1027)" fill-opacity="0.3"/>
<defs>
<linearGradient id="paint0_linear_357_1027" x1="48" y1="1" x2="48" y2="48.15" gradientUnits="userSpaceOnUse">
<stop stop-color="#FF0A0A"/>
<stop offset="1" stop-color="#FF0A0A" stop-opacity="0"/>
</linearGradient>
</defs>
</svg>
