<svg width="337" height="181" viewBox="0 0 337 181" fill="none" xmlns="http://www.w3.org/2000/svg">
<path d="M0.548828 149.235L4.27432 145.84C7.99981 142.445 15.4508 135.655 22.9018 117.814C30.3527 99.9726 37.8037 71.0797 45.2547 74.1399C52.7057 77.2001 60.1567 112.214 67.6077 107.818C75.0586 103.423 82.5096 59.6195 89.9606 42.6568C97.4116 25.6941 104.863 35.5724 112.314 56.4016C119.765 77.2309 127.215 109.011 134.666 106.999C142.117 104.986 149.568 69.1811 157.019 61.9315C164.47 54.6819 171.921 75.9879 179.372 71.1586C186.823 66.3294 194.274 35.365 201.725 39.2588C209.176 43.1527 216.627 81.9049 224.078 97.2904C231.529 112.676 238.98 104.695 246.431 92.71C253.882 80.7252 261.333 64.7368 268.784 48.2079C276.235 31.679 283.686 14.6096 291.137 10.0806C298.588 5.55158 306.039 13.5629 313.49 14.1396C320.941 14.7162 328.392 7.8581 332.117 4.42905L335.843 1" stroke="#38F808"/>
<path d="M4.27432 140.365L0.548828 143.631V181H335.843V1L332.117 4.29942C328.392 7.59883 320.941 14.1977 313.49 13.6428C306.039 13.088 298.588 5.37951 291.137 9.73729C283.686 14.0951 276.235 30.5192 268.784 46.4232C261.333 62.3272 253.882 77.7112 246.431 89.2429C238.98 100.775 231.529 108.454 224.078 93.6501C216.627 78.8463 209.176 41.5591 201.725 37.8125C194.274 34.0658 186.823 63.8596 179.372 68.5063C171.921 73.1529 164.47 52.6525 157.019 59.628C149.568 66.6035 142.117 101.055 134.666 102.991C127.215 104.928 119.765 74.349 112.314 54.3072C104.863 34.2653 97.4116 24.7605 89.9606 41.0819C82.5096 57.4034 75.0586 99.5511 67.6077 103.78C60.1567 108.009 52.7057 74.3194 45.2547 71.3748C37.8037 68.4303 30.3527 96.2309 22.9018 113.398C15.4508 130.565 7.99981 137.098 4.27432 140.365Z" fill="url(#paint0_linear_1_3063)" fill-opacity="0.8"/>
<defs>
<linearGradient id="paint0_linear_1_3063" x1="168.196" y1="1" x2="168.196" y2="181" gradientUnits="userSpaceOnUse">
<stop stop-color="#00FF19"/>
<stop offset="0.0001" stop-color="#00761A"/>
<stop offset="1" stop-color="#00761A" stop-opacity="0"/>
</linearGradient>
</defs>
</svg>
