<svg width="80" height="23" viewBox="0 0 80 23" fill="none" xmlns="http://www.w3.org/2000/svg">
<path d="M1 22L1.86667 20.3773C2.73333 18.7545 4.46667 15.5091 6.2 14.184C7.93333 12.859 9.66667 13.4543 11.4 12.9808C13.1333 12.5073 14.8667 10.965 16.6 11.8405C18.3333 12.716 20.0667 16.0094 21.8 18.196C23.5333 20.3826 25.2667 21.4625 27 20.4421C28.7333 19.4216 30.4667 16.301 32.2 14.8069C33.9333 13.3128 35.6667 13.4454 37.4 14.5739C39.1333 15.7025 40.8667 17.8271 42.6 18.3795C44.3333 18.9319 46.0667 17.912 47.8 15.9729C49.5333 14.0338 51.2667 11.1755 53 11.6908C54.7333 12.206 56.4667 16.095 58.2 15.9256C59.9333 15.7562 61.6667 11.5286 63.4 9.64907C65.1333 7.76953 66.8667 8.23808 68.6 7.13497C70.3333 6.03186 72.0667 3.35709 73.8 2.09236C75.5333 0.827626 77.2667 0.972934 78.1333 1.04559L79 1.11824" stroke="#14C67A" stroke-width="2"/>
</svg>
