<svg width="80" height="23" viewBox="0 0 80 23" fill="none" xmlns="http://www.w3.org/2000/svg">
<path d="M1 6.07552L1.86667 7.39502C2.73333 8.71452 4.46667 11.3535 6.2 10.954C7.93333 10.5545 9.66667 7.11646 11.4 8.94252C13.1333 10.7686 14.8667 17.8588 16.6 20.6057C18.3333 23.3527 20.0667 21.7564 21.8 18.2918C23.5333 14.8272 25.2667 9.49431 27 6.22302C28.7333 2.95173 30.4667 1.74206 32.2 4.08685C33.9333 6.43165 35.6667 12.3309 37.4 14.7694C39.1333 17.2079 40.8667 16.1856 42.6 15.9275C44.3333 15.6693 46.0667 16.1753 47.8 16.3157C49.5333 16.4561 51.2667 16.231 53 14.5201C54.7333 12.8093 56.4667 9.6127 58.2 7.93252C59.9333 6.25235 61.6667 6.08857 63.4 5.01277C65.1333 3.93697 66.8667 1.94916 68.6 1.28709C70.3333 0.625021 72.0667 1.28869 73.8 1.48479C75.5333 1.6809 77.2667 1.40944 78.1333 1.27371L79 1.13798" stroke="#38F808" stroke-width="2"/>
</svg>
