<svg width="95" height="48" viewBox="0 0 95 48" fill="none" xmlns="http://www.w3.org/2000/svg">
<path d="M1.54302 36.9584L0.5 37.8139V47.601H94.3716V0.458008L93.3286 1.32214C92.2856 2.18628 90.1996 3.91455 88.1135 3.76924C86.0275 3.62392 83.9415 1.60502 81.8554 2.74635C79.7694 3.88768 77.6833 8.18924 75.5973 12.3546C73.5113 16.52 71.4252 20.5491 69.3392 23.5693C67.2532 26.5895 65.1671 28.6008 63.0811 24.7236C60.9951 20.8464 58.909 11.0807 56.823 10.0994C54.7369 9.11813 52.6509 16.9213 50.5649 18.1383C48.4788 19.3553 46.3928 13.9861 44.3068 15.813C42.2207 17.6399 40.1347 26.663 38.0487 27.1701C35.9626 27.6773 33.8766 19.6685 31.7905 14.4194C29.7045 9.17039 27.6185 6.68102 25.5324 10.9557C23.4464 15.2304 21.3604 26.2691 19.2743 27.3767C17.1883 28.4843 15.1023 19.6608 13.0162 18.8896C10.9302 18.1184 8.84414 25.3995 6.75811 29.8956C4.67207 34.3917 2.58604 36.1028 1.54302 36.9584Z" fill="url(#paint0_linear_357_902)" fill-opacity="0.8"/>
<path d="M0.5 38.4974L1.54302 37.6083C2.58604 36.7191 4.67207 34.9408 6.75811 30.268C8.84415 25.5953 10.9302 18.028 13.0162 18.8295C15.1023 19.631 17.1883 28.8012 19.2743 27.6501C21.3604 26.499 23.2534 15.8467 25.3395 11.404C27.4255 6.96141 29.7045 8.72848 31.7905 14.1838C33.8766 19.6391 35.9626 27.9625 38.0487 27.4354C40.1347 26.9084 42.2207 17.5308 44.3068 15.6321C46.3928 13.7334 48.4788 19.3135 50.5649 18.0487C52.6509 16.7839 54.6516 9.20931 56.7376 10.2291C58.8237 11.249 60.995 20.8632 63.0811 24.8928C65.1671 28.9223 67.2532 26.832 69.3392 23.6932C71.4252 20.5543 73.5113 16.3668 75.5973 12.0378C77.6833 7.70878 79.7694 4.21428 81.8554 3.0281C83.9415 1.84193 86.0275 3.94015 88.1135 4.09118C90.1996 4.2422 92.2856 2.44602 93.3286 1.54794L94.5 0.452148" stroke="#14C67A"/>
<defs>
<linearGradient id="paint0_linear_357_902" x1="47.4358" y1="0.458008" x2="47.4358" y2="47.601" gradientUnits="userSpaceOnUse">
<stop stop-color="#14C67A"/>
<stop offset="0.0001" stop-color="#14C67A" stop-opacity="0.27"/>
<stop offset="0.860795" stop-color="#14C67A" stop-opacity="0"/>
</linearGradient>
</defs>
</svg>
