<svg width="347" height="187" viewBox="0 0 347 187" fill="none" xmlns="http://www.w3.org/2000/svg">
<path d="M4.83146 144.329L1 147.688V186.12H345.831V1L342 4.39327C338.168 7.78653 330.505 14.5731 322.843 14.0024C315.18 13.4318 307.517 5.50408 299.854 9.98582C292.191 14.4676 284.528 31.3588 276.865 47.7152C269.202 64.0716 261.539 79.8932 253.876 91.7529C246.213 103.613 238.55 111.51 230.888 96.2855C223.225 81.0606 215.562 42.7128 207.899 38.8596C200.236 35.0063 192.573 65.6476 184.91 70.4264C177.247 75.2053 169.584 54.1217 161.921 61.2956C154.258 68.4695 146.595 103.901 138.933 105.892C131.27 107.884 123.607 76.4353 115.944 55.8234C108.281 35.2116 100.618 25.4364 92.955 42.222C85.2921 59.0077 77.6292 102.354 69.9663 106.704C62.3033 111.053 54.6404 76.4049 46.9775 73.3766C39.3146 70.3483 31.6517 98.9397 23.9888 116.595C16.3258 134.25 8.66292 140.969 4.83146 144.329Z" fill="url(#paint0_linear_494_161)" fill-opacity="0.8"/>
<path d="M1 150.17L4.83146 146.678C8.66292 143.187 16.3258 136.204 23.9888 117.855C31.6517 99.5057 39.3146 69.791 46.9775 72.9383C54.6404 76.0856 62.3033 112.095 69.9663 107.575C77.6292 103.055 84.5832 61.2252 92.2461 43.78C99.909 26.3348 108.281 33.2737 115.944 54.6954C123.607 76.1172 131.27 108.801 138.933 106.732C146.595 104.662 154.258 67.8384 161.921 60.3826C169.584 52.9268 177.247 74.8388 184.91 69.8722C192.573 64.9056 199.922 35.1618 207.585 39.1665C215.248 43.1711 223.225 80.9241 230.888 96.7473C238.55 112.57 246.213 104.362 253.876 92.0366C261.539 79.7109 269.202 63.2677 276.865 46.2686C284.528 29.2696 292.191 15.5474 299.854 10.8896C307.517 6.23178 315.18 14.471 322.843 15.0641C330.505 15.6571 338.168 8.60391 342 5.07733L346.303 0.774414" stroke="#14C67A"/>
<defs>
<linearGradient id="paint0_linear_494_161" x1="173.416" y1="-80.7949" x2="173.416" y2="213.205" gradientUnits="userSpaceOnUse">
<stop stop-color="#14C67A"/>
<stop offset="0.0001" stop-color="#14C67A" stop-opacity="0.27"/>
<stop offset="0.817708" stop-color="#14C67A" stop-opacity="0"/>
</linearGradient>
</defs>
</svg>
