<svg width="80" height="23" viewBox="0 0 80 23" fill="none" xmlns="http://www.w3.org/2000/svg">
<path d="M1 22L1.86667 21.7915C2.73333 21.5829 4.46667 21.1659 6.2 18.7114C7.93333 16.2569 9.66667 11.765 11.4 11.1752C13.1333 10.5853 14.8667 13.8976 16.6 13.867C18.3333 13.8364 20.0667 10.4628 21.8 9.33221C23.5333 8.20159 25.2667 9.31384 27 11.9915C28.7333 14.6691 30.4667 18.9122 32.2 19.6817C33.9333 20.4513 35.6667 17.7474 37.4 16.1837C39.1333 14.62 40.8667 14.1966 42.6 11.8731C44.3333 9.54965 46.0667 5.32623 47.8 6.39321C49.5333 7.46019 51.2667 13.8176 53 13.5413C54.7333 13.265 56.4667 6.35512 58.2 5.17072C59.9333 3.98632 61.6667 8.52745 63.4 9.31141C65.1333 10.0954 66.8667 7.12217 68.6 7.83486C70.3333 8.54756 72.0667 12.9461 73.8 12.4213C75.5333 11.8965 77.2667 6.44824 78.1333 3.72412L79 1" stroke="#14C67A" stroke-width="2"/>
</svg>
