<svg width="129" height="97" viewBox="0 0 129 97" fill="none" xmlns="http://www.w3.org/2000/svg">
<path d="M111.079 55.7615C106.579 55.7851 102.667 56.8719 99.3922 58.4784C98.1905 56.0923 96.9888 53.966 96.7768 52.4067C96.5411 50.5876 96.2584 49.4772 96.5411 47.3037C96.8239 45.1302 98.0962 42.0353 98.0727 41.7991C98.0491 41.5628 97.7899 40.4524 95.1981 40.4288C92.6062 40.4052 90.3678 40.9249 90.1086 41.6101C89.8494 42.2952 89.3546 43.8545 89.0247 45.461C88.577 47.8235 83.841 56.2576 81.1313 60.6755C80.2595 58.9509 79.5056 57.4389 79.3406 56.234C79.105 54.4149 78.8222 53.3045 79.105 51.131C79.3877 48.9575 80.6601 45.8626 80.6365 45.6263C80.613 45.3901 80.3538 44.2797 77.7619 44.2561C75.1701 44.2325 72.9316 44.7522 72.6725 45.4373C72.4133 46.1225 72.1305 47.729 71.5886 49.2882C71.0467 50.8475 64.7555 64.9281 63.1061 68.5663C62.2579 70.4327 61.5275 71.9211 61.0091 72.937C61.0091 72.937 60.9855 73.0078 60.9149 73.126C60.4672 74.0001 60.208 74.4726 60.208 74.4726C60.208 74.4726 60.208 74.4726 60.208 74.4962C59.8545 75.1341 59.4776 75.7247 59.2891 75.7247C59.1477 75.7247 58.8885 74.0237 59.3362 71.7085C60.2787 66.8181 62.5171 59.2108 62.4935 58.9509C62.4935 58.8092 62.9177 57.4861 61.0327 56.801C59.1948 56.1159 58.5351 57.2499 58.3701 57.2499C58.2052 57.2499 58.0874 57.6515 58.0874 57.6515C58.0874 57.6515 60.1373 49.0992 54.176 49.0992C50.4532 49.0992 45.3166 53.1864 42.7718 56.8719C41.1696 57.746 37.7531 59.6124 34.1009 61.6205C32.7107 62.4002 31.2734 63.1798 29.9304 63.9122C29.8361 63.8177 29.7419 63.6996 29.6476 63.605C22.4375 55.8796 9.10124 50.4222 9.66674 40.0508C9.8788 36.2708 11.1747 26.3482 35.279 14.2994C55.1185 4.495 70.9053 7.21189 73.6385 13.2363C77.5499 21.8358 65.1796 37.8064 44.6804 40.1217C36.8577 40.9958 32.7578 37.9718 31.7211 36.8378C30.6372 35.6565 30.4723 35.5857 30.0717 35.8219C29.412 36.1763 29.8361 37.2394 30.0717 37.8537C30.6844 39.4602 33.2055 42.2952 37.4703 43.6891C41.2403 44.9176 50.406 45.6027 61.5039 41.3029C73.9213 36.4834 83.629 23.088 80.7779 11.866C77.9269 0.478733 59.077 -3.27766 41.2403 3.0775C30.6372 6.85752 19.1388 12.811 10.8684 20.5601C1.04292 29.7739 -0.512194 37.7828 0.12399 41.1376C2.40954 53.0446 18.7854 60.7937 25.3357 66.5346C25.0058 66.7236 24.6995 66.8889 24.4403 67.0307C21.1652 68.6608 8.67712 75.205 5.56689 82.1271C2.03254 89.9707 6.13239 95.5935 8.84206 96.3495C17.2538 98.6883 25.9012 94.4831 30.543 87.5373C35.1848 80.5915 34.6193 71.5667 32.4751 67.4323C32.4515 67.3851 32.428 67.3378 32.3808 67.2906C33.2291 66.7944 34.1009 66.2747 34.9491 65.7786C36.6221 64.7863 38.2714 63.8649 39.6852 63.1089C38.8841 65.3061 38.295 67.9284 38.0122 71.7085C37.6588 76.15 39.4731 81.9145 41.8529 84.1825C42.9132 85.1748 44.162 85.1984 44.9631 85.1984C47.7435 85.1984 48.9923 82.8831 50.3825 80.1426C52.079 76.7879 53.6105 72.8897 53.6105 72.8897C53.6105 72.8897 51.702 83.4265 56.8857 83.4265C58.7707 83.4265 60.6792 80.9695 61.5275 79.7174C61.5275 79.741 61.5275 79.741 61.5275 79.741C61.5275 79.741 61.5746 79.6701 61.6689 79.5048C61.8573 79.1976 61.9752 79.0086 61.9752 79.0086C61.9752 79.0086 61.9752 78.985 61.9752 78.9614C62.7292 77.6384 64.4256 74.638 66.9468 69.6531C70.1984 63.227 73.3322 55.1945 73.3322 55.1945C73.3322 55.1945 73.615 57.1554 74.581 60.4157C75.1465 62.3293 76.3246 64.4319 77.2671 66.4637C76.5131 67.5268 76.0419 68.1174 76.0419 68.1174C76.0419 68.1174 76.0419 68.1174 76.0654 68.1411C75.4528 68.9443 74.7931 69.8185 74.0626 70.669C71.4943 73.7402 68.4312 77.2604 68.0071 78.2762C67.5123 79.4811 67.6301 80.3553 68.5726 81.064C69.2559 81.5838 70.4812 81.6546 71.73 81.5838C74.0391 81.4184 75.6649 80.8514 76.466 80.497C77.7148 80.0481 79.1757 79.363 80.5423 78.3471C83.0635 76.4807 84.595 73.8111 84.4536 70.291C84.383 68.3537 83.7468 66.4164 82.9692 64.5973C83.2048 64.2665 83.4169 63.9358 83.6525 63.605C87.6346 57.7696 90.7212 51.3672 90.7212 51.3672C90.7212 51.3672 91.004 53.3281 91.97 56.5884C92.4413 58.2421 93.4073 60.0377 94.2556 61.7859C90.5092 64.8335 88.2001 68.3773 87.3754 70.6926C85.8909 74.9924 87.0455 76.9296 89.2368 77.3785C90.2264 77.5911 91.6402 77.1186 92.6769 76.6697C93.9964 76.2445 95.5515 75.5121 97.0359 74.4253C99.5571 72.559 101.984 69.9602 101.843 66.4401C101.772 64.8336 101.348 63.2507 100.759 61.715C103.94 60.392 108.04 59.6597 113.27 60.2739C124.486 61.5969 126.701 68.6136 126.277 71.5667C125.853 74.5199 123.496 76.1264 122.719 76.6225C121.941 77.1186 121.682 77.284 121.753 77.6384C121.847 78.1581 122.224 78.1345 122.884 78.04C123.803 77.8746 128.774 75.6539 128.986 70.2201C129.34 63.2743 122.742 55.6906 111.079 55.7615ZM24.5581 85.0094C20.8353 89.0729 15.6516 90.6086 13.4132 89.3092C11.0098 87.9153 11.9523 81.9145 16.5234 77.6147C19.3037 74.9924 22.8852 72.559 25.265 71.0706C25.807 70.7398 26.6081 70.2673 27.5741 69.6767C27.7391 69.5822 27.8333 69.535 27.8333 69.535C28.0218 69.4168 28.2103 69.2987 28.3988 69.1806C30.0717 75.3231 28.4695 80.7333 24.5581 85.0094ZM51.6549 66.5346C50.3589 69.7003 47.6493 77.8037 45.9999 77.3549C44.5861 76.9769 43.7143 70.8343 45.7171 64.7627C46.7303 61.715 48.8745 58.0768 50.1233 56.6593C52.1497 54.3913 54.3881 53.6353 54.93 54.5566C55.6133 55.7615 52.456 64.55 51.6549 66.5346ZM74.0155 77.2604C73.4736 77.5439 72.9552 77.7329 72.7196 77.5911C72.5547 77.4966 72.9552 77.1186 72.9552 77.1186C72.9552 77.1186 75.7591 74.0946 76.8666 72.7243C77.5028 71.9211 78.2567 70.9761 79.0579 69.9129C79.0579 70.0075 79.0579 70.1256 79.0579 70.2201C79.0579 73.8347 75.5706 76.2681 74.0155 77.2604ZM91.2632 73.315C90.8626 73.0315 90.9333 72.0865 92.2763 69.1333C92.7947 67.9757 94.02 66.0384 96.117 64.1721C96.3526 64.9281 96.5176 65.6604 96.494 66.3456C96.4704 70.9052 93.2188 72.6062 91.2632 73.315Z" fill="#CD6799"/>
</svg>
