<svg width="181" height="41" viewBox="0 0 181 41" fill="none" xmlns="http://www.w3.org/2000/svg">
<path d="M90.7039 10.25C83.6679 10.25 78.5946 14.8625 78.5946 21.7813C78.5946 28.7 84.2989 33.3125 91.3415 33.3125C95.5921 33.3125 99.3397 31.6213 101.659 28.7705L96.7839 25.9389C95.4966 27.3547 93.54 28.1811 91.3415 28.1811C88.2884 28.1811 85.6947 26.5795 84.7321 24.017H102.59C102.73 23.2995 102.813 22.5564 102.813 21.7749C102.813 14.8625 97.7465 10.25 90.7039 10.25ZM84.6811 19.539C85.4777 16.983 87.6574 15.375 90.7039 15.375C93.7566 15.375 95.9363 16.983 96.7268 19.539H84.6811ZM83.2408 3.20313L65.5805 33.9531L47.9141 3.20313H54.5358L65.5744 22.4219L76.6127 3.20313H83.2408ZM23.5491 0L47.0983 41H0L23.5491 0ZM128.434 21.7813C128.434 25.625 130.932 28.1875 134.807 28.1875C137.433 28.1875 139.402 26.9895 140.415 25.0356L145.31 27.8736C143.283 31.2689 139.485 33.3125 134.807 33.3125C127.764 33.3125 122.698 28.7 122.698 21.7813C122.698 14.8625 127.771 10.25 134.807 10.25C139.485 10.25 143.277 12.2936 145.31 15.6889L140.415 18.5269C139.402 16.573 137.433 15.375 134.807 15.375C130.938 15.375 128.434 17.9375 128.434 21.7813ZM181 3.20313V32.6719H175.264V3.20313H181ZM159.331 10.25C152.295 10.25 147.222 14.8625 147.222 21.7813C147.222 28.7 152.932 33.3125 159.969 33.3125C164.219 33.3125 167.967 31.6213 170.286 28.7705L165.411 25.9389C164.124 27.3547 162.167 28.1811 159.969 28.1811C156.915 28.1811 154.322 26.5795 153.359 24.017H171.217C171.357 23.2995 171.44 22.5564 171.44 21.7749C171.44 14.8625 166.374 10.25 159.331 10.25ZM153.308 19.539C154.105 16.983 156.278 15.375 159.331 15.375C162.384 15.375 164.563 16.983 165.354 19.539H153.308ZM120.786 10.8906V17.0983C120.149 16.9125 119.473 16.7844 118.746 16.7844C115.043 16.7844 112.373 19.3469 112.373 23.1906V32.6719H106.637V10.8906H112.373V16.7844C112.373 13.53 116.139 10.8906 120.786 10.8906Z" fill="white"/>
</svg>
