<svg width="90" height="36" viewBox="0 0 90 36" fill="none" xmlns="http://www.w3.org/2000/svg">
<path d="M14.28 26H0.816V24.296C0.816 23.304 0.96 22.464 1.248 21.776C1.536 21.088 2.008 20.496 2.664 20C3.32 19.504 4.2 19.072 5.304 18.704L9.144 17.384C9.8 17.144 10.312 16.904 10.68 16.664C11.048 16.424 11.312 16.144 11.472 15.824C11.648 15.488 11.736 15.088 11.736 14.624C11.736 14.064 11.6 13.592 11.328 13.208C11.072 12.824 10.648 12.536 10.056 12.344C9.48 12.152 8.712 12.056 7.752 12.056C6.68 12.056 5.824 12.184 5.184 12.44C4.544 12.68 4.072 13.04 3.768 13.52C3.48 14 3.336 14.6 3.336 15.32V15.584H0.792V15.344C0.792 14.352 1.032 13.424 1.512 12.56C1.992 11.696 2.744 11 3.768 10.472C4.808 9.944 6.168 9.68 7.848 9.68C9.368 9.68 10.6 9.904 11.544 10.352C12.504 10.784 13.208 11.376 13.656 12.128C14.104 12.864 14.328 13.712 14.328 14.672C14.328 15.536 14.144 16.28 13.776 16.904C13.424 17.528 12.904 18.056 12.216 18.488C11.544 18.92 10.736 19.28 9.792 19.568L6.408 20.6C5.688 20.84 5.112 21.104 4.68 21.392C4.264 21.68 3.96 22.024 3.768 22.424C3.592 22.824 3.504 23.328 3.504 23.936L7.392 23.672H14.28V26ZM38.9449 26.024H36.0169C36.0169 24.52 36.1529 23.176 36.4249 21.992C36.6969 20.792 37.0649 19.712 37.5289 18.752C38.0089 17.792 38.5529 16.936 39.1609 16.184C39.7689 15.416 40.4089 14.728 41.0809 14.12C41.7529 13.512 42.4169 12.952 43.0729 12.44V12.248H32.5369V9.92H45.8329V12.008C44.6649 13.048 43.6489 14.072 42.7849 15.08C41.9369 16.072 41.2249 17.112 40.6489 18.2C40.0729 19.272 39.6409 20.448 39.3529 21.728C39.0809 22.992 38.9449 24.424 38.9449 26.024ZM53.8809 26.24C52.3769 26.24 51.0729 26.072 49.9689 25.736C48.8649 25.4 48.0089 24.888 47.4009 24.2C46.8089 23.512 46.5129 22.648 46.5129 21.608C46.5129 20.872 46.6729 20.232 46.9929 19.688C47.3129 19.144 47.7689 18.696 48.3609 18.344C48.9529 17.992 49.6409 17.736 50.4249 17.576V17.384C49.3209 17.208 48.4649 16.808 47.8569 16.184C47.2649 15.56 46.9689 14.792 46.9689 13.88C46.9689 12.616 47.5529 11.6 48.7209 10.832C49.8889 10.064 51.6089 9.68 53.8809 9.68C56.1689 9.68 57.8889 10.064 59.0409 10.832C60.2089 11.6 60.7929 12.616 60.7929 13.88C60.7929 14.792 60.4969 15.56 59.9049 16.184C59.3129 16.808 58.4489 17.208 57.3129 17.384V17.576C58.1449 17.736 58.8489 17.992 59.4249 18.344C60.0169 18.696 60.4649 19.144 60.7689 19.688C61.0889 20.232 61.2489 20.872 61.2489 21.608C61.2489 22.648 60.9449 23.512 60.3369 24.2C59.7289 24.888 58.8729 25.4 57.7689 25.736C56.6809 26.072 55.3849 26.24 53.8809 26.24ZM53.8809 23.792C55.0489 23.792 55.9769 23.704 56.6649 23.528C57.3529 23.336 57.8489 23.048 58.1529 22.664C58.4729 22.264 58.6329 21.752 58.6329 21.128C58.6329 20.536 58.4729 20.056 58.1529 19.688C57.8489 19.304 57.3449 19.016 56.6409 18.824C55.9529 18.632 55.0329 18.536 53.8809 18.536C52.7129 18.536 51.7769 18.632 51.0729 18.824C50.3849 19.016 49.8889 19.304 49.5849 19.688C49.2809 20.056 49.1289 20.536 49.1289 21.128C49.1289 21.752 49.2809 22.264 49.5849 22.664C49.8889 23.048 50.3849 23.336 51.0729 23.528C51.7769 23.704 52.7129 23.792 53.8809 23.792ZM53.8809 16.76C54.9209 16.76 55.7609 16.68 56.4009 16.52C57.0409 16.344 57.5049 16.088 57.7929 15.752C58.0809 15.416 58.2249 14.984 58.2249 14.456C58.2249 13.96 58.0969 13.544 57.8409 13.208C57.5849 12.856 57.1369 12.592 56.4969 12.416C55.8729 12.224 55.0009 12.128 53.8809 12.128C52.7609 12.128 51.8889 12.224 51.2649 12.416C50.6409 12.592 50.2009 12.856 49.9449 13.208C49.6889 13.544 49.5609 13.96 49.5609 14.456C49.5609 14.984 49.7049 15.416 49.9929 15.752C50.2809 16.088 50.7369 16.344 51.3609 16.52C52.0009 16.68 52.8409 16.76 53.8809 16.76Z" fill="white"/>
<path d="M18.4069 26H15.0469L21.5269 18.008V17.816L15.0469 9.92H18.4069L23.6389 16.256H23.8309L28.9429 9.92H32.3029L25.8229 17.84V18.032L32.3029 26H28.9429L23.7349 19.544H23.5429L18.4069 26Z" fill="#FF6D03"/>
<g clip-path="url(#clip0_74_137)">
<path d="M80.6707 14.976L70.6468 25L69 23.3532L79.0228 13.3293H70.1891V11H83V23.8109H80.6707V14.976Z" fill="white"/>
</g>
<defs>
<clipPath id="clip0_74_137">
<rect width="28" height="28" fill="white" transform="translate(62 4)"/>
</clipPath>
</defs>
</svg>
