<svg width="109" height="28" viewBox="0 0 109 28" fill="none" xmlns="http://www.w3.org/2000/svg">
<path fill-rule="evenodd" clip-rule="evenodd" d="M11.0838 0.0507522C10.6117 0.183445 10.2599 0.415443 9.42535 1.1444C8.63534 1.83443 8.37243 1.95424 7.06305 2.2212C6.57746 2.32017 6.06205 2.44652 5.91769 2.50195C5.31781 2.73227 4.91488 3.20309 4.5047 4.15317C3.91536 5.51801 3.7773 5.69521 2.64077 6.54498C1.87147 7.1202 1.60598 7.38688 1.41538 7.77594C1.22873 8.15694 1.19256 8.49259 1.2043 9.73409C1.21718 11.0907 1.22573 11.0553 0.597448 12.262C0.13668 13.147 0 13.5454 0 14.003C0 14.4606 0.13668 14.8589 0.597448 15.7439C1.22573 16.9506 1.21718 16.9152 1.2043 18.2718C1.19256 19.5133 1.22873 19.849 1.41538 20.23C1.60598 20.6191 1.87147 20.8857 2.64077 21.461C3.7773 22.3107 3.91536 22.4879 4.5047 23.8528C4.91488 24.8028 5.31781 25.2737 5.91769 25.504C6.06205 25.5594 6.57746 25.6858 7.06305 25.7847C8.3805 26.0533 8.63214 26.1691 9.44921 26.8827C10.0881 27.4407 10.5351 27.7569 10.8746 27.8907C11.287 28.0535 11.8838 28.0342 12.6228 27.8343C14.2471 27.395 14.3869 27.395 16.0112 27.8343C16.7502 28.0342 17.347 28.0535 17.7594 27.8907C18.0989 27.7569 18.5458 27.4407 19.1848 26.8827C20.0018 26.1691 20.2535 26.0533 21.5709 25.7847C22.0565 25.6858 22.5719 25.5594 22.7163 25.504C23.3162 25.2737 23.7191 24.8028 24.1293 23.8528C24.7186 22.4879 24.8567 22.3107 25.9932 21.461C26.7625 20.8857 27.028 20.6191 27.2186 20.23C27.4052 19.849 27.4414 19.5133 27.4297 18.2718C27.4168 16.9152 27.4083 16.9506 28.0365 15.7439C28.4973 14.8589 28.634 14.4606 28.634 14.003C28.634 13.5454 28.4973 13.147 28.0365 12.262C27.4083 11.0553 27.4168 11.0907 27.4297 9.73409C27.4414 8.49259 27.4052 8.15694 27.2186 7.77594C27.028 7.38688 26.7625 7.1202 25.9932 6.54498C24.8567 5.69521 24.7186 5.51801 24.1293 4.15317C23.7191 3.20309 23.3162 2.73227 22.7163 2.50195C22.5719 2.44652 22.0565 2.32017 21.5709 2.2212C20.2535 1.95262 20.0018 1.83681 19.1848 1.12322C18.5458 0.565211 18.0989 0.249076 17.7594 0.115191C17.347 -0.0475512 16.7502 -0.0282816 16.0112 0.171616C14.3908 0.609903 14.2661 0.61019 12.6364 0.178389C11.9482 -0.00390848 11.4299 -0.0465495 11.0838 0.0507522ZM13.625 4.15918C10.0537 4.44655 6.93276 6.58342 5.41301 9.78179C4.75696 11.1625 4.46776 12.4539 4.46776 14.003C4.46776 14.9479 4.53872 15.5458 4.75152 16.3946C5.63154 19.9044 8.41228 22.6836 11.924 23.5632C12.7733 23.7758 13.3715 23.8468 14.317 23.8468C15.2624 23.8468 15.8606 23.7758 16.71 23.5632C20.2217 22.6836 23.0024 19.9044 23.8825 16.3946C24.0953 15.5458 24.1662 14.9479 24.1662 14.003C24.1662 12.4539 23.877 11.1625 23.221 9.78179C21.8121 6.8168 19.0436 4.76335 15.7663 4.25257C15.2787 4.17659 14.0661 4.12369 13.625 4.15918ZM13.0762 4.77404C11.0359 5.05373 9.18683 5.97056 7.73351 7.42313C5.96832 9.18734 5.01095 11.5011 5.01095 14.003C5.01095 16.5048 5.96832 18.8186 7.73351 20.5828C9.4987 22.347 11.8138 23.3039 14.317 23.3039C16.8202 23.3039 19.1353 22.347 20.9005 20.5828C22.6657 18.8186 23.623 16.5048 23.623 14.003C23.623 11.5011 22.6657 9.18734 20.9005 7.42313C19.4319 5.9554 17.5847 5.04567 15.5196 4.77323C14.8722 4.6878 13.7023 4.68823 13.0762 4.77404ZM38.7513 6.94506C37.4102 7.18311 36.2549 7.79578 35.2261 8.8144C34.6479 9.3869 34.242 9.93427 33.8896 10.6165C33.3244 11.7107 33.1095 12.6438 33.1095 14.003C33.1095 15.3621 33.3244 16.2952 33.8896 17.3894C34.242 18.0717 34.6479 18.619 35.2261 19.1915C36.5627 20.515 38.1159 21.1575 39.9788 21.1575C41.394 21.1575 42.4892 20.8531 43.5056 20.1772C43.9684 19.8695 44.543 19.317 44.8838 18.8521L45.1224 18.5266L45.1352 19.6751L45.148 20.8236H46.3402H47.5324V14.003V7.1823H46.3402H45.148L45.1352 8.3308L45.1224 9.47929L44.8838 9.15381C44.1847 8.20006 43.1714 7.48117 42.0155 7.11877C41.1378 6.84356 39.7417 6.7693 38.7513 6.94506ZM55.6692 6.88215C54.9735 6.97649 54.1626 7.29167 53.6246 7.67678C53.2843 7.92037 52.7643 8.44766 52.5632 8.75292L52.424 8.96421L52.4111 8.07323L52.3981 7.1823H51.206H50.014V14.003V20.8236H51.2071H52.4002L52.4003 16.829C52.4005 12.6066 52.4137 12.2933 52.6227 11.5722C52.8096 10.9275 53.0299 10.5535 53.495 10.0914C53.9254 9.66383 54.2443 9.46351 54.7863 9.28016C55.2197 9.13359 56.2064 9.09333 56.6475 9.20422C57.6176 9.4481 58.2841 10.1218 58.6118 11.1896L58.7213 11.5466L58.7359 16.1851L58.7505 20.8236H59.939H61.1275L61.1472 16.5905C61.1689 11.9124 61.1641 11.9913 61.4817 11.1478C61.9706 9.84933 63.0298 9.13788 64.4742 9.13788C65.4168 9.13788 65.9792 9.35433 66.5781 9.94777C66.984 10.3499 67.1744 10.6864 67.3482 11.3081C67.4546 11.689 67.4549 11.6976 67.4696 16.2566L67.4844 20.8236H68.6776H69.8708L69.8545 16.0659C69.8385 11.4147 69.8359 11.2982 69.7367 10.8656C69.4667 9.68849 69.0065 8.83367 68.2742 8.14898C67.3277 7.26401 66.1979 6.84881 64.7366 6.84881C62.9863 6.84881 61.6072 7.50268 60.7264 8.75015C60.596 8.93488 60.4785 9.08627 60.4654 9.08651C60.4523 9.08675 60.3302 8.92133 60.1941 8.71891C59.5194 7.7157 58.6112 7.12688 57.4168 6.9183C57.0498 6.8542 56.0307 6.83311 55.6692 6.88215ZM77.0731 6.92178C75.6878 7.14071 74.4721 7.77852 73.3961 8.85089C72.3371 9.90628 71.7058 11.0823 71.4103 12.5499C71.2876 13.1593 71.2876 14.8466 71.4103 15.456C71.7058 16.9236 72.3371 18.0997 73.3961 19.155C74.4888 20.2441 75.6994 20.8724 77.1208 21.0881C77.6576 21.1696 78.682 21.1784 79.2032 21.1059C80.7813 20.8865 82.1293 20.114 83.0385 18.9081L83.3249 18.5283V19.6759V20.8236H84.518H85.711V14.003V7.1823H84.518H83.3249V8.32999V9.47762L83.0385 9.09781C82.1293 7.89189 80.7813 7.11939 79.2032 6.90003C78.7062 6.83092 77.5747 6.84251 77.0731 6.92178ZM100.219 6.94506C98.7183 7.2114 97.4549 7.93992 96.3393 9.18224C95.2976 10.3423 94.7276 11.7045 94.5866 13.371C94.4124 15.429 95.0377 17.3742 96.3393 18.8237C97.7517 20.3965 99.417 21.1575 101.446 21.1575C103.567 21.1575 105.234 20.3723 106.355 18.8464L106.59 18.5266L106.603 19.6751L106.616 20.8236H107.808H109V14.003V7.1823H107.808H106.616L106.603 8.3308L106.59 9.47929L106.355 9.15953C105.464 7.94569 104.121 7.14634 102.599 6.92288C101.91 6.82181 100.858 6.83164 100.219 6.94506ZM93.8908 7.01327C92.4792 7.23243 91.5144 7.87324 90.7928 9.07105L90.6265 9.34689V8.2646V7.1823H89.4096H88.1926V14.003V20.8236H89.4078H90.623L90.6377 16.6859C90.6522 12.5676 90.6528 12.5464 90.7592 12.1666C90.818 11.9568 90.9531 11.6032 91.0594 11.3809C91.2185 11.0484 91.3262 10.9043 91.6674 10.5679C92.0177 10.2225 92.1599 10.1206 92.5832 9.91162C93.1642 9.62486 93.6823 9.49012 94.3847 9.44314L94.8739 9.41042V8.17712V6.94382L94.5756 6.94854C94.4116 6.95112 94.1034 6.98026 93.8908 7.01327ZM12.4612 8.5409C11.8243 8.68504 11.1874 8.95563 10.7045 9.28717C10.3721 9.5153 9.67346 10.2021 9.40407 10.5654C8.67361 11.5505 8.33473 12.6398 8.33473 14.003C8.33473 15.3661 8.67361 16.4554 9.40407 17.4405C9.67346 17.8038 10.3721 18.4906 10.7045 18.7188C11.0615 18.9639 11.6274 19.2307 12.0979 19.3759C12.506 19.5018 12.5737 19.5083 13.458 19.5072C14.3352 19.5062 14.4131 19.4986 14.8157 19.3753C15.0507 19.3034 15.4074 19.159 15.6084 19.0544C15.9929 18.8545 16.5811 18.3923 16.7192 18.1816C16.7641 18.1132 16.8218 18.0572 16.8474 18.0572C16.8753 18.0572 16.894 18.2971 16.894 18.6534V19.2496H18.2303H19.5666V14.003V8.7563H18.2303H16.894V9.35251C16.894 9.70881 16.8753 9.94873 16.8474 9.94873C16.8218 9.94873 16.7641 9.89273 16.7192 9.82433C16.5811 9.61361 15.9929 9.15142 15.6084 8.95153C15.4074 8.84697 15.0507 8.70398 14.8157 8.63377C14.4414 8.52192 14.2883 8.50399 13.5773 8.48901C12.9879 8.47656 12.6826 8.49077 12.4612 8.5409ZM39.7774 9.16917C38.5688 9.31259 37.6529 9.75822 36.8359 10.6003C35.9226 11.5417 35.5074 12.6051 35.5074 14.003C35.5074 15.4008 35.9226 16.4643 36.8359 17.4057C37.254 17.8366 37.6301 18.1178 38.107 18.356C39.3498 18.9768 40.9391 19.0216 42.2695 18.4735C42.9649 18.187 43.7783 17.5228 44.2601 16.8481C45.2474 15.4652 45.4115 13.4535 44.6666 11.864C44.0861 10.6253 42.8995 9.63459 41.6088 9.31107C41.0273 9.1653 40.2907 9.10826 39.7774 9.16917ZM77.8009 9.18872C75.9117 9.43422 74.3439 10.8239 73.8425 12.6974C73.7291 13.1213 73.7166 13.2515 73.7166 14.003C73.7166 14.7544 73.7291 14.8846 73.8425 15.3085C74.142 16.4274 74.8404 17.4107 75.8026 18.0682C77.3429 19.1206 79.6628 19.1176 81.2195 18.061C82.7812 17.0011 83.5486 15.1882 83.2732 13.2095C83.0309 11.4681 81.7812 9.96156 80.1156 9.40274C79.4314 9.17317 78.5486 9.09156 77.8009 9.18872ZM101.245 9.16917C100.036 9.31259 99.1205 9.75822 98.3035 10.6003C97.3902 11.5417 96.975 12.6051 96.975 14.003C96.975 15.4008 97.3902 16.4643 98.3035 17.4057C99.1174 18.2446 100.046 18.6983 101.216 18.8283C102.375 18.9571 103.522 18.6906 104.449 18.0772C105.962 17.0752 106.765 15.3386 106.571 13.4872C106.445 12.2811 106 11.3371 105.172 10.5177C104.159 9.51497 102.662 9.00099 101.245 9.16917ZM13.5057 11.0435C12.504 11.1859 11.7516 11.7222 11.3075 12.6105C10.9271 13.3714 10.9271 14.6345 11.3075 15.3954C11.6876 16.1556 12.3224 16.6775 13.1273 16.8917C13.5385 17.0011 14.3324 17.0008 14.7465 16.8911C15.7339 16.6296 16.5109 15.8536 16.7787 14.8615C16.8927 14.4394 16.8927 13.5665 16.7787 13.1444C16.5132 12.1609 15.7208 11.3641 14.7704 11.1249C14.402 11.0322 13.8397 10.996 13.5057 11.0435Z" fill="#898989"/>
</svg>
