<svg width="29" height="28" viewBox="0 0 29 28" fill="none" xmlns="http://www.w3.org/2000/svg">
<path fill-rule="evenodd" clip-rule="evenodd" d="M19.6075 0.0256607C19.3024 0.0562754 3.18677 3.38815 2.80848 3.49875C1.75934 3.80562 0.856112 4.57483 0.364196 5.58036C-0.0280871 6.38225 0.000572874 5.79001 0.000572874 13.0901C0.000572874 20.4304 -0.0318632 19.8032 0.391404 20.6478C0.804553 21.4722 1.39048 22.0462 2.22753 22.4464C2.8642 22.7509 3.29628 22.8507 3.97037 22.8492C4.48126 22.848 4.84057 22.7781 12.8056 21.1312C18.72 19.9083 21.217 19.3731 21.4863 19.2708C22.3557 18.9404 23.1651 18.207 23.6052 17.3511C23.6825 17.2005 23.8059 16.8874 23.8794 16.6553L24.013 16.2331V9.77909V3.32505L23.8793 2.90244C23.6383 2.14081 23.3118 1.62031 22.7391 1.08484C22.1231 0.508923 21.3407 0.143225 20.5044 0.0404402C20.0966 -0.00965664 19.9782 -0.0115761 19.6075 0.0256607ZM24.8965 5.15214C24.8765 5.17215 24.8599 7.64115 24.8596 10.6389C24.859 15.7661 24.8536 16.1149 24.7688 16.5221C24.5361 17.6395 23.9101 18.6464 23.0088 19.3528C22.6192 19.6581 21.9401 20.0212 21.4956 20.1617C21.3624 20.2038 17.6371 20.9846 13.2171 21.8969C8.79705 22.8091 5.12848 23.5684 5.06472 23.5841C4.94882 23.6128 4.94877 23.6131 4.97782 24.1457C5.00948 24.7265 5.16135 25.34 5.38071 25.773C5.70342 26.4101 6.32944 27.077 6.94495 27.4395C7.61289 27.8328 8.5684 28.0578 9.27014 27.9871C9.65918 27.9479 25.7203 24.6427 26.1915 24.5049C27.2407 24.198 28.1439 23.4288 28.6358 22.4233C29.0281 21.6214 28.9994 22.2136 28.9994 14.9135C28.9994 7.57325 29.0319 8.20047 28.6086 7.35583C28.1952 6.53096 27.6091 5.95695 26.7725 5.55757C26.5062 5.43046 26.1467 5.29356 25.9737 5.25334C25.5856 5.16318 24.9455 5.10305 24.8965 5.15214ZM20.8662 13.6498C20.7064 13.6848 20.5267 13.7247 20.4668 13.7385C20.3806 13.7585 20.3579 13.7972 20.3579 13.9242V14.0847L20.1279 13.9673C19.6502 13.7235 18.9356 13.9101 18.4467 14.4064C17.4281 15.4406 17.6925 17.0594 18.9033 17.2015C19.2863 17.2465 19.7585 17.0784 20.088 16.7798L20.3579 16.5354V16.6842C20.3579 16.7945 20.3797 16.8325 20.4426 16.8313C20.5556 16.829 21.1317 16.7057 21.16 16.6777C21.1722 16.6656 21.1765 15.965 21.1694 15.121L21.1567 13.5863L20.8662 13.6498ZM13.0621 13.9999C12.5125 14.3321 12.7856 15.1096 13.3574 14.8406C13.7031 14.6781 13.8339 14.249 13.6066 14.0236C13.4622 13.8806 13.2731 13.8723 13.0621 13.9999ZM15.8797 14.6449C15.1163 14.8849 14.5383 15.5398 14.4011 16.3203C14.3086 16.8474 14.4711 17.355 14.8254 17.6455C15.0268 17.8105 15.389 17.9366 15.6619 17.9366C15.8716 17.9366 16.2903 17.8192 16.5523 17.687C16.9149 17.5038 17.4836 16.8832 17.3746 16.7895C17.2738 16.7029 16.7522 16.542 16.7353 16.5922C16.7256 16.621 16.6648 16.7069 16.6002 16.783C16.4291 16.9845 16.1124 17.1209 15.8154 17.1209C15.5962 17.1209 15.5402 17.0996 15.3828 16.9566C15.2035 16.7937 15.202 16.7892 15.202 16.4168C15.202 16.0809 15.2169 16.0194 15.3434 15.8345C15.6094 15.4457 16.1475 15.2505 16.4983 15.4155C16.5933 15.4602 16.6835 15.529 16.6988 15.5684C16.7202 15.6238 16.7925 15.5887 17.0172 15.4136C17.4336 15.0895 17.4405 15.0778 17.3029 14.9298C17.1036 14.7153 16.7439 14.5782 16.3881 14.5813C16.215 14.5828 15.9863 14.6115 15.8797 14.6449ZM19.3516 14.638C19.1092 14.7149 18.7791 15.0295 18.6854 15.2727C18.6279 15.4218 18.6097 15.5753 18.6248 15.7826C18.6445 16.0522 18.663 16.0942 18.8293 16.2452C19.0063 16.406 19.0227 16.4108 19.3394 16.393C19.7289 16.3712 19.9916 16.2246 20.1996 15.9132C20.382 15.6399 20.4138 15.1141 20.2625 14.8747C20.0957 14.6107 19.7336 14.5167 19.3516 14.638ZM11.0022 15.0214L10.627 15.2206V15.5407V15.8608L10.3366 15.9174L10.0461 15.9741V16.3315C10.0461 16.7317 10.0511 16.7357 10.4455 16.6449L10.627 16.6032L10.6307 17.4258C10.6349 18.3555 10.6741 18.5294 10.9165 18.6924C11.1112 18.8233 11.3751 18.8321 11.8153 18.7225L12.1278 18.6447V18.2855C12.1278 18.0009 12.114 17.9316 12.0614 17.9516C12.0248 17.9655 11.8977 17.9914 11.7787 18.009C11.4177 18.0627 11.3967 18.0136 11.4125 17.1534L11.4258 16.4274L11.7768 16.357L12.1278 16.2867V15.912C12.1278 15.7059 12.1114 15.5381 12.0915 15.5391C12.0716 15.54 11.9245 15.572 11.7647 15.6103C11.605 15.6485 11.4587 15.6802 11.4398 15.6805C11.4208 15.681 11.399 15.488 11.3914 15.2517L11.3774 14.8222L11.0022 15.0214ZM13.2171 15.2918L12.8782 15.3714L12.8654 16.9179C12.8582 17.8005 12.8712 18.4645 12.8958 18.4645C12.9195 18.4645 13.0941 18.4297 13.2837 18.3873L13.6286 18.3101V16.7558C13.6286 15.9009 13.6123 15.2039 13.5923 15.2068C13.5723 15.2098 13.4035 15.248 13.2171 15.2918ZM9.00523 16.2015L8.66634 16.282L8.65133 16.4608L8.63637 16.6397L8.5061 16.5461C8.0411 16.2118 7.23964 16.401 6.68692 16.9753C5.86231 17.8322 5.89596 19.1373 6.75406 19.5829C6.99506 19.7081 7.0548 19.7192 7.38342 19.7C7.82402 19.6744 8.14344 19.5368 8.43638 19.2466L8.64213 19.0428V19.2117V19.3806L8.82368 19.3473C8.92355 19.3289 9.10326 19.2902 9.22308 19.2611L9.44094 19.2082L9.45372 17.6607C9.46379 16.4373 9.45367 16.114 9.4053 16.1171C9.37166 16.1192 9.19161 16.1572 9.00523 16.2015ZM7.49244 17.2218C7.10573 17.4116 6.8992 17.7561 6.89949 18.211C6.89988 18.7924 7.28858 19.0626 7.87442 18.8886C8.12495 18.8142 8.44103 18.5388 8.55083 18.2992C8.65898 18.0631 8.66876 17.6469 8.57049 17.4586C8.38952 17.1118 7.92481 17.0097 7.49244 17.2218Z" fill="#898989"/>
</svg>
