<svg width="379" height="49" viewBox="0 0 379 49" fill="none" xmlns="http://www.w3.org/2000/svg">
<rect x="330" width="48.9655" height="48.9655" rx="24.4828" fill="#222222"/>
<path d="M353.356 23.0934L353.356 13.3684L356.134 13.3684L356.134 23.0934H365.859V25.8714H356.134L356.134 35.5965L353.356 35.5965L353.356 25.8714L343.631 25.8714V23.0934L353.356 23.0934Z" fill="#555555"/>
<circle cx="321.483" cy="24.4828" r="24.4828" fill="#C3A634"/>
<path d="M315.434 21.1979H323.211V25.4723H315.434V33.1661H320.451C326.86 33.1661 330.124 29.7671 330.124 23.7625C330.124 18.1683 326.772 14.1547 320.451 14.359H315.434V21.1979ZM311.114 25.4723H308.521V21.1979H311.114V10.0847H322.299C330.275 9.90173 334.444 16.6894 334.444 23.7625C334.496 31.0203 330.311 37.6242 322.299 37.4404H311.114V25.4723Z" fill="white"/>
<path d="M264 24.4828C264 10.9613 274.961 0 288.483 0C302.004 0 312.966 10.9613 312.966 24.4828C312.966 38.0042 302.004 48.9655 288.483 48.9655C274.961 48.9655 264 38.0042 264 24.4828Z" fill="#246DD3"/>
<path d="M288.097 9.45999C288.801 9.10995 289.669 9.91122 289.286 10.5867C289.08 11.1227 288.256 11.2649 287.818 10.8547C287.377 10.4609 287.522 9.6733 288.111 9.44632L288.097 9.45999ZM280.531 10.2366C280.972 10.0671 281.499 10.4335 281.455 10.8684C281.499 11.3469 280.882 11.7161 280.441 11.4755C279.869 11.2649 279.942 10.3761 280.531 10.2366ZM296.043 11.4891C295.368 11.4071 295.265 10.4199 295.895 10.223C296.412 9.99599 296.867 10.4199 296.939 10.8684C296.836 11.2512 296.498 11.6012 296.043 11.4891ZM282.25 13.2639C282.97 12.8401 283.98 13.4745 283.866 14.2484C283.838 15.0524 282.733 15.5173 282.102 14.9813C281.485 14.5602 281.589 13.5866 282.25 13.2639ZM293.163 13.7288C293.487 12.9549 294.782 12.9248 295.147 13.6741C295.499 14.2621 295.058 14.995 294.413 15.1919C293.576 15.3341 292.767 14.4891 293.163 13.7288ZM287.185 15.1372C287.185 14.4754 287.832 13.9804 288.507 13.9394C288.948 14.0214 289.431 14.2074 289.624 14.6285C289.976 15.2056 289.669 16.0095 289.021 16.2912C288.728 16.4307 288.376 16.3733 288.053 16.3623C287.567 16.1353 287.157 15.6841 287.187 15.1509V15.1372H287.185ZM275.931 16.1217C276.579 15.7415 277.461 16.4307 277.209 17.1062C277.078 17.6722 276.255 17.9101 275.786 17.5437C275.284 17.1909 275.359 16.3623 275.931 16.1217ZM300.113 16.1217C300.671 15.7005 301.581 16.1764 301.508 16.8272C301.553 17.4316 300.774 17.8937 300.216 17.5875C299.613 17.3195 299.54 16.4608 300.113 16.1217ZM290.358 17.3195C290.816 17.1733 291.31 17.1752 291.767 17.3249C292.225 17.4753 292.616 17.7652 292.884 18.1508C293.559 19.0806 293.208 20.5163 292.136 21.0496C291.033 21.6977 289.417 21.148 289.007 19.994C288.535 18.9548 289.214 17.6421 290.358 17.3195ZM284.996 17.4179C286.009 16.9667 287.377 17.3468 287.86 18.3203C288.446 19.2775 287.994 20.6011 286.967 21.0933C285.934 21.6567 284.466 21.2328 283.98 20.2045C283.408 19.2201 283.908 17.8691 284.996 17.4152V17.4179ZM279.621 19.149C279.693 18.5309 280.31 18.1371 280.941 18.0934C281.259 18.1225 281.558 18.2571 281.788 18.4748C282.018 18.6925 282.165 18.9805 282.205 19.2912C282.161 19.9229 281.647 20.5573 280.941 20.5573C280.148 20.612 279.473 19.8682 279.621 19.149ZM295.485 18.2192C296.294 17.798 297.394 18.4325 297.366 19.2912C297.422 20.221 296.191 20.8663 295.396 20.3303C294.558 19.8819 294.617 18.6157 295.485 18.2192ZM282.808 21.4734C283.275 21.3559 283.768 21.3885 284.215 21.5664C284.661 21.7442 285.033 22.0587 285.275 22.4579C285.521 22.8718 285.607 23.3581 285.518 23.8286C285.429 24.2992 285.17 24.723 284.79 25.023C283.791 25.9091 281.943 25.5426 281.413 24.3448C280.796 23.2482 281.53 21.7688 282.808 21.4734ZM292.987 21.4734C293.9 21.2191 294.969 21.5555 295.454 22.3321C296.116 23.2346 295.795 24.5855 294.84 25.1488C293.81 25.8243 292.253 25.4715 291.695 24.4159C291.019 23.333 291.695 21.7961 292.987 21.4598V21.4734ZM276.754 22.4716C277.564 22.1899 278.457 23.0349 278.136 23.7979C277.929 24.487 276.902 24.7414 276.372 24.2191C275.741 23.7542 275.976 22.6849 276.754 22.4716ZM298.748 23.5846C298.74 23.4301 298.763 23.2755 298.817 23.13C298.871 22.9845 298.953 22.8508 299.06 22.7369C299.28 22.5038 299.583 22.3635 299.906 22.3458C300.45 22.4306 300.994 22.8544 300.95 23.4315C301.008 24.178 300.04 24.6976 299.365 24.3339C299.041 24.1917 298.879 23.88 298.748 23.5846ZM272.76 22.8544C273.257 22.6548 273.86 23.0513 273.743 23.5573C273.715 24.1343 272.819 24.3585 272.481 23.88C272.186 23.5436 272.361 23.0349 272.774 22.8544H272.76ZM303.534 22.8544C303.889 22.6138 304.43 22.7697 304.564 23.1498C304.799 23.5709 304.372 24.1343 303.889 24.0632C303.197 24.1206 302.962 23.1334 303.534 22.838V22.8544ZM285.451 25.6137C286.73 25.3047 288.111 26.3165 288.125 27.5554C288.198 28.8242 286.847 29.9509 285.524 29.6556C285.026 29.5699 284.573 29.3165 284.246 28.9391C283.921 28.5654 283.745 28.0897 283.749 27.5991C283.749 26.683 284.483 25.8106 285.451 25.6274V25.6137ZM290.534 25.6137C291.843 25.2746 293.252 26.3029 293.238 27.5827C293.311 28.8106 291.988 29.8935 290.698 29.6392C289.493 29.4997 288.594 28.2445 288.934 27.1342C289.036 26.7628 289.238 26.4254 289.52 26.1576C289.801 25.8899 290.152 25.702 290.534 25.6137ZM280.72 26.3876C281.633 26.2482 282.484 27.1889 282.102 27.9929C281.837 28.8516 280.517 29.0922 279.928 28.3867C279.238 27.7112 279.752 26.4724 280.72 26.3876ZM295.647 26.4314C296.44 26.106 297.439 26.7678 297.366 27.5854C297.408 28.4879 296.191 29.1196 295.396 28.5836C294.517 28.105 294.662 26.7103 295.647 26.4314ZM299.806 30.3721C299.496 29.8087 300.068 29.0786 300.715 29.177C301.039 29.177 301.274 29.4149 301.48 29.6255C301.522 29.9509 301.597 30.3311 301.301 30.5991C300.905 31.0639 300.023 30.9217 299.803 30.3721H299.806ZM275.917 29.3329C276.52 28.95 277.385 29.5271 277.257 30.1889C277.181 30.796 276.389 31.1323 275.872 30.7959C275.314 30.4842 275.331 29.6118 275.917 29.3302V29.3329ZM287.946 30.5854C288.742 30.2463 289.755 30.9081 289.682 31.7257C289.741 32.6391 288.493 33.2736 287.715 32.7239C286.833 32.259 286.978 30.8643 287.949 30.5854H287.946ZM282.364 31.8078C283.057 31.4714 283.969 32.0484 283.894 32.7649C283.922 33.3583 283.308 33.8643 282.705 33.7658C282.191 33.7658 281.854 33.3283 281.692 32.9208C281.692 32.4696 281.896 31.9773 282.381 31.7941L282.367 31.8078H282.364ZM293.679 31.8078C294.369 31.4003 295.354 31.991 295.295 32.7512C295.309 33.5716 294.193 34.0776 293.531 33.5552C293.39 33.451 293.277 33.3132 293.205 33.1548C293.132 32.9965 293.102 32.8226 293.117 32.6496C293.132 32.4767 293.191 32.3102 293.289 32.1658C293.388 32.0214 293.522 31.9039 293.679 31.8242V31.8078ZM295.633 36.3856C295.326 35.9645 295.689 35.4148 296.191 35.3164C296.601 35.3984 297.028 35.6828 296.925 36.1176C296.881 36.7247 295.954 36.908 295.633 36.3993V36.3856ZM280.045 36.0055C280.162 35.6527 280.458 35.3027 280.896 35.4011C281.544 35.4422 281.734 36.3583 281.175 36.64C280.662 36.949 280.09 36.5114 280.045 36.0055ZM287.567 36.4157C287.684 35.8934 288.404 35.6391 288.873 35.9235C289.169 36.0493 289.272 36.372 289.345 36.6536L289.228 37.0748C289.035 37.3018 288.787 37.5123 288.477 37.4986C287.877 37.5697 287.332 36.9353 287.567 36.413V36.4157Z" fill="white"/>
<path d="M231 24.4828C231 17.9895 233.579 11.7622 238.171 7.17083C242.762 2.57943 248.99 0 255.483 0C261.976 0 268.203 2.57943 272.795 7.17083C277.386 11.7622 279.966 17.9895 279.966 24.4828C279.966 30.976 277.386 37.2033 272.795 41.7947C268.203 46.3861 261.976 48.9655 255.483 48.9655C248.99 48.9655 242.762 46.3861 238.171 41.7947C233.579 37.2033 231 30.976 231 24.4828V24.4828Z" fill="url(#paint0_linear_382_170)"/>
<path d="M265.649 18.5082C265.568 18.5858 265.473 18.6473 265.368 18.6893C265.263 18.7313 265.15 18.753 265.037 18.753H243.329C243.158 18.7522 242.99 18.7028 242.848 18.6111C242.705 18.5194 242.594 18.3895 242.527 18.2374C242.461 18.0853 242.442 17.9178 242.474 17.7557C242.506 17.5936 242.587 17.4441 242.706 17.3258L246.268 13.7966C246.349 13.7164 246.446 13.6527 246.553 13.6092C246.66 13.5658 246.775 13.5436 246.891 13.5439H268.68C269.449 13.5439 269.836 14.4477 269.292 14.9764L265.646 18.5082H265.649Z" fill="url(#paint1_linear_382_170)"/>
<path d="M265.649 34.1342C265.568 34.2117 265.473 34.2733 265.368 34.3153C265.263 34.3573 265.15 34.379 265.037 34.379H243.329C243.158 34.3781 242.99 34.3288 242.848 34.2371C242.705 34.1454 242.594 34.0154 242.527 33.8633C242.461 33.7112 242.442 33.5437 242.474 33.3817C242.506 33.2196 242.587 33.0701 242.706 32.9517L246.268 29.4226C246.349 29.3423 246.446 29.2786 246.553 29.2352C246.66 29.1918 246.775 29.1696 246.891 29.1699H268.68C269.449 29.1699 269.836 30.0737 269.292 30.6024L265.649 34.1342Z" fill="url(#paint2_linear_382_170)"/>
<path d="M265.65 22.1228C265.57 22.0452 265.475 21.9837 265.37 21.9416C265.265 21.8996 265.152 21.878 265.038 21.8779H243.329C243.158 21.8788 242.99 21.9282 242.848 22.0199C242.705 22.1115 242.594 22.2415 242.527 22.3936C242.461 22.5457 242.442 22.7132 242.474 22.8753C242.506 23.0374 242.587 23.1869 242.706 23.3052L246.268 26.8344C246.431 26.9959 246.656 27.087 246.891 27.087H268.682C268.853 27.0851 269.021 27.0346 269.163 26.9419C269.305 26.8492 269.415 26.7183 269.481 26.5656C269.546 26.4128 269.563 26.245 269.53 26.083C269.497 25.921 269.414 25.772 269.294 25.6545L265.648 22.1228H265.65Z" fill="url(#paint3_linear_382_170)"/>
<path d="M198 24.4828C198 10.9613 208.961 0 222.483 0C236.004 0 246.966 10.9613 246.966 24.4828C246.966 38.0042 236.004 48.9655 222.483 48.9655C208.961 48.9655 198 38.0042 198 24.4828Z" fill="#F0F3FA"/>
<path d="M206.334 13.5439L213.627 17.7112V38.5476L206.334 34.3803V13.5439Z" fill="#2891F9"/>
<path d="M213.629 23.2654L220.574 24.6544V34.3781L213.629 38.5454V23.2654ZM223.353 17.709L230.298 19.0981V26.0435L223.353 30.2108V17.709Z" fill="#2BBDF7"/>
<path d="M206.334 13.5439L223.003 23.2676V30.2131L206.334 20.4894V13.5439Z" fill="#2891F9"/>
<path d="M225.088 13.5439L232.381 17.7112V38.5476L225.088 34.3803V13.5439Z" fill="#2891F9"/>
<path d="M213.382 9.375L230.296 18.8556L223.248 22.9187L206.334 13.4381L213.382 9.375Z" fill="#2B6DEF"/>
<path d="M231.338 17.7112L238.631 13.5439V34.3803L231.338 38.5476V17.7112Z" fill="#2BBDF7"/>
<path d="M231.86 9.375L238.632 13.5423L231.86 17.7096L225.088 13.5423L231.86 9.375Z" fill="#2B6DEF"/>
<circle cx="189.483" cy="24.4828" r="24.4828" fill="#2775CA"/>
<path d="M189.482 40.8048C193.811 40.8048 197.962 39.0852 201.023 36.0243C204.084 32.9633 205.804 28.8118 205.804 24.483C205.804 20.1542 204.084 16.0026 201.023 12.9417C197.962 9.88075 193.811 8.16113 189.482 8.16113C185.153 8.16113 181.002 9.88075 177.941 12.9417C174.88 16.0026 173.16 20.1542 173.16 24.483C173.16 28.8118 174.88 32.9633 177.941 36.0243C181.002 39.0852 185.153 40.8048 189.482 40.8048Z" fill="white"/>
<path d="M194.727 27.0937C194.727 24.6781 193.29 23.862 190.382 23.5029C188.276 23.2744 187.842 22.7194 187.842 21.7728C187.842 20.7935 188.544 20.2059 189.947 20.2059C191.184 20.2059 191.886 20.5976 192.22 21.6422C192.321 21.8381 192.521 21.9686 192.722 21.9686H193.825C194.126 21.9686 194.326 21.7728 194.326 21.479V21.4137C194.059 19.9121 192.789 18.4758 191.184 18.3778V16.8762C191.184 16.5824 190.984 16.3866 190.649 16.3213H189.713C189.446 16.3213 189.179 16.5172 189.112 16.8762V18.3778C187.006 18.639 185.636 20.2059 185.636 21.9034C185.636 24.1558 187.006 25.0372 189.947 25.3636C191.886 25.69 192.521 26.1144 192.521 27.1916C192.521 28.3015 191.518 29.0523 190.215 29.0523C188.41 29.0523 187.775 28.3015 187.541 27.2569C187.507 26.9958 187.307 26.8652 187.073 26.8652H185.903C185.836 26.8603 185.769 26.8696 185.705 26.8925C185.642 26.9154 185.585 26.9513 185.537 26.9978C185.49 27.0443 185.453 27.1002 185.43 27.1618C185.406 27.2235 185.397 27.2893 185.402 27.3549V27.4201C185.703 29.1176 186.806 30.2601 189.078 30.5866V32.1208C189.078 32.382 189.312 32.5778 189.647 32.6431H190.649C190.95 32.6431 191.117 32.4473 191.184 32.1208V30.6192C193.29 30.2928 194.727 28.8891 194.727 27.0611V27.0937Z" fill="#2775CA"/>
<path d="M185.826 34.4627C184.584 33.9696 183.447 33.2241 182.482 32.2693C181.516 31.3145 180.741 30.1692 180.201 28.8995C179.66 27.6298 179.365 26.2608 179.333 24.8713C179.301 23.4818 179.531 22.0993 180.012 20.8036C181.051 17.8136 183.065 15.571 185.858 14.5177C186.118 14.3478 186.248 14.1779 186.248 13.8042V12.7849C186.248 12.513 186.118 12.3092 185.858 12.2412C185.761 12.2412 185.631 12.2412 185.566 12.3092C184.053 12.8204 182.651 13.6408 181.444 14.7227C180.236 15.8047 179.245 17.1267 178.529 18.6121C177.813 20.0975 177.386 21.7168 177.273 23.3762C177.159 25.0355 177.362 26.7019 177.869 28.2788C178.408 30.2241 179.39 32.0037 180.731 33.4653C182.071 34.9269 183.73 36.0269 185.566 36.6713C185.826 36.8072 186.118 36.6713 186.183 36.3655C186.248 36.2975 186.248 36.2296 186.248 36.0937V35.0743C186.248 34.9044 186.053 34.5986 185.826 34.4627ZM193.425 12.3092C193.133 12.1733 192.873 12.3092 192.776 12.581L192.743 12.8868V13.8721C192.743 14.144 192.938 14.4158 193.133 14.5517C198.427 16.5564 200.928 22.7064 198.979 28.1428C198.525 29.577 197.766 30.8848 196.759 31.9677C195.752 33.0506 194.523 33.8804 193.165 34.3948C193.038 34.4499 192.929 34.5444 192.853 34.6657C192.778 34.7871 192.739 34.9296 192.743 35.0743V36.0937C192.743 36.3655 192.906 36.6033 193.165 36.6713C193.23 36.6713 193.36 36.6713 193.425 36.6033C199.856 34.4627 203.168 27.3953 201.122 20.6337C200.571 18.7022 199.584 16.9377 198.245 15.4889C196.905 14.0401 195.252 12.9495 193.425 12.3092Z" fill="#2775CA"/>
<circle cx="156.483" cy="24.4828" r="24.4828" fill="#F3BA2F"/>
<path d="M150.149 21.8715L156.482 15.5386L162.831 21.8878L166.52 18.1991L156.482 8.16113L146.46 18.1827L150.149 21.8715ZM140.16 24.483L143.849 20.7942L147.538 24.483L143.849 28.1717L140.16 24.483ZM150.149 27.0945L156.482 33.4273L162.831 27.0781L166.52 30.7669L156.482 40.8048L146.46 30.7832L150.149 27.0945ZM165.426 24.483L169.115 20.7942L172.804 24.483L169.115 28.1717L165.426 24.483ZM160.22 24.483L156.482 28.237L152.728 24.483L153.397 23.8301L153.724 23.5037L156.482 20.7289L160.236 24.483H160.22Z" fill="white"/>
<circle cx="123.483" cy="24.4828" r="24.4828" fill="#26A17B"/>
<path d="M126.163 24.4528C126.014 24.4528 125.377 24.5129 123.514 24.5129C122.021 24.5129 121.176 24.4687 120.807 24.4528C115.056 24.1999 110.548 23.2009 110.548 21.9932C110.548 20.7855 115.056 19.7715 120.807 19.5177V23.4546H126.163V19.5186C131.898 19.7715 136.406 20.7855 136.406 21.9932C136.406 23.1859 131.898 24.1999 126.163 24.4528ZM126.163 19.1013V15.5048H134.196V10.2002H112.774V15.5048H120.807V19.1004C114.302 19.3993 109.203 20.7113 109.203 22.2611C109.203 23.8118 114.302 25.1238 120.807 25.4226V36.7232H126.163V25.4226C132.668 25.1238 137.766 23.8118 137.766 22.2611C137.766 20.7113 132.668 19.4152 126.163 19.1013Z" fill="white"/>
<circle cx="90.4828" cy="24.4828" r="24.4828" fill="#172852"/>
<path d="M102.712 29.1332C100.328 29.7509 97.8427 29.8476 95.4196 29.4168C92.9964 28.9861 90.6907 28.0377 88.6545 26.6342C86.6183 25.2308 84.898 23.4042 83.607 21.275C82.316 19.1459 81.4838 16.7625 81.1652 14.2822C79.531 15.645 78.2321 17.377 77.3721 19.3402C76.5121 21.3034 76.1147 23.4436 76.2115 25.5905C76.3083 27.7374 76.8967 29.8317 77.9297 31.7066C78.9627 33.5816 80.412 35.1854 82.162 36.3904C83.9121 37.5955 85.9146 38.3685 88.0102 38.6478C90.1058 38.9272 92.2366 38.7053 94.233 37.9997C96.2294 37.2941 98.0362 36.1244 99.5096 34.5836C100.983 33.0428 102.082 31.1735 102.72 29.1246H102.712V29.1332Z" fill="#FFD83D"/>
<path d="M105.301 25.058C102.492 23.7127 100.084 21.6949 98.3044 19.1957C96.5249 16.6965 95.4333 13.7986 95.1328 10.7764C98.2431 11.6947 100.941 13.606 102.787 16.1992C104.634 18.7923 105.52 21.9147 105.301 25.058Z" fill="#FB6E04"/>
<path d="M104.76 20.4033C104.024 20.1859 103.209 19.9164 102.272 19.6121C100.423 19.0122 98.1371 18.2645 95.2462 17.4733C90.8837 16.2822 87.1519 14.4912 84.3574 11.996C86.2119 10.9584 88.2801 10.3535 90.4051 10.2271C92.5302 10.1007 94.6563 10.456 96.6225 11.2662C98.5886 12.0764 100.343 13.3202 101.753 14.9033C103.163 16.4864 104.191 18.3672 104.76 20.4033Z" fill="#FFD83D"/>
<circle cx="57.4828" cy="24.4828" r="24.4828" fill="#627EEA"/>
<path d="M57.4844 4.59082V17.9186L67.6855 22.9529L57.4844 4.59082Z" fill="white" fill-opacity="0.6"/>
<path d="M57.4824 4.59082L47.2812 22.9529L57.4824 17.9186V4.59082Z" fill="white"/>
<path d="M57.4844 35.0583V43.3549L67.6855 29.0732L57.4844 35.0583Z" fill="white" fill-opacity="0.6"/>
<path d="M57.4824 43.3549V35.0583L47.2812 29.0732L57.4824 43.3549Z" fill="white"/>
<path d="M57.4844 33.1535L67.6855 26.2383L57.4844 20.9121V33.1535Z" fill="white" fill-opacity="0.2"/>
<path d="M47.2812 26.2383L57.4824 33.1535V20.9121L47.2812 26.2383Z" fill="white" fill-opacity="0.6"/>
<circle cx="24.4828" cy="24.4828" r="24.4828" fill="#FDA32F"/>
<path fill-rule="evenodd" clip-rule="evenodd" d="M24.2672 8.42317C24.2248 8.58541 23.9671 9.61975 23.6945 10.7219C23.3011 12.3128 23.1722 12.7256 23.0685 12.7256C22.9968 12.7256 21.7279 12.4202 20.2488 12.0469C18.7697 11.6736 17.5506 11.376 17.5397 11.3855C17.505 11.4158 16.7921 14.3672 16.8151 14.3856C16.8271 14.3953 17.1079 14.4663 17.4391 14.5435C19.0724 14.9241 19.6963 15.2042 19.9421 15.6672C20.215 16.1816 20.2246 16.1314 18.5575 22.8811C17.5952 26.7768 16.8986 29.4436 16.8113 29.5653C16.7314 29.6766 16.5294 29.8362 16.3623 29.9199L16.0583 30.0721L15.0027 29.8167C14.4221 29.6762 13.8707 29.541 13.7775 29.5163C13.6578 29.4845 13.5953 29.5149 13.5653 29.6195C13.542 29.701 13.2347 30.4288 12.8825 31.2368L12.2422 32.7059L15.0205 33.4098C16.5486 33.7968 17.8221 34.1281 17.8505 34.1459C17.879 34.1635 17.6404 35.2323 17.3204 36.5209L16.7386 38.8637L18.1289 39.2106C18.8936 39.4014 19.5336 39.5406 19.551 39.5202C19.5684 39.4997 19.8278 38.481 20.1274 37.2565C20.4271 36.032 20.6943 35.0062 20.7214 34.977C20.7709 34.9235 22.7949 35.4254 22.8814 35.5127C22.9069 35.5385 22.6743 36.5805 22.3644 37.8284C22.0545 39.0763 21.822 40.1103 21.8478 40.1261C21.9301 40.1767 24.5991 40.8307 24.6141 40.804C24.622 40.7898 24.8764 39.7582 25.1794 38.5114C25.4824 37.2646 25.7421 36.2226 25.7565 36.1957C25.771 36.1689 26.2084 36.2196 26.7286 36.3085C27.4526 36.4321 28.0603 36.471 29.3201 36.4742C30.7734 36.4778 31.0409 36.4575 31.608 36.3008C32.7178 35.9939 33.3682 35.6183 34.1452 34.8355C34.739 34.2372 34.8937 34.0203 35.2481 33.2895C35.788 32.176 36.0605 31.1983 36.1168 30.1725C36.2171 28.343 35.5288 27.0324 33.8855 25.9239C33.332 25.5504 33.1963 25.4247 33.3082 25.389C34.7275 24.9352 35.6503 24.1652 36.1843 22.9888C36.9162 21.3764 36.9041 19.4961 36.1535 18.1904C35.4537 16.9733 33.9704 15.8891 31.889 15.0732C31.5137 14.9261 31.1765 14.7792 31.1397 14.7467C31.103 14.7142 31.3078 13.727 31.5951 12.5529C31.8823 11.3789 32.1292 10.3461 32.1436 10.258C32.1672 10.114 32.0306 10.0624 30.8101 9.75374C30.0622 9.56462 29.4354 9.42496 29.4172 9.44334C29.3989 9.46164 29.1385 10.4651 28.8384 11.6731C28.5384 12.8811 28.2801 13.8805 28.2646 13.8939C28.2269 13.9263 26.1321 13.4255 26.0796 13.3715C26.057 13.3482 26.287 12.3289 26.5907 11.1063C26.9594 9.62218 27.1143 8.86569 27.0569 8.82991C26.9859 8.78562 25.7682 8.4681 24.6046 8.1904C24.3556 8.13098 24.3412 8.14094 24.2672 8.42317ZM26.2954 16.9808C29.9465 17.8237 31.504 19.1064 31.165 20.9914C31.0464 21.6514 30.861 22.0072 30.4242 22.4133C29.4579 23.3115 27.8104 23.389 24.9102 22.6729C24.2837 22.5181 23.8677 22.3769 23.8863 22.3253C23.9036 22.2775 24.2175 21.0089 24.584 19.506C24.9505 18.0032 25.2835 16.7736 25.3242 16.7736C25.3649 16.7736 25.8019 16.8668 26.2954 16.9808ZM24.2497 25.512C27.7138 26.3214 29.5222 27.2865 30.1494 28.6605C30.4071 29.2252 30.3897 30.178 30.1104 30.7867C29.7293 31.6175 29.0199 32.1323 27.987 32.3277C27.2944 32.4587 25.3608 32.3697 24.3429 32.1599C23.5489 31.9963 21.6906 31.5322 21.6449 31.486C21.6117 31.4526 23.1545 25.2744 23.1961 25.2744C23.2166 25.2744 23.6908 25.3813 24.2497 25.512Z" fill="white"/>
<defs>
<linearGradient id="paint0_linear_382_170" x1="240.11" y1="8.4928" x2="290.586" y2="66.468" gradientUnits="userSpaceOnUse">
<stop stop-color="#1A1E21"/>
<stop offset="1" stop-color="#06060A"/>
</linearGradient>
<linearGradient id="paint1_linear_382_170" x1="242.46" y1="17.6878" x2="269.486" y2="13.1702" gradientUnits="userSpaceOnUse">
<stop stop-color="#599DB0"/>
<stop offset="1" stop-color="#47F8C3"/>
</linearGradient>
<linearGradient id="paint2_linear_382_170" x1="242.46" y1="33.543" x2="269.526" y2="29.7568" gradientUnits="userSpaceOnUse">
<stop stop-color="#C44FE2"/>
<stop offset="1" stop-color="#73B0D0"/>
</linearGradient>
<linearGradient id="paint3_linear_382_170" x1="244.015" y1="24.4825" x2="268.495" y2="24.4825" gradientUnits="userSpaceOnUse">
<stop stop-color="#778CBF"/>
<stop offset="1" stop-color="#5DCDC9"/>
</linearGradient>
</defs>
</svg>
