<svg width="144" height="77" viewBox="0 0 144 77" fill="none" xmlns="http://www.w3.org/2000/svg">
<path opacity="0.1" d="M0 52C0 47.5817 3.58172 44 8 44H22C26.4183 44 30 47.5817 30 52V77H0V52Z" fill="#54A3FF"/>
<path opacity="0.6" d="M38 37C38 32.5817 41.5817 29 46 29H60C64.4183 29 68 32.5817 68 37V77H38V37Z" fill="#54A3FF"/>
<path d="M76 8C76 3.58172 79.5817 0 84 0H98C102.418 0 106 3.58172 106 8V77H76V8Z" fill="#54A3FF"/>
<path opacity="0.4" d="M114 52C114 47.5817 117.582 44 122 44H136C140.418 44 144 47.5817 144 52V77H114V52Z" fill="#54A3FF"/>
</svg>
