<svg width="144" height="83" viewBox="0 0 144 83" fill="none" xmlns="http://www.w3.org/2000/svg">
<path opacity="0.1" d="M144 8C144 3.58172 140.418 0 136 0H122C117.582 0 114 3.58172 114 8V83H144V8Z" fill="#FFD15B"/>
<path opacity="0.6" d="M106 18C106 13.5817 102.418 10 98 10H84C79.5817 10 76 13.5817 76 18V83H106V18Z" fill="#FFD15B"/>
<path d="M68 58C68 53.5817 64.4183 50 60 50H46C41.5817 50 38 53.5817 38 58V83H68V58Z" fill="#FFD15B"/>
<path opacity="0.4" d="M30 39C30 34.5817 26.4183 31 22 31H8C3.58172 31 0 34.5817 0 39V83H30V39Z" fill="#FFD15B"/>
</svg>
