<svg width="627" height="87" viewBox="0 0 627 87" fill="none" xmlns="http://www.w3.org/2000/svg">
<rect width="6.93516" height="12.7234" transform="matrix(1 0 0.00743867 0.999972 0.941406 73.6006)" fill="#14C67A"/>
<rect width="6.93516" height="44.532" transform="matrix(1 0 0.00743867 0.999972 14.0273 41.6611)" fill="#FF5454"/>
<rect width="6.93516" height="25.4468" transform="matrix(1 0 0.00743867 0.999972 26.96 60.4082)" fill="#14C67A"/>
<rect width="6.93516" height="44.532" transform="matrix(1 0 0.00743867 0.999972 39.7852 41.6611)" fill="#FF5454"/>
<rect width="6.93516" height="25.4468" transform="matrix(1 0 0.00743867 0.999972 52.7188 60.4082)" fill="#14C67A"/>
<rect width="6.93516" height="25.4468" transform="matrix(1 0 0.00743867 0.999972 65.5996 60.4082)" fill="#FF5454"/>
<rect width="6.93516" height="25.4468" transform="matrix(1 0 0.00743867 0.999972 78.4775 60.4082)" fill="#FF5454"/>
<rect width="6.93516" height="17.4947" transform="matrix(1 0 0.00743867 0.999972 91.3799 68.7402)" fill="#14C67A"/>
<rect width="6.93516" height="17.4947" transform="matrix(1 0 0.00743867 0.999972 104.26 68.7402)" fill="#14C67A"/>
<rect width="6.93516" height="17.4947" transform="matrix(1 0 0.00743867 0.999972 117.139 68.7402)" fill="#14C67A"/>
<rect width="6.93516" height="12.7234" transform="matrix(1 0 0.00743867 0.999972 130.032 73.6006)" fill="#14C67A"/>
<rect width="6.93516" height="12.7234" transform="matrix(1 0 0.00743867 0.999972 142.911 73.6006)" fill="#14C67A"/>
<rect width="6.93516" height="12.7234" transform="matrix(1 0 0.00743867 0.999972 155.791 73.6006)" fill="#14C67A"/>
<rect width="6.93516" height="25.4468" transform="matrix(1 0 0.00743867 0.999972 168.633 60.4082)" fill="#FF5454"/>
<rect width="6.93516" height="25.4468" transform="matrix(1 0 0.00743867 0.999972 181.512 60.4082)" fill="#FF5454"/>
<rect width="6.93516" height="25.4468" transform="matrix(1 0 0.00743867 0.999972 194.391 60.4082)" fill="#FF5454"/>
<rect width="6.93516" height="25.4468" transform="matrix(1 0 0.00743867 0.999972 207.271 60.4082)" fill="#14C67A"/>
<rect width="6.93516" height="25.4468" transform="matrix(1 0 0.00743867 0.999972 220.149 60.4082)" fill="#14C67A"/>
<rect width="6.93516" height="25.4468" transform="matrix(1 0 0.00743867 0.999972 233.028 60.4082)" fill="#14C67A"/>
<rect width="6.93516" height="44.532" transform="matrix(1 0 0.00743867 0.999972 245.856 41.6611)" fill="#FF5454"/>
<rect width="6.93516" height="44.532" transform="matrix(1 0 0.00743867 0.999972 258.734 41.6611)" fill="#FF5454"/>
<rect width="6.93516" height="44.532" transform="matrix(1 0 0.00743867 0.999972 271.614 41.6611)" fill="#FF5454"/>
<rect width="6.93516" height="31.8085" transform="matrix(1 0 0.00743867 0.999972 284.527 54.1592)" fill="#FF5454"/>
<rect width="6.93516" height="15.9043" transform="matrix(1 0 0.00743867 0.999972 297.455 70.1289)" fill="#14C67A"/>
<rect width="6.93516" height="25.4468" transform="matrix(1 0 0.00743867 0.999972 310.306 60.4082)" fill="#14C67A"/>
<rect width="6.93516" height="44.532" transform="matrix(1 0 0.00743867 0.999972 323.13 41.6611)" fill="#FF5454"/>
<rect width="6.93516" height="31.8085" transform="matrix(1 0 0.00743867 0.999972 336.046 54.1592)" fill="#FF5454"/>
<rect width="6.93516" height="22.266" transform="matrix(1 0 0.00743867 0.999972 348.953 63.8799)" fill="#FF5454"/>
<rect width="6.93516" height="42.9415" transform="matrix(1 0 0.00743867 0.999972 361.772 43.0498)" fill="#14C67A"/>
<rect width="6.93516" height="12.7234" transform="matrix(1 0 0.00743867 0.999972 374.738 73.6006)" fill="#14C67A"/>
<rect width="6.93516" height="25.4468" transform="matrix(1 0 0.00743867 0.999972 387.583 60.4082)" fill="#14C67A"/>
<rect width="6.93516" height="15.9043" transform="matrix(1 0 0.00743867 0.999972 400.488 70.1289)" fill="#FF5454"/>
<rect width="6.93516" height="30.2181" transform="matrix(1 0 0.00743867 0.999972 413.328 55.5479)" fill="#14C67A"/>
<rect width="6.93516" height="36.5798" transform="matrix(1 0 0.00743867 0.999972 426.187 49.2988)" fill="#14C67A"/>
<rect width="6.93516" height="44.532" transform="matrix(1 0 0.00743867 0.999972 439.045 41.6611)" fill="#FF5454"/>
<rect width="6.93516" height="55.665" transform="matrix(1 0 0.00743867 0.999972 451.892 30.5518)" fill="#14C67A"/>
<rect width="6.93516" height="60.4362" transform="matrix(1 0 0.00743867 0.999972 464.758 25.6904)" fill="#14C67A"/>
<rect width="6.93516" height="14.3138" transform="matrix(1 0 0.00743867 0.999972 477.769 71.5176)" fill="#FF5454"/>
<rect width="6.93516" height="30.2181" transform="matrix(1 0 0.00743867 0.999972 490.604 55.5479)" fill="#FF5454"/>
<rect width="6.93516" height="60.4362" transform="matrix(1 0 0.00743867 0.999972 503.395 25.6904)" fill="#14C67A"/>
<rect width="6.93516" height="44.532" transform="matrix(1 0 0.00743867 0.999972 516.32 41.6611)" fill="#FF5454"/>
<rect width="6.93516" height="85.8831" transform="matrix(1 0 0.00743867 0.999972 529.082 0)" fill="#14C67A"/>
<rect width="6.93516" height="22.266" transform="matrix(1 0 0.00743867 0.999972 542.144 63.8799)" fill="#FF5454"/>
<rect width="6.93516" height="25.4468" transform="matrix(1 0 0.00743867 0.999972 555.014 60.4082)" fill="#14C67A"/>
<rect width="6.93516" height="30.2181" transform="matrix(1 0 0.00743867 0.999972 567.878 55.5479)" fill="#14C67A"/>
<rect width="6.93516" height="12.7234" transform="matrix(1 0 -0.00743867 -0.999972 580.902 86.0986)" fill="#14C67A"/>
<rect width="6.93516" height="44.532" transform="matrix(1 0 -0.00743867 -0.999972 593.927 86.0986)" fill="#FF5454"/>
<rect width="6.93516" height="25.4468" transform="matrix(1 0 -0.00743867 -0.999972 606.719 86.0986)" fill="#14C67A"/>
<rect width="6.93516" height="44.532" transform="matrix(1 0 -0.00743867 -0.999972 619.687 86.0986)" fill="#FF5454"/>
</svg>
