<svg width="32" height="32" viewBox="0 0 32 32" fill="none" xmlns="http://www.w3.org/2000/svg">
<path d="M21.0166 14.6823C20.5402 14.6879 20.0813 14.8621 19.7212 15.1739C19.361 15.4857 19.123 15.9151 19.0493 16.3857H22.744C22.7473 16.159 22.7047 15.9341 22.6188 15.7243C22.5328 15.5146 22.4053 15.3243 22.2439 15.1652C22.0825 15.006 21.8906 14.8812 21.6797 14.7982C21.4687 14.7152 21.2432 14.6758 21.0166 14.6823Z" fill="white"/>
<path d="M12.6916 16.3857H9.38086V19.4326H12.5717C12.7666 19.4474 12.9624 19.4195 13.1454 19.3508C13.3283 19.2822 13.4942 19.1745 13.6312 19.0351C13.7683 18.8958 13.8733 18.7282 13.9389 18.5441C14.0045 18.36 14.0292 18.1638 14.0112 17.9692C14.0381 17.7769 14.0245 17.5812 13.9713 17.3945C13.9181 17.2078 13.8264 17.0343 13.7021 16.8851C13.5778 16.736 13.4237 16.6146 13.2497 16.5286C13.0757 16.4426 12.8856 16.3939 12.6916 16.3857Z" fill="white"/>
<path d="M12.5713 14.6828C13.0991 14.6828 13.483 14.4189 13.483 13.3632C13.483 12.3076 12.6912 12.3076 12.6912 12.3076H9.52441V14.7067L12.5713 14.6828Z" fill="white"/>
<path d="M15.8583 0C11.6582 0.0189336 7.63561 1.69584 4.66571 4.66574C1.6958 7.63565 0.0189336 11.6583 0 15.8583C0.0126566 20.0603 1.68749 24.0865 4.65875 27.0578C7.63001 30.0291 11.6563 31.7039 15.8583 31.7165C20.0622 31.7102 24.0921 30.0374 27.0647 27.0648C30.0374 24.0921 31.7102 20.0622 31.7165 15.8583C31.7039 11.6563 30.029 7.63005 27.0578 4.65879C24.0865 1.68753 20.0602 0.0126566 15.8583 0ZM18.6413 10.8441H23.4395V12.1636H18.6413V10.8441ZM16.2421 18.0415C16.2433 18.4972 16.1504 18.9483 15.9692 19.3664C15.788 19.7846 15.5225 20.1609 15.1892 20.4717C14.8559 20.7825 14.462 21.0211 14.0322 21.1727C13.6024 21.3242 13.1459 21.3854 12.6914 21.3523H6.86152V9.9804H12.8114C13.2217 9.93923 13.636 9.9898 14.0244 10.1284C14.4127 10.2669 14.7654 10.4901 15.057 10.7817C15.3486 11.0732 15.5718 11.4259 15.7103 11.8143C15.8489 12.2027 15.8994 12.617 15.8583 13.0273C15.8919 13.2873 15.8738 13.5514 15.8051 13.8044C15.7365 14.0574 15.6184 14.2944 15.458 14.5017C15.2975 14.709 15.0976 14.8826 14.8699 15.0124C14.6421 15.1423 14.391 15.2259 14.1309 15.2585C16.3861 15.3305 16.2661 18.2574 16.1222 18.1135L16.2421 18.0415ZM24.975 17.7776H19.1691C19.1478 18.0424 19.1838 18.3088 19.2748 18.5584C19.3658 18.8081 19.5095 19.0352 19.6963 19.2242C19.883 19.4132 20.1083 19.5597 20.3569 19.6537C20.6054 19.7477 20.8713 19.787 21.1363 19.7689C22.8637 19.7689 22.8637 18.4493 22.8637 18.4493H24.831C24.831 21.6162 21.1363 21.4723 21.1363 21.4723C20.5708 21.5154 20.0027 21.4358 19.4708 21.2388C18.9389 21.0419 18.4559 20.7323 18.0549 20.3313C17.6538 19.9302 17.3442 19.4472 17.1473 18.9153C16.9504 18.3835 16.8707 17.8153 16.9139 17.2498C16.9007 16.6917 17.001 16.1367 17.2085 15.6185C17.4161 15.1003 17.7266 14.6296 18.1214 14.2348C18.5161 13.8401 18.9868 13.5295 19.5051 13.322C20.0233 13.1144 20.5782 13.0142 21.1363 13.0273C21.725 13.0261 22.306 13.1602 22.8345 13.4193C23.363 13.6785 23.8249 14.0557 24.1843 14.5218C24.5438 14.9879 24.7912 15.5305 24.9075 16.1075C25.0238 16.6845 25.0058 17.2806 24.855 17.8495L24.975 17.7776Z" fill="white"/>
</svg>
