<svg width="24" height="24" viewBox="0 0 24 24" fill="none" xmlns="http://www.w3.org/2000/svg">
<circle cx="12" cy="12" r="12" fill="#F3BA2F"/>
<path d="M8.896 10.72L12 7.616L15.112 10.728L16.92 8.92L12 4L7.088 8.912L8.896 10.72V10.72ZM4 12L5.808 10.192L7.616 12L5.808 13.808L4 12ZM8.896 13.28L12 16.384L15.112 13.272L16.92 15.08L12 20L7.088 15.088L8.896 13.28V13.28ZM16.384 12L18.192 10.192L20 12L18.192 13.808L16.384 12ZM13.832 12L12 13.84L10.16 12L10.488 11.68L10.648 11.52L12 10.16L13.84 12H13.832Z" fill="white"/>
</svg>
