<svg width="25" height="24" viewBox="0 0 25 24" fill="none" xmlns="http://www.w3.org/2000/svg">
<circle cx="12.75" cy="12" r="12" fill="#FDA32F"/>
<path fill-rule="evenodd" clip-rule="evenodd" d="M12.644 4.12843C12.6231 4.20796 12.4968 4.71493 12.3633 5.25512C12.1704 6.03491 12.1072 6.23724 12.0564 6.23724C12.0213 6.23724 11.3993 6.08752 10.6744 5.90455C9.94939 5.72162 9.35187 5.57575 9.34651 5.58039C9.32952 5.59523 8.98011 7.04187 8.99137 7.05088C8.99727 7.05564 9.13491 7.09044 9.29721 7.12826C10.0978 7.3148 10.4036 7.4521 10.524 7.67904C10.6578 7.93114 10.6625 7.90654 9.8454 11.2149C9.37374 13.1243 9.03229 14.4314 8.98952 14.4911C8.95037 14.5456 8.85133 14.6238 8.76941 14.6649L8.62044 14.7395L8.10303 14.6143C7.81847 14.5454 7.5482 14.4792 7.50251 14.4671C7.44385 14.4515 7.41323 14.4663 7.39852 14.5176C7.38707 14.5576 7.23645 14.9143 7.06383 15.3103L6.75 16.0304L8.11176 16.3754C8.86074 16.5651 9.48494 16.7275 9.49887 16.7362C9.51284 16.7448 9.39589 17.2687 9.23906 17.9003L8.95387 19.0486L9.63532 19.2186C10.0101 19.3121 10.3238 19.3804 10.3324 19.3703C10.3409 19.3603 10.468 18.861 10.6149 18.2608C10.7618 17.6606 10.8927 17.1579 10.906 17.1436C10.9303 17.1173 11.9223 17.3633 11.9647 17.4061C11.9772 17.4187 11.8632 17.9295 11.7113 18.5411C11.5594 19.1528 11.4454 19.6596 11.4581 19.6673C11.4984 19.6921 12.8066 20.0127 12.814 19.9996C12.8179 19.9927 12.9426 19.487 13.0911 18.8759C13.2396 18.2648 13.3668 17.7541 13.3739 17.7409C13.381 17.7277 13.5954 17.7526 13.8504 17.7962C14.2053 17.8568 14.5031 17.8758 15.1206 17.8774C15.8329 17.8792 15.964 17.8692 16.242 17.7924C16.7859 17.642 17.1047 17.4579 17.4855 17.0742C17.7766 16.7809 17.8525 16.6746 18.0261 16.3164C18.2908 15.7707 18.4243 15.2914 18.4519 14.7887C18.5011 13.8919 18.1637 13.2496 17.3583 12.7063C17.087 12.5232 17.0205 12.4616 17.0753 12.4441C17.771 12.2217 18.2233 11.8442 18.485 11.2676C18.8437 10.4774 18.8378 9.55575 18.4699 8.91577C18.1269 8.31919 17.3999 7.78781 16.3797 7.3879C16.1957 7.3158 16.0305 7.24377 16.0125 7.22786C15.9944 7.21195 16.0949 6.72807 16.2356 6.1526C16.3764 5.57714 16.4974 5.07095 16.5045 5.02774C16.5161 4.95719 16.4491 4.93187 15.8509 4.7806C15.4843 4.68791 15.1771 4.61946 15.1682 4.62846C15.1592 4.63743 15.0316 5.12929 14.8845 5.72138C14.7374 6.31347 14.6108 6.8033 14.6032 6.80985C14.5848 6.82572 13.558 6.58029 13.5323 6.55382C13.5212 6.5424 13.6339 6.0428 13.7828 5.44357C13.9635 4.71612 14.0394 4.34533 14.0113 4.32779C13.9765 4.30609 13.3796 4.15046 12.8093 4.01435C12.6873 3.98522 12.6802 3.9901 12.644 4.12843ZM13.6381 8.32288C15.4276 8.73601 16.191 9.36472 16.0249 10.2886C15.9667 10.6121 15.8759 10.7865 15.6617 10.9856C15.1881 11.4258 14.3806 11.4638 12.9591 11.1128C12.652 11.0369 12.4481 10.9678 12.4573 10.9424C12.4657 10.919 12.6196 10.2972 12.7992 9.56059C12.9788 8.82402 13.1421 8.22133 13.162 8.22133C13.182 8.22133 13.3962 8.26701 13.6381 8.32288ZM12.6354 12.5044C14.3332 12.9011 15.2197 13.3741 15.5271 14.0476C15.6534 14.3244 15.6448 14.7914 15.508 15.0897C15.3211 15.4969 14.9734 15.7493 14.4672 15.845C14.1277 15.9092 13.1799 15.8656 12.6811 15.7628C12.2919 15.6826 11.3811 15.4551 11.3586 15.4325C11.3424 15.4161 12.0986 12.3879 12.119 12.3879C12.129 12.3879 12.3614 12.4403 12.6354 12.5044Z" fill="white"/>
</svg>
