<svg width="83" height="22" viewBox="0 0 83 22" fill="none" xmlns="http://www.w3.org/2000/svg">
<rect width="83" height="22" rx="8" fill="#FF5454" fill-opacity="0.3"/>
<path d="M24.8395 10.0923H23.7315C23.6889 9.85559 23.6096 9.64725 23.4936 9.46733C23.3776 9.28741 23.2356 9.13471 23.0675 9.00923C22.8994 8.88376 22.7112 8.78906 22.5028 8.72514C22.2969 8.66122 22.0779 8.62926 21.8459 8.62926C21.4268 8.62926 21.0516 8.73461 20.7202 8.94531C20.3911 9.15601 20.1307 9.46496 19.9389 9.87216C19.7495 10.2794 19.6548 10.7765 19.6548 11.3636C19.6548 11.9555 19.7495 12.455 19.9389 12.8622C20.1307 13.2694 20.3923 13.5772 20.7237 13.7855C21.0552 13.9938 21.428 14.098 21.8423 14.098C22.072 14.098 22.2898 14.0672 22.4957 14.0057C22.7041 13.9418 22.8923 13.8482 23.0604 13.7251C23.2285 13.602 23.3705 13.4517 23.4865 13.2741C23.6049 13.0942 23.6866 12.8883 23.7315 12.6562L24.8395 12.6598C24.7803 13.0173 24.6655 13.3464 24.495 13.647C24.3269 13.9453 24.1103 14.2034 23.8452 14.4212C23.5824 14.6366 23.2817 14.8035 22.9432 14.9219C22.6046 15.0402 22.2353 15.0994 21.8352 15.0994C21.2055 15.0994 20.6444 14.9503 20.152 14.652C19.6596 14.3513 19.2713 13.9216 18.9872 13.3629C18.7055 12.8042 18.5646 12.1378 18.5646 11.3636C18.5646 10.5871 18.7067 9.92069 18.9908 9.36435C19.2749 8.80563 19.6631 8.37713 20.1555 8.07884C20.648 7.77817 21.2079 7.62784 21.8352 7.62784C22.2211 7.62784 22.581 7.68348 22.9148 7.79474C23.2509 7.90365 23.5528 8.06463 23.8203 8.2777C24.0878 8.4884 24.3092 8.74645 24.4844 9.05185C24.6596 9.35488 24.7779 9.7017 24.8395 10.0923ZM27.6547 15.1207C27.309 15.1207 26.9965 15.0568 26.7172 14.929C26.4378 14.7988 26.2164 14.6106 26.0531 14.3643C25.8921 14.1181 25.8116 13.8163 25.8116 13.4588C25.8116 13.151 25.8708 12.8977 25.9892 12.6989C26.1075 12.5 26.2673 12.3426 26.4686 12.2266C26.6698 12.1106 26.8947 12.023 27.1433 11.9638C27.3919 11.9046 27.6452 11.8596 27.9032 11.8288C28.2299 11.791 28.4951 11.7602 28.6987 11.7365C28.9023 11.7105 29.0502 11.669 29.1426 11.6122C29.2349 11.5554 29.2811 11.4631 29.2811 11.3352V11.3104C29.2811 11.0002 29.1935 10.7599 29.0183 10.5895C28.8455 10.419 28.5874 10.3338 28.2441 10.3338C27.8867 10.3338 27.6049 10.4131 27.399 10.5717C27.1954 10.728 27.0545 10.902 26.9764 11.0938L25.9785 10.8665C26.0969 10.535 26.2697 10.2675 26.497 10.0639C26.7266 9.85795 26.9906 9.70881 27.2889 9.61648C27.5872 9.52178 27.9009 9.47443 28.2299 9.47443C28.4477 9.47443 28.6786 9.50047 28.9224 9.55256C29.1686 9.60227 29.3983 9.6946 29.6113 9.82955C29.8268 9.96449 30.0031 10.1574 30.1404 10.4084C30.2778 10.657 30.3464 10.9801 30.3464 11.3778V15H29.3095V14.2543H29.2669C29.1982 14.3916 29.0952 14.5265 28.9579 14.6591C28.8206 14.7917 28.6442 14.9018 28.4288 14.9893C28.2134 15.0769 27.9553 15.1207 27.6547 15.1207ZM27.8855 14.2685C28.179 14.2685 28.43 14.2105 28.6383 14.0945C28.849 13.9785 29.0088 13.8269 29.1177 13.6399C29.229 13.4505 29.2846 13.2481 29.2846 13.0327V12.3295C29.2467 12.3674 29.1734 12.4029 29.0645 12.4361C28.9579 12.4669 28.836 12.4941 28.6987 12.5178C28.5614 12.5391 28.4276 12.5592 28.2974 12.5781C28.1672 12.5947 28.0583 12.6089 27.9707 12.6207C27.7647 12.6468 27.5765 12.6906 27.4061 12.7521C27.238 12.8137 27.103 12.9025 27.0012 13.0185C26.9018 13.1321 26.8521 13.2836 26.8521 13.473C26.8521 13.7358 26.9492 13.9347 27.1433 14.0696C27.3374 14.2022 27.5848 14.2685 27.8855 14.2685ZM32.8224 11.7614V15H31.7607V9.54545H32.7798V10.4332H32.8473C32.9728 10.1444 33.1693 9.91241 33.4368 9.73722C33.7067 9.56203 34.0464 9.47443 34.456 9.47443C34.8277 9.47443 35.1532 9.55256 35.4325 9.70881C35.7119 9.86269 35.9285 10.0923 36.0824 10.3977C36.2363 10.7031 36.3132 11.0807 36.3132 11.5305V15H35.2514V11.6584C35.2514 11.263 35.1484 10.9541 34.9425 10.7315C34.7365 10.5066 34.4536 10.3942 34.0938 10.3942C33.8475 10.3942 33.6286 10.4474 33.4368 10.554C33.2474 10.6605 33.0971 10.8168 32.9858 11.0227C32.8769 11.2263 32.8224 11.4725 32.8224 11.7614ZM40.0348 15.1101C39.5069 15.1101 39.0523 14.9905 38.6712 14.7514C38.2924 14.5099 38.0012 14.1773 37.7976 13.7536C37.594 13.3298 37.4922 12.8445 37.4922 12.2976C37.4922 11.7436 37.5964 11.2547 37.8047 10.831C38.013 10.4048 38.3066 10.0722 38.6854 9.8331C39.0642 9.59399 39.5104 9.47443 40.0241 9.47443C40.4384 9.47443 40.8078 9.55137 41.1321 9.70526C41.4564 9.85677 41.718 10.0698 41.9169 10.3445C42.1181 10.6191 42.2377 10.9399 42.2756 11.3068H41.2422C41.1854 11.0511 41.0552 10.831 40.8516 10.6463C40.6503 10.4616 40.3804 10.3693 40.0419 10.3693C39.746 10.3693 39.4867 10.4474 39.2642 10.6037C39.044 10.7576 38.8724 10.9777 38.7493 11.2642C38.6262 11.5483 38.5646 11.8845 38.5646 12.2727C38.5646 12.6705 38.625 13.0137 38.7457 13.3026C38.8665 13.5914 39.0369 13.8151 39.2571 13.9737C39.4796 14.1323 39.7412 14.2116 40.0419 14.2116C40.2431 14.2116 40.4254 14.175 40.5888 14.1016C40.7545 14.0258 40.893 13.9181 41.0043 13.7784C41.1179 13.6387 41.1972 13.4706 41.2422 13.2741H42.2756C42.2377 13.6269 42.1229 13.9418 41.9311 14.2188C41.7393 14.4957 41.4825 14.7135 41.1605 14.8722C40.8409 15.0308 40.4657 15.1101 40.0348 15.1101ZM45.7619 15.1101C45.2245 15.1101 44.7617 14.9953 44.3734 14.7656C43.9875 14.5336 43.6892 14.2081 43.4785 13.7891C43.2702 13.3677 43.166 12.8741 43.166 12.3082C43.166 11.7495 43.2702 11.2571 43.4785 10.831C43.6892 10.4048 43.9828 10.0722 44.3592 9.8331C44.738 9.59399 45.1807 9.47443 45.6873 9.47443C45.9951 9.47443 46.2934 9.52533 46.5822 9.62713C46.871 9.72893 47.1303 9.88873 47.3599 10.1065C47.5895 10.3243 47.7707 10.6072 47.9032 10.9553C48.0358 11.3009 48.1021 11.7211 48.1021 12.2159V12.5923H43.7662V11.7969H47.0616C47.0616 11.5175 47.0048 11.2701 46.8912 11.0547C46.7775 10.8369 46.6177 10.6652 46.4118 10.5398C46.2082 10.4143 45.969 10.3516 45.6944 10.3516C45.3961 10.3516 45.1357 10.425 44.9132 10.5717C44.693 10.7161 44.5225 10.9055 44.4018 11.1399C44.2834 11.3719 44.2243 11.6241 44.2243 11.8963V12.5178C44.2243 12.8823 44.2882 13.1925 44.416 13.4482C44.5462 13.7038 44.7273 13.8991 44.9593 14.0341C45.1913 14.1667 45.4624 14.233 45.7725 14.233C45.9738 14.233 46.1573 14.2045 46.323 14.1477C46.4887 14.0885 46.6319 14.0009 46.7527 13.8849C46.8734 13.7689 46.9657 13.6257 47.0297 13.4553L48.0346 13.6364C47.9541 13.9323 47.8097 14.1915 47.6014 14.4141C47.3954 14.6342 47.1362 14.8059 46.8237 14.929C46.5136 15.0497 46.1596 15.1101 45.7619 15.1101ZM50.342 7.72727V15H49.2802V7.72727H50.342ZM54.1213 15.1101C53.5839 15.1101 53.121 14.9953 52.7328 14.7656C52.3469 14.5336 52.0486 14.2081 51.8379 13.7891C51.6296 13.3677 51.5254 12.8741 51.5254 12.3082C51.5254 11.7495 51.6296 11.2571 51.8379 10.831C52.0486 10.4048 52.3422 10.0722 52.7186 9.8331C53.0974 9.59399 53.5401 9.47443 54.0467 9.47443C54.3545 9.47443 54.6528 9.52533 54.9416 9.62713C55.2304 9.72893 55.4896 9.88873 55.7193 10.1065C55.9489 10.3243 56.13 10.6072 56.2626 10.9553C56.3952 11.3009 56.4615 11.7211 56.4615 12.2159V12.5923H52.1255V11.7969H55.421C55.421 11.5175 55.3642 11.2701 55.2505 11.0547C55.1369 10.8369 54.9771 10.6652 54.7711 10.5398C54.5675 10.4143 54.3284 10.3516 54.0538 10.3516C53.7555 10.3516 53.4951 10.425 53.2725 10.5717C53.0524 10.7161 52.8819 10.9055 52.7612 11.1399C52.6428 11.3719 52.5836 11.6241 52.5836 11.8963V12.5178C52.5836 12.8823 52.6475 13.1925 52.7754 13.4482C52.9056 13.7038 53.0867 13.8991 53.3187 14.0341C53.5507 14.1667 53.8218 14.233 54.1319 14.233C54.3332 14.233 54.5166 14.2045 54.6824 14.1477C54.8481 14.0885 54.9913 14.0009 55.112 13.8849C55.2328 13.7689 55.3251 13.6257 55.389 13.4553L56.394 13.6364C56.3135 13.9323 56.1691 14.1915 55.9608 14.4141C55.7548 14.6342 55.4956 14.8059 55.1831 14.929C54.8729 15.0497 54.519 15.1101 54.1213 15.1101ZM59.6815 15.1065C59.2411 15.1065 58.8481 14.9941 58.5025 14.7692C58.1592 14.5419 57.8893 14.2187 57.6928 13.7997C57.4987 13.3783 57.4016 12.8729 57.4016 12.2834C57.4016 11.6939 57.4999 11.1896 57.6964 10.7706C57.8952 10.3516 58.1675 10.0308 58.5131 9.80824C58.8588 9.5857 59.2506 9.47443 59.6886 9.47443C60.0271 9.47443 60.2994 9.53125 60.5053 9.64489C60.7137 9.75616 60.8746 9.88636 60.9883 10.0355C61.1043 10.1847 61.1942 10.3161 61.2582 10.4297H61.3221V7.72727H62.3839V15H61.3469V14.1513H61.2582C61.1942 14.2673 61.1019 14.3999 60.9812 14.549C60.8628 14.6982 60.6995 14.8284 60.4911 14.9396C60.2828 15.0509 60.0129 15.1065 59.6815 15.1065ZM59.9158 14.201C60.2212 14.201 60.4793 14.1205 60.69 13.9595C60.9031 13.7962 61.064 13.5701 61.1729 13.2812C61.2842 12.9924 61.3398 12.6562 61.3398 12.2727C61.3398 11.8939 61.2854 11.5625 61.1765 11.2784C61.0676 10.9943 60.9078 10.773 60.6971 10.6143C60.4864 10.4557 60.226 10.3764 59.9158 10.3764C59.5962 10.3764 59.3299 10.4593 59.1168 10.625C58.9038 10.7907 58.7428 11.0168 58.6339 11.3033C58.5273 11.5897 58.4741 11.9129 58.4741 12.2727C58.4741 12.6373 58.5285 12.9652 58.6374 13.2564C58.7463 13.5476 58.9073 13.7784 59.1204 13.9489C59.3358 14.117 59.601 14.201 59.9158 14.201Z" fill="#FF5454"/>
</svg>
