<svg width="47" height="47" viewBox="0 0 47 47" fill="none" xmlns="http://www.w3.org/2000/svg">
<g clip-path="url(#clip0_1_222)">
<path d="M0 0H47V47H0V0Z" fill="#246DD3"/>
<path d="M23.1304 9.08158C23.8055 8.74559 24.6387 9.51469 24.2717 10.163C24.0734 10.6775 23.2831 10.814 22.8625 10.4203C22.4393 10.0423 22.5786 9.28632 23.1438 9.06846L23.1304 9.08158ZM15.8677 9.82705C16.291 9.66431 16.7973 10.016 16.7544 10.4334C16.7973 10.8928 16.2052 11.2471 15.782 11.0161C15.2328 10.814 15.3024 9.96092 15.8677 9.82705ZM30.7575 11.0293C30.1092 10.9505 30.0101 10.0029 30.6155 9.81393C31.1111 9.59606 31.5478 10.0029 31.6175 10.4334C31.5183 10.8009 31.1942 11.1369 30.7575 11.0293ZM17.518 12.7328C18.2091 12.326 19.1789 12.9349 19.0691 13.6778C19.0423 14.4495 17.9814 14.8957 17.376 14.3813C16.7839 13.977 16.883 13.0426 17.518 12.7328ZM27.9928 13.1791C28.3036 12.4362 29.5466 12.4073 29.8976 13.1266C30.2351 13.6909 29.8118 14.3944 29.193 14.5834C28.3893 14.7199 27.6124 13.9088 27.9928 13.1791ZM22.2544 14.5309C22.2544 13.8957 22.8759 13.4205 23.5242 13.3812C23.9475 13.4599 24.411 13.6384 24.5958 14.0427C24.9334 14.5965 24.6387 15.3682 24.0172 15.6386C23.7359 15.7725 23.3983 15.7173 23.0876 15.7068C22.6214 15.489 22.2276 15.0559 22.2571 14.544V14.5309H22.2544ZM11.4527 15.4759C12.0742 15.111 12.9208 15.7725 12.6797 16.4208C12.5538 16.9642 11.7635 17.1925 11.3134 16.8408C10.8312 16.5022 10.9035 15.7068 11.4527 15.4759ZM34.6635 15.4759C35.1993 15.0716 36.0726 15.5283 36.003 16.1531C36.0458 16.7332 35.2984 17.1768 34.7626 16.8828C34.1839 16.6256 34.1143 15.8013 34.6635 15.4759ZM25.3004 16.6256C25.7403 16.4853 26.2146 16.4871 26.6533 16.6308C27.0927 16.7752 27.4677 17.0534 27.7249 17.4235C28.3732 18.316 28.0357 19.6941 27.0069 20.2059C25.9487 20.828 24.3976 20.3004 24.0038 19.1927C23.551 18.1953 24.202 16.9353 25.3004 16.6256ZM20.1541 16.7201C21.1266 16.2869 22.4393 16.6518 22.9027 17.5863C23.4653 18.505 23.0313 19.7754 22.0454 20.2479C21.0542 20.7887 19.6451 20.3818 19.1789 19.3948C18.6297 18.4499 19.1093 17.1532 20.1541 16.7174V16.7201ZM14.9943 18.3816C15.064 17.7884 15.6561 17.4104 16.2615 17.3684C16.567 17.3964 16.8537 17.5255 17.0743 17.7345C17.2949 17.9435 17.4362 18.2199 17.4751 18.5181C17.4322 19.1245 16.9393 19.7334 16.2615 19.7334C15.5007 19.7859 14.8524 19.072 14.9943 18.3816ZM30.2217 17.4892C30.9986 17.0849 32.0541 17.6939 32.0274 18.5181C32.0809 19.4106 30.8995 20.0301 30.136 19.5156C29.3323 19.0851 29.3886 17.8698 30.2217 17.4892ZM18.0538 20.6128C18.502 20.5 18.9753 20.5313 19.404 20.702C19.8326 20.8727 20.1889 21.1745 20.422 21.5578C20.6575 21.955 20.74 22.4218 20.6545 22.8735C20.569 23.3252 20.3211 23.7319 19.9558 24.0199C18.9968 24.8704 17.2233 24.5187 16.7143 23.3689C16.1222 22.3164 16.8268 20.8963 18.0538 20.6128ZM27.824 20.6128C28.7001 20.3687 29.7261 20.6915 30.1922 21.437C30.8272 22.3032 30.5191 23.5999 29.6029 24.1407C28.6143 24.789 27.1194 24.4504 26.5837 23.4372C25.9353 22.3977 26.5837 20.9225 27.824 20.5997V20.6128ZM12.243 21.5709C13.0199 21.3005 13.8772 22.1116 13.5691 22.844C13.3709 23.5054 12.385 23.7496 11.876 23.2482C11.2706 22.802 11.4956 21.7756 12.243 21.5709ZM33.3535 22.6392C33.3459 22.4909 33.3686 22.3425 33.4201 22.2028C33.4716 22.0632 33.551 21.9349 33.6535 21.8255C33.864 21.6018 34.1552 21.4671 34.4652 21.4501C34.9876 21.5315 35.51 21.9384 35.4672 22.4922C35.5234 23.2088 34.5938 23.7076 33.9455 23.3584C33.6348 23.2219 33.4794 22.9227 33.3535 22.6392ZM8.40939 21.9384C8.88625 21.7468 9.46491 22.1274 9.3524 22.613C9.32561 23.1668 8.46565 23.3821 8.14149 22.9227C7.85752 22.5998 8.0263 22.1116 8.42279 21.9384H8.40939ZM37.9479 21.9384C38.2882 21.7074 38.8079 21.857 38.9365 22.2219C39.1615 22.6261 38.7516 23.1668 38.2882 23.0986C37.6238 23.1537 37.3987 22.2061 37.9479 21.9226V21.9384ZM20.5908 24.5869C21.8177 24.2903 23.1438 25.2615 23.1572 26.4506C23.2269 27.6685 21.9302 28.75 20.6604 28.4665C20.1821 28.3843 19.7482 28.1411 19.4334 27.7788C19.122 27.4201 18.9527 26.9635 18.9566 26.4926C18.9566 25.6132 19.6611 24.7759 20.5908 24.6V24.5869ZM25.4692 24.5869C26.7256 24.2614 28.0785 25.2484 28.0651 26.4768C28.1348 27.6554 26.8649 28.6949 25.6273 28.4508C24.4699 28.3169 23.6073 27.1121 23.9341 26.0463C24.0316 25.6899 24.2257 25.3659 24.496 25.109C24.7663 24.852 25.1026 24.6716 25.4692 24.5869ZM16.0499 25.3297C16.9259 25.1959 17.743 26.0988 17.376 26.8706C17.1215 27.6948 15.8543 27.9258 15.289 27.2486C14.6273 26.6002 15.1203 25.4111 16.0499 25.3297ZM30.3771 25.3717C31.1379 25.0594 32.097 25.6946 32.0274 26.4795C32.0675 27.3457 30.8995 27.952 30.136 27.4375C29.2921 26.9782 29.4314 25.6395 30.3771 25.3717ZM34.3688 29.1542C34.0714 28.6135 34.6206 27.9127 35.2421 28.0071C35.5529 28.0071 35.7779 28.2355 35.9762 28.4376C36.0164 28.75 36.0887 29.1149 35.8047 29.3721C35.4243 29.8183 34.5778 29.6818 34.3661 29.1542H34.3688ZM11.4393 28.1568C12.018 27.7893 12.8485 28.3431 12.7252 28.9784C12.6529 29.5611 11.8921 29.884 11.3965 29.5611C10.8607 29.2619 10.8767 28.4245 11.4393 28.1541V28.1568ZM22.9858 29.359C23.7493 29.0335 24.7218 29.6687 24.6521 30.4536C24.7084 31.3303 23.5109 31.9393 22.7634 31.4117C21.9169 30.9654 22.0562 29.6267 22.9884 29.359H22.9858ZM17.6278 30.5323C18.2922 30.2094 19.1682 30.7633 19.0959 31.451C19.1227 32.0206 18.5333 32.5062 17.9546 32.4117C17.4617 32.4117 17.1375 31.9918 16.9822 31.6006C16.9822 31.1675 17.1777 30.6951 17.6439 30.5192L17.6305 30.5323H17.6278ZM28.4884 30.5323C29.1501 30.1412 30.0958 30.7082 30.0395 31.4379C30.0529 32.2254 28.9813 32.711 28.3464 32.2096C28.2104 32.1096 28.1026 31.9773 28.033 31.8253C27.9634 31.6733 27.9344 31.5064 27.9486 31.3404C27.9628 31.1743 28.0197 31.0145 28.1141 30.876C28.2086 30.7374 28.3373 30.6246 28.4884 30.5481V30.5323ZM30.3637 34.9264C30.069 34.5222 30.4173 33.9946 30.8995 33.9001C31.2933 33.9788 31.7032 34.2518 31.6041 34.6692C31.5612 35.2519 30.6718 35.4278 30.3637 34.9395V34.9264ZM15.4016 34.5615C15.5141 34.2229 15.798 33.8869 16.2186 33.9814C16.8402 34.0208 17.0223 34.9002 16.4865 35.1705C15.9936 35.4671 15.4444 35.0471 15.4016 34.5615ZM22.6214 34.9553C22.7339 34.4539 23.4251 34.2098 23.8752 34.4828C24.1592 34.6035 24.2583 34.9133 24.3279 35.1836L24.2154 35.5879C24.0306 35.8057 23.7921 36.0079 23.4948 35.9947C22.9188 36.063 22.3964 35.454 22.6214 34.9527V34.9553Z" fill="white"/>
</g>
<defs>
<clipPath id="clip0_1_222">
<rect width="47" height="47" rx="23.5" fill="white"/>
</clipPath>
</defs>
</svg>
