<svg width="22" height="22" viewBox="0 0 22 22" fill="none" xmlns="http://www.w3.org/2000/svg">
<path fill-rule="evenodd" clip-rule="evenodd" d="M6.12109 16.5631C5.70709 16.5631 5.37109 16.2271 5.37109 15.8131V8.95312C5.37109 8.53912 5.70709 8.20312 6.12109 8.20312C6.53509 8.20312 6.87109 8.53912 6.87109 8.95312V15.8131C6.87109 16.2271 6.53509 16.5631 6.12109 16.5631Z" fill="white"/>
<path fill-rule="evenodd" clip-rule="evenodd" d="M10.7881 16.561C10.3741 16.561 10.0381 16.225 10.0381 15.811V5.66797C10.0381 5.25397 10.3741 4.91797 10.7881 4.91797C11.2021 4.91797 11.5381 5.25397 11.5381 5.66797V15.811C11.5381 16.225 11.2021 16.561 10.7881 16.561Z" fill="white"/>
<path fill-rule="evenodd" clip-rule="evenodd" d="M15.3784 16.5621C14.9644 16.5621 14.6284 16.2261 14.6284 15.8121V12.5781C14.6284 12.1641 14.9644 11.8281 15.3784 11.8281C15.7924 11.8281 16.1284 12.1641 16.1284 12.5781V15.8121C16.1284 16.2261 15.7924 16.5621 15.3784 16.5621Z" fill="white"/>
<path fill-rule="evenodd" clip-rule="evenodd" d="M6.064 1.5C3.292 1.5 1.5 3.397 1.5 6.335V15.165C1.5 18.103 3.292 20 6.064 20H15.436C18.209 20 20 18.103 20 15.165V6.335C20 3.397 18.209 1.5 15.436 1.5H6.064ZM15.436 21.5H6.064C2.437 21.5 0 18.954 0 15.165V6.335C0 2.546 2.437 0 6.064 0H15.436C19.063 0 21.5 2.546 21.5 6.335V15.165C21.5 18.954 19.063 21.5 15.436 21.5Z" fill="white"/>
</svg>
