<svg width="126" height="28" viewBox="0 0 126 28" fill="none" xmlns="http://www.w3.org/2000/svg">
<path fill-rule="evenodd" clip-rule="evenodd" d="M4.82811 0.0483315C4.44503 0.0960595 3.8734 0.254824 3.56708 0.398556C2.79242 0.761948 2.41767 1.30522 2.13136 2.48005C2.05855 2.77881 2.03821 3.4458 2.00586 6.59453C1.97159 9.93571 1.95668 10.3889 1.87147 10.6816C1.65118 11.4385 1.17686 12.029 0.551443 12.3251L0.25 12.4678L0.250932 13.8513L0.251864 15.2349L0.566191 15.3701C0.95311 15.5364 1.42309 15.9687 1.60282 16.3236C1.67689 16.4698 1.78967 16.7785 1.85338 17.0094C1.96441 17.4118 1.97077 17.5907 2.00575 21.297C2.04424 25.3741 2.04555 25.3948 2.30905 26.1886C2.42359 26.5337 2.75628 27.0379 3.03442 27.288C3.32775 27.5517 3.6151 27.6955 4.1335 27.8376C4.502 27.9387 4.74543 27.9558 6.10286 27.9765L7.65174 28V26.6311V25.2622L7.03493 25.2333C6.24119 25.1962 5.88157 25.0688 5.56982 24.7144C5.15998 24.2485 5.16821 24.3285 5.12692 20.4192C5.08339 16.3009 5.08306 16.2982 4.54312 15.4717C4.27918 15.0676 4.01178 14.8237 3.30061 14.3381L2.82718 14.0148L3.51729 13.5031C4.29173 12.9289 4.59093 12.6229 4.78283 12.2086C5.0778 11.572 5.08684 11.4503 5.125 7.60944C5.15988 4.09879 5.16229 4.03883 5.28176 3.73957C5.4276 3.37421 5.7178 3.07698 6.0886 2.91322C6.30243 2.81881 6.50304 2.7866 7.00697 2.76587L7.65174 2.73926V1.37533V0.011356L6.32217 0.0195851C5.59088 0.0240836 4.91858 0.0370304 4.82811 0.0483315ZM25.7449 1.36963V2.73926L26.3897 2.76587C26.8936 2.7866 27.0942 2.81881 27.308 2.91322C27.6788 3.07698 27.969 3.37421 28.1149 3.73957C28.2343 4.03883 28.2367 4.09879 28.2716 7.60944C28.3098 11.4503 28.3188 11.572 28.6138 12.2086C28.8057 12.6229 29.1049 12.9289 29.8793 13.5031L30.5694 14.0148L30.096 14.3381C29.3848 14.8237 29.1174 15.0676 28.8535 15.4717C28.3136 16.2982 28.3132 16.3009 28.2697 20.4192C28.2284 24.3285 28.2366 24.2485 27.8268 24.7144C27.515 25.0688 27.1554 25.1962 26.3617 25.2333L25.7449 25.2622V26.6311V28L27.2938 27.9765C28.6512 27.9558 28.8946 27.9387 29.2631 27.8376C29.7815 27.6955 30.0689 27.5517 30.3622 27.288C30.6403 27.0379 30.973 26.5337 31.0876 26.1886C31.3511 25.3948 31.3524 25.3741 31.3909 21.297C31.4258 17.5907 31.4322 17.4118 31.5432 17.0094C31.6069 16.7785 31.7197 16.4698 31.7938 16.3236C31.9735 15.9687 32.4435 15.5364 32.8304 15.3701L33.1448 15.2349L33.1457 13.8513L33.1466 12.4678L32.8452 12.3251C32.2198 12.029 31.7454 11.4385 31.5251 10.6816C31.4399 10.3889 31.425 9.93571 31.3908 6.59453C31.3584 3.4458 31.3381 2.77881 31.2653 2.48005C30.9202 1.06433 30.4217 0.508221 29.1895 0.164963C28.8437 0.0686296 28.5762 0.0493739 27.2663 0.0264974L25.7449 0V1.36963ZM71.4712 6.9983V10.6936L71.0709 10.3036C70.6348 9.87855 70.2446 9.62329 69.7404 9.43287C69.4515 9.32386 69.3138 9.31009 68.5105 9.31009C67.4893 9.31009 67.129 9.38788 66.3996 9.76598C65.9397 10.0044 65.1259 10.7913 64.8463 11.2679C64.3856 12.0534 64.0411 13.1468 63.8756 14.3495C63.7577 15.2053 63.7098 17.6627 63.7905 18.7099C64.0595 22.1991 65.2964 24.1483 67.5354 24.611C68.0662 24.7207 68.9782 24.7221 69.4369 24.6139C70.1269 24.4512 70.8719 23.954 71.3997 23.3041L71.6631 22.9798L71.7416 23.7018L71.8202 24.424H73.6195H75.4188V13.8635V3.30294H73.445H71.4712V6.9983ZM115.059 13.8635V24.424H115.799H116.54L116.545 23.9439C116.548 23.68 116.566 23.2559 116.586 23.0017L116.622 22.5395L116.836 22.8646C117.274 23.5302 117.974 24.0984 118.733 24.4053C119.707 24.7989 121.267 24.7989 122.241 24.4053C123.968 23.7076 124.916 22.0428 125.204 19.2048C125.247 18.7818 125.26 17.884 125.243 16.5441C125.221 14.8143 125.201 14.4265 125.102 13.8635C124.718 11.663 123.904 10.3345 122.543 9.68797C121.929 9.39611 121.589 9.32518 120.667 9.29676C120.006 9.27635 119.743 9.29067 119.406 9.36539C118.356 9.59783 117.477 10.2209 116.86 11.1701L116.649 11.4941V7.3985V3.30294H115.854H115.059V13.8635ZM42.0561 4.20566C41.0644 4.36168 40.2691 4.65666 39.5158 5.14788C38.017 6.12537 36.9672 7.79349 36.5513 9.85869C36.3163 11.0257 36.2992 11.3342 36.2992 14.4121C36.2992 16.9592 36.313 17.4758 36.3978 18.0969C36.7988 21.0353 38.0168 23.0214 40.0256 24.0124C41.035 24.5104 41.9386 24.6974 43.3376 24.6979C45.3378 24.6987 46.9353 24.1888 48.0577 23.1914C49.342 22.0502 50.0266 20.462 50.2285 18.1562L50.2657 17.7311H48.2341H46.2024L46.1753 17.9642C46.0558 18.9968 46.0223 19.2242 45.947 19.5129C45.7198 20.3844 45.2994 20.9078 44.6507 21.1271C44.1233 21.3052 43.4239 21.3727 42.8689 21.2988C41.2727 21.0862 40.6572 20.2046 40.4353 17.8134C40.3413 16.801 40.3986 10.9846 40.5082 10.4073C40.8476 8.61935 41.4032 7.85137 42.5559 7.57685C42.962 7.48019 43.9663 7.49681 44.3863 7.60724C45.5487 7.91281 45.9744 8.61469 46.149 10.5134L46.2124 11.2028H48.2407H50.2689L50.2333 10.7776C50.1189 9.40972 49.7304 8.07108 49.1568 7.06803C48.2025 5.39903 46.7181 4.46147 44.588 4.18207C44.0145 4.10686 42.6005 4.12008 42.0561 4.20566ZM91.3736 14.4121V24.424H96.2807H101.188V23.6834V22.9428H97.0757H92.9636V13.6714V4.40014H92.1686H91.3736V14.4121ZM20.8926 4.53274C20.8022 4.57317 20.6619 4.67713 20.5809 4.76375C19.9897 5.39606 20.435 6.42995 21.2985 6.42995C22.1724 6.42995 22.6222 5.40078 22.0268 4.7637C21.7506 4.46811 21.2607 4.36838 20.8926 4.53274ZM15.6256 4.88784C15.0612 5.14437 14.7237 5.65994 14.7257 6.26241C14.7311 7.88154 16.9093 8.32585 17.5816 6.84497C17.717 6.54658 17.717 5.98416 17.5816 5.68578C17.3252 5.12105 16.8099 4.78334 16.2078 4.78537C15.9778 4.78613 15.7683 4.823 15.6256 4.88784ZM10.435 5.85749C10.0164 6.08472 10.0233 6.78621 10.4461 7.00505C10.7747 7.17506 11.1964 7.06133 11.3517 6.76092C11.6642 6.15626 11.032 5.53332 10.435 5.85749ZM12.0178 8.53723C11.5504 8.73335 11.222 9.03448 10.9962 9.47407C10.8162 9.82457 10.8043 9.88014 10.8043 10.3743C10.8043 10.8305 10.824 10.9429 10.9507 11.2135C11.1375 11.6122 11.5191 11.9941 11.9176 12.1809C12.1873 12.3074 12.3008 12.3274 12.7507 12.3274C13.2006 12.3274 13.3141 12.3074 13.5839 12.1809C13.9823 11.9941 14.364 11.6122 14.5507 11.2135C14.6771 10.9436 14.6971 10.83 14.6971 10.3799C14.6971 9.92968 14.6771 9.81612 14.5507 9.54621C14.3637 9.14699 13.9818 8.76522 13.5839 8.57969C13.1277 8.367 12.4662 8.34906 12.0178 8.53723ZM20.1582 8.48835C19.2198 8.75156 18.4251 9.59421 18.2303 10.5324C18.1404 10.9652 18.1925 11.703 18.3405 12.0929C18.5958 12.7656 19.2349 13.4072 19.9208 13.6795C20.1858 13.7846 20.3372 13.804 20.8926 13.804C21.448 13.804 21.5995 13.7846 21.8644 13.6795C22.5468 13.4086 23.1794 12.7756 23.4501 12.0929C23.5552 11.8277 23.5746 11.6762 23.5746 11.1205C23.5746 10.5647 23.5552 10.4132 23.4501 10.1481C23.1783 9.46244 22.5387 8.8242 21.8644 8.56575C21.4522 8.40776 20.5856 8.36842 20.1582 8.48835ZM55.5191 9.39611C53.3928 9.8554 51.8979 11.3808 51.2678 13.7342C51.0164 14.6732 50.9474 15.3747 50.9474 16.9905C50.9474 18.0852 50.9712 18.6363 51.0389 19.1026C51.3971 21.5724 52.4671 23.2584 54.2279 24.1276C54.972 24.495 55.6426 24.6486 56.6567 24.6839C58.6477 24.7532 60.0388 24.2571 61.1574 23.0789C62.5446 21.6177 63.1225 19.5155 63.0046 16.3596C62.9229 14.1698 62.568 12.8666 61.7025 11.5765C61.0164 10.554 59.8956 9.77382 58.6415 9.44576C57.9458 9.26373 56.2562 9.23691 55.5191 9.39611ZM81.4133 9.36391C80.2813 9.56941 79.3556 10.0588 78.595 10.8537C77.6237 11.869 77.0858 13.1495 76.8353 15.0429C76.7418 15.7499 76.7408 18.5879 76.8339 19.2397C77.0695 20.8898 77.6613 22.1725 78.6073 23.0838C79.5423 23.9846 80.5966 24.4663 82.0284 24.6466C82.6819 24.7289 84.1278 24.6842 84.6572 24.5653C85.956 24.2737 87.0891 23.6774 87.8102 22.9062C87.9909 22.7129 88.1388 22.5287 88.1388 22.497C88.1388 22.4323 86.6621 20.1449 86.6203 20.1449C86.6058 20.1449 86.4553 20.2684 86.286 20.4194C85.1698 21.4149 83.1954 21.7517 81.9961 21.1513C81.7684 21.0374 81.5394 20.8703 81.4207 20.7317C81.0358 20.2824 80.7584 19.497 80.6968 18.6816L80.6664 18.2797H84.5477H88.4291L88.396 16.7299C88.3623 15.1503 88.2887 14.383 88.0915 13.5543C87.5343 11.2118 86.2122 9.81568 84.1538 9.39595C83.4989 9.26242 82.0647 9.24563 81.4133 9.36391ZM106.342 9.36616C104.328 9.77958 102.851 11.3584 102.686 13.2737L102.652 13.6714H103.424H104.197L104.229 13.4109C104.287 12.9525 104.425 12.4921 104.592 12.2002C104.93 11.6073 105.645 11.0724 106.396 10.8497C106.829 10.7215 107.612 10.6816 108.15 10.7604C109.331 10.9333 110.007 11.427 110.348 12.3658C110.465 12.6876 110.475 12.8163 110.495 14.2338L110.518 15.7561L108.909 15.7564C107.216 15.7568 106.61 15.8107 105.799 16.033C104.243 16.4595 103.066 17.5279 102.605 18.9304C102.447 19.4132 102.43 19.5361 102.407 20.3442C102.368 21.6897 102.573 22.4871 103.159 23.2821C103.611 23.8942 104.292 24.3427 105.108 24.565C105.597 24.6984 106.809 24.7314 107.364 24.6265C108.508 24.4099 109.614 23.7129 110.29 22.7824L110.536 22.4443L110.575 22.8719C110.596 23.1069 110.655 23.5524 110.706 23.8617L110.798 24.424H111.64C112.103 24.424 112.482 24.4049 112.482 24.3816C112.482 24.3582 112.423 24.1052 112.351 23.8192C112.12 22.9028 112.099 22.4081 112.098 17.9621C112.097 13.5841 112.066 12.7618 111.879 12.0907C111.469 10.6198 110.466 9.71117 108.892 9.38624C108.296 9.26308 106.897 9.2521 106.342 9.36616ZM119.192 10.8724C118.158 11.1435 117.379 11.8133 116.868 12.8705L116.649 13.3229V17.0923V20.8617L116.793 21.1479C117.508 22.5725 118.738 23.2774 120.377 23.2018C122.272 23.1145 123.265 21.9762 123.62 19.4866C123.723 18.7633 123.723 15.2172 123.62 14.4943C123.249 11.8942 122.178 10.7596 120.103 10.7678C119.777 10.7691 119.437 10.8082 119.192 10.8724ZM56.341 12.6401C55.5361 12.9493 55.0602 13.9192 54.9064 15.5641C54.8262 16.4207 54.876 18.5307 54.9912 19.1555C55.2066 20.325 55.5768 20.9654 56.2203 21.2816C56.488 21.4131 56.5947 21.4337 56.9967 21.4313C57.3733 21.4291 57.5148 21.4032 57.7345 21.2965C58.4097 20.9685 58.8141 20.2394 58.9971 19.0203C59.1098 18.2694 59.1109 15.7731 58.9989 15.0291C58.9021 14.3869 58.7058 13.7776 58.4741 13.4009C58.0085 12.6438 57.1388 12.3336 56.341 12.6401ZM69.373 12.5747C68.5529 12.7177 68.0886 13.2714 67.8429 14.3994C67.7511 14.821 67.7278 15.1831 67.7036 16.5609C67.6414 20.1207 67.9963 21.159 69.362 21.4116C69.973 21.5247 70.694 21.3018 71.0929 20.8765C71.5033 20.4391 71.4712 20.7653 71.4712 17.032V13.6693L71.3356 13.4544C70.9088 12.7778 70.1525 12.4389 69.373 12.5747ZM82.19 12.5698C81.7144 12.7012 81.3558 12.9874 81.1448 13.4041C80.9306 13.827 80.6822 14.9345 80.6822 15.4667C80.6822 15.5221 81.0868 15.5367 82.6289 15.5367H84.5757L84.5443 15.0567C84.4276 13.2662 83.9499 12.5771 82.799 12.5391C82.5545 12.531 82.2805 12.5448 82.19 12.5698ZM16.3563 12.7698C15.9378 12.9971 15.9446 13.6985 16.3675 13.9174C16.6961 14.0874 17.1178 13.9737 17.2731 13.6733C17.5856 13.0686 16.9534 12.4457 16.3563 12.7698ZM9.60558 15.4618C9.29136 15.7763 9.51012 16.3047 9.9545 16.3047C10.1022 16.3047 10.1989 16.2646 10.3034 16.1601C10.6176 15.8456 10.3989 15.3172 9.9545 15.3172C9.8068 15.3172 9.71008 15.3573 9.60558 15.4618ZM13.7601 15.3924C13.5237 15.4995 13.2059 15.8415 13.1306 16.0698C12.965 16.5719 13.167 17.1571 13.6094 17.4568C13.7816 17.5735 13.8744 17.5939 14.2311 17.5939C14.5877 17.5939 14.6805 17.5735 14.8528 17.4568C14.9642 17.3813 15.1227 17.223 15.2051 17.1048C15.3368 16.9163 15.355 16.8388 15.355 16.4693C15.355 16.0998 15.3368 16.0223 15.2051 15.8337C14.9636 15.4876 14.7132 15.3499 14.2919 15.3316C14.0664 15.3217 13.8655 15.3447 13.7601 15.3924ZM22.2708 15.9556C22.1663 16.0602 22.1263 16.1569 22.1263 16.3047C22.1263 16.4525 22.1663 16.5493 22.2708 16.6538C22.3753 16.7584 22.472 16.7985 22.6197 16.7985C22.7674 16.7985 22.8641 16.7584 22.9686 16.6538C23.0731 16.5493 23.1131 16.4525 23.1131 16.3047C23.1131 16.1569 23.0731 16.0602 22.9686 15.9556C22.8641 15.8511 22.7674 15.811 22.6197 15.811C22.472 15.811 22.3753 15.8511 22.2708 15.9556ZM19.1994 17.0206C18.8557 17.1069 18.3413 17.4089 18.0616 17.6888C17.9118 17.8387 17.7131 18.1283 17.5926 18.3721C17.3868 18.7887 17.3837 18.8049 17.3837 19.4317C17.3837 20.0586 17.3868 20.0748 17.5926 20.4914C17.8622 21.0371 18.2191 21.3942 18.7644 21.6639C19.1808 21.8698 19.197 21.873 19.8235 21.873C20.4499 21.873 20.4662 21.8698 20.8825 21.6639C21.4279 21.3942 21.7848 21.0371 22.0544 20.4914C22.2601 20.0748 22.2633 20.0586 22.2633 19.4317C22.2633 18.8049 22.2601 18.7887 22.0544 18.3721C21.7868 17.8304 21.4273 17.469 20.8934 17.2049C20.5166 17.0186 20.4357 16.9997 19.9468 16.9842C19.6528 16.9749 19.3165 16.9913 19.1994 17.0206ZM107.191 17.1115C106.22 17.2435 105.348 17.6257 104.825 18.1497C103.907 19.0679 103.658 20.7251 104.252 21.969C104.722 22.9558 105.989 23.4199 107.447 23.1398C108.73 22.8933 109.812 22.0928 110.373 20.9755L110.508 20.705V18.8889V17.0728L108.932 17.081C108.065 17.0855 107.282 17.0992 107.191 17.1115ZM11.6888 20.0578C11.2214 20.2539 10.893 20.555 10.6673 20.9946C10.4872 21.3451 10.4754 21.4007 10.4754 21.8949C10.4754 22.351 10.495 22.4634 10.6218 22.7341C10.8085 23.1327 11.1902 23.5146 11.5886 23.7015C11.8583 23.828 11.9718 23.8479 12.4217 23.8479C12.8717 23.8479 12.9852 23.828 13.2549 23.7015C13.6533 23.5146 14.035 23.1327 14.2217 22.7341C14.3482 22.4642 14.3681 22.3506 14.3681 21.9004C14.3681 21.4502 14.3482 21.3367 14.2217 21.0668C14.0347 20.6675 13.6529 20.2858 13.2549 20.1002C12.7987 19.8876 12.1372 19.8696 11.6888 20.0578ZM17.5008 23.3617C17.3963 23.4662 17.3562 23.563 17.3562 23.7108C17.3562 23.8586 17.3963 23.9554 17.5008 24.0599C17.6053 24.1644 17.702 24.2045 17.8497 24.2045C17.9974 24.2045 18.0941 24.1644 18.1986 24.0599C18.3031 23.9554 18.3431 23.8586 18.3431 23.7108C18.3431 23.563 18.3031 23.4662 18.1986 23.3617C18.0941 23.2572 17.9974 23.217 17.8497 23.217C17.702 23.217 17.6053 23.2572 17.5008 23.3617Z" fill="#898989"/>
</svg>
