<svg width="105" height="32" viewBox="0 0 105 32" fill="none" xmlns="http://www.w3.org/2000/svg">
<path d="M32 21.5804C32 23.9335 33.9164 25.5345 36.9385 25.5345C39.936 25.5345 42.0245 24.0305 42.0245 21.6047C42.0245 19.7611 40.9925 18.8393 38.9532 18.3784L36.7665 17.869C35.7346 17.6264 35.1941 17.1898 35.1941 16.5105C35.1941 15.613 35.882 15.0793 37.0614 15.0793C38.2161 15.0793 38.9041 15.7343 38.9287 16.7531H41.7788C41.7542 14.4244 39.9115 12.8718 37.1842 12.8718C34.3833 12.8718 32.3685 14.2788 32.3685 16.6318C32.3685 18.5482 33.425 19.567 35.6118 20.0522L37.7985 20.5616C38.8795 20.8042 39.1989 21.2408 39.1989 21.8473C39.1989 22.7206 38.4373 23.2785 37.0368 23.2785C35.6609 23.2785 34.8747 22.6235 34.8501 21.5804H32Z" fill="white"/>
<path d="M46.8989 25.2191V15.71H49.2576V13.2357H46.8989V9.5H43.9014V13.2357H41.5672V15.71H43.9014V25.2191H46.8989Z" fill="white"/>
<path d="M53.1252 25.5345C55.0171 25.5345 56.6632 24.6854 57.1792 23.4483L57.4003 25.2191H60.0293V17.9417C60.0293 14.6184 58.0146 12.8718 54.7468 12.8718C51.4544 12.8718 49.2923 14.5699 49.2923 17.1655H51.8476C51.8476 15.9041 52.8304 15.1763 54.5994 15.1763C56.1227 15.1763 57.1055 15.8313 57.1055 17.4566V17.7234L53.4692 17.9903C50.5945 18.2086 48.9729 19.5913 48.9729 21.7988C48.9729 24.0547 50.5454 25.5345 53.1252 25.5345ZM54.108 23.3027C52.7566 23.3027 52.0196 22.7691 52.0196 21.6775C52.0196 20.7071 52.7321 20.1007 54.5994 19.9309L57.1301 19.7368V20.3675C57.1301 22.2111 55.9507 23.3027 54.108 23.3027Z" fill="white"/>
<path d="M69.055 13.1872C68.5636 13.0659 68.1459 13.0174 67.7283 13.0174C66.1067 13.0174 64.9519 13.8179 64.4359 15.0065L64.2639 13.26H61.4384V25.2191H64.4359V19.3972C64.4359 17.0685 65.7873 15.9283 67.9494 15.9283H69.055V13.1872Z" fill="white"/>
<path d="M68.6147 21.5804C68.6147 23.9335 70.5311 25.5345 73.5532 25.5345C76.5507 25.5345 78.6392 24.0305 78.6392 21.6047C78.6392 19.7611 77.6072 18.8393 75.5679 18.3784L73.3812 17.869C72.3493 17.6264 71.8088 17.1898 71.8088 16.5105C71.8088 15.613 72.4967 15.0793 73.6761 15.0793C74.8308 15.0793 75.5188 15.7343 75.5434 16.7531H78.3935C78.3689 14.4244 76.5262 12.8718 73.7989 12.8718C70.998 12.8718 68.9832 14.2788 68.9832 16.6318C68.9832 18.5482 70.0397 19.567 72.2264 20.0522L74.4132 20.5616C75.4942 20.8042 75.8136 21.2408 75.8136 21.8473C75.8136 22.7206 75.052 23.2785 73.6515 23.2785C72.2756 23.2785 71.4894 22.6235 71.4648 21.5804H68.6147Z" fill="white"/>
<path d="M87.6167 13.2357V19.5185C87.6167 21.7988 86.7076 22.8904 84.8158 22.8904C83.145 22.8904 82.2359 21.9686 82.2359 19.6883V13.2357H79.2384V20.7314C79.2384 23.6666 80.8846 25.5345 83.6855 25.5345C85.3071 25.5345 86.8796 24.7582 87.6167 23.6181L87.8378 25.2191H90.6142V13.2357H87.6167Z" fill="white"/>
<path d="M92.1746 28.5H95.1721V23.6181C95.9338 24.831 97.5062 25.5345 99.3244 25.5345C102.936 25.5345 105 22.8176 105 19.0819C105 15.3219 102.74 12.8718 99.3244 12.8718C97.4817 12.8718 95.8846 13.6724 95.1475 15.0551L94.951 13.2357H92.1746V28.5ZM95.1967 19.2274C95.1967 17.0685 96.548 15.5645 98.6119 15.5645C100.725 15.5645 101.978 17.0927 101.978 19.2274C101.978 21.3621 100.725 22.8661 98.6119 22.8661C96.548 22.8661 95.1967 21.3864 95.1967 19.2274Z" fill="white"/>
<g clip-path="url(#clip0_351_848)">
<path d="M22.9892 26.2215L22.9112 18.1033L22.8849 15.7149C21.1889 18.9635 17.5006 21.1142 12.1239 21.5252C12.6402 22.6171 13.2323 23.6696 13.8956 24.6752C14.8265 26.0815 15.8608 27.4141 16.9898 28.6619C17.4504 29.1877 18.0626 29.5544 18.7433 29.7124C19.4239 29.8704 20.1403 29.812 20.7947 29.545C21.449 29.278 22.0099 28.8154 22.4011 28.22C22.7924 27.6246 22.995 26.9253 22.9815 26.217L22.9892 26.2215Z" fill="#FF6D03"/>
<path d="M12.1251 21.5217C9.95866 16.9233 9.96526 12.825 11.8307 9.78945L10.1564 10.7351L3.08298 14.7243C2.51115 15.0399 2.03666 15.5113 1.71436 16.0837C1.39206 16.6561 1.2351 17.306 1.26192 17.9583C1.28998 18.664 1.54948 19.3361 1.99937 19.8689C2.44926 20.4017 3.06411 20.7652 3.74766 20.9023C6.07667 21.3972 8.45786 21.6263 10.8469 21.5853C11.279 21.5833 11.7026 21.5607 12.1251 21.5217Z" fill="#FF6D03"/>
<path d="M22.5617 8.68693L22.8888 15.8226C21.4784 19.8647 17.388 21.6366 13.1222 23.4016C13.1222 23.4016 12.6376 22.5979 12.1277 21.5177C11.6178 20.4374 13.2096 16.8719 13.2096 16.8719L22.5617 8.68693Z" fill="#A9581E"/>
<path d="M18.4914 6.33712L11.8705 9.76518C9.07738 13.0038 9.4767 17.0116 10.0833 21.5844C10.0833 21.5844 10.9299 21.6016 12.1204 21.5031C13.3108 21.4045 16.0774 18.5226 16.0774 18.5226L18.4914 6.33712Z" fill="#A9581E"/>
<path d="M18.5592 5.99887L11.8268 9.79734C9.94984 12.8262 9.95478 16.9312 12.1213 21.5296C17.4903 21.1141 21.1863 18.9679 22.8823 15.7193L22.8099 8.45302C22.8065 7.95083 22.6744 7.46053 22.4264 7.02984C22.1784 6.59916 21.823 6.24278 21.3949 5.99559C20.9667 5.74839 20.4804 5.61882 19.9834 5.61939C19.4865 5.61995 18.9958 5.7507 18.5592 5.99887Z" fill="#FFBD8D"/>
</g>
<defs>
<clipPath id="clip0_351_848">
<rect width="24" height="22" fill="white" transform="translate(11) rotate(30)"/>
</clipPath>
</defs>
</svg>
