<svg width="102" height="24" viewBox="0 0 102 24" fill="none" xmlns="http://www.w3.org/2000/svg">
<g clip-path="url(#clip0_1_456)">
<path d="M24 0H13.4485C12.914 0 12.6463 0.646285 13.0243 1.02426L22.9757 10.9757C23.3537 11.3537 24 11.086 24 10.5515V0Z" fill="#FFBD8D"/>
<path d="M18 6H2.89706C1.82797 6 1.29257 7.29257 2.04853 8.04853L15.9515 21.9515C16.7074 22.7074 18 22.172 18 21.1029V6Z" fill="#FF6D03"/>
<path fill-rule="evenodd" clip-rule="evenodd" d="M17.9998 12.7264V6H10.1183C9.98577 7.73604 10.5513 9.55148 11.9998 11C13.7299 12.7301 15.9834 13.2005 17.9998 12.7264Z" fill="#FFBD8D"/>
</g>
<path d="M29 14.5804C29 16.9335 30.9164 18.5345 33.9385 18.5345C36.936 18.5345 39.0245 17.0305 39.0245 14.6047C39.0245 12.7611 37.9925 11.8393 35.9532 11.3784L33.7665 10.869C32.7346 10.6264 32.1941 10.1898 32.1941 9.51053C32.1941 8.61299 32.882 8.07932 34.0614 8.07932C35.2161 8.07932 35.9041 8.73428 35.9287 9.75311H38.7788C38.7542 7.42435 36.9115 5.87185 34.1842 5.87185C31.3833 5.87185 29.3685 7.27881 29.3685 9.63182C29.3685 11.5482 30.425 12.567 32.6118 13.0522L34.7985 13.5616C35.8795 13.8042 36.1989 14.2408 36.1989 14.8473C36.1989 15.7206 35.4373 16.2785 34.0368 16.2785C32.6609 16.2785 31.8747 15.6235 31.8501 14.5804H29Z" fill="white"/>
<path d="M43.8989 18.2191V8.71002H46.2576V6.23572H43.8989V2.5H40.9014V6.23572H38.5672V8.71002H40.9014V18.2191H43.8989Z" fill="white"/>
<path d="M50.1252 18.5345C52.0171 18.5345 53.6632 17.6854 54.1792 16.4483L54.4003 18.2191H57.0293V10.9417C57.0293 7.61842 55.0146 5.87185 51.7468 5.87185C48.4544 5.87185 46.2923 7.5699 46.2923 10.1655H48.8476C48.8476 8.90409 49.8304 8.17635 51.5994 8.17635C53.1227 8.17635 54.1055 8.83131 54.1055 10.4566V10.7234L50.4692 10.9903C47.5945 11.2086 45.9729 12.5913 45.9729 14.7988C45.9729 17.0547 47.5454 18.5345 50.1252 18.5345ZM51.108 16.3027C49.7566 16.3027 49.0196 15.7691 49.0196 14.6775C49.0196 13.7071 49.7321 13.1007 51.5994 12.9309L54.1301 12.7368V13.3675C54.1301 15.2111 52.9507 16.3027 51.108 16.3027Z" fill="white"/>
<path d="M66.055 6.1872C65.5636 6.06591 65.1459 6.0174 64.7283 6.0174C63.1067 6.0174 61.9519 6.81791 61.4359 8.00654L61.2639 6.25997H58.4384V18.2191H61.4359V12.3972C61.4359 10.0685 62.7873 8.92834 64.9494 8.92834H66.055V6.1872Z" fill="white"/>
<path d="M65.6147 14.5804C65.6147 16.9335 67.5311 18.5345 70.5532 18.5345C73.5507 18.5345 75.6392 17.0305 75.6392 14.6047C75.6392 12.7611 74.6072 11.8393 72.5679 11.3784L70.3812 10.869C69.3493 10.6264 68.8088 10.1898 68.8088 9.51053C68.8088 8.61299 69.4967 8.07932 70.6761 8.07932C71.8308 8.07932 72.5188 8.73428 72.5434 9.75311H75.3935C75.3689 7.42435 73.5262 5.87185 70.7989 5.87185C67.998 5.87185 65.9832 7.27881 65.9832 9.63182C65.9832 11.5482 67.0397 12.567 69.2264 13.0522L71.4132 13.5616C72.4942 13.8042 72.8136 14.2408 72.8136 14.8473C72.8136 15.7206 72.052 16.2785 70.6515 16.2785C69.2756 16.2785 68.4894 15.6235 68.4648 14.5804H65.6147Z" fill="white"/>
<path d="M84.6167 6.23572V12.5185C84.6167 14.7988 83.7076 15.8904 81.8158 15.8904C80.145 15.8904 79.2359 14.9686 79.2359 12.6883V6.23572H76.2384V13.7314C76.2384 16.6666 77.8846 18.5345 80.6855 18.5345C82.3071 18.5345 83.8796 17.7582 84.6167 16.6181L84.8378 18.2191H87.6142V6.23572H84.6167Z" fill="white"/>
<path d="M89.1746 21.5H92.1721V16.6181C92.9338 17.831 94.5062 18.5345 96.3244 18.5345C99.9361 18.5345 102 15.8176 102 12.0819C102 8.3219 99.7396 5.87185 96.3244 5.87185C94.4817 5.87185 92.8846 6.67236 92.1475 8.05506L91.951 6.23572H89.1746V21.5ZM92.1967 12.2274C92.1967 10.0685 93.548 8.56447 95.6119 8.56447C97.7249 8.56447 98.9779 10.0927 98.9779 12.2274C98.9779 14.3621 97.7249 15.8661 95.6119 15.8661C93.548 15.8661 92.1967 14.3864 92.1967 12.2274Z" fill="white"/>
<defs>
<clipPath id="clip0_1_456">
<rect width="24" height="24" fill="white"/>
</clipPath>
</defs>
</svg>
