<svg width="83" height="22" viewBox="0 0 83 22" fill="none" xmlns="http://www.w3.org/2000/svg">
<rect width="83" height="22" rx="8" fill="#14C67A" fill-opacity="0.3"/>
<path d="M24.8395 10.0923H23.7315C23.6889 9.85559 23.6096 9.64725 23.4936 9.46733C23.3776 9.28741 23.2356 9.13471 23.0675 9.00923C22.8994 8.88376 22.7112 8.78906 22.5028 8.72514C22.2969 8.66122 22.0779 8.62926 21.8459 8.62926C21.4268 8.62926 21.0516 8.73461 20.7202 8.94531C20.3911 9.15601 20.1307 9.46496 19.9389 9.87216C19.7495 10.2794 19.6548 10.7765 19.6548 11.3636C19.6548 11.9555 19.7495 12.455 19.9389 12.8622C20.1307 13.2694 20.3923 13.5772 20.7237 13.7855C21.0552 13.9938 21.428 14.098 21.8423 14.098C22.072 14.098 22.2898 14.0672 22.4957 14.0057C22.7041 13.9418 22.8923 13.8482 23.0604 13.7251C23.2285 13.602 23.3705 13.4517 23.4865 13.2741C23.6049 13.0942 23.6866 12.8883 23.7315 12.6562L24.8395 12.6598C24.7803 13.0173 24.6655 13.3464 24.495 13.647C24.3269 13.9453 24.1103 14.2034 23.8452 14.4212C23.5824 14.6366 23.2817 14.8035 22.9432 14.9219C22.6046 15.0402 22.2353 15.0994 21.8352 15.0994C21.2055 15.0994 20.6444 14.9503 20.152 14.652C19.6596 14.3513 19.2713 13.9216 18.9872 13.3629C18.7055 12.8042 18.5646 12.1378 18.5646 11.3636C18.5646 10.5871 18.7067 9.92069 18.9908 9.36435C19.2749 8.80563 19.6631 8.37713 20.1555 8.07884C20.648 7.77817 21.2079 7.62784 21.8352 7.62784C22.2211 7.62784 22.581 7.68348 22.9148 7.79474C23.2509 7.90365 23.5528 8.06463 23.8203 8.2777C24.0878 8.4884 24.3092 8.74645 24.4844 9.05185C24.6596 9.35488 24.7779 9.7017 24.8395 10.0923ZM28.3649 15.1101C27.8535 15.1101 27.4073 14.9929 27.0261 14.7585C26.6449 14.5241 26.349 14.1963 26.1383 13.7749C25.9276 13.3535 25.8223 12.861 25.8223 12.2976C25.8223 11.7318 25.9276 11.237 26.1383 10.8132C26.349 10.3894 26.6449 10.0604 27.0261 9.82599C27.4073 9.59162 27.8535 9.47443 28.3649 9.47443C28.8762 9.47443 29.3225 9.59162 29.7037 9.82599C30.0848 10.0604 30.3807 10.3894 30.5914 10.8132C30.8021 11.237 30.9075 11.7318 30.9075 12.2976C30.9075 12.861 30.8021 13.3535 30.5914 13.7749C30.3807 14.1963 30.0848 14.5241 29.7037 14.7585C29.3225 14.9929 28.8762 15.1101 28.3649 15.1101ZM28.3684 14.2188C28.6999 14.2188 28.9745 14.1312 29.1923 13.956C29.4101 13.7808 29.5711 13.5476 29.6752 13.2564C29.7818 12.9652 29.835 12.6444 29.835 12.294C29.835 11.946 29.7818 11.6264 29.6752 11.3352C29.5711 11.0417 29.4101 10.8061 29.1923 10.6286C28.9745 10.451 28.6999 10.3622 28.3684 10.3622C28.0346 10.3622 27.7576 10.451 27.5375 10.6286C27.3197 10.8061 27.1575 11.0417 27.051 11.3352C26.9468 11.6264 26.8947 11.946 26.8947 12.294C26.8947 12.6444 26.9468 12.9652 27.051 13.2564C27.1575 13.5476 27.3197 13.7808 27.5375 13.956C27.7576 14.1312 28.0346 14.2188 28.3684 14.2188ZM32.0927 15V9.54545H33.1119V10.4332H33.1793C33.293 10.1326 33.4788 9.8982 33.7369 9.73011C33.9949 9.55966 34.3039 9.47443 34.6637 9.47443C35.0283 9.47443 35.3337 9.55966 35.5799 9.73011C35.8285 9.90057 36.012 10.1349 36.1303 10.4332H36.1871C36.3174 10.142 36.5245 9.91004 36.8086 9.73722C37.0927 9.56203 37.4312 9.47443 37.8242 9.47443C38.319 9.47443 38.7227 9.6295 39.0352 9.93963C39.35 10.2498 39.5075 10.7173 39.5075 11.3423V15H38.4457V11.4418C38.4457 11.0724 38.3451 10.8049 38.1438 10.6392C37.9426 10.4735 37.7023 10.3906 37.4229 10.3906C37.0773 10.3906 36.8086 10.4972 36.6168 10.7102C36.4251 10.9209 36.3292 11.192 36.3292 11.5234V15H35.271V11.3743C35.271 11.0784 35.1786 10.8404 34.994 10.6605C34.8093 10.4806 34.569 10.3906 34.2731 10.3906C34.0719 10.3906 33.886 10.4439 33.7156 10.5504C33.5475 10.6546 33.4113 10.8002 33.3072 10.9872C33.2054 11.1742 33.1545 11.3909 33.1545 11.6371V15H32.0927ZM40.9306 17.0455V9.54545H41.9675V10.4297H42.0563C42.1178 10.3161 42.2066 10.1847 42.3226 10.0355C42.4386 9.88636 42.5996 9.75616 42.8056 9.64489C43.0115 9.53125 43.2838 9.47443 43.6223 9.47443C44.0627 9.47443 44.4557 9.5857 44.8013 9.80824C45.147 10.0308 45.418 10.3516 45.6145 10.7706C45.8134 11.1896 45.9128 11.6939 45.9128 12.2834C45.9128 12.8729 45.8146 13.3783 45.6181 13.7997C45.4216 14.2187 45.1517 14.5419 44.8084 14.7692C44.4651 14.9941 44.0733 15.1065 43.633 15.1065C43.3016 15.1065 43.0305 15.0509 42.8198 14.9396C42.6114 14.8284 42.4481 14.6982 42.3297 14.549C42.2114 14.3999 42.1202 14.2673 42.0563 14.1513H41.9924V17.0455H40.9306ZM41.9711 12.2727C41.9711 12.6562 42.0267 12.9924 42.138 13.2812C42.2492 13.5701 42.4102 13.7962 42.6209 13.9595C42.8316 14.1205 43.0897 14.201 43.3951 14.201C43.7123 14.201 43.9775 14.117 44.1905 13.9489C44.4036 13.7784 44.5646 13.5476 44.6735 13.2564C44.7847 12.9652 44.8404 12.6373 44.8404 12.2727C44.8404 11.9129 44.7859 11.5897 44.677 11.3033C44.5705 11.0168 44.4095 10.7907 44.1941 10.625C43.981 10.4593 43.7147 10.3764 43.3951 10.3764C43.0873 10.3764 42.8269 10.4557 42.6138 10.6143C42.4031 10.773 42.2433 10.9943 42.1344 11.2784C42.0255 11.5625 41.9711 11.8939 41.9711 12.2727ZM48.1642 7.72727V15H47.1025V7.72727H48.1642ZM51.9435 15.1101C51.4061 15.1101 50.9433 14.9953 50.555 14.7656C50.1692 14.5336 49.8709 14.2081 49.6602 13.7891C49.4518 13.3677 49.3477 12.8741 49.3477 12.3082C49.3477 11.7495 49.4518 11.2571 49.6602 10.831C49.8709 10.4048 50.1644 10.0722 50.5408 9.8331C50.9196 9.59399 51.3623 9.47443 51.869 9.47443C52.1767 9.47443 52.475 9.52533 52.7638 9.62713C53.0527 9.72893 53.3119 9.88873 53.5415 10.1065C53.7712 10.3243 53.9523 10.6072 54.0849 10.9553C54.2174 11.3009 54.2837 11.7211 54.2837 12.2159V12.5923H49.9478V11.7969H53.2433C53.2433 11.5175 53.1864 11.2701 53.0728 11.0547C52.9592 10.8369 52.7994 10.6652 52.5934 10.5398C52.3898 10.4143 52.1507 10.3516 51.8761 10.3516C51.5778 10.3516 51.3174 10.425 51.0948 10.5717C50.8746 10.7161 50.7042 10.9055 50.5835 11.1399C50.4651 11.3719 50.4059 11.6241 50.4059 11.8963V12.5178C50.4059 12.8823 50.4698 13.1925 50.5977 13.4482C50.7279 13.7038 50.909 13.8991 51.141 14.0341C51.373 14.1667 51.6441 14.233 51.9542 14.233C52.1554 14.233 52.3389 14.2045 52.5046 14.1477C52.6703 14.0885 52.8136 14.0009 52.9343 13.8849C53.055 13.7689 53.1474 13.6257 53.2113 13.4553L54.2163 13.6364C54.1358 13.9323 53.9914 14.1915 53.783 14.4141C53.5771 14.6342 53.3178 14.8059 53.0053 14.929C52.6952 15.0497 52.3413 15.1101 51.9435 15.1101ZM58.008 9.54545V10.3977H55.0286V9.54545H58.008ZM55.8276 8.23864H56.8894V13.3984C56.8894 13.6044 56.9202 13.7595 56.9817 13.8636C57.0433 13.9654 57.1226 14.0353 57.2196 14.0732C57.3191 14.1087 57.4268 14.1264 57.5428 14.1264C57.628 14.1264 57.7026 14.1205 57.7665 14.1087C57.8304 14.0968 57.8801 14.0874 57.9157 14.0803L58.1074 14.9574C58.0459 14.9811 57.9583 15.0047 57.8446 15.0284C57.731 15.0545 57.589 15.0687 57.4185 15.071C57.1391 15.0758 56.8787 15.026 56.6373 14.9219C56.3958 14.8177 56.2005 14.6567 56.0513 14.4389C55.9022 14.2211 55.8276 13.9477 55.8276 13.6186V8.23864ZM61.4748 15.1101C60.9374 15.1101 60.4746 14.9953 60.0863 14.7656C59.7004 14.5336 59.4021 14.2081 59.1914 13.7891C58.9831 13.3677 58.8789 12.8741 58.8789 12.3082C58.8789 11.7495 58.9831 11.2571 59.1914 10.831C59.4021 10.4048 59.6957 10.0722 60.0721 9.8331C60.4509 9.59399 60.8936 9.47443 61.4002 9.47443C61.708 9.47443 62.0063 9.52533 62.2951 9.62713C62.5839 9.72893 62.8432 9.88873 63.0728 10.1065C63.3024 10.3243 63.4835 10.6072 63.6161 10.9553C63.7487 11.3009 63.815 11.7211 63.815 12.2159V12.5923H59.479V11.7969H62.7745C62.7745 11.5175 62.7177 11.2701 62.604 11.0547C62.4904 10.8369 62.3306 10.6652 62.1246 10.5398C61.921 10.4143 61.6819 10.3516 61.4073 10.3516C61.109 10.3516 60.8486 10.425 60.6261 10.5717C60.4059 10.7161 60.2354 10.9055 60.1147 11.1399C59.9963 11.3719 59.9371 11.6241 59.9371 11.8963V12.5178C59.9371 12.8823 60.0011 13.1925 60.1289 13.4482C60.2591 13.7038 60.4402 13.8991 60.6722 14.0341C60.9042 14.1667 61.1753 14.233 61.4854 14.233C61.6867 14.233 61.8701 14.2045 62.0359 14.1477C62.2016 14.0885 62.3448 14.0009 62.4656 13.8849C62.5863 13.7689 62.6786 13.6257 62.7425 13.4553L63.7475 13.6364C63.667 13.9323 63.5226 14.1915 63.3143 14.4141C63.1083 14.6342 62.8491 14.8059 62.5366 14.929C62.2264 15.0497 61.8725 15.1101 61.4748 15.1101Z" fill="#14C67A"/>
</svg>
