<svg width="32" height="32" viewBox="0 0 32 32" fill="none" xmlns="http://www.w3.org/2000/svg">
<circle cx="16" cy="16" r="16" fill="white"/>
<path d="M16.1704 16.3249C16.1704 14.7539 17.4898 13.4785 19.1149 13.4785C20.7401 13.4785 22.0594 14.7539 22.0594 16.3249C22.0594 17.8959 20.7401 19.1712 19.1149 19.1712C17.4898 19.1712 16.1704 17.8959 16.1704 16.3249Z" fill="#010101"/>
<path d="M10 22.3117C10 20.5782 11.4513 19.1709 13.239 19.1709H16.4779V22.3117C16.4779 24.0452 15.0266 25.4525 13.239 25.4525C11.4513 25.4525 10 24.0452 10 22.3117Z" fill="#010101"/>
<path d="M16.1704 7.00961V13.4779H19.1149C20.7401 13.4779 22.0594 12.0266 22.0594 10.239C22.0594 8.45128 20.7401 7 19.1149 7H16.1704V7.00961Z" fill="#010101"/>
<path d="M10 10.2342C10 12.0245 11.4513 13.4779 13.239 13.4779H16.4779V7.00005H13.239C11.4513 6.99042 10 8.44385 10 10.2342Z" fill="#010101"/>
<path d="M10 16.3207C10 17.894 11.4513 19.1712 13.239 19.1712H16.4779V13.4786H13.239C11.4513 13.4701 10 14.7474 10 16.3207Z" fill="#010101"/>
</svg>
