<svg width="34" height="34" viewBox="0 0 34 34" fill="none" xmlns="http://www.w3.org/2000/svg">
<rect width="34" height="34" rx="10" fill="#2C2C2C"/>
<path fill-rule="evenodd" clip-rule="evenodd" d="M15.0801 22.5928H8.77905C8.36505 22.5928 8.02905 22.2568 8.02905 21.8428C8.02905 21.4288 8.36505 21.0928 8.77905 21.0928H15.0801C15.4941 21.0928 15.8301 21.4288 15.8301 21.8428C15.8301 22.2568 15.4941 22.5928 15.0801 22.5928Z" fill="#7A7A7A"/>
<path fill-rule="evenodd" clip-rule="evenodd" d="M24.1909 12.9004H17.8909C17.4769 12.9004 17.1409 12.5644 17.1409 12.1504C17.1409 11.7364 17.4769 11.4004 17.8909 11.4004H24.1909C24.6049 11.4004 24.9409 11.7364 24.9409 12.1504C24.9409 12.5644 24.6049 12.9004 24.1909 12.9004Z" fill="#7A7A7A"/>
<mask id="mask0_710_163" style="mask-type:luminance" maskUnits="userSpaceOnUse" x="8" y="9" width="7" height="7">
<path fill-rule="evenodd" clip-rule="evenodd" d="M8 9H14.2258V15.1916H8V9Z" fill="white"/>
</mask>
<g mask="url(#mask0_710_163)">
<path fill-rule="evenodd" clip-rule="evenodd" d="M11.1128 10.5C10.2238 10.5 9.49976 11.216 9.49976 12.097C9.49976 12.977 10.2238 13.692 11.1128 13.692C12.0028 13.692 12.7258 12.977 12.7258 12.097C12.7258 11.216 12.0028 10.5 11.1128 10.5ZM11.1128 15.192C9.39676 15.192 7.99976 13.804 7.99976 12.097C7.99976 10.39 9.39676 9 11.1128 9C12.8298 9 14.2258 10.39 14.2258 12.097C14.2258 13.804 12.8298 15.192 11.1128 15.192Z" fill="#7A7A7A"/>
</g>
<path fill-rule="evenodd" clip-rule="evenodd" d="M22.3877 20.208C21.4977 20.208 20.7737 20.924 20.7737 21.804C20.7737 22.685 21.4977 23.4 22.3877 23.4C23.2767 23.4 23.9997 22.685 23.9997 21.804C23.9997 20.924 23.2767 20.208 22.3877 20.208ZM22.3877 24.9C20.6707 24.9 19.2737 23.511 19.2737 21.804C19.2737 20.097 20.6707 18.708 22.3877 18.708C24.1037 18.708 25.4997 20.097 25.4997 21.804C25.4997 23.511 24.1037 24.9 22.3877 24.9Z" fill="#7A7A7A"/>
</svg>
