<svg width="83" height="22" viewBox="0 0 83 22" fill="none" xmlns="http://www.w3.org/2000/svg">
<rect width="83" height="22" rx="8" fill="#54A3FF" fill-opacity="0.3"/>
<path d="M21.799 15V7.72727H26.3089V8.67188H22.8963V10.8878H25.9858V11.8288H22.8963V15H21.799ZM27.5732 15V9.54545H28.6349V15H27.5732ZM28.1094 8.70384C27.9247 8.70384 27.7661 8.64228 27.6335 8.51918C27.5033 8.3937 27.4382 8.24455 27.4382 8.07173C27.4382 7.89654 27.5033 7.7474 27.6335 7.62429C27.7661 7.49882 27.9247 7.43608 28.1094 7.43608C28.294 7.43608 28.4515 7.49882 28.5817 7.62429C28.7143 7.7474 28.7805 7.89654 28.7805 8.07173C28.7805 8.24455 28.7143 8.3937 28.5817 8.51918C28.4515 8.64228 28.294 8.70384 28.1094 8.70384ZM31.1252 11.7614V15H30.0634V9.54545H31.0826V10.4332H31.15C31.2755 10.1444 31.472 9.91241 31.7395 9.73722C32.0094 9.56203 32.3491 9.47443 32.7587 9.47443C33.1304 9.47443 33.4559 9.55256 33.7353 9.70881C34.0146 9.86269 34.2312 10.0923 34.3851 10.3977C34.539 10.7031 34.6159 11.0807 34.6159 11.5305V15H33.5542V11.6584C33.5542 11.263 33.4512 10.9541 33.2452 10.7315C33.0392 10.5066 32.7563 10.3942 32.3965 10.3942C32.1503 10.3942 31.9313 10.4474 31.7395 10.554C31.5501 10.6605 31.3998 10.8168 31.2885 11.0227C31.1796 11.2263 31.1252 11.4725 31.1252 11.7614ZM36.04 15V9.54545H37.1017V15H36.04ZM36.5762 8.70384C36.3915 8.70384 36.2329 8.64228 36.1003 8.51918C35.9701 8.3937 35.905 8.24455 35.905 8.07173C35.905 7.89654 35.9701 7.7474 36.1003 7.62429C36.2329 7.49882 36.3915 7.43608 36.5762 7.43608C36.7608 7.43608 36.9183 7.49882 37.0485 7.62429C37.181 7.7474 37.2473 7.89654 37.2473 8.07173C37.2473 8.24455 37.181 8.3937 37.0485 8.51918C36.9183 8.64228 36.7608 8.70384 36.5762 8.70384ZM42.6175 10.8771L41.6552 11.0476C41.6149 10.9245 41.551 10.8073 41.4634 10.696C41.3782 10.5848 41.2622 10.4936 41.1154 10.4226C40.9686 10.3516 40.7852 10.3161 40.565 10.3161C40.2643 10.3161 40.0134 10.3835 39.8121 10.5185C39.6109 10.651 39.5103 10.8227 39.5103 11.0334C39.5103 11.2157 39.5778 11.3625 39.7127 11.4737C39.8477 11.585 40.0655 11.6761 40.3661 11.7472L41.2326 11.946C41.7345 12.062 42.1085 12.2408 42.3548 12.4822C42.601 12.7237 42.7241 13.0374 42.7241 13.4233C42.7241 13.75 42.6294 14.0412 42.44 14.2969C42.253 14.5502 41.9914 14.7491 41.6552 14.8935C41.3214 15.0379 40.9343 15.1101 40.494 15.1101C39.8832 15.1101 39.3848 14.9799 38.9989 14.7195C38.613 14.4567 38.3763 14.0838 38.2887 13.6009L39.315 13.4446C39.3789 13.7121 39.5103 13.9145 39.7092 14.0518C39.908 14.1868 40.1673 14.2543 40.4869 14.2543C40.8349 14.2543 41.113 14.1821 41.3214 14.0376C41.5297 13.8909 41.6339 13.7121 41.6339 13.5014C41.6339 13.331 41.57 13.1877 41.4421 13.0717C41.3166 12.9557 41.1237 12.8681 40.8633 12.8089L39.94 12.6065C39.431 12.4905 39.0546 12.3059 38.8107 12.0526C38.5692 11.7992 38.4485 11.4785 38.4485 11.0902C38.4485 10.7682 38.5385 10.4865 38.7184 10.245C38.8983 10.0036 39.1469 9.81534 39.4641 9.6804C39.7814 9.54309 40.1448 9.47443 40.5543 9.47443C41.1438 9.47443 41.6078 9.60227 41.9464 9.85795C42.2849 10.1113 42.5086 10.451 42.6175 10.8771ZM44.9533 11.7614V15H43.8915V7.72727H44.9391V10.4332H45.0066C45.1344 10.1397 45.3297 9.90649 45.5925 9.73366C45.8553 9.56084 46.1986 9.47443 46.6223 9.47443C46.9964 9.47443 47.3231 9.55137 47.6025 9.70526C47.8842 9.85914 48.102 10.0888 48.2559 10.3942C48.4121 10.6972 48.4902 11.076 48.4902 11.5305V15H47.4284V11.6584C47.4284 11.2583 47.3255 10.9482 47.1195 10.728C46.9135 10.5054 46.6271 10.3942 46.2601 10.3942C46.0092 10.3942 45.7843 10.4474 45.5854 10.554C45.3889 10.6605 45.2338 10.8168 45.1202 11.0227C45.0089 11.2263 44.9533 11.4725 44.9533 11.7614ZM52.258 15.1101C51.7206 15.1101 51.2578 14.9953 50.8695 14.7656C50.4836 14.5336 50.1853 14.2081 49.9746 13.7891C49.7663 13.3677 49.6621 12.8741 49.6621 12.3082C49.6621 11.7495 49.7663 11.2571 49.9746 10.831C50.1853 10.4048 50.4789 10.0722 50.8553 9.8331C51.2341 9.59399 51.6768 9.47443 52.1834 9.47443C52.4912 9.47443 52.7895 9.52533 53.0783 9.62713C53.3671 9.72893 53.6264 9.88873 53.856 10.1065C54.0856 10.3243 54.2667 10.6072 54.3993 10.9553C54.5319 11.3009 54.5982 11.7211 54.5982 12.2159V12.5923H50.2623V11.7969H53.5577C53.5577 11.5175 53.5009 11.2701 53.3873 11.0547C53.2736 10.8369 53.1138 10.6652 52.9078 10.5398C52.7042 10.4143 52.4651 10.3516 52.1905 10.3516C51.8922 10.3516 51.6318 10.425 51.4093 10.5717C51.1891 10.7161 51.0186 10.9055 50.8979 11.1399C50.7795 11.3719 50.7203 11.6241 50.7203 11.8963V12.5178C50.7203 12.8823 50.7843 13.1925 50.9121 13.4482C51.0423 13.7038 51.2234 13.8991 51.4554 14.0341C51.6874 14.1667 51.9585 14.233 52.2686 14.233C52.4699 14.233 52.6534 14.2045 52.8191 14.1477C52.9848 14.0885 53.128 14.0009 53.2488 13.8849C53.3695 13.7689 53.4618 13.6257 53.5257 13.4553L54.5307 13.6364C54.4502 13.9323 54.3058 14.1915 54.0975 14.4141C53.8915 14.6342 53.6323 14.8059 53.3198 14.929C53.0096 15.0497 52.6557 15.1101 52.258 15.1101ZM57.8182 15.1065C57.3778 15.1065 56.9848 14.9941 56.6392 14.7692C56.2959 14.5419 56.026 14.2187 55.8295 13.7997C55.6354 13.3783 55.5384 12.8729 55.5384 12.2834C55.5384 11.6939 55.6366 11.1896 55.8331 10.7706C56.032 10.3516 56.3042 10.0308 56.6499 9.80824C56.9955 9.5857 57.3873 9.47443 57.8253 9.47443C58.1638 9.47443 58.4361 9.53125 58.642 9.64489C58.8504 9.75616 59.0114 9.88636 59.125 10.0355C59.241 10.1847 59.331 10.3161 59.3949 10.4297H59.4588V7.72727H60.5206V15H59.4837V14.1513H59.3949C59.331 14.2673 59.2386 14.3999 59.1179 14.549C58.9995 14.6982 58.8362 14.8284 58.6278 14.9396C58.4195 15.0509 58.1496 15.1065 57.8182 15.1065ZM58.0526 14.201C58.358 14.201 58.616 14.1205 58.8267 13.9595C59.0398 13.7962 59.2008 13.5701 59.3097 13.2812C59.4209 12.9924 59.4766 12.6562 59.4766 12.2727C59.4766 11.8939 59.4221 11.5625 59.3132 11.2784C59.2043 10.9943 59.0445 10.773 58.8338 10.6143C58.6231 10.4557 58.3627 10.3764 58.0526 10.3764C57.733 10.3764 57.4666 10.4593 57.2536 10.625C57.0405 10.7907 56.8795 11.0168 56.7706 11.3033C56.6641 11.5897 56.6108 11.9129 56.6108 12.2727C56.6108 12.6373 56.6652 12.9652 56.7741 13.2564C56.883 13.5476 57.044 13.7784 57.2571 13.9489C57.4725 14.117 57.7377 14.201 58.0526 14.201Z" fill="#54A3FF"/>
</svg>
