<svg width="121" height="28" viewBox="0 0 121 28" fill="none" xmlns="http://www.w3.org/2000/svg">
<path fill-rule="evenodd" clip-rule="evenodd" d="M0.5 7.18332C0.5 12.359 0.514432 14.381 0.551684 14.4182C0.580127 14.4465 3.68966 16.1689 7.46175 18.2457L14.32 22.0217L12.8104 23.5293L11.3007 25.037L12.8196 26.5185C13.655 27.3333 14.3526 28 14.3699 28C14.3872 28 15.0848 27.3333 15.9202 26.5185L17.4391 25.037L15.9294 23.5293L14.4198 22.0217L21.2781 18.2457C25.0501 16.1689 28.1597 14.4465 28.1881 14.4182C28.2254 14.381 28.2398 12.359 28.2398 7.18332C28.2398 3.23249 28.2291 0 28.216 0C28.2029 0 25.0985 1.99064 21.3173 4.42367C17.5361 6.85671 14.4098 8.84739 14.3699 8.84739C14.33 8.84739 11.2037 6.85671 7.42249 4.42367C3.6413 1.99064 0.536924 0 0.523804 0C0.51073 0 0.5 3.23249 0.5 7.18332ZM50.3332 6.33683C49.4663 6.44528 48.5491 6.74588 47.8966 7.13531C46.2234 8.13406 45.1674 9.89677 44.7984 12.3069C44.6779 13.0942 44.6783 14.9659 44.7993 15.7631C45.3829 19.6119 47.6587 21.7193 51.2295 21.7178C52.3265 21.7174 53.255 21.5281 54.0928 21.1342C55.8542 20.306 57.0462 18.641 57.5015 16.3731C57.6651 15.5576 57.7133 15.0181 57.7133 14.0015C57.7133 12.1744 57.4499 10.8773 56.819 9.598C55.7503 7.431 53.7821 6.28601 51.1707 6.31226C50.7874 6.31609 50.4106 6.32716 50.3332 6.33683ZM33.3473 14.0117V21.3912H34.917H36.4868V18.3786V15.3661H38.6891H40.8914V14.2219V13.0776H38.6891H36.4868V10.9992V8.92077H39.0171C40.5373 8.92077 41.5474 8.90349 41.5474 8.87752C41.5474 8.85375 41.6212 8.34479 41.7114 7.7465C41.8016 7.14824 41.8754 6.65274 41.8754 6.64546C41.8754 6.63817 39.9566 6.63219 37.6114 6.63219H33.3473V14.0117ZM60.6185 6.6704C60.6185 6.69142 61.473 8.24685 62.5174 10.1269L64.4164 13.5452L62.3474 17.4331C61.2094 19.5715 60.2693 21.3369 60.2582 21.3561C60.2472 21.3754 60.9932 21.3907 61.9161 21.3902L63.594 21.3893L64.9255 18.4945C65.6579 16.9023 66.2681 15.6107 66.2817 15.6242C66.2953 15.6377 66.909 16.9356 67.6456 18.5083L68.9849 21.3678L70.711 21.38C72.0862 21.3899 72.4323 21.3803 72.4133 21.3333C72.4002 21.3009 71.4393 19.5107 70.278 17.3551C69.1168 15.1995 68.174 13.4236 68.183 13.4085C68.4867 12.9006 72.005 6.6994 72.005 6.67194C72.005 6.65008 71.2663 6.63219 70.3634 6.63219H68.722L67.8456 8.41868C67.3637 9.40123 66.8214 10.5054 66.6405 10.8723L66.3118 11.5395L65.1637 9.08652L64.0157 6.63359L62.3171 6.63289C61.3829 6.63252 60.6185 6.64938 60.6185 6.6704ZM79.0805 14.0817V21.3912H79.7128H80.3451L80.3571 17.8299L80.3691 14.2686L83.8248 14.2566L87.2806 14.2446V17.8192V21.3938L87.9249 21.3808L88.5692 21.3678V14.0817V6.79566L87.9249 6.78268L87.2806 6.76969V9.97062V13.1716L83.8248 13.1596L80.3691 13.1476L80.357 9.95997L80.345 6.77231H79.7127H79.0805V14.0817ZM95.1996 12.1373C95.1996 16.7139 95.21 17.5633 95.2705 17.9172C95.4762 19.1199 96.0163 20.0811 96.8396 20.7094C97.5865 21.2795 98.4291 21.5512 99.6276 21.6085C101.178 21.6827 102.431 21.299 103.293 20.4858C103.924 19.8903 104.311 19.2317 104.559 18.3319L104.688 17.8649L104.701 12.3173L104.714 6.76965L104.069 6.78268L103.423 6.79566L103.399 12.2602L103.375 17.7248L103.271 18.0984C103.213 18.3039 103.071 18.6655 102.954 18.9019C102.561 19.6984 101.922 20.1827 100.987 20.3938C100.433 20.5187 99.393 20.5079 98.837 20.3713C97.6268 20.0742 96.898 19.292 96.5899 17.9596C96.4947 17.5478 96.4921 17.4124 96.4769 12.1551L96.4614 6.77231H95.8305H95.1996V12.1373ZM111.34 6.83069C111.328 6.86283 111.323 10.1468 111.33 14.1284L111.342 21.3678L113.521 21.3816C114.838 21.3899 115.912 21.3753 116.236 21.3447C118.5 21.1312 119.893 20.201 120.364 18.5876C120.494 18.1425 120.543 17.0311 120.457 16.4954C120.332 15.7277 120.033 15.1298 119.543 14.6736C119.027 14.1919 118.245 13.8059 117.586 13.7074C117.32 13.6676 117.333 13.6219 117.632 13.5469C118.061 13.439 118.582 13.1267 118.957 12.752C119.356 12.3531 119.557 12.0115 119.714 11.4646C119.854 10.9761 119.866 9.9538 119.736 9.48123C119.577 8.90335 119.352 8.5141 118.938 8.10342C118.192 7.36272 117.106 6.95843 115.489 6.81944C114.663 6.74844 111.368 6.75736 111.34 6.83069ZM112.631 10.5321V13.171H114.38C115.977 13.171 116.162 13.1628 116.501 13.0773C118 12.6983 118.768 11.4528 118.468 9.88739C118.253 8.76888 117.444 8.15867 115.889 7.94313C115.691 7.91571 114.877 7.89324 114.08 7.89324H112.631V10.5321ZM50.7784 8.68383C49.3344 8.88555 48.5002 9.8928 48.146 11.8623C48.0079 12.6305 47.9714 14.6921 48.0795 15.623C48.2956 17.4843 48.8805 18.587 49.9115 19.0767C50.3626 19.291 50.6716 19.3545 51.247 19.3514C52.8309 19.343 53.7911 18.4389 54.1905 16.5802C54.3589 15.7963 54.4051 15.2438 54.4051 14.0117C54.4051 12.7796 54.3589 12.2271 54.1905 11.4431C53.8061 9.65395 52.9115 8.76155 51.411 8.67057C51.2048 8.65805 50.9201 8.66403 50.7784 8.68383ZM112.631 17.2775V20.3169L114.048 20.3165C116.203 20.3159 116.95 20.221 117.719 19.8505C118.389 19.5274 118.789 19.0774 119.035 18.3706C119.149 18.0419 119.162 17.9391 119.164 17.3511C119.165 16.8729 119.143 16.6157 119.083 16.3937C118.808 15.3698 118.099 14.7023 116.942 14.3763C116.615 14.2843 116.451 14.2759 114.61 14.2577L112.631 14.2381V17.2775Z" fill="#898989"/>
</svg>
