<svg width="32" height="30" viewBox="0 0 32 30" fill="none" xmlns="http://www.w3.org/2000/svg">
<path d="M15.9632 0C11.7315 0.00608003 7.67493 1.58235 4.68267 4.3833C1.6904 7.18425 0.00649533 10.9814 0 14.9425C0.00208088 18.3516 1.20701 21.6646 3.42752 24.3667C5.64804 27.0688 8.75982 29.0087 12.2794 29.885V24.9425C11.6079 25.0802 10.9125 25.0802 10.241 24.9425C9.26063 24.6565 8.4401 24.0206 7.95704 23.1724C7.81181 22.8644 7.58399 22.5966 7.2957 22.3952C7.00741 22.1939 6.66843 22.0656 6.31161 22.023L6.04146 20.2528C6.76918 20.2681 7.47965 20.4632 8.10075 20.8185C8.72185 21.1738 9.23148 21.6766 9.57792 22.2758C9.68747 22.519 9.85163 22.7372 10.0593 22.9157C10.2669 23.0942 10.5131 23.2288 10.7813 23.3103C11.3226 23.4382 11.8943 23.3895 12.4022 23.1724C12.5529 22.3757 12.9257 21.6302 13.4827 21.0115C12.0801 20.9362 10.7284 20.4932 9.58189 19.7331C8.43543 18.9729 7.54049 17.9263 6.99925 16.7127C6.59454 15.6171 6.48144 14.4457 6.66974 13.3C6.85804 12.1543 7.34206 11.0689 8.07984 10.1379C8.07984 10.1379 8.22719 10 8.07984 10C7.72025 8.70405 7.77144 7.33816 8.22718 6.06899C9.49087 6.22933 10.6951 6.67077 11.7391 7.35634L12.2794 7.60918C12.2794 7.72412 12.2794 7.60918 12.5495 7.60918C13.6572 7.34644 14.7959 7.21518 15.9386 7.21841C17.0827 7.20639 18.2206 7.37744 19.3032 7.72416H19.5733C22.815 5.81612 22.6923 6.45979 23.6501 6.20692C24.1797 7.41578 24.2233 8.76334 23.7729 10C24.5598 10.9341 25.0844 12.0376 25.2989 13.2101C25.5133 14.3826 25.4109 15.5868 25.0008 16.7127C24.4577 17.9296 23.559 18.9785 22.4078 19.739C21.2566 20.4994 19.8996 20.9404 18.4927 21.0115C18.8889 21.3773 19.2018 21.8143 19.4129 22.2963C19.6239 22.7783 19.7286 23.2953 19.7206 23.8161V30C23.2341 29.1212 26.3405 27.1837 28.56 24.4871C30.7794 21.7904 31.9884 18.4846 32 15.0804C31.9745 11.1001 30.279 7.28869 27.2791 4.4677C24.2792 1.64671 20.2152 0.0421443 15.9632 0Z" fill="white"/>
</svg>
