<svg width="122" height="28" viewBox="0 0 122 28" fill="none" xmlns="http://www.w3.org/2000/svg">
<path fill-rule="evenodd" clip-rule="evenodd" d="M13.5829 0.0177689C13.4926 0.0279055 13.1885 0.0583619 12.907 0.085455C9.07808 0.453874 5.68315 2.21404 3.58609 4.91816C2.05048 6.8983 1.18084 9.14819 0.814481 12.0885C0.71813 12.8617 0.732766 15.3612 0.838311 16.163C1.27691 19.4951 2.57225 22.1863 4.74553 24.281C6.80849 26.2692 9.46311 27.4744 12.7386 27.9097C13.6455 28.0303 16.1032 28.03 17.0073 27.9094C20.34 27.4644 22.9614 26.2487 25.0302 24.1885C27.0866 22.1408 28.3176 19.5198 28.7606 16.2459C28.8619 15.4974 28.9016 13.4947 28.8324 12.6246C28.4879 8.29294 26.7886 4.93054 23.8072 2.68107C21.9884 1.3088 19.7868 0.46289 17.1011 0.104373C16.5467 0.0303345 14.0236 -0.0317461 13.5829 0.0177689ZM13.7236 2.56415C9.91601 2.83461 6.94087 4.42516 5.12634 7.16035C3.38462 9.78586 2.80229 13.9355 3.68427 17.437C4.17803 19.3973 5.06831 20.9975 6.40156 22.3211C6.9191 22.8349 7.72767 23.4826 8.13882 23.7127L8.32913 23.8192L8.33054 18.4794L8.3319 13.1395L9.58535 12.4515L10.8388 11.7635L10.8506 18.3468L10.8625 24.9301L11.0383 24.9788C11.7045 25.1635 13.0179 25.4015 13.3714 25.4015H13.5358L13.5476 15.5056L13.5595 5.60983L14.8026 6.29879L16.0456 6.9878L16.0575 16.2185L16.0693 25.4493L16.2451 25.4266C16.3418 25.4141 16.6109 25.3801 16.8431 25.351C17.3466 25.2879 18.0198 25.1556 18.5201 25.0216L18.8836 24.9241V17.9224C18.8836 14.0715 18.8954 10.9207 18.9099 10.9207C18.9243 10.9207 19.4942 11.2295 20.1764 11.607L21.4167 12.2933V18.0299C21.4167 21.1851 21.4341 23.7666 21.4553 23.7666C21.4765 23.7666 21.6506 23.6593 21.8423 23.5281C23.3454 22.4996 24.4926 21.1209 25.263 19.4172C26.9138 15.7663 26.618 10.4699 24.5836 7.25378C23.5798 5.66682 22.3195 4.54867 20.61 3.72822C18.6492 2.78715 16.2629 2.38379 13.7236 2.56415ZM91.5165 3.32584C91.0015 3.45028 90.5496 3.82701 90.3069 4.33426C90.1729 4.61411 90.1616 4.67633 90.1616 5.12935C90.1616 5.58914 90.1714 5.64062 90.3136 5.92836C90.4967 6.29874 90.8322 6.62681 91.2068 6.8016C91.4444 6.91245 91.5314 6.92679 91.9676 6.92679C92.424 6.92679 92.4833 6.91586 92.7756 6.77797C93.9314 6.23274 94.1906 4.72174 93.2833 3.81818C92.8128 3.34975 92.1648 3.16916 91.5165 3.32584ZM62.8372 12.3221V21.1507H64.2679H65.6986V12.3221V3.49344H64.2679H62.8372V12.3221ZM77.5985 3.5239C77.581 3.54141 77.5666 5.13085 77.5666 7.056V10.5562L77.3532 10.2736C76.7706 9.50176 75.7325 9.04529 74.3962 8.9733C71.8482 8.83606 69.6272 10.3999 68.7776 12.9293C68.5221 13.6903 68.4486 14.1882 68.4469 15.1715C68.4446 16.4523 68.6124 17.274 69.0723 18.2355C69.9015 19.9689 71.3088 21.0434 73.1742 21.367C73.8216 21.4793 74.8729 21.4349 75.4227 21.2721C76.2958 21.0134 77.1048 20.4674 77.496 19.8729C77.6161 19.6904 77.642 19.7653 77.679 20.4006C77.6961 20.6946 77.7223 20.9837 77.7372 21.0429L77.7644 21.1507H79.1242H80.484L80.4515 20.9054C80.4337 20.7706 80.4053 16.8029 80.3884 12.0885L80.3576 3.5168L78.994 3.50442C78.2441 3.49764 77.6161 3.50638 77.5985 3.5239ZM84.0713 3.5246C84.0541 3.54169 84.04 7.51457 84.04 12.3532V21.1507H85.4707H86.9014V12.3221V3.49344H85.502C84.7323 3.49344 84.0884 3.50745 84.0713 3.5246ZM53.0841 8.95957C51.6501 9.15945 50.4419 9.75662 49.5001 10.731C48.6863 11.5729 48.159 12.5976 47.8879 13.8636C47.7675 14.4259 47.7681 15.9518 47.889 16.5478C48.1521 17.8457 48.6901 18.8766 49.5619 19.7541C50.4279 20.6255 51.4504 21.1608 52.7342 21.4146C53.3617 21.5387 54.6335 21.527 55.2724 21.3913C57.8328 20.8474 59.6393 18.9275 60.0479 16.316C60.164 15.5738 60.123 14.3138 59.9607 13.63C59.6866 12.4757 59.1846 11.5452 58.3978 10.7324C57.547 9.85345 56.505 9.29538 55.2145 9.0273C54.777 8.93645 53.5337 8.89693 53.0841 8.95957ZM115.165 8.96415C113.246 9.24246 111.598 10.4922 110.736 12.3234C109.907 14.0849 109.944 16.5124 110.826 18.2677C111.505 19.6184 112.682 20.6615 114.076 21.1463C116.708 22.062 119.561 21.2454 120.939 19.1817C121.155 18.8577 121.537 18.091 121.591 17.8742C121.62 17.7569 121.607 17.746 121.325 17.655C120.461 17.3766 119.235 16.9933 119.207 16.9933C119.189 16.9933 119.175 17.0224 119.175 17.0579C119.175 17.1999 118.791 17.873 118.568 18.121C118.256 18.4689 117.884 18.7086 117.394 18.8777C117.062 18.9924 116.898 19.0195 116.431 19.0368C115.741 19.0623 115.321 18.9838 114.789 18.7295C113.794 18.2542 113.175 17.3788 113.01 16.2108L112.982 16.0123H117.318C120.736 16.0123 121.663 15.9999 121.693 15.9539C121.714 15.9218 121.739 15.5809 121.747 15.1964C121.819 12.0964 120.363 9.86289 117.803 9.14899C117.062 8.94205 115.885 8.85965 115.165 8.96415ZM102.381 9.02838C101.437 9.2369 100.575 9.77236 100.066 10.4677L99.8248 10.7971L99.8119 10.0414L99.799 9.28576H98.4164H97.0337V15.2182V21.1507H98.4628H99.892L99.9064 17.402C99.9195 13.9972 99.9283 13.6277 100.003 13.3731C100.352 12.1789 101.193 11.5266 102.379 11.5286C103.392 11.5304 104.136 11.9464 104.496 12.7128C104.772 13.2996 104.772 13.3008 104.773 17.402L104.774 21.1507H106.206H107.639L107.622 16.9115C107.607 13.1191 107.597 12.6379 107.525 12.3454C107.095 10.5788 106.212 9.57168 104.693 9.11591C104.331 9.00726 104.184 8.99026 103.484 8.97662C102.911 8.96545 102.6 8.98003 102.381 9.02838ZM38.2335 9.10531C35.7069 9.42319 33.8312 11.4104 33.516 14.1034C33.4095 15.0134 33.5373 16.1908 33.8307 17.0042C34.3997 18.5811 35.5532 19.7535 37.0654 20.2917C37.3121 20.3794 37.7074 20.4855 37.944 20.5274C38.4507 20.6171 39.4143 20.6274 39.8519 20.5478C40.9287 20.3519 41.7647 19.8496 42.3512 19.0463C42.4321 18.9354 42.4341 18.9621 42.4141 19.8894C42.3921 20.9121 42.3545 21.2 42.1685 21.7669C41.9687 22.3762 41.5419 22.9172 41.0239 23.2179C40.5122 23.515 39.5138 23.7135 38.8352 23.6531C37.8627 23.5666 37.0899 23.1427 36.5981 22.4261C36.3806 22.109 36.101 21.4233 36.0998 21.2036C36.0993 21.1117 36.0814 21.0979 35.9936 21.1218C35.9356 21.1377 35.3445 21.2921 34.6802 21.465C33.2888 21.8271 33.3975 21.7365 33.5694 22.39C34.0546 24.2345 35.7239 25.6428 37.8988 26.0427C38.501 26.1534 39.8926 26.1496 40.532 26.0355C43.0652 25.5835 44.5551 24.1348 45.1185 21.5758C45.2154 21.1353 45.2175 21.0215 45.2335 15.2065L45.2498 9.28576H43.8643H42.4788V9.99158V10.6974L42.2691 10.4138C41.9962 10.0446 41.6183 9.74971 41.0949 9.49751C40.2925 9.11082 39.2862 8.97288 38.2335 9.10531ZM90.5603 15.2182V21.1507H91.9676H93.3748V15.2182V9.28576H91.9676H90.5603V15.2182ZM115.305 11.3681C114.171 11.6189 113.268 12.5701 113.099 13.6903L113.066 13.9103H115.982H118.899L118.869 13.6884C118.712 12.5269 117.992 11.6946 116.9 11.41C116.48 11.3008 115.702 11.2804 115.305 11.3681ZM53.3382 11.548C52.64 11.6856 52.1572 11.9371 51.6674 12.4185C51.363 12.7176 51.2716 12.8468 51.0723 13.2593C50.7533 13.9195 50.6826 14.2196 50.6551 15.0314C50.6361 15.5883 50.6485 15.788 50.7246 16.1547C50.9674 17.3245 51.56 18.1506 52.481 18.6033C53.4492 19.0792 54.4493 19.078 55.4225 18.5996C56.1939 18.2204 56.7318 17.5756 57.0188 16.6863C57.4781 15.2627 57.233 13.6161 56.4129 12.616C56.1742 12.3249 55.7578 11.9974 55.3952 11.8154C54.8578 11.5457 53.9492 11.4277 53.3382 11.548ZM74.0719 11.5115C72.8652 11.7045 71.9351 12.477 71.5371 13.6167C71.2185 14.5291 71.2031 15.7682 71.499 16.6896C71.8166 17.6788 72.5216 18.45 73.38 18.7472C74.4996 19.135 75.6469 18.9154 76.4601 18.158C77.5178 17.1727 77.9003 15.2902 77.3753 13.6534C77.0367 12.5976 76.2985 11.8605 75.3149 11.5963C75.0432 11.5233 74.3105 11.4733 74.0719 11.5115ZM38.6432 11.6182C38.0895 11.7537 37.7192 11.9657 37.2953 12.3902C36.7351 12.9511 36.4654 13.5626 36.3824 14.4599C36.2141 16.2795 37.1274 17.7397 38.654 18.0923C39.0694 18.1883 39.7901 18.1882 40.2066 18.0922C41.1605 17.8723 41.8944 17.2094 42.2449 16.2509C42.4322 15.7386 42.4962 15.267 42.4656 14.6226C42.4189 13.6376 42.1451 12.9701 41.5387 12.3631C41.1425 11.9665 40.7141 11.7262 40.1795 11.6007C39.7744 11.5057 39.0705 11.5137 38.6432 11.6182Z" fill="#898989"/>
</svg>
