<svg width="44" height="35" viewBox="0 0 44 35" fill="none" xmlns="http://www.w3.org/2000/svg">
<path fill-rule="evenodd" clip-rule="evenodd" d="M41.25 34.3051H2.75C1.21 34.3051 0 33.0878 0 31.5385V30.432C0 28.8828 1.21 27.6655 2.75 27.6655H41.25C42.79 27.6655 44 28.8828 44 30.432V31.5385C44 33.0878 42.79 34.3051 41.25 34.3051ZM41.25 20.4724H2.75C1.21 20.4724 0 19.2551 0 17.7058V16.5993C0 15.05 1.21 13.8327 2.75 13.8327H22H41.25C42.79 13.8327 44 15.05 44 16.5993V17.7058C44 19.2551 42.79 20.4724 41.25 20.4724ZM41.25 6.63961H2.75C1.21 6.63961 0 5.42233 0 3.87307V2.76655C0 1.21728 1.21 0 2.75 0H41.25C42.79 0 44 1.21728 44 2.76655V3.87307C44 5.42233 42.79 6.63961 41.25 6.63961Z" fill="white"/>
</svg>
