<svg width="32" height="32" viewBox="0 0 32 32" fill="none" xmlns="http://www.w3.org/2000/svg">
<path d="M16 0C11.7646 0.0127428 7.70602 1.70054 4.70889 4.6954C1.71175 7.69026 0.0191455 11.7493 0 15.9879C0.0127698 20.2306 1.70257 24.2959 4.70039 27.296C7.69821 30.2961 11.7605 31.9872 16 32C20.2415 31.9936 24.3074 30.3045 27.3066 27.303C30.3058 24.3016 31.9936 20.2326 32 15.9879C31.9872 11.7474 30.2966 7.68461 27.2981 4.68838C24.2996 1.69215 20.2373 0.00638628 16 0ZM12.4176 21.8016H9.46446V13.3959H12.5144L12.4176 21.8016ZM11.0862 12.112C10.8797 12.1364 10.6704 12.116 10.4724 12.0524C10.2744 11.9888 10.0924 11.8834 9.93863 11.7433C9.78487 11.6032 9.66298 11.4317 9.58117 11.2404C9.49936 11.0491 9.45956 10.8424 9.46446 10.6344C9.45902 10.4272 9.49868 10.2213 9.58069 10.031C9.6627 9.84068 9.78508 9.67049 9.93937 9.53223C10.0936 9.39396 10.2761 9.29089 10.4741 9.23024C10.6722 9.16959 10.8811 9.15275 11.0862 9.18093C11.4799 9.19948 11.8547 9.35477 12.1463 9.62005C12.4379 9.88532 12.628 10.244 12.6838 10.6344C12.6838 11.6033 12.1513 12.1363 11.0862 12.1363V12.112ZM22.6808 21.8016H19.7761V17.2717C19.7761 16.2059 19.3646 15.4065 18.2995 15.4065C17.9751 15.4159 17.661 15.5225 17.3977 15.7125C17.1345 15.9025 16.9343 16.1673 16.823 16.4724V21.6805H13.8941V13.4201H16.823V14.6071C17.0826 14.1998 17.4403 13.8644 17.8633 13.6316C18.2862 13.3988 18.7609 13.2761 19.2436 13.2748C21.2284 12.8872 22.705 14.3406 22.705 16.8842L22.6808 21.8016Z" fill="white"/>
</svg>
