<svg width="70" height="28" viewBox="0 0 70 28" fill="none" xmlns="http://www.w3.org/2000/svg">
<path fill-rule="evenodd" clip-rule="evenodd" d="M17.0218 0.0749933C15.0937 0.42308 13.4578 1.82835 12.8444 3.66352C12.5639 4.50249 12.5594 4.57707 12.5594 8.33611V11.76H15.9842C19.7443 11.76 19.8189 11.7555 20.6581 11.4751C22.2168 10.9543 23.5167 9.65477 24.0376 8.09648C24.3181 7.25751 24.3226 7.18293 24.3226 3.42389V0L20.8567 0.0042C18.0722 0.00756 17.3182 0.0214667 17.0218 0.0749933ZM2.75674 5.42808C2.75674 7.05838 2.77537 8.16135 2.8058 8.33308C3.11127 10.0571 4.46007 11.4056 6.1846 11.711C6.35638 11.7414 7.45965 11.76 9.09039 11.76H11.7192V9.13192C11.7192 7.50162 11.7006 6.39865 11.6701 6.22692C11.3647 4.50287 10.0159 3.15443 8.29133 2.84905C8.11955 2.81862 7.01628 2.8 5.38554 2.8H2.75674V5.42808ZM35.0822 4.85147C34.4404 4.97229 33.8365 5.08606 33.7402 5.10431L33.5651 5.13758V13.0941C33.5651 21.9234 33.5481 21.4272 33.8739 22.1087C34.066 22.5106 34.4871 22.9817 34.8106 23.1566C34.9343 23.2235 35.1931 23.3274 35.3856 23.3874C35.6978 23.4849 35.8241 23.4965 36.5526 23.495C37.0019 23.4941 37.5355 23.4659 37.7384 23.4324C38.1467 23.3649 39.0753 23.1154 39.1343 23.0572C39.1549 23.0368 39.0919 22.6062 38.9942 22.1003C38.8168 21.1818 38.8164 21.1806 38.6999 21.201C38.6357 21.2123 38.3836 21.2579 38.1397 21.3024C37.6104 21.399 37.1426 21.3792 36.9182 21.2507C36.8223 21.1959 36.718 21.0726 36.646 20.9292L36.5293 20.6967L36.5164 12.6583L36.5036 4.62L36.3764 4.62593C36.3064 4.62919 35.7241 4.73069 35.0822 4.85147ZM40.9783 4.82575C40.4569 4.97611 40.0712 5.36214 39.9016 5.90333C39.66 6.67478 39.8341 7.44749 40.3574 7.92559C40.6458 8.18916 40.9153 8.2992 41.3698 8.33905C42.2022 8.41204 42.8253 8.07842 43.171 7.37473C43.2884 7.13575 43.2978 7.07345 43.2978 6.53333C43.2978 6.00059 43.2871 5.92727 43.1748 5.68773C43.0087 5.33377 42.7587 5.06861 42.4473 4.91629C42.2241 4.80713 42.1209 4.78795 41.693 4.77624C41.376 4.76756 41.1183 4.78543 40.9783 4.82575ZM62.5813 10.3882C60.4149 10.7794 58.6753 12.3378 57.9376 14.5484C57.6103 15.5289 57.4858 16.6361 57.5611 17.8971C57.6094 18.7063 57.6129 18.7348 57.7537 19.46C58.1669 21.5872 59.2925 22.9552 61.009 23.4162C61.4055 23.5227 61.5485 23.5367 62.2729 23.5395C63.1342 23.5429 63.519 23.4888 64.0524 23.2893C65.0085 22.9317 65.7588 22.0989 66.2198 20.8837C66.3375 20.5735 66.3447 20.5816 66.4264 21.1144C66.5544 21.9492 67.0846 23.0693 67.5614 23.5121L67.6785 23.6209L68.7886 23.1738C69.3993 22.9279 69.9155 22.7267 69.9358 22.7267C69.9562 22.7267 69.9791 23.0889 69.9868 23.5317C69.9945 23.9744 70.0004 22.7617 70 20.8367C69.9994 18.1824 69.9961 17.9795 69.9866 19.9967L69.974 22.6567L69.8787 22.5167C69.4624 21.9047 69.0934 20.7501 68.8691 19.3575C68.8032 18.9483 68.7876 18.2929 68.7648 14.9579L68.738 11.0392L68.2946 10.932C67.6709 10.7812 66.1619 10.5142 65.317 10.4054C64.4584 10.2947 63.1451 10.2865 62.5813 10.3882ZM40.1108 15.9483L40.1236 21.3967L40.2482 21.7377C40.4704 22.3457 40.8393 22.8233 41.3239 23.13C41.9841 23.548 43.3241 23.6389 44.315 23.333C44.8105 23.1799 44.7891 23.2602 44.6137 22.2133L44.4613 21.3033H43.971C43.4076 21.3033 43.272 21.2474 43.1422 20.9614C43.0713 20.8053 43.0632 20.33 43.0515 15.645L43.0387 10.5H41.5684H40.098L40.1108 15.9483ZM45.6551 15.1095C45.6551 18.0132 45.6731 19.8654 45.7036 20.1145C45.8442 21.2608 46.2694 22.2065 46.8949 22.7637C47.5748 23.3696 48.5358 23.5939 50.1037 23.5127C51.1697 23.4575 52.2066 23.2121 52.9371 22.8422C54.745 21.9267 55.837 20.0024 56.2733 16.9633C56.4849 15.4901 56.5795 13.4594 56.4897 12.32C56.4352 11.6285 56.3072 10.5994 56.2677 10.5355C56.2557 10.516 55.565 10.5 54.7329 10.5C53.5425 10.5 53.2246 10.5124 53.2412 10.5583C53.2529 10.5904 53.3073 10.9212 53.3622 11.2933C53.4382 11.8086 53.4675 12.2803 53.485 13.2708C53.5523 17.0854 52.921 19.763 51.6811 20.9216C51.1322 21.4345 50.2966 21.5865 49.5875 21.3025C49.173 21.1365 48.8226 20.5657 48.6888 19.8387C48.6603 19.6837 48.6426 17.8444 48.6426 15.0437V10.5H47.1488H45.6551V15.1095ZM63.5566 12.4143C62.2955 12.5492 61.4552 13.2572 61.0374 14.5368C60.818 15.2088 60.7554 15.811 60.761 17.1967C60.768 18.95 60.874 19.6959 61.2197 20.4253C61.5354 21.0916 61.9873 21.4189 62.6439 21.4569C63.2966 21.4947 63.7415 21.2986 64.2888 20.7318C64.81 20.1921 65.1848 19.5064 65.4431 18.62C65.7282 17.642 65.7367 17.5441 65.7603 15L65.7819 12.6632L65.3228 12.5601C64.8768 12.4598 64.166 12.3613 63.9767 12.3733C63.9254 12.3767 63.7364 12.3951 63.5566 12.4143ZM4.41839 12.675C2.40296 13.0389 0.786407 14.4901 0.156236 16.5013L0.0261405 16.9167L0.0130702 20.6383L0 24.36H3.40279C7.13872 24.36 7.21603 24.3553 8.05467 24.0751C9.61339 23.5543 10.9133 22.2548 11.4342 20.6965C11.7147 19.8575 11.7192 19.7829 11.7192 16.0239V12.6L8.25324 12.6042C5.46872 12.6076 4.71476 12.6215 4.41839 12.675ZM12.5594 17.039C12.5594 20.7997 12.5704 21.5522 12.6314 21.9631C13.0841 25.0105 15.5497 27.4755 18.598 27.928C19.009 27.989 19.7617 28 23.5234 28H27.9636V23.561C27.9636 19.8003 27.9526 19.0478 27.8916 18.6369C27.4389 15.5895 24.9733 13.1245 21.9251 12.672C21.514 12.611 20.7614 12.6 16.9996 12.6H12.5594V17.039Z" fill="#898989"/>
</svg>
