<svg width="25" height="24" viewBox="0 0 25 24" fill="none" xmlns="http://www.w3.org/2000/svg">
<circle cx="12.5" cy="12" r="12" fill="#172852"/>
<path d="M18.4958 14.2791C17.3275 14.5818 16.1093 14.6292 14.9216 14.4181C13.734 14.207 12.6038 13.7421 11.6058 13.0542C10.6078 12.3663 9.76458 11.4711 9.13182 10.4275C8.49906 9.38386 8.09115 8.21568 7.935 7C7.13398 7.66797 6.49737 8.51687 6.07585 9.47911C5.65433 10.4414 5.45954 11.4904 5.50698 12.5427C5.55443 13.5949 5.8428 14.6214 6.34914 15.5404C6.85548 16.4594 7.5658 17.2455 8.42357 17.8361C9.28134 18.4268 10.2629 18.8056 11.29 18.9426C12.3171 19.0795 13.3615 18.9707 14.34 18.6249C15.3185 18.2791 16.2041 17.7057 16.9263 16.9505C17.6485 16.1953 18.1874 15.2791 18.5 14.2748H18.4958V14.2791Z" fill="#FFD83D"/>
<path d="M19.7653 12.2812C18.3884 11.6219 17.2079 10.6329 16.3358 9.40789C15.4636 8.18294 14.9285 6.76256 14.7812 5.28125C16.3057 5.73135 17.6281 6.66816 18.5331 7.93919C19.4381 9.21021 19.8724 10.7406 19.7653 12.2812Z" fill="#FB6E04"/>
<path d="M19.5 10C19.1393 9.89347 18.74 9.76136 18.2806 9.61221C17.3746 9.31818 16.254 8.9517 14.8371 8.56391C12.6988 7.9801 10.8697 7.10225 9.5 5.87923C10.409 5.37069 11.4227 5.0742 12.4642 5.01223C13.5058 4.95025 14.5479 5.12442 15.5116 5.52153C16.4753 5.91864 17.3352 6.52827 18.0262 7.30421C18.7173 8.08015 19.2213 9.00204 19.5 10Z" fill="#FFD83D"/>
</svg>
