<svg width="113" height="28" viewBox="0 0 113 28" fill="none" xmlns="http://www.w3.org/2000/svg">
<path fill-rule="evenodd" clip-rule="evenodd" d="M9.82913 0.0111559C9.28802 0.0699526 8.6228 0.195304 8.12035 0.333229C4.72439 1.2651 2.00977 3.98316 1.07908 7.38341C0.739025 8.62566 0.750041 8.40417 0.750041 14.0019C0.750041 19.5996 0.739025 19.3781 1.07908 20.6203C2.00977 24.0206 4.72439 26.7386 8.12035 27.6705C9.36103 28.011 9.13982 28 14.7304 28C20.3211 28 20.0998 28.011 21.3405 27.6705C24.7365 26.7386 27.4511 24.0206 28.3818 20.6203C28.7218 19.3781 28.7108 19.5996 28.7108 14.0019C28.7108 9.34758 28.7045 8.94007 28.6253 8.46909C28.3465 6.81114 27.7025 5.31206 26.6856 3.95371C26.3583 3.51662 25.5562 2.68056 25.0935 2.29432C23.778 1.1962 22.1846 0.454234 20.4019 0.109727C19.9004 0.0127917 19.7733 0.0102679 14.9405 0.00194845C12.2191 -0.00277211 9.91899 0.0013876 9.82913 0.0111559ZM84.1189 3.68866C83.5677 3.87211 83.1522 4.23353 82.9143 4.73644C82.7792 5.0221 82.7652 5.093 82.7652 5.49649C82.7652 5.90368 82.7781 5.96761 82.9162 6.2486C83.0996 6.62167 83.4605 6.99427 83.7987 7.15995C84.3361 7.42323 85.1214 7.41692 85.6827 7.1449C86.0031 6.98964 86.4217 6.57451 86.5683 6.26669C86.7198 5.94873 86.7571 5.2421 86.6409 4.89189C86.4849 4.42137 86.0177 3.95296 85.496 3.74367C85.2213 3.63351 84.385 3.60009 84.1189 3.68866ZM9.87581 10.6123V15.7198L9.16395 15.7437C8.35542 15.7708 8.03954 15.8443 7.42282 16.1486C6.88816 16.4124 6.47271 16.8063 6.24744 17.2629C6.08061 17.601 6.07151 17.6427 6.07272 18.0658C6.07384 18.4555 6.09083 18.549 6.20688 18.8029C6.5284 19.5066 7.20716 19.8753 8.38819 19.988C9.56642 20.1005 10.3712 19.8181 11.1883 19.0054C11.5669 18.6289 11.6669 18.4965 11.826 18.1616C11.9297 17.9431 12.0375 17.6528 12.0655 17.5166C12.0993 17.3522 12.1164 16.2126 12.1164 14.1287V10.9885L13.0592 11.9694C13.5778 12.5089 14.3021 13.2552 14.6689 13.628L15.3358 14.3057L17.017 12.6233L18.6982 10.941V16.8414V22.7419H19.8185H20.9388V14.1305V5.51916L18.1385 8.32271L15.3382 11.1263L15.2285 11.01C14.9561 10.7213 11.5418 7.20384 10.7535 6.39985L9.87581 5.50477V10.6123ZM39.3521 9.44241C38.1926 9.62287 37.248 10.2741 36.595 11.3434L36.4129 11.6416L36.4003 10.6718L36.3876 9.70195H34.9182H33.4488V15.9181V22.1343H35.0107H36.5726L36.5875 18.3368L36.6024 14.5394L36.7092 14.1896C37.0202 13.1714 37.6977 12.4937 38.6301 12.2682C38.9962 12.1796 39.8069 12.1885 40.1239 12.2845C40.8361 12.5003 41.2644 13.0702 41.4295 14.0221C41.4599 14.1976 41.4776 15.7394 41.4776 18.2175V22.1356L43.0296 22.1232L44.5817 22.1109L44.606 18.3485C44.6299 14.6443 44.6319 14.5804 44.7335 14.2196C45.0788 12.9947 45.8495 12.3046 46.9857 12.2031C47.6721 12.1419 48.3261 12.3261 48.7282 12.694C49.0222 12.9631 49.2362 13.3428 49.3779 13.847C49.4794 14.208 49.4807 14.2571 49.4954 18.1739L49.5103 22.1356L51.0604 22.1232L52.6105 22.1109L52.6102 17.9512C52.6098 13.8094 52.6093 13.789 52.5019 13.1915C52.226 11.6581 51.6522 10.6663 50.6749 10.0338C50.0539 9.63189 49.3591 9.43194 48.4328 9.38857C46.6176 9.3036 45.2526 9.93424 44.3316 11.2833L44.0976 11.6262L43.9946 11.4236C43.5914 10.6296 42.9588 10.0339 42.1879 9.72214C41.3961 9.40189 40.3042 9.29421 39.3521 9.44241ZM95.05 9.42096C91.7433 9.83866 89.4845 12.1276 89.2344 15.3141C89.0765 17.3252 89.6652 19.0674 90.9614 20.425C91.8474 21.3529 93.0094 21.978 94.4117 22.2809C94.8233 22.3698 95.0476 22.3871 95.812 22.3891C96.5991 22.391 96.7877 22.3767 97.2051 22.2831C98.2735 22.0435 99.3218 21.575 100.012 21.0285C100.221 20.8627 100.386 20.7082 100.378 20.6852C100.37 20.6622 99.9082 20.1513 99.352 19.5499L98.3408 18.4565L98.0114 18.7735C96.367 20.3559 93.455 19.5954 92.5909 17.358C92.3905 16.839 92.2942 16.2267 92.3277 15.6844C92.3648 15.0864 92.4616 14.7252 92.7409 14.144C92.948 13.7131 93.0264 13.6046 93.402 13.23C93.7598 12.8731 93.8993 12.77 94.2716 12.5867C94.7519 12.3503 95.125 12.2474 95.672 12.2006C96.4635 12.1328 97.28 12.4831 98.0303 13.2122L98.2645 13.4399L99.3533 12.3491L100.442 11.2582L100.093 10.9421C99.2736 10.1987 98.3985 9.76491 97.2023 9.50916C96.7084 9.40353 95.5604 9.35651 95.05 9.42096ZM106.502 9.42311C104.805 9.6296 103.43 10.2076 102.456 11.1236L102.184 11.3793L103.004 12.2034L103.825 13.0275L104.078 12.8093C104.594 12.3642 105.375 11.9918 106.15 11.8206C106.623 11.7161 107.551 11.7172 108.019 11.8228C109.295 12.111 109.949 12.9057 109.955 14.1771L109.956 14.3758L108.917 14.3762C105.046 14.3777 102.851 15.1176 101.885 16.7468C101.518 17.365 101.389 17.9597 101.425 18.8704C101.453 19.587 101.586 20.035 101.925 20.5514C102.546 21.4989 103.605 22.1262 104.955 22.3476C105.645 22.4607 106.681 22.4221 107.301 22.2602C108.334 21.99 109.201 21.4107 109.726 20.6402C109.814 20.511 109.902 20.4051 109.921 20.4051C109.94 20.405 109.956 20.7944 109.956 21.2704V22.1357L111.345 22.1233L112.733 22.1109L112.747 18.5355C112.762 14.5643 112.728 13.5543 112.551 12.7867C112.294 11.6702 111.775 10.8476 110.99 10.3146C110.399 9.91321 109.684 9.63138 108.89 9.48756C108.409 9.40044 107 9.3624 106.502 9.42311ZM55.9595 14.0135C55.978 18.7968 55.973 18.7122 56.2957 19.6694C56.7571 21.0385 57.8103 21.9858 59.2327 22.3113C59.7374 22.4268 61.2187 22.4218 61.6896 22.3031C62.7193 22.0435 63.5147 21.4186 64.1411 20.377L64.3037 20.1067V21.1205V22.1343H65.774H67.2444V15.9181V9.70195H65.7066H64.1688L64.1518 13.406C64.1351 17.0308 64.1326 17.1182 64.0333 17.4951C63.6788 18.841 62.7173 19.6064 61.3768 19.6097C60.7125 19.6112 60.2434 19.4358 59.8705 19.0465C59.5894 18.7529 59.4365 18.468 59.2918 17.9678C59.1013 17.3097 59.0759 16.7388 59.0757 13.1022L59.0756 9.70195H57.5092H55.9428L55.9595 14.0135ZM70.1852 10.9405V12.1791H73.3127C75.0328 12.1791 76.4402 12.1954 76.4402 12.2155C76.4402 12.2355 74.9602 13.8182 73.1513 15.7325L69.8623 19.2132L69.8604 20.6739L69.8585 22.1347L75.1916 22.1228L80.5246 22.1109L80.5371 20.861L80.5495 19.6111L77.0641 19.599L73.5788 19.5871L76.8999 16.0583L80.2209 12.5296L80.2211 11.1158L80.2212 9.70195H75.2032H70.1852V10.9405ZM83.1735 15.9064L83.1854 22.1109L84.7374 22.1232L86.2895 22.1356V15.9187V9.70195H84.7256H83.1617L83.1735 15.9064ZM107.53 16.6246C106.406 16.7244 105.441 17.0434 104.925 17.4854C104.534 17.8207 104.402 18.5151 104.631 19.0362C104.937 19.7337 105.792 20.1164 106.922 20.0613C107.883 20.0144 108.538 19.7696 109.025 19.2765C109.509 18.7851 109.713 18.2101 109.755 17.2151L109.783 16.5725L108.877 16.5789C108.379 16.5824 107.773 16.603 107.53 16.6246Z" fill="#898989"/>
</svg>
