<svg width="144" height="83" viewBox="0 0 144 83" fill="none" xmlns="http://www.w3.org/2000/svg">
<path opacity="0.1" d="M0 8C0 3.58172 3.58172 0 8 0H22C26.4183 0 30 3.58172 30 8V83H0V8Z" fill="#FF5454"/>
<path opacity="0.6" d="M38 18C38 13.5817 41.5817 10 46 10H60C64.4183 10 68 13.5817 68 18V83H38V18Z" fill="#FF5454"/>
<path d="M76 58C76 53.5817 79.5817 50 84 50H98C102.418 50 106 53.5817 106 58V83H76V58Z" fill="#FF5454"/>
<path opacity="0.4" d="M114 39C114 34.5817 117.582 31 122 31H136C140.418 31 144 34.5817 144 39V83H114V39Z" fill="#FF5454"/>
</svg>
