<svg width="47" height="47" viewBox="0 0 47 47" fill="none" xmlns="http://www.w3.org/2000/svg">
<g clip-path="url(#clip0_1_285)">
<path d="M0 23.5C0 17.2674 2.47589 11.2901 6.88299 6.88299C11.2901 2.47589 17.2674 0 23.5 0C29.7326 0 35.7099 2.47589 40.117 6.88299C44.5241 11.2901 47 17.2674 47 23.5C47 29.7326 44.5241 35.7099 40.117 40.117C35.7099 44.5241 29.7326 47 23.5 47C17.2674 47 11.2901 44.5241 6.88299 40.117C2.47589 35.7099 0 29.7326 0 23.5H0Z" fill="url(#paint0_linear_1_285)"/>
<path d="M33.2588 17.765C33.1818 17.8394 33.0902 17.8985 32.9894 17.9388C32.8886 17.9792 32.7804 18 32.6712 18H11.8353C11.6706 17.9991 11.5099 17.9518 11.373 17.8638C11.2361 17.7758 11.1292 17.651 11.0654 17.505C11.0017 17.359 10.984 17.1982 11.0146 17.0427C11.0451 16.8871 11.1226 16.7436 11.2373 16.63L14.6562 13.2425C14.7338 13.1655 14.8268 13.1043 14.9295 13.0627C15.0323 13.021 15.1427 12.9997 15.2542 13H36.1682C36.9066 13 37.2783 13.8675 36.7558 14.375L33.2562 17.765H33.2588Z" fill="url(#paint1_linear_1_285)"/>
<path d="M33.2588 32.765C33.1818 32.8394 33.0902 32.8985 32.9894 32.9388C32.8886 32.9792 32.7804 33 32.6712 33H11.8353C11.6706 32.9991 11.5099 32.9518 11.373 32.8638C11.2361 32.7758 11.1292 32.651 11.0654 32.505C11.0017 32.359 10.984 32.1982 11.0146 32.0427C11.0451 31.8871 11.1226 31.7436 11.2373 31.63L14.6562 28.2425C14.7338 28.1655 14.8268 28.1043 14.9295 28.0627C15.0323 28.021 15.1427 27.9997 15.2542 28H36.1682C36.9066 28 37.2783 28.8675 36.7558 29.375L33.2588 32.765Z" fill="url(#paint2_linear_1_285)"/>
<path d="M33.2604 21.235C33.1834 21.1606 33.0918 21.1015 32.9909 21.0612C32.8901 21.0208 32.782 21 32.6728 21H11.8353C11.6707 21.0009 11.5099 21.0482 11.373 21.1362C11.2361 21.2242 11.1292 21.349 11.0654 21.495C11.0017 21.641 10.984 21.8018 11.0146 21.9573C11.0451 22.1129 11.1226 22.2564 11.2373 22.37L14.6565 25.7575C14.8125 25.9125 15.0283 26 15.2545 26H36.1699C36.3348 25.9982 36.4954 25.9497 36.6318 25.8607C36.7682 25.7717 36.8743 25.6461 36.937 25.4995C36.9996 25.3529 37.016 25.1918 36.9841 25.0363C36.9522 24.8808 36.8734 24.7377 36.7576 24.625L33.2578 21.235H33.2604Z" fill="url(#paint3_linear_1_285)"/>
</g>
<defs>
<linearGradient id="paint0_linear_1_285" x1="8.74461" y1="8.15189" x2="57.1938" y2="63.7999" gradientUnits="userSpaceOnUse">
<stop stop-color="#1A1E21"/>
<stop offset="1" stop-color="#06060A"/>
</linearGradient>
<linearGradient id="paint1_linear_1_285" x1="11.0007" y1="16.9775" x2="36.9417" y2="12.6413" gradientUnits="userSpaceOnUse">
<stop stop-color="#599DB0"/>
<stop offset="1" stop-color="#47F8C3"/>
</linearGradient>
<linearGradient id="paint2_linear_1_285" x1="11.0007" y1="32.1975" x2="36.9807" y2="28.5633" gradientUnits="userSpaceOnUse">
<stop stop-color="#C44FE2"/>
<stop offset="1" stop-color="#73B0D0"/>
</linearGradient>
<linearGradient id="paint3_linear_1_285" x1="12.4932" y1="23.5" x2="35.9905" y2="23.5" gradientUnits="userSpaceOnUse">
<stop stop-color="#778CBF"/>
<stop offset="1" stop-color="#5DCDC9"/>
</linearGradient>
<clipPath id="clip0_1_285">
<rect width="47" height="47" fill="white"/>
</clipPath>
</defs>
</svg>
