<svg width="30" height="30" viewBox="0 0 30 30" fill="none" xmlns="http://www.w3.org/2000/svg">
<path d="M0 15C0 16.8348 0.330059 18.5924 0.932988 20.2174L15 21.5217L29.067 20.2174C29.6699 18.5924 30 16.8348 30 15C30 13.1652 29.6699 11.4076 29.067 9.78263L15 8.47827L0.932988 9.78263C0.330059 11.4076 0 13.1652 0 15H0Z" fill="#FFDA44"/>
<path d="M29.0671 9.78264C26.9477 4.07068 21.4496 0 15.0001 0C8.55064 0 3.0525 4.07068 0.933105 9.78264H29.0671Z" fill="#D80027"/>
<path d="M0.933105 20.2173C3.0525 25.9292 8.55064 29.9999 15.0001 29.9999C21.4496 29.9999 26.9477 25.9292 29.0671 20.2173H0.933105Z" fill="#D80027"/>
</svg>
