<svg width="24" height="24" viewBox="0 0 24 24" fill="none" xmlns="http://www.w3.org/2000/svg">
<circle cx="12" cy="12" r="12" fill="#26A17B"/>
<path d="M13.3125 11.9858C13.2399 11.9858 12.9275 12.0152 12.0144 12.0152C11.2825 12.0152 10.8686 11.9936 10.6875 11.9858C7.86869 11.8618 5.65931 11.3722 5.65931 10.7802C5.65931 10.1883 7.86869 9.69127 10.6875 9.5669V11.4965H13.3125V9.56733C16.1239 9.69127 18.3333 10.1883 18.3333 10.7802C18.3333 11.3648 16.1239 11.8618 13.3125 11.9858ZM13.3125 9.3628V7.6H17.25V5H6.75V7.6H10.6875V9.36237C7.499 9.50883 5 10.1519 5 10.9115C5 11.6716 7.499 12.3147 10.6875 12.4611V18H13.3125V12.4611C16.501 12.3147 19 11.6716 19 10.9115C19 10.1519 16.501 9.51663 13.3125 9.3628Z" fill="white"/>
</svg>
