<svg width="18" height="20" viewBox="0 0 18 20" fill="none" xmlns="http://www.w3.org/2000/svg">
<mask id="mask0_717_164" style="mask-type:luminance" maskUnits="userSpaceOnUse" x="0" y="0" width="18" height="20">
<path fill-rule="evenodd" clip-rule="evenodd" d="M0.000488281 0.0117188H17.0532V19.8652H0.000488281V0.0117188Z" fill="white"/>
</mask>
<g mask="url(#mask0_717_164)">
<path fill-rule="evenodd" clip-rule="evenodd" d="M4.57359 1.51172C2.91659 1.51172 1.54059 2.85372 1.50159 4.50872V15.2037C1.46459 16.9167 2.81459 18.3277 4.51059 18.3657H12.5746C14.2436 18.2967 15.5656 16.9097 15.5536 15.2097V6.33972L10.9186 1.51172H4.58559H4.57359ZM4.58559 19.8657H4.47659C1.95459 19.8087 -0.0534083 17.7107 0.00159171 15.1877V4.49072C0.0595917 2.00972 2.10859 0.0117188 4.57159 0.0117188H4.58859H11.2386C11.4426 0.0117188 11.6376 0.0947188 11.7796 0.241719L16.8446 5.51872C16.9786 5.65772 17.0536 5.84472 17.0536 6.03772V15.2037C17.0716 17.7127 15.1176 19.7627 12.6046 19.8647L4.58559 19.8657Z" fill="white"/>
</g>
<path fill-rule="evenodd" clip-rule="evenodd" d="M16.2986 6.984H13.5436C11.7136 6.979 10.2256 5.487 10.2256 3.659V0.75C10.2256 0.336 10.5616 0 10.9756 0C11.3896 0 11.7256 0.336 11.7256 0.75V3.659C11.7256 4.663 12.5426 5.481 13.5456 5.484H16.2986C16.7126 5.484 17.0486 5.82 17.0486 6.234C17.0486 6.648 16.7126 6.984 16.2986 6.984Z" fill="white"/>
<path fill-rule="evenodd" clip-rule="evenodd" d="M10.7887 14.1094H5.38867C4.97467 14.1094 4.63867 13.7734 4.63867 13.3594C4.63867 12.9454 4.97467 12.6094 5.38867 12.6094H10.7887C11.2027 12.6094 11.5387 12.9454 11.5387 13.3594C11.5387 13.7734 11.2027 14.1094 10.7887 14.1094Z" fill="white"/>
<path fill-rule="evenodd" clip-rule="evenodd" d="M8.7437 10.3555H5.3877C4.9737 10.3555 4.6377 10.0195 4.6377 9.60547C4.6377 9.19147 4.9737 8.85547 5.3877 8.85547H8.7437C9.1577 8.85547 9.4937 9.19147 9.4937 9.60547C9.4937 10.0195 9.1577 10.3555 8.7437 10.3555Z" fill="white"/>
</svg>
