<svg width="24" height="24" viewBox="0 0 24 24" fill="none" xmlns="http://www.w3.org/2000/svg">
<g clip-path="url(#clip0_1_2963)">
<path d="M0 0H24V24H0V0Z" fill="url(#paint0_linear_1_2963)"/>
<path fill-rule="evenodd" clip-rule="evenodd" d="M8.92907 8.75392L8.93093 8.75524C9.07396 8.87007 9.18124 8.95574 9.24905 9.01625L9.29084 9.05511C9.30103 9.06491 9.31064 9.07523 9.31964 9.08603C9.46221 9.26445 9.4088 9.42432 9.16406 9.54975C9.02799 9.61952 8.74841 9.69019 8.60862 9.69019C8.45072 9.69019 8.39592 9.63498 8.39592 9.63498L8.36342 9.60892C8.28539 9.54842 8.1953 9.47864 7.78104 8.8153C7.48779 8.4046 7.19366 7.99447 6.89866 7.5849C6.78938 7.43038 6.67791 7.27726 6.56429 7.1256C6.52946 7.09645 6.52992 7.09733 7.71417 9.00962C7.8665 9.32672 7.80055 9.48394 7.76711 9.56388C7.7594 9.57888 7.75438 9.595 7.75225 9.61157C7.75225 9.7264 7.71742 9.78735 7.55952 9.94634C7.29666 10.2113 7.1787 10.509 7.09372 11.1255C6.99898 11.8158 6.73147 12.3038 5.98935 13.1385C5.55512 13.6274 5.48407 13.717 5.37447 13.914C5.23654 14.1618 5.19845 14.3009 5.18313 14.614C5.16687 14.9452 5.19845 15.1594 5.31084 15.4761C5.40837 15.753 5.51147 15.9363 5.77293 16.3019C5.9991 16.6181 6.12913 16.8531 6.12913 16.945C6.12913 17.0178 6.14492 17.0183 6.49509 16.9467C7.33335 16.7758 8.01371 16.4755 8.39685 16.1076C8.6337 15.8793 8.68943 15.7534 8.69129 15.4412C8.69222 15.2367 8.68432 15.1939 8.62302 15.0764C8.52364 14.8852 8.34205 14.7262 7.94266 14.4802C7.4188 14.1565 7.19496 13.8968 7.13365 13.5391C7.08257 13.2454 7.14155 13.0382 7.43088 12.4906C7.73089 11.9235 7.80519 11.6815 7.85581 11.11C7.88832 10.7408 7.93337 10.5951 8.05087 10.4785C8.17347 10.3562 8.28354 10.3151 8.58726 10.2776C9.08232 10.2166 9.39719 10.1009 9.65634 9.88583C9.88065 9.69858 9.97492 9.51883 9.98932 9.24767L10 9.0423L9.87461 8.91025C9.41949 8.43196 5.02802 5 5.00015 5C4.99458 5 5.14412 5.16915 5.33267 5.37583C7.01569 7.21967 8.30861 8.25619 8.92907 8.75436V8.75392ZM6.3841 14.9889C6.43344 14.9097 6.44819 14.8152 6.42519 14.7257C6.40218 14.6362 6.34326 14.5589 6.26103 14.5102C6.09848 14.4131 5.84584 14.4585 5.84584 14.5853C5.84599 14.5982 5.84916 14.6108 5.85513 14.6224L5.86117 14.6325C5.86765 14.641 5.87549 14.6485 5.88439 14.6546L5.90482 14.6683L5.9234 14.6772C6.0135 14.7195 6.02 14.7664 5.94894 14.8626C5.87696 14.9598 5.883 15.0459 5.9652 15.1038C6.09802 15.1978 6.2861 15.1462 6.38456 14.9889H6.3841Z" fill="#FF0A6F"/>
<path d="M9.00956 6.02881C8.98709 6.02129 9.00548 6.01659 9.05165 6.00906C9.21266 5.9818 9.59312 6.01847 9.85466 6.08663C10.4664 6.24552 11.0226 6.65168 11.6164 7.37373L11.7741 7.56553L11.9997 7.52604C12.9506 7.35916 13.9179 7.49173 14.7275 7.89976C14.9498 8.01211 15.3008 8.23541 15.3445 8.29276C15.3588 8.31109 15.3842 8.42908 15.4017 8.5546C15.4614 8.98943 15.4316 9.32272 15.3098 9.57187C15.2941 9.60281 15.2803 9.63502 15.2685 9.66824L15.2604 9.6955C15.2477 9.7505 15.2563 9.79422 15.2845 9.86614C15.32 9.95875 15.4193 10.0274 15.5174 10.0269C15.7185 10.0269 15.9346 9.672 16.0352 9.1784L16.0752 8.98191L16.1541 9.07969C16.5864 9.61512 16.9264 10.3452 16.9849 10.8646L17 11L16.9277 10.8768C16.8022 10.6653 16.6763 10.5205 16.5153 10.4044C16.2252 10.1947 15.9179 10.1233 15.1047 10.0763C14.3703 10.034 13.9547 9.9658 13.5428 9.81914C12.8411 9.56952 12.488 9.23717 11.6548 8.04408C11.285 7.51382 11.0561 7.22095 10.8289 6.98497C10.3119 6.44813 9.80399 6.16701 9.15382 6.05701C9.10539 6.05009 9.05726 6.04068 9.00956 6.02881Z" fill="#FF0A6F"/>
<path d="M15.6088 6.91662C15.6278 6.57643 15.6718 6.35234 15.7613 6.14714C15.7971 6.06615 15.8301 6 15.8354 6C15.8404 6 15.8247 6.05985 15.8008 6.1332C15.7361 6.33164 15.725 6.60343 15.7699 6.91977C15.8272 7.32116 15.8593 7.37875 16.2685 7.81209C16.4601 8.01548 16.6839 8.27197 16.7647 8.38222L16.9118 8.58201L16.7647 8.43937C16.5846 8.26387 16.1709 7.92323 16.0794 7.87419C16.0625 7.86392 16.0443 7.85635 16.0254 7.85169C16.0205 7.85071 16.0155 7.85071 16.0106 7.85169C15.9982 7.85484 15.9875 7.86429 15.9714 7.88139C15.9364 7.91738 15.929 7.97138 15.924 8.22652C15.9166 8.62431 15.8643 8.87945 15.7378 9.13504C15.6698 9.27319 15.6591 9.24349 15.7205 9.0878C15.767 8.97125 15.7716 8.9204 15.7712 8.53521C15.7703 7.76124 15.6817 7.57495 15.1617 7.25636C15.005 7.1614 14.8441 7.07505 14.6796 6.99762C14.5461 6.93597 14.4402 6.88242 14.4439 6.87837C14.4587 6.86307 14.9656 7.01652 15.1699 7.09796C15.4732 7.21901 15.5235 7.23476 15.5602 7.21991C15.5849 7.21046 15.5973 7.13576 15.6088 6.91662ZM9.00665 6.32219C8.95761 6.91977 9.18384 7.71894 9.54934 8.24047C9.83244 8.64456 10.2713 8.9582 10.5956 8.9888C10.8078 9.0086 10.8717 8.9393 10.7757 8.7944C10.6421 8.59281 10.4781 8.28187 10.4349 8.14913C10.3847 7.97026 10.3412 7.78922 10.3047 7.60645C10.1522 6.87027 10.0026 6.58363 9.65648 6.36584C9.53039 6.28664 9.2609 6.18269 9.10472 6.15299L9.0219 6.13725L9.00665 6.32219ZM15.1658 12.1198C13.4582 11.4075 12.857 10.7892 12.857 9.74567C12.857 9.59223 12.862 9.46668 12.8681 9.46668C12.8747 9.46668 12.9407 9.51708 13.0152 9.57918C13.3614 9.86717 13.7491 9.98956 14.8226 10.152C15.4539 10.2474 15.8095 10.3248 16.1371 10.4373C17.1796 10.7955 17.8245 11.5222 17.9782 12.5126C18.0227 12.8002 17.9963 13.3397 17.9242 13.6241C17.8665 13.8486 17.6922 14.2532 17.6461 14.2689C17.6399 14.2707 17.6337 14.2604 17.6292 14.2419C17.6223 14.2128 17.6183 14.1829 17.6172 14.1528C17.5999 13.7811 17.4186 13.4193 17.1145 13.148C16.7684 12.8398 16.3027 12.5945 15.1658 12.1198ZM13.8847 12.0415C13.9086 12.1153 13.9457 12.284 13.9671 12.4159C14.1039 13.2592 13.6766 13.9409 12.8455 14.205C12.784 14.2224 12.722 14.2374 12.6596 14.25C12.582 14.2664 12.5043 14.282 12.4264 14.2968L12.2731 14.3256L12.0753 14.3612C11.3962 14.4782 11.093 14.5614 10.7884 14.7135C10.5721 14.8215 10.3104 14.9826 10.3265 14.9988C10.3286 15.001 10.3393 15.0001 10.3558 14.9961C10.3764 14.9916 10.4052 14.9826 10.4357 14.9718C10.8197 14.8319 11.2475 14.7594 11.8969 14.7243C11.9904 14.7198 12.0885 14.7135 12.1808 14.7068L12.3036 14.6978L12.4281 14.6879L12.4837 14.6825L12.5484 14.6753C13.1269 14.5997 13.5283 14.4179 13.8398 14.0889C14.0137 13.9058 14.1171 13.7352 14.2004 13.4949C14.2531 13.342 14.2601 13.2857 14.2609 13.0153C14.2609 12.7399 14.2547 12.6895 14.1975 12.5203C14.1225 12.298 14.0343 12.1315 13.9222 12.001L13.841 11.9069L13.8847 12.0415Z" fill="#FF0A6F"/>
<path d="M15.0798 13.353C14.8368 12.9081 14.7811 12.4786 14.9141 12.0777C14.9282 12.0349 14.9512 12 14.9653 12C14.985 12.0043 15.0038 12.0114 15.021 12.021C15.0431 12.0313 15.0679 12.0448 15.0926 12.0586C15.2049 12.1228 15.4298 12.231 16.0286 12.5087C16.7763 12.8558 17.2023 13.124 17.4922 13.4311C17.7458 13.6997 17.9031 14.0055 17.9787 14.3788C18.0216 14.5899 17.9964 15.0987 17.9328 15.3114C17.7317 15.9826 17.2646 16.5095 16.5982 16.817C16.5353 16.848 16.4704 16.8755 16.4038 16.8994C16.4011 16.8994 16.402 16.8934 16.406 16.8827L16.4139 16.8621C16.4276 16.8304 16.4524 16.7825 16.4824 16.7286C16.7069 16.3296 16.7321 15.9422 16.5628 15.5103C16.459 15.246 16.2473 14.9239 15.8204 14.3788C15.3237 13.7448 15.2018 13.5765 15.0798 13.353ZM10.4972 14.8126C9.72742 14.9192 8.88205 15.2658 8.20239 15.754L8 15.8994L8.17765 15.9231C9.10565 16.046 9.35577 16.1553 9.99919 16.7195C10.3695 17.0444 10.4941 17.1165 10.8017 17.183C11.2524 17.2809 11.6974 17.101 11.8499 16.7583C11.918 16.6054 11.9091 16.3522 11.8309 16.225C11.6449 15.9219 11.1026 15.8241 10.841 16.046C10.6227 16.231 10.6864 16.5095 10.9577 16.5571C11.0196 16.5681 11.0182 16.5658 10.9418 16.5364C10.8229 16.4909 10.7716 16.4275 10.7708 16.3265C10.7694 16.0903 11.0872 15.9572 11.3832 16.0709C11.5998 16.1541 11.686 16.2627 11.686 16.4532C11.686 16.7464 11.3925 16.9679 11.0509 16.9315C10.8684 16.912 10.6453 16.8126 10.5251 16.6977C10.2241 16.4081 10.3417 15.9509 10.7624 15.7754C11.0823 15.6418 11.5079 15.6747 11.838 15.8586C12.2167 16.0697 12.3784 16.2627 12.7045 16.8966C12.811 17.1026 12.9476 17.3352 13.009 17.4128C13.3184 17.8067 13.6887 18 14.1354 18C14.3811 18 14.5667 17.9616 14.7996 17.8625C14.9729 17.7892 15.2181 17.6494 15.2004 17.6343C15.1956 17.6303 15.1235 17.649 15.0409 17.6767C14.5535 17.8384 14.0581 17.8273 13.77 17.6478C13.5888 17.5349 13.443 17.3102 13.3679 17.0293C13.3546 16.9806 13.3117 16.7658 13.272 16.5515C13.1721 16.0091 13.0762 15.7655 12.8521 15.4857C12.6232 15.1993 12.1822 14.9588 11.6895 14.8518C11.3824 14.7849 10.8291 14.7666 10.4972 14.8126Z" fill="#FF0A6F"/>
<path fill-rule="evenodd" clip-rule="evenodd" d="M10.0135 10.4636C10.0574 10.2635 10.1998 10.0724 10.346 10.017C10.4387 9.98163 10.6311 10.004 10.7214 10.0606C10.8968 10.1708 11.0237 10.4207 10.9963 10.6011C10.9626 10.8214 10.6729 10.9973 10.3398 10.9999C10.1697 11.0018 10.1068 10.9733 10.0419 10.8666C10.0018 10.8001 9.98662 10.5855 10.0135 10.464V10.4636ZM10.6767 10.1393C10.7641 10.205 10.7866 10.3026 10.7351 10.3922C10.6998 10.4541 10.5901 10.513 10.51 10.513C10.3901 10.513 10.2588 10.4078 10.2588 10.3117C10.2588 10.118 10.5103 10.0139 10.6767 10.1393Z" fill="#FF0A6F"/>
</g>
<defs>
<linearGradient id="paint0_linear_1_2963" x1="2.71714" y1="12" x2="24" y2="5.82171" gradientUnits="userSpaceOnUse">
<stop stop-color="#FFF0F6"/>
<stop offset="1" stop-color="#FFB3CF"/>
</linearGradient>
<clipPath id="clip0_1_2963">
<rect width="24" height="24" rx="12" fill="white"/>
</clipPath>
</defs>
</svg>
