<svg width="25" height="24" viewBox="0 0 25 24" fill="none" xmlns="http://www.w3.org/2000/svg">
<circle cx="12.5" cy="12" r="12" fill="#2775CA"/>
<path d="M12.5 20C14.6217 20 16.6566 19.1571 18.1569 17.6569C19.6571 16.1566 20.5 14.1217 20.5 12C20.5 9.87827 19.6571 7.84344 18.1569 6.34315C16.6566 4.84285 14.6217 4 12.5 4C10.3783 4 8.34344 4.84285 6.84315 6.34315C5.34285 7.84344 4.5 9.87827 4.5 12C4.5 14.1217 5.34285 16.1566 6.84315 17.6569C8.34344 19.1571 10.3783 20 12.5 20V20Z" fill="white"/>
<path d="M15.0714 13.28C15.0714 12.096 14.367 11.696 12.9417 11.52C11.9096 11.408 11.6966 11.136 11.6966 10.672C11.6966 10.192 12.0406 9.904 12.7287 9.904C13.3349 9.904 13.6789 10.096 13.8427 10.608C13.8919 10.704 13.9902 10.768 14.0885 10.768H14.6291C14.7765 10.768 14.8748 10.672 14.8748 10.528V10.496C14.7438 9.76 14.1212 9.056 13.3349 9.008V8.272C13.3349 8.128 13.2366 8.032 13.0727 8H12.614C12.4829 8 12.3519 8.096 12.3191 8.272V9.008C11.287 9.136 10.6153 9.904 10.6153 10.736C10.6153 11.84 11.287 12.272 12.7287 12.432C13.6789 12.592 13.9902 12.8 13.9902 13.328C13.9902 13.872 13.4987 14.24 12.8598 14.24C11.9751 14.24 11.6638 13.872 11.5491 13.36C11.5327 13.232 11.4345 13.168 11.3198 13.168H10.7464C10.7135 13.1656 10.6804 13.1702 10.6495 13.1814C10.6186 13.1926 10.5905 13.2102 10.5672 13.233C10.5439 13.2558 10.5258 13.2832 10.5143 13.3134C10.5029 13.3436 10.4982 13.3759 10.5006 13.408V13.44C10.6481 14.272 11.1887 14.832 12.3027 14.992V15.744C12.3027 15.872 12.4174 15.968 12.5812 16H13.0727C13.2202 16 13.3021 15.904 13.3349 15.744V15.008C14.367 14.848 15.0714 14.16 15.0714 13.264V13.28Z" fill="#2775CA"/>
<path d="M10.7071 16.8917C10.0983 16.65 9.54124 16.2846 9.06805 15.8166C8.59486 15.3486 8.21487 14.7873 7.95 14.1649C7.68513 13.5426 7.54061 12.8715 7.52476 12.1905C7.50891 11.5095 7.62206 10.8319 7.85767 10.1968C8.36706 8.73125 9.35401 7.63209 10.723 7.11581C10.8503 7.03254 10.914 6.94927 10.914 6.76608V6.26646C10.914 6.13323 10.8503 6.03331 10.723 6C10.6752 6 10.6116 6 10.5797 6.03331C9.83807 6.2839 9.15132 6.686 8.55929 7.2163C7.96725 7.7466 7.48171 8.39456 7.13079 9.12263C6.77987 9.85069 6.57056 10.6444 6.51499 11.4577C6.45942 12.271 6.55869 13.0878 6.80706 13.8607C7.07151 14.8141 7.55285 15.6864 8.20988 16.4028C8.8669 17.1192 9.68005 17.6584 10.5797 17.9742C10.7071 18.0408 10.8503 17.9742 10.8822 17.8243C10.914 17.791 10.914 17.7577 10.914 17.6911V17.1914C10.914 17.1082 10.8185 16.9583 10.7071 16.8917ZM14.432 6.03331C14.2887 5.96669 14.1614 6.03331 14.1136 6.16654L14.0977 6.31642V6.79939C14.0977 6.93262 14.1932 7.06585 14.2887 7.13247C16.8834 8.11505 18.1092 11.1294 17.1541 13.794C16.9315 14.497 16.5595 15.138 16.0659 15.6687C15.5724 16.1995 14.9702 16.6063 14.3047 16.8584C14.2419 16.8854 14.1886 16.9317 14.1516 16.9912C14.1146 17.0507 14.0958 17.1205 14.0977 17.1914V17.6911C14.0977 17.8243 14.1773 17.9409 14.3047 17.9742C14.3365 17.9742 14.4002 17.9742 14.432 17.9409C17.5839 16.8917 19.2075 13.4277 18.2047 10.1135C17.9346 9.16681 17.4508 8.30193 16.7942 7.59181C16.1376 6.8817 15.3274 6.34717 14.432 6.03331Z" fill="#2775CA"/>
</svg>
