<svg width="110" height="28" viewBox="0 0 110 28" fill="none" xmlns="http://www.w3.org/2000/svg">
<path fill-rule="evenodd" clip-rule="evenodd" d="M13.2614 0.00963912C10.3982 0.301791 7.90176 1.30142 5.72735 3.02642C5.11238 3.51429 3.99482 4.63559 3.50858 5.25261C1.96478 7.21167 0.996398 9.45015 0.602308 11.9705C0.513976 12.5354 0.5 12.8136 0.5 14.0039C0.5 15.1941 0.513976 15.4724 0.602308 16.0373C0.996398 18.5576 1.96478 20.7961 3.50858 22.7552C3.99482 23.3722 5.11238 24.4935 5.72735 24.9813C7.67986 26.5303 9.91088 27.5019 12.4228 27.8974C12.9858 27.986 13.2631 28 14.4494 28C15.6357 28 15.913 27.986 16.476 27.8974C18.9854 27.5024 21.221 26.5287 23.1715 24.9813C23.7865 24.4935 24.904 23.3722 25.3903 22.7552C26.9341 20.7961 27.9024 18.5576 28.2965 16.0373C28.3849 15.4724 28.3988 15.1941 28.3988 14.0039C28.3988 12.8136 28.3849 12.5354 28.2965 11.9705C27.9024 9.45015 26.9341 7.21167 25.3903 5.25261C24.904 4.63559 23.7865 3.51429 23.1715 3.02642C21.5584 1.7467 19.7697 0.866835 17.7807 0.374571C16.6486 0.0944332 16.0215 0.0200631 14.6591 0.00449725C13.9929 -0.00312206 13.3639 -0.000831591 13.2614 0.00963912ZM13.8205 3.65415C11.9865 3.8364 10.7582 4.20508 9.3713 4.98944C6.53514 6.59352 4.63522 9.43847 4.19408 12.7418C4.10836 13.3837 4.1207 14.7503 4.2184 15.4272C4.89193 20.0954 8.50601 23.6663 13.1915 24.2933C13.7608 24.3695 15.138 24.3695 15.7073 24.2933C15.9507 24.2607 16.3866 24.1818 16.6758 24.1178C20.584 23.2543 23.669 20.159 24.5296 16.2377C24.708 15.4253 24.7635 14.8947 24.7635 14.0039C24.7635 13.1131 24.708 12.5824 24.5296 11.7701C23.6071 7.56655 20.1466 4.35087 15.8936 3.74493C15.3981 3.67434 14.1621 3.62021 13.8205 3.65415ZM65.65 5.65733C63.7442 5.93148 62.1552 6.76311 60.794 8.19886C59.6526 9.40261 58.9567 10.7878 58.6525 12.4613C58.5123 13.233 58.5123 14.7748 58.6525 15.5464C59.0193 17.5645 59.9766 19.2011 61.5735 20.5406C62.8301 21.5945 64.2104 22.1819 65.8826 22.3741C66.6393 22.4611 67.9578 22.4063 68.6581 22.2586C70.3661 21.8986 71.6859 21.1501 72.9643 19.8165C74.4864 18.2287 75.2472 16.2916 75.2472 14.0039C75.2472 12.5783 74.9751 11.3775 74.384 10.1942C73.9988 9.42323 73.5832 8.83682 72.9643 8.19128C71.6892 6.86108 70.3674 6.11126 68.6581 5.74824C68.18 5.64671 67.9459 5.62619 67.0942 5.61124C66.4087 5.59922 65.9529 5.61376 65.65 5.65733ZM81.3036 5.61451C81.2652 5.62208 81.0765 5.65377 80.8843 5.685C79.6001 5.89352 78.3075 6.68112 77.626 7.67032C77.1182 8.40729 76.928 9.02081 76.8904 10.0426C76.8614 10.8306 76.9151 11.2679 77.1078 11.8144C77.3734 12.5672 77.8226 13.1186 78.5895 13.6332C79.4457 14.2076 80.1887 14.5338 81.7317 15.0127C84.6517 15.919 85.3827 16.4213 85.4404 17.561C85.4943 18.6267 84.9291 19.3278 83.7406 19.6699C83.4229 19.7614 83.2677 19.7747 82.5149 19.775C81.7729 19.7753 81.5948 19.7606 81.2337 19.6694C80.0365 19.3669 79.1587 18.6122 78.6481 17.4465C78.562 17.2499 78.4795 17.0898 78.465 17.0907C78.3722 17.0967 76.246 18.4032 76.2342 18.4615C76.2079 18.5907 76.542 19.286 76.8621 19.7684C77.7314 21.0785 79.0786 21.9381 80.8133 22.2893C81.5058 22.4295 83.2203 22.4412 83.9126 22.3105C85.654 21.9815 87.0433 21.0328 87.6836 19.7351C88.0376 19.0178 88.1983 18.0277 88.107 17.1272C88.0002 16.074 87.7965 15.6194 87.111 14.9053C86.5885 14.3611 86.2536 14.1026 85.7311 13.84C85.2244 13.5855 84.0103 13.1176 83.074 12.816C81.9437 12.4519 81.3105 12.2095 80.7801 11.9377C80.1989 11.64 79.9067 11.3773 79.7094 10.9751C79.5691 10.6892 79.5566 10.6271 79.5566 10.2186C79.5567 9.50316 79.7857 9.04175 80.3253 8.66985C81.0737 8.15403 82.4692 8.05507 83.4622 8.44735C84.2247 8.74862 84.9132 9.41799 85.3132 10.247C85.3834 10.3926 85.4357 10.4489 85.4835 10.4305C85.5857 10.3912 87.5623 9.23616 87.6143 9.18539C87.6736 9.12752 87.4688 8.71117 87.1353 8.21171C86.2046 6.81784 84.6924 5.8752 83.0103 5.6405C82.6908 5.5959 81.4911 5.57763 81.3036 5.61451ZM32.6191 11.6082C32.6194 17.8342 32.6183 17.8039 32.877 18.6318C33.4623 20.5049 34.9985 21.8182 37.1525 22.2868C37.7997 22.4276 39.5383 22.4407 40.1836 22.3096C41.412 22.0602 42.3916 21.569 43.1931 20.8006C43.9905 20.0363 44.4332 19.2409 44.6997 18.094C44.7957 17.6806 44.7976 17.5718 44.8129 11.7718L44.8284 5.87039H43.5007H42.173L42.1586 11.5381L42.1442 17.2059L42.0417 17.5705C41.7337 18.6656 41.03 19.369 39.9396 19.6718C39.6354 19.7562 39.4554 19.7706 38.6986 19.771C37.8643 19.7714 37.7895 19.764 37.3952 19.6427C36.8089 19.4622 36.5616 19.3167 36.1548 18.913C35.8875 18.6478 35.7597 18.4753 35.6341 18.2109C35.2759 17.456 35.3026 17.9647 35.2864 11.5849L35.2719 5.87039H33.9454H32.6189L32.6191 11.6082ZM46.5488 7.15585V8.44132H48.8316H51.1144V15.2894V22.1374H52.4422H53.7699V15.2894V8.44132H56.0528H58.3356V7.15585V5.87039H52.4422H46.5488V7.15585ZM90.2952 14.0039V22.1374H91.6229H92.9507V14.0039V5.87039H91.6229H90.2952V14.0039ZM100.446 5.99832C100.385 6.15791 94.8372 21.5518 94.7185 21.892L94.6329 22.1374H96.0864H97.5399L98.0989 20.502L98.6578 18.8667L102.082 18.8666L105.506 18.8665L106.065 20.4903L106.624 22.114L108.062 22.1264L109.5 22.1387L109.471 22.0329C109.455 21.9747 108.147 18.3195 106.565 13.9104L103.687 5.89376L102.092 5.88146L100.496 5.86917L100.446 5.99832ZM9.3713 11.615C9.3713 15.1894 9.39212 15.801 9.53902 16.5419C9.9011 18.3684 10.9697 19.4523 12.7987 19.8482C13.388 19.9757 14.8763 20.0272 15.543 19.943C17.4983 19.696 18.7144 18.7522 19.22 17.089C19.4971 16.1776 19.4935 16.2391 19.5142 11.9588L19.5333 8.02062H18.0193H16.5052L16.4861 11.7952C16.4717 14.6444 16.4524 15.6271 16.4077 15.8035C16.2343 16.4868 15.8489 16.9897 15.3468 17.1878C14.9837 17.3311 13.9979 17.3443 13.6341 17.2107C12.8525 16.9236 12.5268 16.3429 12.4461 15.0925C12.4215 14.7122 12.401 12.9656 12.4005 11.2109L12.3995 8.02062H10.8854H9.3713V11.615ZM65.8729 8.2801C65.079 8.40411 64.1367 8.80139 63.5069 9.27757C63.1362 9.55785 62.5542 10.1441 62.272 10.5214C61.8216 11.1239 61.4416 12.0308 61.2927 12.8588C61.1914 13.4217 61.1914 14.586 61.2927 15.1489C61.4416 15.977 61.8216 16.8838 62.272 17.4863C62.5542 17.8637 63.1362 18.4499 63.5069 18.7302C65.1165 19.9472 67.567 20.1511 69.4661 19.226C70.5608 18.6927 71.5862 17.619 72.0859 16.483C72.7425 14.9901 72.7425 13.0177 72.0859 11.5248C71.4623 10.107 70.1491 8.92648 68.6862 8.46852C67.8696 8.21288 66.7732 8.13944 65.8729 8.2801ZM100.822 12.6784C100.144 14.6231 99.5828 16.2427 99.5745 16.2777C99.5619 16.3305 99.9805 16.3411 102.079 16.3411C103.464 16.3411 104.598 16.3277 104.598 16.3113C104.598 16.2395 102.108 9.14248 102.083 9.14248C102.068 9.14248 101.5 10.7336 100.822 12.6784Z" fill="#898989"/>
</svg>
