<svg width="109" height="28" viewBox="0 0 109 28" fill="none" xmlns="http://www.w3.org/2000/svg">
<path fill-rule="evenodd" clip-rule="evenodd" d="M93.6379 0.0318536C88.4397 0.562465 83.9404 3.93874 82.0032 8.76249C81.4597 10.1155 81.1555 11.422 81.035 12.9192C81.0011 13.3409 80.989 15.4915 80.9984 19.4111L81.0125 25.2726L81.1231 25.5995C81.449 26.5631 82.0213 27.2328 82.8829 27.6588C83.6314 28.0288 83.2173 28.01 90.2174 27.9923C96.9614 27.9753 96.5755 27.989 97.9144 27.7197C100.473 27.2053 103.02 25.8318 104.92 23.9422C107.109 21.7659 108.492 19.0185 108.93 15.9784C109.023 15.3282 109.023 12.6586 108.93 12.0085C108.287 7.54018 105.527 3.64782 101.517 1.55279C100.125 0.825365 98.6299 0.349865 96.9345 0.0949516C96.3503 0.00714687 94.2701 -0.0326922 93.6379 0.0318536ZM24.7829 12.453V21.1875L26.0104 21.175L27.2378 21.1626L27.2497 12.4405L27.2614 3.71839H26.0222H24.7829V12.453ZM55.4739 3.8118C55.0373 3.90241 54.6192 4.21388 54.4289 4.59037C54.2785 4.88783 54.2468 5.38934 54.3573 5.72179C54.4618 6.03606 54.786 6.38901 55.121 6.55336C55.3496 6.66545 55.4445 6.68413 55.7852 6.68413C56.1259 6.68413 56.2207 6.66545 56.4493 6.55336C56.8082 6.37733 57.1189 6.02793 57.2173 5.68984C57.3767 5.14232 57.2132 4.52134 56.8185 4.17525C56.474 3.87312 55.9113 3.72101 55.4739 3.8118ZM60.508 6.77754V8.34215H59.6195H58.7311V9.3463V10.3504H59.5962H60.4612L60.4616 14.2153C60.4618 16.5221 60.4812 18.2495 60.5095 18.5004C60.713 20.3016 61.526 21.0434 63.5072 21.2355C64.0523 21.2884 65.1547 21.2694 65.4062 21.2029C65.5109 21.1751 65.5114 21.1707 65.5114 20.2287V19.2824L64.7983 19.2595C64.2843 19.2431 64.016 19.2132 63.8373 19.1526C63.4899 19.0347 63.2038 18.7689 63.0709 18.4405L62.9629 18.1735L62.9497 14.262L62.9365 10.3504H64.2005H65.4646V9.3463V8.34215H64.2021H62.9395V6.77754V5.21294H61.7238H60.508V6.77754ZM93.9886 5.74855C92.6876 5.9647 91.6546 6.48854 90.6793 7.42678C89.6245 8.44149 89.0338 9.52443 88.8214 10.8328C88.7301 11.3945 88.7313 12.4651 88.8238 12.9946C89.1988 15.1424 90.9093 17.0397 92.9543 17.576C93.4688 17.7109 94.4883 17.7697 95.029 17.6956C95.2026 17.6718 95.3447 17.6613 95.3447 17.6723C95.3447 17.6833 94.3451 19.0463 93.1235 20.7011C91.9019 22.356 90.9024 23.7203 90.9024 23.7329C90.9024 23.7455 91.3576 24.0936 91.9138 24.5065C92.7391 25.1189 92.9358 25.2456 92.9822 25.1948C93.0578 25.112 99.4738 16.4383 99.7477 16.0484C100.684 14.7168 101.24 13.2801 101.314 12.0044C101.405 10.4159 100.851 8.97878 99.67 7.74218C98.7132 6.74055 97.6642 6.12522 96.4202 5.83598C95.7922 5.68998 94.5992 5.6471 93.9886 5.74855ZM16.1753 8.22782C14.0638 8.60972 12.6015 10.0259 12.0882 12.1858C11.923 12.8808 11.8769 13.4313 11.8773 14.7038C11.8778 16.2493 11.9645 16.9579 12.2616 17.8465C12.8477 19.5998 14.0716 20.7444 15.8594 21.2112C16.5153 21.3825 17.788 21.4266 18.5258 21.3037C20.4677 20.9801 21.8215 19.8826 22.3955 18.1666C22.6261 17.4772 22.7352 17.5427 21.3577 17.5445L20.177 17.5462L20.0147 17.9065C19.8907 18.1817 19.7747 18.3452 19.5237 18.5981C18.9894 19.1365 18.3601 19.3738 17.4649 19.3743C16.5896 19.3749 15.9965 19.1376 15.402 18.5491C15.087 18.2373 14.986 18.0981 14.8074 17.7298C14.5298 17.1573 14.4042 16.6381 14.3694 15.92L14.3417 15.3478H18.5394H22.7371L22.7132 14.2386C22.6975 13.5066 22.6632 12.9864 22.6123 12.709C22.375 11.4146 21.9126 10.4394 21.1694 9.66566C20.4269 8.89266 19.5557 8.43528 18.43 8.22749C17.9414 8.1373 16.6746 8.13749 16.1753 8.22782ZM33.804 8.22782C31.4602 8.65171 29.9098 10.284 29.4523 12.8092C29.3655 13.2878 29.3516 13.5435 29.3494 14.694C29.3466 16.1082 29.38 16.4832 29.5795 17.2807C30.1331 19.4936 31.6806 20.9483 33.856 21.3007C34.4369 21.3947 35.5853 21.3948 36.1279 21.3008C38.5662 20.8783 40.1158 19.1969 40.517 16.5383C40.6162 15.8813 40.6154 13.606 40.5158 12.9361C40.1324 10.3574 38.5337 8.64162 36.1279 8.22693C35.608 8.1373 34.3017 8.13777 33.804 8.22782ZM46.4541 8.22357C44.2757 8.61883 42.7563 10.1593 42.2707 12.465C42.0674 13.4299 42.0338 15.4521 42.2021 16.5844C42.3996 17.9126 42.9093 19.0048 43.7302 19.8589C44.3825 20.5374 45.107 20.9541 46.1023 21.223C46.5182 21.3354 46.623 21.3442 47.5787 21.3467C48.6756 21.3496 49.0079 21.3065 49.6968 21.0723C51.1706 20.5712 52.1748 19.4857 52.5615 17.9757C52.6114 17.7809 52.6522 17.5719 52.6522 17.5113V17.4013L51.4811 17.4137L50.3099 17.4262L50.202 17.7348C49.8421 18.7638 48.8888 19.3168 47.5787 19.2565C46.7559 19.2186 46.1737 18.9638 45.6489 18.4119C45.138 17.8747 44.8168 17.1687 44.673 16.2669C44.5756 15.6557 44.607 13.3413 44.7191 12.8725C45.0579 11.4558 45.7786 10.6234 46.924 10.3256C47.3141 10.2242 48.0245 10.2239 48.3747 10.3249C49.2029 10.5637 49.9167 11.2578 50.1516 12.0527L50.2076 12.242L51.4065 12.2545C52.5265 12.2661 52.6054 12.2615 52.6048 12.1844C52.6045 12.139 52.565 11.9127 52.5169 11.6815C52.1461 9.89592 50.6627 8.56699 48.6597 8.22604C48.153 8.13978 46.9236 8.13838 46.4541 8.22357ZM94.4796 8.23225C93.476 8.39352 92.5918 8.97453 92.0043 9.85865C91.3486 10.8453 91.2912 12.3312 91.8681 13.384C92.6927 14.8887 94.306 15.5845 95.9831 15.1586C97.1838 14.8538 98.2352 13.7691 98.5053 12.5564C98.6245 12.0212 98.5805 11.0979 98.4124 10.6073C98.0431 9.52947 97.1197 8.64764 96.0391 8.34093C95.6987 8.2443 94.7959 8.18139 94.4796 8.23225ZM2.51189e-08 8.37718C0.000140307 8.39642 0.986883 11.281 2.19279 14.7874L4.38535 21.1626H5.75095H7.11654L9.35755 14.8574C10.5901 11.3896 11.611 8.50468 11.6261 8.44644L11.6537 8.34061L10.3976 8.35303L9.14147 8.3655L7.46341 13.4009C6.54045 16.1704 5.76806 18.419 5.74702 18.398C5.72593 18.377 5.03345 16.1741 4.20817 13.5027C3.3829 10.8314 2.68593 8.5774 2.65942 8.49394L2.61111 8.34215H1.30542C0.587313 8.34215 -0.000140257 8.35793 2.51189e-08 8.37718ZM54.5341 14.7524L54.546 21.1626L55.7735 21.175L57.0009 21.1875V14.7648V8.34215H55.7616H54.5223L54.5341 14.7524ZM66.3998 8.39329C66.3998 8.42215 67.4347 11.3349 68.6996 14.866L70.9994 21.2861L70.8932 21.6914C70.5902 22.8477 70.2028 23.3981 69.5097 23.6572C69.1235 23.8015 68.4763 23.8659 67.9079 23.8166L67.4286 23.775V24.7423V25.7095L67.6974 25.7479C68.2001 25.8196 69.6144 25.7932 70.0144 25.7047C71.6721 25.3379 72.6509 24.2785 73.5486 21.8799C73.7727 21.2809 78.2179 8.6008 78.266 8.42313C78.287 8.34551 78.2105 8.3414 76.9676 8.35308L75.6468 8.3655L74.0491 13.433C72.326 18.8976 72.3938 18.6881 72.3599 18.6542C72.3472 18.6415 71.6142 16.3214 70.7311 13.4983L69.1253 8.3655L67.7626 8.35312C66.777 8.34416 66.3998 8.35527 66.3998 8.39329ZM16.6426 10.185C15.6556 10.4359 14.8992 11.1589 14.57 12.166C14.4315 12.5897 14.3553 12.9927 14.3553 13.3014V13.5264H17.3285H20.3019L20.2687 13.1644C20.1359 11.7132 19.3952 10.6733 18.1907 10.2466C17.8479 10.1252 17.0091 10.0918 16.6426 10.185ZM34.4271 10.2122C33.0281 10.4632 32.1392 11.5518 31.8937 13.3147C31.8291 13.7785 31.8291 15.7028 31.8937 16.1667C31.9741 16.7438 32.1115 17.2087 32.3421 17.6831C32.5211 18.0512 32.6224 18.1907 32.9372 18.5018C33.5297 19.0873 34.1087 19.316 35.0001 19.3162C36.1909 19.3166 37.0734 18.7729 37.5938 17.7186C38.0049 16.8857 38.1097 16.2775 38.1097 14.7246C38.1097 13.5825 38.0368 12.9298 37.8457 12.3587C37.4798 11.266 36.7706 10.5316 35.8418 10.2838C35.4936 10.1909 34.7545 10.1535 34.4271 10.2122Z" fill="#898989"/>
</svg>
