<svg width="83" height="22" viewBox="0 0 83 22" fill="none" xmlns="http://www.w3.org/2000/svg">
<rect width="83" height="22" rx="8" fill="#FFD15B" fill-opacity="0.3"/>
<path d="M23.223 15L21.206 7.72727H22.3601L23.777 13.3594H23.8445L25.3182 7.72727H26.4616L27.9354 13.3629H28.0028L29.4162 7.72727H30.5739L28.5533 15H27.4489L25.9183 9.55256H25.8615L24.331 15H23.223ZM32.5394 15.1207C32.1938 15.1207 31.8813 15.0568 31.6019 14.929C31.3226 14.7988 31.1012 14.6106 30.9379 14.3643C30.7769 14.1181 30.6964 13.8163 30.6964 13.4588C30.6964 13.151 30.7556 12.8977 30.8739 12.6989C30.9923 12.5 31.1521 12.3426 31.3533 12.2266C31.5546 12.1106 31.7795 12.023 32.0281 11.9638C32.2766 11.9046 32.5299 11.8596 32.788 11.8288C33.1147 11.791 33.3799 11.7602 33.5835 11.7365C33.7871 11.7105 33.935 11.669 34.0273 11.6122C34.1197 11.5554 34.1658 11.4631 34.1658 11.3352V11.3104C34.1658 11.0002 34.0782 10.7599 33.9031 10.5895C33.7302 10.419 33.4722 10.3338 33.1289 10.3338C32.7714 10.3338 32.4897 10.4131 32.2837 10.5717C32.0801 10.728 31.9393 10.902 31.8612 11.0938L30.8633 10.8665C30.9817 10.535 31.1545 10.2675 31.3817 10.0639C31.6114 9.85795 31.8754 9.70881 32.1737 9.61648C32.4719 9.52178 32.7856 9.47443 33.1147 9.47443C33.3325 9.47443 33.5633 9.50047 33.8072 9.55256C34.0534 9.60227 34.283 9.6946 34.4961 9.82955C34.7115 9.96449 34.8879 10.1574 35.0252 10.4084C35.1625 10.657 35.2312 10.9801 35.2312 11.3778V15H34.1942V14.2543H34.1516C34.083 14.3916 33.98 14.5265 33.8427 14.6591C33.7054 14.7917 33.529 14.9018 33.3136 14.9893C33.0981 15.0769 32.8401 15.1207 32.5394 15.1207ZM32.7702 14.2685C33.0638 14.2685 33.3147 14.2105 33.5231 14.0945C33.7338 13.9785 33.8936 13.8269 34.0025 13.6399C34.1138 13.4505 34.1694 13.2481 34.1694 13.0327V12.3295C34.1315 12.3674 34.0581 12.4029 33.9492 12.4361C33.8427 12.4669 33.7208 12.4941 33.5835 12.5178C33.4461 12.5391 33.3124 12.5592 33.1822 12.5781C33.052 12.5947 32.9431 12.6089 32.8555 12.6207C32.6495 12.6468 32.4613 12.6906 32.2908 12.7521C32.1228 12.8137 31.9878 12.9025 31.886 13.0185C31.7866 13.1321 31.7369 13.2836 31.7369 13.473C31.7369 13.7358 31.8339 13.9347 32.0281 14.0696C32.2222 14.2022 32.4696 14.2685 32.7702 14.2685ZM36.6454 15V9.54545H37.6717V10.4119H37.7285C37.8279 10.1184 38.0031 9.88755 38.2541 9.71946C38.5074 9.54901 38.7939 9.46378 39.1135 9.46378C39.1797 9.46378 39.2579 9.46615 39.3478 9.47088C39.4402 9.47562 39.5124 9.48153 39.5645 9.48864V10.5043C39.5218 10.4924 39.4461 10.4794 39.3372 10.4652C39.2283 10.4486 39.1194 10.4403 39.0105 10.4403C38.7595 10.4403 38.5358 10.4936 38.3393 10.6001C38.1452 10.7043 37.9913 10.8499 37.8777 11.0369C37.764 11.2216 37.7072 11.4323 37.7072 11.669V15H36.6454ZM41.5451 11.7614V15H40.4833V9.54545H41.5025V10.4332H41.57C41.6954 10.1444 41.8919 9.91241 42.1594 9.73722C42.4293 9.56203 42.7691 9.47443 43.1786 9.47443C43.5503 9.47443 43.8758 9.55256 44.1552 9.70881C44.4345 9.86269 44.6512 10.0923 44.805 10.3977C44.9589 10.7031 45.0359 11.0807 45.0359 11.5305V15H43.9741V11.6584C43.9741 11.263 43.8711 10.9541 43.6651 10.7315C43.4592 10.5066 43.1763 10.3942 42.8164 10.3942C42.5702 10.3942 42.3512 10.4474 42.1594 10.554C41.9701 10.6605 41.8197 10.8168 41.7085 11.0227C41.5996 11.2263 41.5451 11.4725 41.5451 11.7614ZM46.4599 15V9.54545H47.5217V15H46.4599ZM46.9961 8.70384C46.8114 8.70384 46.6528 8.64228 46.5202 8.51918C46.39 8.3937 46.3249 8.24455 46.3249 8.07173C46.3249 7.89654 46.39 7.7474 46.5202 7.62429C46.6528 7.49882 46.8114 7.43608 46.9961 7.43608C47.1808 7.43608 47.3382 7.49882 47.4684 7.62429C47.601 7.7474 47.6673 7.89654 47.6673 8.07173C47.6673 8.24455 47.601 8.3937 47.4684 8.51918C47.3382 8.64228 47.1808 8.70384 46.9961 8.70384ZM50.0119 11.7614V15H48.9501V9.54545H49.9693V10.4332H50.0368C50.1622 10.1444 50.3587 9.91241 50.6262 9.73722C50.8961 9.56203 51.2359 9.47443 51.6454 9.47443C52.0171 9.47443 52.3426 9.55256 52.622 9.70881C52.9013 9.86269 53.118 10.0923 53.2718 10.3977C53.4257 10.7031 53.5027 11.0807 53.5027 11.5305V15H52.4409V11.6584C52.4409 11.263 52.3379 10.9541 52.1319 10.7315C51.926 10.5066 51.6431 10.3942 51.2832 10.3942C51.037 10.3942 50.818 10.4474 50.6262 10.554C50.4368 10.6605 50.2865 10.8168 50.1752 11.0227C50.0663 11.2263 50.0119 11.4725 50.0119 11.7614ZM57.2136 17.1591C56.7804 17.1591 56.4075 17.1023 56.095 16.9886C55.7849 16.875 55.5315 16.7247 55.335 16.5376C55.1386 16.3506 54.9918 16.1458 54.8947 15.9233L55.8074 15.5469C55.8713 15.651 55.9565 15.7611 56.063 15.8771C56.1719 15.9955 56.3187 16.0961 56.5034 16.179C56.6904 16.2618 56.9307 16.3033 57.2243 16.3033C57.6267 16.3033 57.9593 16.205 58.2221 16.0085C58.4849 15.8144 58.6163 15.5043 58.6163 15.0781V14.0057H58.5488C58.4849 14.1217 58.3926 14.2507 58.2718 14.3928C58.1535 14.5348 57.9901 14.6579 57.7818 14.7621C57.5734 14.8662 57.3024 14.9183 56.9686 14.9183C56.5377 14.9183 56.1494 14.8177 55.8038 14.6165C55.4605 14.4129 55.1883 14.1134 54.987 13.718C54.7882 13.3203 54.6887 12.8314 54.6887 12.2514C54.6887 11.6714 54.787 11.1742 54.9835 10.7599C55.1824 10.3456 55.4546 10.0284 55.8002 9.80824C56.1459 9.5857 56.5377 9.47443 56.9757 9.47443C57.3142 9.47443 57.5877 9.53125 57.796 9.64489C58.0043 9.75616 58.1665 9.88636 58.2825 10.0355C58.4009 10.1847 58.492 10.3161 58.5559 10.4297H58.6341V9.54545H59.6745V15.1207C59.6745 15.5895 59.5656 15.9742 59.3478 16.2749C59.13 16.5755 58.8353 16.7981 58.4636 16.9425C58.0943 17.0869 57.6776 17.1591 57.2136 17.1591ZM57.2029 14.0376C57.5083 14.0376 57.7664 13.9666 57.9771 13.8246C58.1902 13.6802 58.3511 13.4742 58.46 13.2067C58.5713 12.9368 58.627 12.6136 58.627 12.2372C58.627 11.8703 58.5725 11.5471 58.4636 11.2678C58.3547 10.9884 58.1949 10.7706 57.9842 10.6143C57.7735 10.4557 57.5131 10.3764 57.2029 10.3764C56.8833 10.3764 56.617 10.4593 56.4039 10.625C56.1909 10.7884 56.0299 11.0109 55.921 11.2926C55.8145 11.5743 55.7612 11.8892 55.7612 12.2372C55.7612 12.5947 55.8156 12.9084 55.9245 13.1783C56.0334 13.4482 56.1944 13.6589 56.4075 13.8104C56.6229 13.9619 56.8881 14.0376 57.2029 14.0376Z" fill="#FFD15B"/>
</svg>
