<svg width="71" height="28" viewBox="0 0 71 28" fill="none" xmlns="http://www.w3.org/2000/svg">
<path fill-rule="evenodd" clip-rule="evenodd" d="M28.8381 0.825149C26.9127 1.27681 25.3339 1.64804 25.3295 1.65005C25.3204 1.65425 24.5206 5.94475 24.5206 5.98924C24.5206 6.00521 23.954 6.01828 23.2613 6.01828H22.0019L21.9779 6.12332C21.9647 6.18111 21.7531 7.34176 21.5077 8.70259C21.2624 10.0634 21.0509 11.2132 21.0379 11.2578C21.0159 11.3329 21.1036 11.3396 22.2665 11.3511L23.5188 11.3636L22.7385 15.495C21.9164 19.848 21.7549 20.7849 21.6757 21.6573C21.606 22.4274 21.6153 23.5682 21.6954 24.0626C22.0343 26.1517 23.4279 27.4598 25.7803 27.8967C26.0218 27.9416 26.5657 27.9797 27.1677 27.9941C28.5778 28.0276 29.8164 27.9185 30.8312 27.6714C31.197 27.5823 31.2399 27.5603 31.2628 27.4509C31.3116 27.2169 32.1285 22.1468 32.1286 22.0774C32.1287 22.018 32.0632 22.012 31.6969 22.038C31.0145 22.0864 30.3492 22.0818 30.0504 22.0266C29.2106 21.8713 28.8147 21.3221 28.8147 20.3122C28.8147 19.592 28.9197 18.9479 29.6721 15.0516L30.3842 11.3636L32.4664 11.3514L34.5486 11.3393L34.5748 11.2114C34.5892 11.141 34.8011 10.0016 35.0456 8.67924C35.2902 7.35693 35.5022 6.21748 35.5168 6.14712L35.5431 6.01926L33.4735 6.00707L31.4039 5.99494L31.9438 2.99552C32.3937 0.496776 32.4716 -0.00325199 32.4112 1.58626e-05C32.3713 0.00220999 30.7634 0.373531 28.8381 0.825149ZM44.8476 5.60438C38.9913 6.10754 34.6103 10.8489 33.8323 17.5258C33.4208 21.0572 34.1597 23.74 36.0703 25.6513C37.6953 27.2768 39.7976 28.019 42.575 27.9478C44.3778 27.9015 45.7891 27.5653 47.3214 26.817C50.9754 25.0326 53.4611 21.3262 54.1317 16.6621C54.2998 15.4929 54.3514 13.8685 54.25 12.9373C54.1021 11.5798 53.6224 10.1518 52.9684 9.12274C51.3317 6.54725 48.4426 5.29552 44.8476 5.60438ZM63.8253 5.59845C61.4481 5.79793 59.3958 6.58917 57.9273 7.87213C56.8011 8.85608 56.0128 10.2021 55.691 11.6903C55.5715 12.243 55.524 13.5324 55.6047 14.0359C55.7766 15.1093 56.2914 16.0984 57.1507 17.0065C57.8495 17.745 58.4831 18.2175 59.8336 19.0068C61.4306 19.9403 61.9276 20.4756 61.926 21.2605C61.9232 22.6762 60.2014 23.1033 57.4266 22.3765C56.7464 22.1984 55.8204 21.8663 55.1718 21.568C54.9486 21.4654 54.7657 21.3962 54.7652 21.4143C54.7647 21.4324 54.3996 22.5554 53.9539 23.9099L53.1434 26.3725L53.4809 26.5829C54.3174 27.1044 55.684 27.5443 57.1932 27.7779C58.0925 27.9171 60.0186 27.9514 61.0206 27.8459C63.6527 27.5691 65.6643 26.7262 67.0928 25.3015C68.0973 24.2997 68.6461 23.2718 68.9564 21.8108C69.0947 21.1597 69.1325 19.9165 69.0316 19.3394C68.7984 18.0051 67.9824 16.7646 66.6049 15.6499C66.152 15.2835 64.928 14.4696 64.4045 14.1868C63.0178 13.4377 62.4142 12.7508 62.5571 12.0845C62.6626 11.5922 62.918 11.2849 63.3985 11.0721C63.8103 10.8897 64.2012 10.8284 64.9586 10.8275C66.0503 10.8262 67.1306 11.0254 68.1191 11.4103C68.3608 11.5044 68.5997 11.5849 68.6498 11.5892C68.7308 11.5961 68.8243 11.3276 69.4762 9.2161C69.8805 7.90663 70.2245 6.77735 70.2405 6.70658C70.2682 6.58488 70.2526 6.57022 69.951 6.43358C69.1643 6.07743 68.0853 5.80699 66.9016 5.66946C66.1373 5.58062 64.4906 5.54262 63.8253 5.59845ZM4.80068 6.07663C4.77263 6.15805 3.70354 11.7803 3.70354 11.8465C3.70354 11.8868 4.63578 11.9004 7.39474 11.9004C9.42492 11.9004 11.079 11.9166 11.0704 11.9363C11.0619 11.956 10.7713 12.2329 10.4248 12.5516C9.45774 13.4408 7.81337 15.1058 7.05677 15.9619C6.68234 16.3855 5.16241 18.1692 3.67913 19.9256L0.982286 23.1192L0.616353 25.2943C0.41509 26.4906 0.250233 27.4957 0.25 27.5277C0.249673 27.5742 1.92344 27.5861 8.4644 27.5861C12.9825 27.5861 16.6792 27.5747 16.6792 27.5607C16.6792 27.5249 17.7527 21.8908 17.784 21.7623L17.8095 21.6573H13.6932C11.4292 21.6573 9.58381 21.6405 9.59239 21.62C9.60094 21.5995 9.92313 21.2986 10.3083 20.9513C11.9506 19.4708 12.7072 18.6435 16.5147 14.1646C17.999 12.4186 19.2654 10.9336 19.3291 10.8647C19.4344 10.7505 19.4797 10.537 19.8338 8.48383C20.0478 7.2433 20.2312 6.18111 20.2415 6.12332L20.2603 6.01828H12.5405C6.40659 6.01828 4.81669 6.03028 4.80068 6.07663ZM44.6376 11.0142C43.4319 11.2238 42.3921 12.4951 41.6598 14.6547C41.0993 16.3075 40.8188 18.0433 40.8693 19.5468C40.8977 20.3909 40.9905 20.8237 41.2616 21.3766C41.7991 22.4726 43.0097 22.8499 44.1475 22.2761C44.4374 22.1299 45.1112 21.4592 45.3787 21.0504C46.4058 19.4808 47.1569 16.5445 47.17 14.0479C47.1736 13.3596 47.1585 13.1667 47.0739 12.8235C46.8129 11.7634 46.2109 11.1454 45.3129 11.0156C44.9494 10.9631 44.9322 10.9631 44.6376 11.0142Z" fill="#898989"/>
</svg>
